<?xml version="1.0"?>
<svg version="1.1" xmlns="http://www.w3.org/2000/svg" xmlns:xlink="http://www.w3.org/1999/xlink">
    <use xlink:href="#alarms"></use>
    <symbol id="alarms" viewBox="0 0 48 48">
        <title>alarms</title>
        <path d="M24,15.6409 C29.1296,15.6409 33.2879,19.7992 33.2879,24.9288 C33.2879,30.0583 29.1296,34.2167 24,34.2167 C18.8704,34.2167 14.7121,30.0583 14.7121,24.9288 C14.7121,19.7992 18.8704,15.6409 24,15.6409 M24,17.9629 C20.1528,17.9629 17.0341,21.0816 17.0341,24.9288 C17.0341,28.7759 20.1528,31.8947 24,31.8947 C27.8472,31.8947 30.9659,28.7759 30.9659,24.9288 C30.9659,21.0816 27.8472,17.9629 24,17.9629 M23.7678,19.8204 C24.2807,19.8204 24.6966,20.2363 24.6966,20.7492 L24.6966,24.2322 L28.1796,24.2322 C28.6925,24.2322 29.1083,24.648 29.1083,25.161 L29.1083,25.6254 C29.1083,26.1383 28.6925,26.5542 28.1796,26.5542 L24,26.5542 C23.5356,26.4768 23.0712,26.3994 22.8003,26.1285 C22.5294,25.8576 22.452,25.3932 22.3746,24.9288 L22.3746,20.7492 C22.3746,20.2363 22.7904,19.8204 23.3034,19.8204 L23.7678,19.8204 M30.5015,13.7833 C32.5533,13.7833 34.2167,15.4467 34.2167,17.4985 C34.2167,18.3836 33.9071,19.1965 33.3904,19.8347 C32.179,17.6064 30.1975,15.8573 27.8032,14.9447 C28.4804,14.2295 29.4389,13.7833 30.5015,13.7833 M17.4985,13.7834 C18.5611,13.7834 19.5196,14.2295 20.1968,14.9447 C17.8025,15.8573 15.821,17.6064 14.6097,19.8347 C14.0929,19.1965 13.7833,18.3836 13.7833,17.4985 C13.7833,15.4467 15.4467,13.7834 17.4985,13.7834 Z"/>
    </symbol>
</svg>
