<?xml version="1.0"?>
<svg version="1.1" xmlns="http://www.w3.org/2000/svg" xmlns:xlink="http://www.w3.org/1999/xlink">
    <use xlink:href="#buildings"></use>
    <symbol id="buildings" viewBox="0 0 48 48">
        <title>buildings</title>
        <path d="M34.2019,36.6313 L34.2019,20.3911 L24,20.3911 L24,9.56421 L13.7984,9.56421 L13.7984,36.6313 L12.3409,36.6313 L12.3409,38.4358 L35.6591,38.4358 L35.6591,36.6313 L34.2019,36.6313 M15.2557,11.3688 L18.1705,11.3688 L18.1705,14.9777 L15.2557,14.9777 L15.2557,11.3688 M15.2557,16.7822 L18.1705,16.7822 L18.1705,20.3911 L15.2557,20.3911 L15.2557,16.7822 M15.2557,22.1956 L18.1705,22.1956 L18.1705,25.8044 L15.2557,25.8044 L15.2557,22.1956 M15.2557,27.6089 L18.1705,27.6089 L18.1705,31.2177 L15.2557,31.2177 L15.2557,27.6089 M21.0853,36.6313 L16.7131,36.6313 L16.7131,33.0225 L21.0853,33.0225 L21.0853,36.6313 L21.0853,36.6313 M22.5427,31.2177 L19.6278,31.2177 L19.6278,27.609 L22.5427,27.609 L22.5427,31.2177 M22.5427,25.8044 L19.6278,25.8044 L19.6278,22.1956 L22.5427,22.1956 L22.5427,25.8044 M22.5427,20.3911 L19.6278,20.3911 L19.6278,16.7822 L22.5427,16.7822 L22.5427,20.3911 M22.5427,14.9777 L19.6278,14.9777 L19.6278,11.3688 L22.5427,11.3688 L22.5427,14.9777 M25.4575,22.1956 L28.3723,22.1956 L28.3723,25.8044 L25.4575,25.8044 L25.4575,22.1956 M25.4575,27.6089 L28.3723,27.6089 L28.3723,31.2177 L25.4575,31.2177 L25.4575,27.6089 M31.287,36.6313 L26.9147,36.6313 L26.9147,33.0225 L31.287,33.0225 L31.287,36.6313 M32.7444,31.2177 L29.8295,31.2177 L29.8295,27.609 L32.7444,27.609 L32.7444,31.2177 M32.7444,25.8044 L29.8295,25.8044 L29.8295,22.1956 L32.7444,22.1956 L32.7444,25.8044 Z"/>
    </symbol>
</svg>
