<?xml version="1.0"?>
<svg version="1.1" xmlns="http://www.w3.org/2000/svg" xmlns:xlink="http://www.w3.org/1999/xlink">
    <use xlink:href="#build"></use>
    <symbol id="build" viewBox="0 0 48 48">
        <title>build</title>
        <path d="M39.6321,36.3431 L39.6321,34.4165 C39.6321,33.1071 38.8083,32.3418 37.3989,32.3418 L23.3619,32.3418 C21.4676,32.3418 20.4907,33.1753 20.4907,34.4165 L20.4907,36.9175 C20.4907,38.2139 21.428,38.8624 23.3619,38.8624 L37.3989,38.8624 C38.8083,38.8624 39.6321,37.9916 39.6321,36.3431 M37.0799,36.4913 L23.0429,36.4913 L23.0429,34.7129 L37.0799,34.7129 L37.0799,36.4913 Z"/>
        <path d="M28.7853,18.708 L28.7853,19.3008 L28.7853,24.3814 L28.7853,24.382 L29.5982,26.4141 L28.2303,26.4141 L14.8836,9.13762 L11.9429,10.7856 L12.8342,12.2372 L12.8342,19.8935 L11.8925,19.8935 L12.5254,24.043 L12.8023,24.043 L12.8342,24.043 L12.8342,25.2967 C12.26,25.5391 11.6219,26.0596 11.6219,26.9944 C11.6219,27.6222 11.8855,28.0804 12.2708,28.3863 L8.81073,31.1563 L9.78822,31.1563 L12.8528,28.7028 C13.1303,28.8036 13.427,28.8593 13.7205,28.8593 C14.0153,28.8593 14.3081,28.7864 14.5723,28.6542 L17.8946,31.1563 L18.8906,31.1563 L18.8976,31.148 L15.0757,28.27 C15.3348,27.9801 15.5064,27.5913 15.5064,27.0939 C15.5064,26.7661 15.2206,26.5012 14.8684,26.5012 C14.5162,26.5012 14.2304,26.7661 14.2304,27.0939 C14.2304,27.3068 14.1685,27.4401 14.0875,27.5261 L13.9127,27.3945 C13.7934,27.305 13.6204,27.3062 13.5037,27.4004 L13.2645,27.5919 C13.0577,27.503 12.8982,27.3287 12.8982,26.995 C12.8982,26.4591 13.4706,26.3293 13.5784,26.3103 C13.8859,26.2611 14.1105,26.0145 14.1105,25.7252 L14.1105,24.0429 L14.5572,24.0429 L14.8187,24.0429 L15.7113,19.8934 L15.0676,19.8934 L14.7484,19.8934 L14.7484,15.5911 L22.4049,29.2812 L22.4049,29.3755 L22.4049,29.5539 L22.4049,29.9707 L24.9571,29.9707 L24.9571,31.1562 L33.8897,31.1562 L34.5277,31.1562 L34.5277,29.9707 L37.7179,29.9707 L38.3559,29.9707 L38.3559,18.708 L28.7853,18.708 M23.2662,21.7904 L23.2739,21.8005 L20.6707,23.3744 L22.0093,20.184 L23.2662,21.7904 M14.1103,19.8936 L13.7913,19.8936 L13.4723,19.8936 L13.4723,13.3552 L14.1103,14.4732 L14.1103,19.8936 M14.6654,13.8508 L13.5642,11.9077 L15.2812,10.8591 L14.6654,13.8508 M16.1585,12.0695 L17.3822,14.0422 L15.4069,15.2243 L16.1585,12.0695 M16.3543,16.3576 L18.2155,15.2331 L17.4869,18.3126 L16.3543,16.3576 M19.0022,16.2379 L20.3746,18.0974 L18.3112,19.3251 L19.0022,16.2379 M18.7904,20.7418 L21.0963,19.2741 L19.7831,22.5414 L18.7904,20.7418 M22.2033,26.3785 L21.0912,24.5551 L23.8519,22.7234 L22.2033,26.3785 M23.0697,27.6738 L24.957,23.8948 L26.4922,25.8397 L23.0697,27.6738 M35.8038,24.6358 L31.3375,24.6358 L31.3375,21.0791 L35.8038,21.0791 L35.8038,24.6358 Z"/>
        <path d="M9.00596,34.7129 L8.36795,34.7129 L8.36795,35.8985 L18.5766,35.8985 L18.5766,34.7129 L17.3006,34.7129 L17.3006,33.5274 L17.3006,32.9346 L18.5766,32.9346 L18.5766,31.7491 L8.36795,31.7491 L8.36795,32.9346 L9.64403,32.9346 L9.64403,34.7129 L9.00596,34.7129 Z"/>
    </symbol>
</svg>
