<?xml version="1.0"?>
<svg version="1.1" xmlns="http://www.w3.org/2000/svg" xmlns:xlink="http://www.w3.org/1999/xlink">
    <use xlink:href="#cloud"></use>
    <symbol id="cloud" viewBox="0 0 48 48">
        <title>cloud</title>
        <path d="M36.3069,25.081 C35.5203,24.1452 34.5224,23.5431 33.3143,23.2746 C33.6986,22.7103 33.8902,22.0924 33.8902,21.421 C33.8902,20.4717 33.5389,19.6615 32.8367,18.9899 C32.1344,18.3185 31.2867,17.9826 30.2939,17.9826 C29.3947,17.9826 28.6173,18.2602 27.9619,18.8154 C27.4095,17.5439 26.5312,16.5141 25.3278,15.7261 C24.1242,14.9383 22.7823,14.544 21.3025,14.544 C19.3169,14.544 17.6215,15.2159 16.2165,16.559 C14.8115,17.9019 14.1092,19.5229 14.1092,21.4212 C14.1092,21.5554 14.1186,21.7479 14.1373,21.9986 C13.0509,22.4822 12.1751,23.2142 11.5101,24.1949 C10.8452,25.1752 10.5126,26.2566 10.5126,27.4387 C10.5126,29.0951 11.1285,30.5122 12.3601,31.6896 C13.5917,32.8672 15.0739,33.456 16.8067,33.456 L32.0927,33.456 C33.5816,33.456 34.8531,32.9519 35.9069,31.9449 C36.9606,30.9376 37.4875,29.7221 37.4875,28.2982 C37.4874,27.0895 37.0938,26.0166 36.3069,25.081 Z"/>
    </symbol>
</svg>
