<?xml version="1.0"?>
<svg version="1.1" xmlns="http://www.w3.org/2000/svg" xmlns:xlink="http://www.w3.org/1999/xlink">
    <use xlink:href="#code"></use>
    <symbol id="code" viewBox="0 0 48 48">
        <title>code</title>
        <path d="M36.5576,23.5876 L30.5079,16.5776 C30.3197,16.3596 29.9869,16.3596 29.7988,16.5776 L28.4872,18.0974 C28.2913,18.3243 28.2913,18.6923 28.4872,18.9193 L32.8709,23.9982 L28.4874,29.078 C28.2915,29.305 28.2915,29.6729 28.4874,29.9 L29.799,31.4197 C29.8931,31.5287 30.0207,31.5903 30.1537,31.5903 C30.2864,31.5903 30.4143,31.5287 30.5084,31.4197 L36.5576,24.41 C36.7535,24.1828 36.7535,23.8145 36.5576,23.5876 Z"/>
        <path d="M21.2171,29.078 L16.8341,23.9988 L21.2179,18.9199 C21.312,18.8109 21.3648,18.6633 21.3648,18.5089 C21.3648,18.3548 21.3122,18.2069 21.2179,18.0979 L19.9063,16.5782 C19.8122,16.4692 19.6845,16.4079 19.5516,16.4079 C19.4187,16.4079 19.291,16.4692 19.197,16.5782 L13.1469,23.5875 C12.951,23.8145 12.951,24.1825 13.1469,24.4098 L19.1967,31.4194 C19.2908,31.5284 19.4184,31.59 19.5513,31.59 C19.6843,31.59 19.812,31.5284 19.9061,31.4194 L21.2176,29.8996 C21.4135,29.6729 21.4135,29.305 21.2171,29.078 Z"/>
        <path d="M28.2925,14.2193 C28.2288,14.0839 28.1215,13.9833 27.994,13.9398 L26.9308,13.5762 C26.6654,13.4849 26.386,13.6613 26.3077,13.9691 L21.3717,33.3382 C21.334,33.4862 21.3485,33.6451 21.412,33.7803 C21.4755,33.916 21.5831,34.0163 21.7105,34.0602 L22.7738,34.4238 C22.8212,34.44 22.8691,34.4479 22.916,34.4479 C23.1324,34.4479 23.3324,34.284 23.3969,34.0308 L28.3329,14.6614 C28.3706,14.5135 28.3562,14.3545 28.2925,14.2193 Z"/>
    </symbol>
</svg>
