<?xml version="1.0"?>
<svg version="1.1" xmlns="http://www.w3.org/2000/svg" xmlns:xlink="http://www.w3.org/1999/xlink">
    <use xlink:href="#components"></use>
    <symbol id="components" viewBox="0 0 48 48">
        <title>components</title>
        <path d="M16.58,28.5424 L16.58,20.7118 L23.47,24.4698 L23.47,32.3102 L16.58,28.5424 Z"/>
        <path d="M31.42,20.7118 L31.42,28.5424 L24.53,32.3102 L24.53,24.4698 L31.42,20.7118 Z"/>
        <path d="M24,15.4 L31.2875,19.4471 L24,23.4941 L16.7125,19.4471 L24,15.4 M14.99,29.8176 L18.9691,32.0274 L17.9381,32.6 L17.8636,32.6 L13.4,30.1212 L13.4,17.8789 L17.8636,15.4001 L17.9381,15.4001 L18.9691,15.9726 L14.99,18.1824 L14.99,29.8176 M33.0099,29.8176 L33.01,18.1824 L29.0308,15.9726 L30.0619,15.4 L30.1363,15.4 L34.6,17.8789 L34.5999,30.1212 L30.1363,32.6 L30.0619,32.6 L29.0308,32.0274 L33.0099,29.8176 Z"/>
    </symbol>
</svg>
