<?xml version="1.0"?>
<svg version="1.1" xmlns="http://www.w3.org/2000/svg" xmlns:xlink="http://www.w3.org/1999/xlink">
    <use xlink:href="#connection"></use>
    <symbol id="connection" viewBox="0 0 48 48">
        <title>connection</title>
        <path d="M25.1895,26.1568 L25.1894,30.4703 L27.5684,30.4703 C28.2254,30.4703 28.7579,31.022 28.7579,31.7027 L28.7579,34.1676 C28.7579,34.8482 28.2253,35.4 27.5684,35.4 L20.4316,35.4 C19.7746,35.4 19.2421,34.8482 19.2421,34.1676 L19.2421,31.7027 C19.2421,31.022 19.7746,30.4703 20.4316,30.4703 L22.8105,30.4703 L22.8105,26.1568 L25.1895,26.1568 M29.3526,31.7027 L35.3,31.7027 L35.3,34.1676 L29.3526,34.1676 L29.3526,31.7027 M18.6474,31.7027 L18.6474,34.1676 L12.7,34.1676 L12.7,31.7027 L18.6474,31.7027 M12.7,12.6 L35.3,12.6 L35.3,18.1459 L12.7,18.1459 L12.7,12.6 M34.1105,13.8324 L32.9211,13.8324 L32.9211,16.9135 L34.1105,16.9135 L34.1105,13.8324 M31.7316,13.8324 L30.5421,13.8324 L30.5421,16.9135 L31.7316,16.9135 L31.7316,13.8324 M29.3526,13.8324 L28.1632,13.8324 L28.1632,16.9135 L29.3526,16.9135 L29.3526,13.8324 M13.8895,15.6811 L13.8895,16.9135 L15.0789,16.9135 L15.0789,15.6811 L13.8895,15.6811 M12.7,19.3784 L35.3,19.3784 L35.3,24.9243 L12.7,24.9243 L12.7,19.3784 M34.1105,20.6108 L32.9211,20.6108 L32.9211,23.6919 L34.1105,23.6919 L34.1105,20.6108 M31.7316,20.6108 L30.5421,20.6108 L30.5421,23.6919 L31.7316,23.6919 L31.7316,20.6108 M29.3526,20.6108 L28.1632,20.6108 L28.1632,23.6919 L29.3526,23.6919 L29.3526,20.6108 M13.8895,22.4595 L13.8895,23.6919 L15.0789,23.6919 L15.0789,22.4595 L13.8895,22.4595 Z"/>
    </symbol>
</svg>
