<?xml version="1.0"?>
<svg version="1.1" xmlns="http://www.w3.org/2000/svg" xmlns:xlink="http://www.w3.org/1999/xlink">
    <use xlink:href="#datalogging"></use>
    <symbol id="datalogging" viewBox="0 0 48 48">
        <title>datalogging</title>
        <path d="M15.5708,19.9906 L25.0536,19.9906 L23.2474,21.8694 L16.1729,21.8694 L16.1729,29.3847 L31.8271,29.3847 L31.8271,21.8694 L28.6661,21.8694 L30.4724,19.9906 L32.4292,19.9906 C33.0942,19.9906 33.6333,20.5514 33.6333,21.2432 L33.6333,30.0109 C33.6333,30.7027 33.0942,31.2635 32.4292,31.2635 L15.5708,31.2635 C14.9058,31.2635 14.3667,30.7027 14.3667,30.0109 L14.3667,21.2432 C14.3667,20.5514 14.9058,19.9906 15.5708,19.9906 M30.4881,16.9995 C30.6566,17.1861 30.7409,17.3871 30.7409,17.6027 L30.676,17.92 L30.4881,18.2059 L26.8766,21.9624 L25.965,22.9106 L25.0906,23.8202 L24.3078,24.6345 L23.656,25.3088 L23.1886,25.7913 L22.9567,26.0326 L22.5798,26.3909 L22.0462,26.8288 L21.4629,27.1979 C21.265,27.3009 21.0887,27.3523 20.9341,27.3523 C20.8134,27.3523 20.7168,27.3146 20.6441,27.2389 C20.5714,27.1633 20.5351,27.0604 20.5351,26.9301 C20.5351,26.7693 20.5846,26.5871 20.6836,26.3836 L21.0384,25.7768 L21.456,25.2219 L21.7969,24.8335 L29.3283,16.9995 L29.6032,16.8041 L29.9082,16.7365 C30.1154,16.7365 30.3087,16.8242 30.4881,16.9995 M20.0642,27.2389 L20.6441,27.8421 L19.4844,28.4453 L20.0642,27.2389 Z"/>
    </symbol>
</svg>
