<?xml version="1.0"?>
<svg version="1.1" xmlns="http://www.w3.org/2000/svg" xmlns:xlink="http://www.w3.org/1999/xlink">
    <use xlink:href="#datasources"></use>
    <symbol id="datasources" viewBox="0 0 48 48">
        <title>datasources</title>
        <path d="M24,14.4 C28.6944,14.4 32.5,15.418 32.5,16.6756 L32.5,17.6842 C32.5,18.9399 28.6944,19.9579 24,19.9579 C19.3056,19.9579 15.5,18.9399 15.5,17.6842 L15.5,16.6737 C15.5,15.418 19.3056,14.4 24,14.4 M32.5,31.3263 C32.5,32.582 28.6944,33.6 24,33.6 C19.3056,33.6 15.5,32.582 15.5,31.3263 L15.5,28.2947 C15.5,29.5505 19.3056,30.5684 24,30.5684 C28.692,30.5684 32.496,29.5515 32.5,28.2967 L32.5,31.3263 M32.5,26.7789 C32.5,28.0347 28.6944,29.0526 24,29.0526 C19.3056,29.0526 15.5,28.0347 15.5,26.7789 L15.5,23.7474 C15.5,25.0031 19.3056,26.0211 24,26.0211 C28.692,26.0211 32.496,25.0042 32.5,23.7493 L32.5,26.7789 M32.5,22.2316 C32.5,23.4873 28.6944,24.5053 24,24.5053 C19.3056,24.5053 15.5,23.4873 15.5,22.2316 L15.5,19.2 C15.5,20.4557 19.3056,21.4737 24,21.4737 C28.692,21.4737 32.496,20.4568 32.5,19.2019 L32.5,22.2316 Z"/>
    </symbol>
</svg>
