<?xml version="1.0"?>
<svg version="1.1" xmlns="http://www.w3.org/2000/svg" xmlns:xlink="http://www.w3.org/1999/xlink">
    <use xlink:href="#drawer"></use>
    <symbol id="drawer" viewBox="0 0 48 48">
        <title>drawer</title>
        <path d="M35.4,17.3639 C35.4,17.6707 35.1231,17.9196 34.7814,17.9196 L13.2186,17.9196 C12.8769,17.9196 12.6,17.6707 12.6,17.3639 L12.6,15.8557 C12.6,15.5488 12.8769,15.3 13.2186,15.3 L34.7814,15.3 C35.1231,15.3 35.4,15.5488 35.4,15.8557 L35.4,17.3639 M35.2233,32.1443 C35.2233,32.4512 34.9464,32.7 34.6047,32.7 L16.7535,32.7 C16.4118,32.7 16.1349,32.4512 16.1349,32.1443 L16.1349,30.6361 C16.1349,30.3293 16.4118,30.0804 16.7535,30.0804 L34.6047,30.0804 C34.9464,30.0804 35.2233,30.3293 35.2233,30.6361 L35.2233,32.1443 M35.4,22.291 C35.4,22.5979 35.1231,22.8466 34.7814,22.8466 L21.4372,22.8466 C21.0956,22.8466 20.8186,22.5979 20.8186,22.291 L20.8186,20.7827 C20.8186,20.4758 21.0956,20.2271 21.4372,20.2271 L34.7814,20.2271 C35.1231,20.2271 35.4,20.4758 35.4,20.7827 L35.4,22.291 M35.2233,27.2505 C35.2233,27.5574 34.9464,27.8062 34.6047,27.8062 L24.4419,27.8062 C24.1003,27.8062 23.8233,27.5574 23.8233,27.2505 L23.8233,25.7424 C23.8233,25.4355 24.1003,25.1867 24.4419,25.1867 L34.6047,25.1867 C34.9464,25.1867 35.2233,25.4355 35.2233,25.7424 L35.2233,27.2505 Z"/>
    </symbol>
</svg>
