<?xml version="1.0"?>
<svg version="1.1" xmlns="http://www.w3.org/2000/svg" xmlns:xlink="http://www.w3.org/1999/xlink">
    <use xlink:href="#error"></use>
    <symbol id="error" viewBox="0 0 48 48">
        <title>error</title>
        <path d="M23.9999,13.6988 C18.477,13.6988 13.9997,18.3109 13.9997,24 C13.9997,29.6888 18.4769,34.3013 23.9997,34.3013 C29.5225,34.3013 34.0002,29.6888 34.0002,24 C34.0002,18.3109 29.5226,13.6988 23.9999,13.6988 M27.7722,27.9261 C27.3729,28.3371 26.7261,28.3371 26.3272,27.9261 L24.0517,25.5822 L21.6725,28.0329 C21.2735,28.4438 20.6266,28.4438 20.2277,28.0329 C19.8284,27.6214 19.8284,26.9553 20.2277,26.544 L22.6066,24.0935 L20.3916,21.812 C19.9927,21.4006 19.9927,20.7345 20.3916,20.3233 C20.7907,19.9122 21.4377,19.9122 21.8369,20.3233 L24.0517,22.6048 L26.1632,20.4297 C26.5623,20.0187 27.2095,20.0185 27.6082,20.4297 C28.0075,20.8411 28.0075,21.5077 27.6082,21.9184 L25.497,24.0934 L27.7723,26.4374 C28.1713,26.8483 28.1715,27.515 27.7722,27.9261 Z"/>
    </symbol>
</svg>
