<?xml version="1.0"?>
<svg version="1.1" xmlns="http://www.w3.org/2000/svg" xmlns:xlink="http://www.w3.org/1999/xlink">
    <use xlink:href="#flow"></use>
    <symbol id="flow" viewBox="0 0 48 48">
        <title>flow</title>
        <path d="M13.9974,21.475 L18.9987,21.475 L18.9987,23.1589 L19.8323,23.1589 C20.6659,22.5976 22.3329,22.0363 23.2591,20.8903 C24.1852,19.7443 25.204,18.0137 26.1765,17.0314 C27.1476,16.0505 28.0726,15.8159 28.9975,15.5823 L28.9975,13.8957 L33.9988,13.8957 L33.9988,18.9474 L28.9975,18.9474 L28.9975,17.2662 C28.0919,17.4998 27.1863,17.7344 26.2211,18.7153 C25.2544,19.6976 24.2278,21.4282 23.292,22.5742 L22.7765,23.1589 L29.0013,23.1589 L29.0013,21.475 L34.0026,21.475 L34.0026,26.5267 L29.0013,26.5267 L29.0013,24.8428 L22.7766,24.8428 C22.9456,25.0199 23.1172,25.2135 23.292,25.4275 C24.2278,26.5735 25.2544,28.3041 26.2211,29.2864 C27.1877,30.2687 28.0945,30.5026 29.0013,30.7364 L29.0013,29.0525 L34.0026,29.0525 L34.0026,34.1043 L29.0013,34.1043 L29.0013,32.4204 C28.0751,32.1865 27.149,31.9526 26.1765,30.9703 C25.204,29.9881 24.1852,28.2574 23.2591,27.1114 C22.3329,25.9654 20.6659,25.4041 19.8323,24.8428 L18.9987,24.8428 L18.9987,26.5267 L13.9974,26.5267 L13.9974,21.475 Z"/>
    </symbol>
</svg>
