<?xml version="1.0"?>
<svg version="1.1" xmlns="http://www.w3.org/2000/svg" xmlns:xlink="http://www.w3.org/1999/xlink">
    <use xlink:href="#gears"></use>
    <symbol id="gears" viewBox="0 0 48 48">
        <title>gears</title>
        <path d="M27.9131,27.0572 C27.9708,26.4599 27.9534,25.8649 27.8658,25.2838 L29.2289,24.6852 C29.1002,24.0346 28.8976,23.3928 28.6169,22.7717 C28.3361,22.1511 27.9873,21.5736 27.5831,21.0436 L26.2191,21.6418 C25.8395,21.1895 25.4022,20.779 24.9131,20.4212 L25.4478,19.0487 C24.8893,18.6786 24.2858,18.3659 23.6415,18.1224 C22.9999,17.8796 22.3409,17.7118 21.6707,17.6188 L21.1355,18.9927 C20.5292,18.9359 19.9251,18.9531 19.3354,19.0394 L18.7314,17.703 C17.3821,17.9642 16.1212,18.528 15.0388,19.3336 L15.6388,20.6613 C15.1787,21.0353 14.762,21.4665 14.399,21.948 L13.0094,21.4229 C12.6302,21.9718 12.3123,22.5669 12.0647,23.2012 C11.8192,23.8355 11.6511,24.4865 11.5567,25.1424 L12.9499,25.6693 C12.8922,26.2665 12.9097,26.8616 12.9973,27.4426 L11.6341,28.0408 C11.7629,28.6919 11.9654,29.3332 12.2462,29.9543 C12.5274,30.5754 12.8757,31.1525 13.2803,31.6824 L14.6435,31.0842 C15.0231,31.537 15.4604,31.9476 15.95,32.3053 L15.4152,33.6787 C15.9737,34.0492 16.5773,34.3615 17.2215,34.605 C17.8631,34.8478 18.5222,35.0156 19.1924,35.1086 L19.7276,33.7346 C20.3338,33.791 20.9378,33.7738 21.5276,33.6875 L22.1316,35.0235 C23.4809,34.7623 24.7427,34.1985 25.8247,33.3928 L25.2242,32.0652 C25.6839,31.6912 26.101,31.2604 26.464,30.7785 L27.8528,31.3035 C28.2319,30.7547 28.5498,30.1596 28.7975,29.5257 C29.0447,28.8914 29.2124,28.24 29.3067,27.5836 L27.9131,27.0572 M24.2098,27.7916 C23.409,29.8478 21.0684,30.8741 18.9809,30.0852 C16.8961,29.2967 15.853,26.9911 16.6533,24.9354 C17.454,22.8796 19.7946,21.8533 21.8808,22.6413 C23.9674,23.4298 25.01,25.7362 24.2098,27.7916 Z"/>
        <path d="M35.4612,16.0677 C35.4588,15.8017 35.4286,15.5416 35.3789,15.2893 L36.4183,14.6839 C36.1565,13.7387 35.646,12.8951 34.9526,12.2318 L33.9106,12.8385 C33.5078,12.5053 33.0422,12.2458 32.534,12.0748 L32.5229,10.8843 C32.0603,10.7644 31.5764,10.698 31.0761,10.7031 C30.5757,10.7083 30.0936,10.7855 29.6328,10.914 L29.6439,12.105 C29.1389,12.2864 28.6786,12.5558 28.2816,12.8969 L27.2281,12.3118 C26.5479,12.9892 26.0529,13.8431 25.808,14.7936 L26.8589,15.3774 C26.8139,15.6312 26.7882,15.8909 26.7906,16.1573 C26.793,16.4238 26.8237,16.6834 26.8734,16.9358 L25.8335,17.541 C26.0958,18.4863 26.6067,19.3303 27.2992,19.9932 L28.3413,19.3865 C28.7445,19.7197 29.2097,19.9793 29.7179,20.1502 L29.7289,21.3413 C30.1919,21.4607 30.6754,21.5274 31.1758,21.5223 C31.6761,21.5172 32.1592,21.44 32.619,21.3115 L32.6079,20.1205 C33.113,19.9391 33.5736,19.6697 33.9703,19.3286 L35.0233,19.9137 C35.7043,19.2363 36.199,18.3824 36.4433,17.4319 L35.3929,16.848 C35.4384,16.5939 35.4637,16.3342 35.4612,16.0677 M31.1451,18.1058 C30.0273,18.1173 29.1127,17.2342 29.1025,16.1336 C29.0924,15.0329 29.9904,14.1308 31.1082,14.1193 C32.2246,14.1078 33.1391,14.9908 33.1492,16.0915 C33.1595,17.1922 32.2615,18.0943 31.1451,18.1058 Z"/>
    </symbol>
</svg>
