<?xml version="1.0"?>
<svg version="1.1" xmlns="http://www.w3.org/2000/svg" xmlns:xlink="http://www.w3.org/1999/xlink">
    <use xlink:href="#help"></use>
    <symbol id="help" viewBox="0 0 48 48">
        <title>help</title>
        <path d="M25.3792,26.8586 L22.6207,26.8586 C22.6207,24 24.2758,23.1425 25.3792,22.5708 C25.793,22.4278 26.0688,22.2849 26.3446,21.999 C26.4826,21.8561 26.7584,21.5703 26.4826,20.9986 C26.2067,20.2839 25.3792,19.5693 24.1379,19.5693 C22.207,19.5693 21.9311,21.2844 21.7932,21.7132 L19.0347,21.2844 C19.1726,19.7122 20.4139,16.7108 24,16.7108 C26.2067,16.7108 28.1377,17.9971 28.9652,19.8551 C29.5168,21.4274 29.2411,22.9995 28.1377,24.1429 C27.586,24.7146 27.0343,25.0005 26.4826,25.1434 C25.655,25.7151 25.3792,25.4293 25.3792,26.8586 Z"/>
        <path d="M24,13.9952 C29.379,13.9952 33.6544,18.4259 33.6544,24 C33.6544,29.574 29.379,34.0048 24,34.0048 C18.6209,34.0048 14.3454,29.574 14.3454,24 C14.3454,18.4259 18.6209,13.9952 24,13.9952 M24,12.5659 C17.9313,12.5659 12.9661,17.7113 12.9661,24 C12.9661,30.2888 17.9313,35.4341 24,35.4341 C30.0686,35.4341 35.0339,30.2888 35.0339,24 C35.0339,17.7113 30.0686,12.5659 24,12.5659 Z"/>
        <path d="M22.4828,28.2878 L25.2413,28.2878 L25.2413,31.1463 L22.4828,31.1463 L22.4828,28.2878 Z"/>
    </symbol>
</svg>
