<?xml version="1.0"?>
<svg version="1.1" xmlns="http://www.w3.org/2000/svg" xmlns:xlink="http://www.w3.org/1999/xlink">
    <use xlink:href="#information"></use>
    <symbol id="information" viewBox="0 0 48 48">
        <title>information</title>
        <path d="M31.7786,16.1511 C27.4829,11.8169 20.518,11.8164 16.2219,16.1511 C11.9262,20.4859 11.9266,27.514 16.2219,31.8493 C20.5176,36.183 27.4824,36.1835 31.7786,31.8493 C36.0738,27.514 36.0733,20.4864 31.7786,16.1511 M25.4345,28.8262 C25.4345,29.6259 24.7922,30.274 23.9997,30.274 C23.2073,30.274 22.565,29.6259 22.565,28.8262 L22.565,23.035 C22.565,22.2353 23.2073,21.5872 23.9997,21.5872 C24.7922,21.5872 25.4345,22.2353 25.4345,23.035 L25.4345,28.8262 M23.9744,20.5602 C23.148,20.5602 22.597,19.9695 22.6142,19.2403 C22.597,18.4758 23.148,17.903 23.9911,17.903 C24.8348,17.903 25.3685,18.4763 25.3862,19.2403 C25.3857,19.9695 24.8352,20.5602 23.9744,20.5602 Z"/>
    </symbol>
</svg>
