<?xml version="1.0"?>
<svg version="1.1" xmlns="http://www.w3.org/2000/svg" xmlns:xlink="http://www.w3.org/1999/xlink">
    <use xlink:href="#languages"></use>
    <symbol id="languages" viewBox="0 0 48 48">
        <title>languages</title>
        <path d="M17.6427,14.4987 L18.4374,14.4987 C18.8762,14.4987 19.232,14.8531 19.232,15.2904 L19.232,32.7095 C19.232,33.1468 18.8762,33.5013 18.4374,33.5013 L17.6427,33.5013 C17.2038,33.5013 16.848,33.1468 16.848,32.7095 L16.848,15.2904 C16.848,14.8531 17.2038,14.4987 17.6427,14.4987 M20.0267,16.874 C20.8213,16.3461 21.616,15.8183 22.9405,15.9503 C24.2649,16.0822 26.1191,16.8741 27.576,16.8741 C29.0329,16.8741 30.0924,16.0822 31.1519,15.2904 L31.1519,22.4163 C30.0924,23.2081 29.0329,23.9999 27.576,23.9999 C26.1191,23.9999 24.2649,23.2081 22.9405,23.0761 C21.616,22.9442 20.8213,23.472 20.0267,23.9999 L20.0267,16.874 Z"/>
    </symbol>
</svg>
