<?xml version="1.0"?>
<svg version="1.1" xmlns="http://www.w3.org/2000/svg" xmlns:xlink="http://www.w3.org/1999/xlink">
    <use xlink:href="#language"></use>
    <symbol id="language" viewBox="0 0 48 48">
        <title>language</title>
        <path d="M21.5617,24.7257 L21.5617,23.9574 C21.1142,23.6651 20.6909,23.3181 20.3007,22.9066 C19.1706,23.9525 18.0888,24.6149 17.9667,24.6892 L17.8638,24.75 L17.2409,23.7966 L17.3426,23.7345 C17.3553,23.726 18.4561,23.0576 19.5685,22.014 C18.5477,20.5881 18.1549,19.1513 18.1396,19.0892 L18.1104,18.9796 L19.2481,18.6996 L19.2761,18.8104 C19.2786,18.8226 19.6028,19.972 20.3909,21.1556 C21.1702,20.2484 21.624,19.3742 21.7397,18.5498 L16.9612,18.5498 L16.9612,17.3261 L19.5951,17.3261 L19.5951,16.6454 L20.8231,16.6454 L20.8231,17.3249 L23.4571,17.3249 L23.4571,18.5498 L22.927,18.5498 C22.8037,19.6956 22.1961,20.8828 21.1168,22.0822 C21.2617,22.2381 21.4104,22.3805 21.5617,22.5169 L21.5617,22.4378 L21.5617,21.9409 C21.5617,21.5318 21.9075,21.2006 22.3346,21.2006 L25.7732,21.2006 L25.7732,15.3754 C25.7732,15.2731 25.6881,15.1903 25.58,15.1903 L14.4658,15.1903 C14.359,15.1903 14.2726,15.2731 14.2726,15.3754 L14.2726,26.0201 C14.2726,26.1236 14.359,26.2052 14.4658,26.2052 L21.5617,26.2052 L21.5617,24.7257 Z"/>
        <path d="M27.9101,25.0508 L27.8885,25.0508 C27.7818,25.4563 27.6775,25.9701 27.5605,26.3634 L27.1385,27.8088 L28.7097,27.8088 L28.2686,26.3634 C28.1415,25.9592 28.0144,25.4551 27.9101,25.0508 Z"/>
        <path d="M33.534,21.7948 L22.4211,21.7948 C22.3143,21.7948 22.2278,21.8776 22.2278,21.9799 L22.2278,32.6258 C22.2278,32.7281 22.3143,32.8097 22.4211,32.8097 L33.534,32.8097 C33.642,32.8097 33.7274,32.7281 33.7274,32.6258 L33.7274,21.9799 C33.7274,21.8789 33.642,21.7948 33.534,21.7948 M29.4914,30.7068 L28.9436,28.9583 L26.9084,28.9583 L26.4012,30.7068 L24.7359,30.7068 L26.9084,23.9001 L29.0161,23.9001 L31.2191,30.7068 L29.4914,30.7068 Z"/>
    </symbol>
</svg>
