<?xml version="1.0"?>
<svg version="1.1" xmlns="http://www.w3.org/2000/svg" xmlns:xlink="http://www.w3.org/1999/xlink" width="48" height="48">
    <desc iVinci="yes" version="4.6" gridStep="8" showGrid="yes" snapToGrid="no" codePlatform="0"/>
    <g id="Layer1" name="Layer 1" opacity="1">
        <g id="Shape1">
            <desc shapeID="1" type="0" basicInfo-basicType="0" basicInfo-roundedRectRadius="12" basicInfo-polygonSides="6" basicInfo-starPoints="5" bounding="rect(-51.0002,-204,102,408.001)" text="" font-familyName="" font-pixelSize="20" font-bold="0" font-underline="0" font-alignment="1" strokeStyle="0" markerStart="0" markerEnd="0" shadowEnabled="0" shadowOffsetX="0" shadowOffsetY="2" shadowBlur="4" shadowOpacity="160" blurEnabled="0" blurRadius="4" transform="matrix(-0.0509801,0,0,0.0499999,24,24)" pers-center="0,0" pers-size="0,0" pers-start="0,0" pers-end="0,0" locked="0" mesh="" flag=""/>
            <path id="shapePath1" d="M24,18.9 C22.57,18.9 21.4,17.7525 21.4,16.35 C21.4,14.9476 22.57,13.8 24,13.8 C25.43,13.8 26.6,14.9476 26.6,16.35 C26.6,17.7525 25.43,18.9 24,18.9 M24,21.45 C25.43,21.45 26.6,22.5976 26.6,24 C26.6,25.4025 25.43,26.55 24,26.55 C22.57,26.55 21.4,25.4025 21.4,24 C21.4,22.5976 22.57,21.45 24,21.45 M24,29.1 C25.43,29.1 26.6,30.2476 26.6,31.65 C26.6,33.0525 25.43,34.2 24,34.2 C22.57,34.2 21.4,33.0525 21.4,31.65 C21.4,30.2476 22.57,29.1 24,29.1 Z" style="stroke:none;fill-rule:evenodd;fill:#e7f0fb;fill-opacity:1;"/>
        </g>
    </g>
</svg>
