<?xml version="1.0"?>
<svg version="1.1" xmlns="http://www.w3.org/2000/svg" xmlns:xlink="http://www.w3.org/1999/xlink" width="48" height="48">
    <desc iVinci="yes" version="4.6" gridStep="8" showGrid="yes" snapToGrid="no" codePlatform="0"/>
    <g id="Layer1" name="Layer 1" opacity="1">
        <g id="Shape1">
            <desc shapeID="1" type="0" basicInfo-basicType="0" basicInfo-roundedRectRadius="12" basicInfo-polygonSides="6" basicInfo-starPoints="5" bounding="rect(-19.5,-22,39,44)" text="" font-familyName="" font-pixelSize="20" font-bold="0" font-underline="0" font-alignment="1" strokeStyle="0" markerStart="0" markerEnd="0" shadowEnabled="0" shadowOffsetX="0" shadowOffsetY="2" shadowBlur="4" shadowOpacity="160" blurEnabled="0" blurRadius="4" transform="matrix(0.466667,0,0,0.468182,24,24)" pers-center="0,0" pers-size="0,0" pers-start="0,0" pers-end="0,0" locked="0" mesh="" flag=""/>
            <path id="shapePath1" d="M18.1667,16.0409 L23.65,16.0409 L23.1833,15.5727 L16.7667,15.5727 L16.7667,30.0864 L18.1667,30.0864 L18.1667,16.0409 M27.15,16.0409 L33.1,22.0102 L33.1,34.3 L18.1667,34.3 L18.1667,31.9591 L14.9,31.9591 L14.9,13.7 L23.8833,13.7 L26.2167,16.0409 L27.15,16.0409 M20.0333,17.9136 L20.0333,32.4273 L31.2333,32.4273 L31.2333,24 L25.1667,24 L25.1667,17.9136 L20.0333,17.9136 M27.0333,18.4989 L27.0333,22.1273 L30.65,22.1273 L27.0333,18.4989 Z" style="stroke:none;fill-rule:nonzero;fill:#e7f0fb;fill-opacity:1;"/>
        </g>
    </g>
</svg>
