<?xml version="1.0"?>
<svg version="1.1" xmlns="http://www.w3.org/2000/svg" xmlns:xlink="http://www.w3.org/1999/xlink" width="48" height="48">
    <desc iVinci="yes" version="4.6" gridStep="8" showGrid="yes" snapToGrid="no" codePlatform="0"/>
    <g id="Layer1" name="Layer 1" opacity="1">
        <g id="Shape1">
            <desc shapeID="1" type="0" basicInfo-basicType="0" basicInfo-roundedRectRadius="12" basicInfo-polygonSides="6" basicInfo-starPoints="5" bounding="rect(-21,-19,42,38)" text="" font-familyName="" font-pixelSize="20" font-bold="0" font-underline="0" font-alignment="1" strokeStyle="0" markerStart="0" markerEnd="0" shadowEnabled="0" shadowOffsetX="0" shadowOffsetY="2" shadowBlur="4" shadowOpacity="160" blurEnabled="0" blurRadius="4" transform="matrix(0.480952,0,0,0.578947,24,24)" pers-center="0,0" pers-size="0,0" pers-start="0,0" pers-end="0,0" locked="0" mesh="" flag=""/>
            <path id="shapePath1" d="M14.8619,24 L14.8619,14.7368 L17.2667,14.7368 L17.2667,13.579 L19.6714,13.579 L19.6714,13 L28.2083,13 L33.1381,18.9342 L33.1381,24 L34.1,24 L34.1,35 L33.8996,35 L14.1004,35 L13.9,35 L13.9,24 L14.8619,24 M17.2667,24 L17.2667,16.4737 L16.3048,16.4737 L16.3048,24 L17.2667,24 M18.7095,15.3158 L18.7095,24 L19.6714,24 L19.6714,15.3158 L18.7095,15.3158 M26.4048,28.6316 L26.4048,30.3684 L21.5952,30.3684 L21.5952,28.6316 L26.4048,28.6316 M31.6952,24 L31.6952,21.1053 L26.4048,21.1053 L26.4048,14.7368 L21.1143,14.7368 L21.1143,24 L31.6952,24 M27.8476,15.1711 L27.8476,19.3684 L31.3345,19.3684 L27.8476,15.1711 M15.8238,26.3158 L15.8238,32.6842 L32.1762,32.6842 L32.1762,26.3158 L15.8238,26.3158 Z" style="stroke:none;fill-rule:nonzero;fill:#e7f0fb;fill-opacity:1;"/>
        </g>
    </g>
</svg>
