<?xml version="1.0"?>
<svg version="1.1" xmlns="http://www.w3.org/2000/svg" xmlns:xlink="http://www.w3.org/1999/xlink" width="48" height="48">
    <desc iVinci="yes" version="4.6" gridStep="8" showGrid="yes" snapToGrid="no" codePlatform="0"/>
    <g id="Layer1" name="Layer 1" opacity="1">
        <g id="Shape1">
            <desc shapeID="1" type="0" basicInfo-basicType="0" basicInfo-roundedRectRadius="12" basicInfo-polygonSides="6" basicInfo-starPoints="5" bounding="rect(-22.7783,-19.7783,45.5566,39.5566)" text="" font-familyName="" font-pixelSize="20" font-bold="0" font-underline="0" font-alignment="1" strokeStyle="0" markerStart="0" markerEnd="0" shadowEnabled="0" shadowOffsetX="0" shadowOffsetY="2" shadowBlur="4" shadowOpacity="160" blurEnabled="0" blurRadius="4" transform="matrix(0.411721,0,0,0.464059,24,24)" pers-center="0,0" pers-size="0,0" pers-start="0,0" pers-end="0,0" locked="0" mesh="" flag=""/>
            <path id="shapePath1" d="M28.7846,23.9562 L30.4035,22.3912 C30.7074,22.5369 30.996,22.7153 31.2657,22.9225 L30.975,25.3028 L33.1015,25.4865 C33.2231,25.8256 33.3165,26.1809 33.3783,26.5489 L31.679,28.0007 L33.0674,29.8253 C32.9382,30.1679 32.78,30.4931 32.5961,30.7972 L30.4842,30.4694 L30.3213,32.8663 C30.0204,33.0034 29.7051,33.1086 29.3786,33.1783 L28.0907,31.2629 L26.4718,32.8279 C26.1679,32.6823 25.8793,32.5039 25.6095,32.2967 L25.9003,29.9163 L23.7738,29.7327 C23.6521,29.3936 23.5588,29.0382 23.497,28.6702 L25.1963,27.2185 L23.8079,25.3938 C23.9371,25.0513 24.0953,24.726 24.2792,24.422 L26.391,24.7497 L26.554,22.3529 C26.8548,22.2157 27.1701,22.1105 27.4966,22.0409 L28.7846,23.9562 M28.4376,25.3425 C27.3268,25.3425 26.4262,26.3575 26.4262,27.6096 C26.4262,28.8617 27.3268,29.8767 28.4376,29.8767 C29.5485,29.8767 30.449,28.8617 30.449,27.6096 C30.449,26.3575 29.5485,25.3425 28.4376,25.3425 M14.6217,14.8217 L17.9155,14.8217 L17.9155,18.5342 L14.6217,18.5342 L14.6217,14.8217 M14.6217,19.9263 L17.9155,19.9263 L17.9155,23.6388 L14.6217,23.6388 L14.6217,19.9263 M19.5624,14.8217 L30.2671,14.8217 L30.2671,18.5342 L19.5624,18.5342 L19.5624,14.8217 M14.6217,25.031 L17.9155,25.031 L17.9155,28.7435 L14.6217,28.7435 L14.6217,25.031 M19.5624,19.9263 L30.2671,19.9263 L30.2671,21.8439 L28.8481,23.1326 L27.5468,21.3185 L26.1627,21.9406 L25.8654,23.6388 L25.2235,23.6388 L23.4221,23.3668 L23.2656,23.6388 L19.5624,23.6388 L19.5624,19.9263 M19.5624,25.031 L22.9691,25.031 L24.2598,27.0944 L22.5588,28.7435 L19.5624,28.7435 L19.5624,25.031 M28.4144,25.9591 C29.2102,25.9591 29.8554,26.6863 29.8554,27.5833 C29.8554,28.4804 29.2102,29.2075 28.4144,29.2075 C27.6185,29.2075 26.9733,28.4804 26.9733,27.5833 C26.9733,26.6863 27.6185,25.9591 28.4144,25.9591 Z" style="stroke:none;fill-rule:evenodd;fill:#e7f0fb;fill-opacity:1;"/>
        </g>
    </g>
</svg>
