<?xml version="1.0"?>
<svg version="1.1" xmlns="http://www.w3.org/2000/svg" xmlns:xlink="http://www.w3.org/1999/xlink" width="48" height="48">
    <desc iVinci="yes" version="4.6" gridStep="8" showGrid="yes" snapToGrid="no" codePlatform="0"/>
    <g id="Layer1" name="Layer 1" opacity="1">
        <g id="Shape1">
            <desc shapeID="1" type="0" basicInfo-basicType="0" basicInfo-roundedRectRadius="12" basicInfo-polygonSides="6" basicInfo-starPoints="5" bounding="rect(-247.32,-244.964,494.64,489.928)" text="" font-familyName="" font-pixelSize="20" font-bold="0" font-underline="0" font-alignment="1" strokeStyle="0" markerStart="0" markerEnd="0" shadowEnabled="0" shadowOffsetX="0" shadowOffsetY="2" shadowBlur="4" shadowOpacity="160" blurEnabled="0" blurRadius="4" transform="matrix(0.0481965,0,0,0.0476155,24,24)" pers-center="0,0" pers-size="0,0" pers-start="0,0" pers-end="0,0" locked="0" mesh="" flag=""/>
            <path id="shapePath1" d="M35.792,15.9957 C35.6583,15.7746 35.4377,15.6197 35.1833,15.5691 L21.6794,12.3529 C21.2343,12.2677 20.7952,12.5105 20.6412,12.9306 L15.4939,25.8494 L17.2123,26.4682 L22.0903,14.1844 L33.8236,17.1424 C33.0908,19.3867 31.3471,24.071 29.6756,28.4326 C28.2183,32.2382 27.3798,33.5413 25.7859,33.8074 C25.784,33.8056 25.7823,33.8037 25.7823,33.8009 C22.5249,34.2521 22.5833,30.1494 22.5833,30.1494 L12.1801,25.9978 C11.4408,30.6272 15.0413,31.7406 15.0413,31.7406 L22.658,35.157 C22.6599,35.158 23.8489,35.7175 25.1412,35.6599 C28.6269,35.5789 29.8518,33.0784 31.3867,29.0722 C33.6041,23.2825 35.8548,16.7952 35.8769,16.7264 C35.9562,16.4809 35.9249,16.2162 35.792,15.9957 Z" style="stroke:none;fill-rule:evenodd;fill:#e7f0fb;fill-opacity:1;"/>
        </g>
        <g id="Shape2">
            <desc shapeID="2" type="0" basicInfo-basicType="0" basicInfo-roundedRectRadius="12" basicInfo-polygonSides="6" basicInfo-starPoints="5" bounding="rect(-60.1069,-31.6753,120.214,63.3507)" text="" font-familyName="" font-pixelSize="20" font-bold="0" font-underline="0" font-alignment="1" strokeStyle="0" markerStart="0" markerEnd="0" shadowEnabled="0" shadowOffsetX="0" shadowOffsetY="2" shadowBlur="4" shadowOpacity="160" blurEnabled="0" blurRadius="4" transform="matrix(0.0481965,0,0,0.0476155,27.8957,19.7301)" pers-center="0,0" pers-size="0,0" pers-start="0,0" pers-end="0,0" locked="0" mesh="" flag=""/>
            <path id="shapePath2" d="M29.6367,21.2055 C29.716,21.2269 29.7982,21.2383 29.8792,21.2383 C30.2804,21.2383 30.6475,20.974 30.7599,20.573 C30.8937,20.0914 30.605,19.5938 30.1181,19.4626 L26.1548,18.2541 C25.6734,18.1225 25.1641,18.4054 25.0313,18.8866 C24.8984,19.3681 25.1845,19.8657 25.6732,19.9974 L29.6367,21.2055 Z" style="stroke:none;fill-rule:evenodd;fill:#e7f0fb;fill-opacity:1;"/>
        </g>
        <g id="Shape3">
            <desc shapeID="3" type="0" basicInfo-basicType="0" basicInfo-roundedRectRadius="12" basicInfo-polygonSides="6" basicInfo-starPoints="5" bounding="rect(-59.8825,-33.5771,119.765,67.1541)" text="" font-familyName="" font-pixelSize="20" font-bold="0" font-underline="0" font-alignment="1" strokeStyle="0" markerStart="0" markerEnd="0" shadowEnabled="0" shadowOffsetX="0" shadowOffsetY="2" shadowBlur="4" shadowOpacity="160" blurEnabled="0" blurRadius="4" transform="matrix(0.0481965,0,0,0.0476155,26.2833,23.4886)" pers-center="0,0" pers-size="0,0" pers-start="0,0" pers-end="0,0" locked="0" mesh="" flag=""/>
            <path id="shapePath3" d="M23.444,22.5058 C23.2852,22.9802 23.543,23.491 24.0219,23.6493 L27.9644,25.0412 C28.0601,25.0727 28.1542,25.0868 28.2491,25.0873 C28.6336,25.0893 28.9939,24.8497 29.1223,24.4702 C29.2816,23.9971 29.0242,23.4856 28.5434,23.3274 L24.6023,21.9363 C24.1208,21.7789 23.6047,22.0337 23.444,22.5058 Z" style="stroke:none;fill-rule:evenodd;fill:#e7f0fb;fill-opacity:1;"/>
        </g>
        <g id="Shape4">
            <desc shapeID="4" type="0" basicInfo-basicType="0" basicInfo-roundedRectRadius="12" basicInfo-polygonSides="6" basicInfo-starPoints="5" bounding="rect(-59.9769,-33.5327,119.954,67.0654)" text="" font-familyName="" font-pixelSize="20" font-bold="0" font-underline="0" font-alignment="1" strokeStyle="0" markerStart="0" markerEnd="0" shadowEnabled="0" shadowOffsetX="0" shadowOffsetY="2" shadowBlur="4" shadowOpacity="160" blurEnabled="0" blurRadius="4" transform="matrix(0.0481965,0,0,0.0476155,24.7876,27.2578)" pers-center="0,0" pers-size="0,0" pers-start="0,0" pers-end="0,0" locked="0" mesh="" flag=""/>
            <path id="shapePath4" d="M23.0971,25.7078 C22.6175,25.5492 22.0996,25.8079 21.9428,26.2837 C21.785,26.7558 22.0479,27.268 22.5275,27.4228 L26.4783,28.809 C26.5736,28.8408 26.6683,28.8544 26.7644,28.8544 C27.1481,28.8544 27.506,28.613 27.6324,28.2339 C27.7901,27.7591 27.5282,27.2479 27.0485,27.0929 L23.0971,25.7078 Z" style="stroke:none;fill-rule:evenodd;fill:#e7f0fb;fill-opacity:1;"/>
        </g>
        <g id="Shape5">
            <desc shapeID="5" type="0" basicInfo-basicType="0" basicInfo-roundedRectRadius="12" basicInfo-polygonSides="6" basicInfo-starPoints="5" bounding="rect(-21.0473,-20.4583,42.0947,40.9166)" text="" font-familyName="" font-pixelSize="20" font-bold="0" font-underline="0" font-alignment="1" strokeStyle="0" markerStart="0" markerEnd="0" shadowEnabled="0" shadowOffsetX="0" shadowOffsetY="2" shadowBlur="4" shadowOpacity="160" blurEnabled="0" blurRadius="4" transform="matrix(0.0481965,0,0,0.0476155,22.9507,18.1745)" pers-center="0,0" pers-size="0,0" pers-start="0,0" pers-end="0,0" locked="0" mesh="" flag=""/>
            <path id="shapePath5" d="M22.9509,17.2004 C23.5107,17.2004 23.9651,17.6369 23.9651,18.1746 C23.9651,18.7126 23.5107,19.1487 22.9509,19.1487 C22.3905,19.1487 21.9363,18.7126 21.9363,18.1746 C21.9363,17.6369 22.3905,17.2004 22.9509,17.2004 Z" style="stroke:none;fill-rule:evenodd;fill:#e7f0fb;fill-opacity:1;"/>
        </g>
        <g id="Shape6">
            <desc shapeID="6" type="0" basicInfo-basicType="0" basicInfo-roundedRectRadius="12" basicInfo-polygonSides="6" basicInfo-starPoints="5" bounding="rect(-21.0482,-20.4441,42.0965,40.8881)" text="" font-familyName="" font-pixelSize="20" font-bold="0" font-underline="0" font-alignment="1" strokeStyle="0" markerStart="0" markerEnd="0" shadowEnabled="0" shadowOffsetX="0" shadowOffsetY="2" shadowBlur="4" shadowOpacity="160" blurEnabled="0" blurRadius="4" transform="matrix(0.0481965,0,0,0.0476155,21.5159,21.7953)" pers-center="0,0" pers-size="0,0" pers-start="0,0" pers-end="0,0" locked="0" mesh="" flag=""/>
            <path id="shapePath6" d="M21.516,20.8218 C22.0765,20.8218 22.5303,21.2578 22.5303,21.7954 C22.5303,22.3327 22.0765,22.7687 21.516,22.7687 C20.9558,22.7687 20.5014,22.3327 20.5014,21.7954 C20.5014,21.2579 20.9558,20.8218 21.516,20.8218 Z" style="stroke:none;fill-rule:evenodd;fill:#e7f0fb;fill-opacity:1;"/>
        </g>
        <g id="Shape7">
            <desc shapeID="7" type="0" basicInfo-basicType="0" basicInfo-roundedRectRadius="12" basicInfo-polygonSides="6" basicInfo-starPoints="5" bounding="rect(-21.0528,-20.4583,42.1056,40.9166)" text="" font-familyName="" font-pixelSize="20" font-bold="0" font-underline="0" font-alignment="1" strokeStyle="0" markerStart="0" markerEnd="0" shadowEnabled="0" shadowOffsetX="0" shadowOffsetY="2" shadowBlur="4" shadowOpacity="160" blurEnabled="0" blurRadius="4" transform="matrix(0.0481965,0,0,0.0476155,19.9859,25.5322)" pers-center="0,0" pers-size="0,0" pers-start="0,0" pers-end="0,0" locked="0" mesh="" flag=""/>
            <path id="shapePath7" d="M19.9858,24.5581 C20.5463,24.5581 21.0005,24.9945 21.0005,25.5331 C21.0005,26.0707 20.5463,26.5063 19.9858,26.5063 C19.4255,26.5063 18.9712,26.0708 18.9712,25.5331 C18.9712,24.9945 19.4255,24.5581 19.9858,24.5581 Z" style="stroke:none;fill-rule:evenodd;fill:#e7f0fb;fill-opacity:1;"/>
        </g>
    </g>
</svg>
