<?xml version="1.0"?>
<svg version="1.1" xmlns="http://www.w3.org/2000/svg" xmlns:xlink="http://www.w3.org/1999/xlink" width="48" height="48">
    <desc iVinci="yes" version="4.6" gridStep="8" showGrid="yes" snapToGrid="no" codePlatform="0"/>
    <g id="Layer1" name="Layer 1" opacity="1">
        <g id="Shape1">
            <desc shapeID="1" type="0" basicInfo-basicType="0" basicInfo-roundedRectRadius="12" basicInfo-polygonSides="6" basicInfo-starPoints="5" bounding="rect(-19.85,-19.8525,39.7,39.705)" text="" font-familyName="" font-pixelSize="20" font-bold="0" font-underline="0" font-alignment="1" strokeStyle="0" markerStart="0" markerEnd="0" shadowEnabled="0" shadowOffsetX="0" shadowOffsetY="2" shadowBlur="4" shadowOpacity="160" blurEnabled="0" blurRadius="4" transform="matrix(0.49473,0,0,0.491027,20.0145,27.8547)" pers-center="0,0" pers-size="0,0" pers-start="0,0" pers-end="0,0" locked="0" mesh="" flag=""/>
            <path id="shapePath1" d="M28.2928,28.6278 C28.3566,27.962 28.3374,27.2986 28.2404,26.651 L29.7488,25.9837 C29.6063,25.2584 29.3822,24.543 29.0715,23.8506 C28.7608,23.1588 28.375,22.5151 27.9277,21.9243 L26.4183,22.5912 C25.9983,22.0869 25.5144,21.6292 24.9732,21.2305 L25.5649,19.7005 C24.947,19.288 24.2791,18.9394 23.5662,18.6679 C22.8562,18.3973 22.127,18.2102 21.3854,18.1066 L20.7932,19.6381 C20.1224,19.5748 19.454,19.5939 18.8014,19.6902 L18.133,18.2004 C16.6399,18.4916 15.2448,19.1201 14.0471,20.0182 L14.711,21.4981 C14.2019,21.915 13.7408,22.3957 13.3391,22.9324 L11.8015,22.3471 C11.3819,22.9589 11.0302,23.6223 10.7561,24.3294 C10.4845,25.0365 10.2985,25.7622 10.1941,26.4934 L11.7357,27.0806 C11.6719,27.7465 11.6912,28.4098 11.7881,29.0575 L10.2797,29.7243 C10.4222,30.45 10.6463,31.165 10.957,31.8573 C11.2682,32.5497 11.6536,33.1929 12.1013,33.7836 L13.6097,33.1168 C14.0297,33.6216 14.5136,34.0792 15.0553,34.4779 L14.4636,36.009 C15.0815,36.4219 15.7494,36.7701 16.4623,37.0416 C17.1723,37.3121 17.9015,37.4992 18.6431,37.6028 L19.2353,36.0713 C19.9062,36.1342 20.5745,36.115 21.2271,36.0188 L21.8955,37.5081 C23.3886,37.2169 24.7847,36.5884 25.9819,35.6903 L25.3175,34.2103 C25.8261,33.7934 26.2877,33.3132 26.6894,32.776 L28.226,33.3613 C28.6456,32.7495 28.9973,32.0861 29.2714,31.3796 C29.545,30.6725 29.7305,29.9463 29.8349,29.2146 L28.2928,28.6278 M24.195,29.4464 C23.3089,31.7385 20.719,32.8826 18.4091,32.0032 C16.1022,31.1242 14.948,28.5542 15.8335,26.2626 C16.7196,23.9709 19.3095,22.8269 21.6179,23.7053 C23.9268,24.5842 25.0805,27.1553 24.195,29.4464 Z" style="stroke:none;fill-rule:evenodd;fill:#d3d7db;fill-opacity:0.701961;"/>
        </g>
        <g id="Shape2">
            <desc shapeID="2" type="0" basicInfo-basicType="0" basicInfo-roundedRectRadius="12" basicInfo-polygonSides="6" basicInfo-starPoints="5" bounding="rect(-11.8655,-12.282,23.7311,24.564)" text="" font-familyName="" font-pixelSize="20" font-bold="0" font-underline="0" font-alignment="1" strokeStyle="0" markerStart="0" markerEnd="0" shadowEnabled="0" shadowOffsetX="0" shadowOffsetY="2" shadowBlur="4" shadowOpacity="160" blurEnabled="0" blurRadius="4" transform="matrix(0.493668,-0.032158,0.0324006,0.489973,31.8477,16.4273)" pers-center="0,0" pers-size="0,0" pers-start="0,0" pers-end="0,0" locked="0" mesh="" flag=""/>
            <path id="shapePath2" d="M36.6345,16.115 C36.615,15.8191 36.5652,15.5315 36.4943,15.2537 L37.6042,14.517 C37.2551,13.4808 36.6378,12.5728 35.8297,11.8765 L34.7169,12.6147 C34.2507,12.2682 33.7198,12.0075 33.1476,11.8479 L33.0599,10.5235 C32.5413,10.4181 32.0024,10.3735 31.45,10.4094 C30.8976,10.4454 30.3698,10.5605 29.8689,10.7314 L29.9565,12.0563 C29.4101,12.2887 28.9187,12.6165 28.5016,13.0201 L27.3006,12.4325 C26.5921,13.2276 26.0992,14.208 25.889,15.2807 L27.087,15.8669 C27.0533,16.1521 27.0413,16.4427 27.0608,16.7391 C27.0804,17.0355 27.1306,17.3226 27.2016,17.6005 L26.0911,18.3371 C26.4408,19.3733 27.0586,20.2818 27.8657,20.9776 L28.9785,20.2394 C29.4452,20.5859 29.9755,20.8466 30.5479,21.0062 L30.6355,22.3311 C31.1545,22.436 31.693,22.4811 32.2454,22.4452 C32.7978,22.4092 33.3267,22.294 33.8265,22.1232 L33.7389,20.7983 C34.2853,20.5659 34.7773,20.2381 35.1938,19.8345 L36.3943,20.4221 C37.1038,19.6269 37.5962,18.6466 37.8059,17.574 L36.6085,16.9877 C36.6426,16.702 36.6541,16.4114 36.6345,16.115 M31.9951,18.6444 C30.7609,18.7248 29.6946,17.7973 29.6136,16.5728 C29.5327,15.3484 30.4677,14.29 31.7018,14.2096 C32.9345,14.1293 34.0008,15.0568 34.0818,16.2813 C34.1628,17.5057 33.2278,18.5641 31.9951,18.6444 Z" style="stroke:none;fill-rule:evenodd;fill:#d3d7db;fill-opacity:0.701961;"/>
        </g>
    </g>
</svg>
