<?xml version="1.0"?>
<svg version="1.1" xmlns="http://www.w3.org/2000/svg" xmlns:xlink="http://www.w3.org/1999/xlink" width="512" height="512">
    <desc iVinci="yes" version="4.6" gridStep="20" showGrid="no" snapToGrid="no" codePlatform="0"/>
    <g id="Layer1" name="Layer 1" opacity="1">
        <g id="Shape1">
            <desc shapeID="1" type="0" basicInfo-basicType="0" basicInfo-roundedRectRadius="12" basicInfo-polygonSides="6" basicInfo-starPoints="5" bounding="rect(-209.454,-58.1815,418.909,116.363)" text="" font-familyName="" font-pixelSize="20" font-bold="0" font-underline="0" font-alignment="1" strokeStyle="0" markerStart="0" markerEnd="0" shadowEnabled="0" shadowOffsetX="0" shadowOffsetY="2" shadowBlur="4" shadowOpacity="160" blurEnabled="0" blurRadius="4" transform="matrix(1,0,0,1,256,250.182)" pers-center="0,0" pers-size="0,0" pers-start="0,0" pers-end="0,0" locked="0" mesh="" flag=""/>
            <path id="shapePath1" d="M465.455,203.636 L465.455,296.727 C465.455,303.709 460.8,308.363 453.819,308.363 L58.182,308.363 C51.2,308.363 46.546,303.708 46.546,296.727 L46.546,203.636 C46.545,196.655 51.2,192 58.182,192 L453.818,192 C459.636,192 465.455,196.655 465.455,203.636 Z" style="stroke:none;fill-rule:nonzero;fill:#595a66;fill-opacity:1;"/>
        </g>
        <g id="Shape2">
            <desc shapeID="2" type="0" basicInfo-basicType="0" basicInfo-roundedRectRadius="12" basicInfo-polygonSides="6" basicInfo-starPoints="5" bounding="rect(-11.636,-23.273,23.272,46.546)" text="" font-familyName="" font-pixelSize="20" font-bold="0" font-underline="0" font-alignment="1" strokeStyle="0" markerStart="0" markerEnd="0" shadowEnabled="0" shadowOffsetX="0" shadowOffsetY="2" shadowBlur="4" shadowOpacity="160" blurEnabled="0" blurRadius="4" transform="matrix(1,0,0,1,244.364,250.182)" pers-center="0,0" pers-size="0,0" pers-start="0,0" pers-end="0,0" locked="0" mesh="" flag=""/>
            <path id="shapePath2" d="M244.364,273.455 C237.382,273.455 232.728,268.8 232.728,261.819 L232.728,238.545 C232.728,231.563 237.383,226.909 244.364,226.909 C251.346,226.909 256,231.564 256,238.545 L256,261.818 C256,268.8 251.345,273.455 244.364,273.455 Z" style="stroke:none;fill-rule:nonzero;fill:#35363e;fill-opacity:1;"/>
        </g>
        <g id="Shape3">
            <desc shapeID="3" type="0" basicInfo-basicType="0" basicInfo-roundedRectRadius="12" basicInfo-polygonSides="6" basicInfo-starPoints="5" bounding="rect(-11.636,-23.273,23.272,46.546)" text="" font-familyName="" font-pixelSize="20" font-bold="0" font-underline="0" font-alignment="1" strokeStyle="0" markerStart="0" markerEnd="0" shadowEnabled="0" shadowOffsetX="0" shadowOffsetY="2" shadowBlur="4" shadowOpacity="160" blurEnabled="0" blurRadius="4" transform="matrix(1,0,0,1,279.273,250.182)" pers-center="0,0" pers-size="0,0" pers-start="0,0" pers-end="0,0" locked="0" mesh="" flag=""/>
            <path id="shapePath3" d="M279.273,273.455 C272.291,273.455 267.637,268.8 267.637,261.819 L267.637,238.545 C267.637,231.563 272.292,226.909 279.273,226.909 C286.254,226.909 290.909,231.564 290.909,238.545 L290.909,261.818 C290.909,268.8 286.255,273.455 279.273,273.455 Z" style="stroke:none;fill-rule:nonzero;fill:#35363e;fill-opacity:1;"/>
        </g>
        <g id="Shape4">
            <desc shapeID="4" type="0" basicInfo-basicType="0" basicInfo-roundedRectRadius="12" basicInfo-polygonSides="6" basicInfo-starPoints="5" bounding="rect(-11.636,-23.273,23.272,46.546)" text="" font-familyName="" font-pixelSize="20" font-bold="0" font-underline="0" font-alignment="1" strokeStyle="0" markerStart="0" markerEnd="0" shadowEnabled="0" shadowOffsetX="0" shadowOffsetY="2" shadowBlur="4" shadowOpacity="160" blurEnabled="0" blurRadius="4" transform="matrix(1,0,0,1,314.182,250.182)" pers-center="0,0" pers-size="0,0" pers-start="0,0" pers-end="0,0" locked="0" mesh="" flag=""/>
            <path id="shapePath4" d="M314.182,273.455 C307.2,273.455 302.546,268.8 302.546,261.819 L302.546,238.545 C302.546,231.563 307.201,226.909 314.182,226.909 C321.163,226.909 325.818,231.564 325.818,238.545 L325.818,261.818 C325.818,268.8 321.164,273.455 314.182,273.455 Z" style="stroke:none;fill-rule:nonzero;fill:#35363e;fill-opacity:1;"/>
        </g>
        <g id="Shape5">
            <desc shapeID="5" type="0" basicInfo-basicType="0" basicInfo-roundedRectRadius="12" basicInfo-polygonSides="6" basicInfo-starPoints="5" bounding="rect(-11.636,-23.273,23.272,46.546)" text="" font-familyName="" font-pixelSize="20" font-bold="0" font-underline="0" font-alignment="1" strokeStyle="0" markerStart="0" markerEnd="0" shadowEnabled="0" shadowOffsetX="0" shadowOffsetY="2" shadowBlur="4" shadowOpacity="160" blurEnabled="0" blurRadius="4" transform="matrix(1,0,0,1,349.091,250.182)" pers-center="0,0" pers-size="0,0" pers-start="0,0" pers-end="0,0" locked="0" mesh="" flag=""/>
            <path id="shapePath5" d="M349.091,273.455 C342.109,273.455 337.455,268.8 337.455,261.819 L337.455,238.545 C337.455,231.563 342.11,226.909 349.091,226.909 C356.073,226.909 360.727,231.564 360.727,238.545 L360.727,261.818 C360.727,268.8 356.073,273.455 349.091,273.455 Z" style="stroke:none;fill-rule:nonzero;fill:#35363e;fill-opacity:1;"/>
        </g>
        <g id="Shape6">
            <desc shapeID="6" type="0" basicInfo-basicType="0" basicInfo-roundedRectRadius="12" basicInfo-polygonSides="6" basicInfo-starPoints="5" bounding="rect(-11.636,-23.273,23.272,46.546)" text="" font-familyName="" font-pixelSize="20" font-bold="0" font-underline="0" font-alignment="1" strokeStyle="0" markerStart="0" markerEnd="0" shadowEnabled="0" shadowOffsetX="0" shadowOffsetY="2" shadowBlur="4" shadowOpacity="160" blurEnabled="0" blurRadius="4" transform="matrix(1,0,0,1,384,250.182)" pers-center="0,0" pers-size="0,0" pers-start="0,0" pers-end="0,0" locked="0" mesh="" flag=""/>
            <path id="shapePath6" d="M384,273.455 C377.018,273.455 372.364,268.8 372.364,261.819 L372.364,238.545 C372.364,231.563 377.019,226.909 384,226.909 C390.982,226.909 395.636,231.564 395.636,238.545 L395.636,261.818 C395.636,268.8 390.982,273.455 384,273.455 Z" style="stroke:none;fill-rule:nonzero;fill:#35363e;fill-opacity:1;"/>
        </g>
        <g id="Shape7">
            <desc shapeID="7" type="0" basicInfo-basicType="0" basicInfo-roundedRectRadius="12" basicInfo-polygonSides="6" basicInfo-starPoints="5" bounding="rect(-11.636,-23.273,23.272,46.546)" text="" font-familyName="" font-pixelSize="20" font-bold="0" font-underline="0" font-alignment="1" strokeStyle="0" markerStart="0" markerEnd="0" shadowEnabled="0" shadowOffsetX="0" shadowOffsetY="2" shadowBlur="4" shadowOpacity="160" blurEnabled="0" blurRadius="4" transform="matrix(1,0,0,1,418.909,250.182)" pers-center="0,0" pers-size="0,0" pers-start="0,0" pers-end="0,0" locked="0" mesh="" flag=""/>
            <path id="shapePath7" d="M418.909,273.455 C411.927,273.455 407.273,268.8 407.273,261.819 L407.273,238.545 C407.273,231.563 411.928,226.909 418.909,226.909 C425.891,226.909 430.545,231.564 430.545,238.545 L430.545,261.818 C430.545,268.8 425.891,273.455 418.909,273.455 Z" style="stroke:none;fill-rule:nonzero;fill:#35363e;fill-opacity:1;"/>
        </g>
        <g id="Shape8">
            <desc shapeID="8" type="0" basicInfo-basicType="0" basicInfo-roundedRectRadius="12" basicInfo-polygonSides="6" basicInfo-starPoints="5" bounding="rect(-11.636,-11.636,23.272,23.272)" text="" font-familyName="" font-pixelSize="20" font-bold="0" font-underline="0" font-alignment="1" strokeStyle="0" markerStart="0" markerEnd="0" shadowEnabled="0" shadowOffsetX="0" shadowOffsetY="2" shadowBlur="4" shadowOpacity="160" blurEnabled="0" blurRadius="4" transform="matrix(1,0,0,1,93.091,250.182)" pers-center="0,0" pers-size="0,0" pers-start="0,0" pers-end="0,0" locked="0" mesh="" flag=""/>
            <path id="shapePath8" d="M104.727,250.182 C104.727,256.608 99.5174,261.818 93.091,261.818 C86.6646,261.818 81.455,256.608 81.455,250.182 C81.455,243.756 86.6646,238.546 93.091,238.546 C99.5174,238.546 104.727,243.756 104.727,250.182 Z" style="stroke:none;fill-rule:evenodd;fill:#89c763;fill-opacity:1;"/>
        </g>
        <g id="Shape9">
            <desc shapeID="9" type="0" basicInfo-basicType="0" basicInfo-roundedRectRadius="12" basicInfo-polygonSides="6" basicInfo-starPoints="5" bounding="rect(-11.636,-11.636,23.272,23.272)" text="" font-familyName="" font-pixelSize="20" font-bold="0" font-underline="0" font-alignment="1" strokeStyle="0" markerStart="0" markerEnd="0" shadowEnabled="0" shadowOffsetX="0" shadowOffsetY="2" shadowBlur="4" shadowOpacity="160" blurEnabled="0" blurRadius="4" transform="matrix(1,0,0,1,128,250.182)" pers-center="0,0" pers-size="0,0" pers-start="0,0" pers-end="0,0" locked="0" mesh="" flag=""/>
            <path id="shapePath9" d="M139.636,250.182 C139.636,256.608 134.426,261.818 128,261.818 C121.574,261.818 116.364,256.608 116.364,250.182 C116.364,243.756 121.574,238.546 128,238.546 C134.426,238.546 139.636,243.756 139.636,250.182 Z" style="stroke:none;fill-rule:evenodd;fill:#ffcb5b;fill-opacity:1;"/>
        </g>
        <g id="Shape10">
            <desc shapeID="10" type="0" basicInfo-basicType="0" basicInfo-roundedRectRadius="12" basicInfo-polygonSides="6" basicInfo-starPoints="5" bounding="rect(-11.636,-11.636,23.272,23.272)" text="" font-familyName="" font-pixelSize="20" font-bold="0" font-underline="0" font-alignment="1" strokeStyle="0" markerStart="0" markerEnd="0" shadowEnabled="0" shadowOffsetX="0" shadowOffsetY="2" shadowBlur="4" shadowOpacity="160" blurEnabled="0" blurRadius="4" transform="matrix(1,0,0,1,162.909,250.182)" pers-center="0,0" pers-size="0,0" pers-start="0,0" pers-end="0,0" locked="0" mesh="" flag=""/>
            <path id="shapePath10" d="M174.545,250.182 C174.545,256.608 169.335,261.818 162.909,261.818 C156.483,261.818 151.273,256.608 151.273,250.182 C151.273,243.756 156.483,238.546 162.909,238.546 C169.335,238.546 174.545,243.756 174.545,250.182 Z" style="stroke:none;fill-rule:evenodd;fill:#ffcb5b;fill-opacity:1;"/>
        </g>
        <g id="Shape11">
            <desc shapeID="11" type="0" basicInfo-basicType="0" basicInfo-roundedRectRadius="12" basicInfo-polygonSides="6" basicInfo-starPoints="5" bounding="rect(-116.364,-5.818,232.727,11.636)" text="" font-familyName="" font-pixelSize="20" font-bold="0" font-underline="0" font-alignment="1" strokeStyle="0" markerStart="0" markerEnd="0" shadowEnabled="0" shadowOffsetX="0" shadowOffsetY="2" shadowBlur="4" shadowOpacity="160" blurEnabled="0" blurRadius="4" transform="matrix(1,0,0,1,186.182,197.818)" pers-center="0,0" pers-size="0,0" pers-start="0,0" pers-end="0,0" locked="0" mesh="" flag=""/>
            <path id="shapePath11" d="M296.727,203.636 L75.636,203.636 C72.145,203.636 69.818,201.309 69.818,197.818 C69.818,194.327 72.145,192 75.636,192 L296.727,192 C300.218,192 302.545,194.327 302.545,197.818 C302.545,201.309 300.218,203.636 296.727,203.636 Z" style="stroke:none;fill-rule:nonzero;fill:#6f707e;fill-opacity:1;"/>
        </g>
        <g id="Shape12">
            <desc shapeID="12" type="0" basicInfo-basicType="0" basicInfo-roundedRectRadius="12" basicInfo-polygonSides="6" basicInfo-starPoints="5" bounding="rect(-209.454,-46.545,418.908,93.09)" text="" font-familyName="" font-pixelSize="20" font-bold="0" font-underline="0" font-alignment="1" strokeStyle="0" markerStart="0" markerEnd="0" shadowEnabled="0" shadowOffsetX="0" shadowOffsetY="2" shadowBlur="4" shadowOpacity="160" blurEnabled="0" blurRadius="4" transform="matrix(1,0,0,1,255.999,261.818)" pers-center="0,0" pers-size="0,0" pers-start="0,0" pers-end="0,0" locked="0" mesh="" flag=""/>
            <path id="shapePath12" d="M459.636,215.273 C456.145,215.273 453.818,217.6 453.818,221.091 L453.818,296.727 L46.545,296.727 C46.545,303.709 51.2,308.363 58.181,308.363 L453.817,308.363 C460.799,308.363 465.453,303.708 465.453,296.727 L465.453,221.091 C465.455,217.6 463.127,215.273 459.636,215.273 Z" style="stroke:none;fill-rule:nonzero;fill:#494a52;fill-opacity:1;"/>
        </g>
        <g id="Shape13">
            <desc shapeID="13" type="0" basicInfo-basicType="0" basicInfo-roundedRectRadius="12" basicInfo-polygonSides="6" basicInfo-starPoints="5" bounding="rect(-174.545,-5.818,349.091,11.636)" text="" font-familyName="" font-pixelSize="20" font-bold="0" font-underline="0" font-alignment="1" strokeStyle="0" markerStart="0" markerEnd="0" shadowEnabled="0" shadowOffsetX="0" shadowOffsetY="2" shadowBlur="4" shadowOpacity="160" blurEnabled="0" blurRadius="4" transform="matrix(1,0,0,1,256,314.182)" pers-center="0,0" pers-size="0,0" pers-start="0,0" pers-end="0,0" locked="0" mesh="" flag=""/>
            <path id="shapePath13" d="M81.455,308.364 L430.546,308.364 L430.546,320 L81.455,320 L81.455,308.364 Z" style="stroke:none;fill-rule:evenodd;fill:#35363e;fill-opacity:1;"/>
        </g>
    </g>
</svg>
