<?xml version="1.0"?>
<svg version="1.1" xmlns="http://www.w3.org/2000/svg" xmlns:xlink="http://www.w3.org/1999/xlink" width="48" height="48">
    <desc iVinci="yes" version="4.6" gridStep="8" showGrid="yes" snapToGrid="no" codePlatform="0"/>
    <g id="Layer1" name="Layer 1" opacity="1">
        <g id="Shape1">
            <desc shapeID="1" type="0" basicInfo-basicType="0" basicInfo-roundedRectRadius="12" basicInfo-polygonSides="6" basicInfo-starPoints="5" bounding="rect(-25.2333,-19,50.4666,38)" text="" font-familyName="" font-pixelSize="20" font-bold="0" font-underline="0" font-alignment="1" strokeStyle="0" markerStart="0" markerEnd="0" shadowEnabled="0" shadowOffsetX="0" shadowOffsetY="2" shadowBlur="4" shadowOpacity="160" blurEnabled="0" blurRadius="4" transform="matrix(0.455747,0,0,0.463158,24,24)" pers-center="0,0" pers-size="0,0" pers-start="0,0" pers-end="0,0" locked="0" mesh="" flag=""/>
            <path id="shapePath1" d="M23.8937,15.2 C25.2361,15.2 26.3243,16.3059 26.3243,17.6702 C26.3243,19.0344 25.2361,20.1404 23.8937,20.1404 C22.5513,20.1404 21.463,19.0344 21.463,17.6702 C21.463,16.3059 22.5513,15.2 23.8937,15.2 M21.463,23.2513 C21.1389,23.4159 20.6047,24.8491 20.8977,25.0422 L19.3198,24.7472 C20.3932,24.352 20.6082,23.6917 20.6954,22.4871 L20.6127,21.7381 C20.9652,21.4399 21.4866,20.7811 21.9491,20.7811 L25.8382,20.7811 C26.3108,20.7811 26.7261,20.9854 27.0839,21.2948 L27.3117,22.1474 C27.3117,23.1541 28.0663,23.4568 28.8549,23.9443 L27.7523,23.9209 C27.4656,23.9105 27.2002,23.9761 26.9557,24.0954 C26.7487,23.7338 26.4928,23.3368 26.3243,23.2513 L26.379,24.5018 C25.3501,25.4621 24.8355,27.2736 24.8355,27.2736 L24.6577,28.1709 L24.1367,28.1916 C23.7871,28.1916 23.4438,28.1638 23.109,28.1103 C22.8424,27.3907 22.2613,26.0917 21.3658,25.4858 L21.463,23.2513 M17.8474,19.8084 C19.1899,19.8084 20.2781,20.9143 20.2781,22.2786 C20.2781,23.6428 19.1899,24.7488 17.8474,24.7488 C16.505,24.7488 15.4168,23.6428 15.4168,22.2786 C15.4168,20.9143 16.505,19.8084 17.8474,19.8084 M15.4168,27.8596 C15.0927,28.0243 14.4445,29.3417 14.4445,29.3417 C14.4445,29.3417 14.1205,29.8358 13.9584,31.8119 L12.5,31.3179 L12.9861,28.8477 C12.9861,28.8477 13.9584,25.3895 15.9029,25.3895 L19.7919,25.3895 C21.7365,25.3895 22.7087,28.8477 22.7087,28.8477 L23.1948,31.3179 L21.7365,31.8119 C21.5744,29.8358 21.2504,29.3417 21.2504,29.3417 C21.2504,29.3417 20.6022,28.0243 20.2781,27.8596 L20.4745,32.3463 C19.7355,32.6392 18.9315,32.8 18.0905,32.8 C17.0654,32.8 16.0951,32.5611 15.2307,32.1352 L15.4168,27.8596 M30.1526,18.8733 C31.495,18.9219 32.5833,20.0672 32.5833,21.4314 C32.5833,22.7957 31.495,23.8622 30.1526,23.8137 C28.8102,23.7651 27.7219,22.6198 27.7219,21.2556 C27.7219,19.8913 28.8102,18.8248 30.1526,18.8733 M27.7219,26.8366 C27.3979,26.9895 26.7497,28.2835 26.7497,28.2835 C26.7497,28.2835 26.4256,28.7658 26.2636,30.7361 L24.8052,30.1893 L25.2913,27.7367 C25.2913,27.7367 26.2636,24.3137 28.208,24.3841 L32.0971,24.5248 C34.0417,24.5951 35.0139,28.0885 35.0139,28.0885 L35.5,30.5763 L34.0417,31.0175 C33.8796,29.0355 33.5555,28.5298 33.5555,28.5298 C33.5555,28.5298 32.9073,27.1889 32.5833,27.0125 L32.7796,31.5063 C32.0407,31.7724 31.2367,31.9041 30.3957,31.8737 C29.3705,31.8366 28.4003,31.5626 27.5359,31.1054 L27.7219,26.8366 Z" style="stroke:none;fill-rule:nonzero;fill:#e7f0fb;fill-opacity:1;"/>
        </g>
    </g>
</svg>
