<?xml version="1.0"?>
<svg version="1.1" xmlns="http://www.w3.org/2000/svg" xmlns:xlink="http://www.w3.org/1999/xlink" width="48" height="48">
    <desc iVinci="yes" version="4.6" gridStep="8" showGrid="yes" snapToGrid="no" codePlatform="0"/>
    <g id="Layer1" name="Layer 1" opacity="1">
        <g id="Shape1">
            <desc shapeID="1" type="0" basicInfo-basicType="0" basicInfo-roundedRectRadius="12" basicInfo-polygonSides="6" basicInfo-starPoints="5" bounding="rect(-244.1,-244.05,488.2,488.1)" text="" font-familyName="" font-pixelSize="20" font-bold="0" font-underline="0" font-alignment="1" strokeStyle="0" markerStart="0" markerEnd="0" shadowEnabled="0" shadowOffsetX="0" shadowOffsetY="2" shadowBlur="4" shadowOpacity="160" blurEnabled="0" blurRadius="4" transform="matrix(0.0417861,0,0,0.042102,24,24)" pers-center="0,0" pers-size="0,0" pers-start="0,0" pers-end="0,0" locked="0" mesh="" flag=""/>
            <path id="shapePath1" d="M33.3894,19.9982 C32.8754,18.773 32.1399,17.6784 31.2039,16.7311 C30.2679,15.788 29.1773,15.047 27.9613,14.5292 C26.7077,13.9987 25.3706,13.725 23.9958,13.725 C22.6211,13.725 21.2839,13.9987 20.0261,14.5334 C18.8143,15.0512 17.7237,15.7922 16.7877,16.7353 C15.8517,17.6784 15.1163,18.7773 14.6023,20.0024 C14.0716,21.2655 13.8,22.6127 13.8,23.9979 C13.8,25.3831 14.0716,26.7303 14.6023,27.9976 C15.1163,29.2228 15.8517,30.3216 16.7877,31.2647 C17.7237,32.2078 18.8143,32.9488 20.0303,33.4666 C21.2881,34.0013 22.6252,34.275 24,34.275 C25.3748,34.275 26.7119,34.0013 27.9697,33.4666 C29.1857,32.9488 30.2721,32.2078 31.2123,31.2647 C32.1483,30.3216 32.8837,29.2228 33.3977,27.9976 C33.9284,26.7303 34.2,25.3831 34.2,23.9979 C34.2,22.6127 33.92,21.2655 33.3894,19.9982 M30.4601,29.4417 C30.3807,29.2312 30.247,29.0417 30.0715,28.8986 C28.4043,27.5176 26.6033,26.5998 26.2356,26.4188 C26.1938,26.3977 26.1687,26.3556 26.1687,26.3093 L26.1687,23.6906 C26.4946,23.4716 26.7119,23.0969 26.7119,22.6717 L26.7119,19.9561 C26.7119,18.6046 25.6255,17.51 24.2841,17.51 L23.9958,17.51 L23.7075,17.51 C22.3662,17.51 21.2797,18.6046 21.2797,19.9561 L21.2797,22.6717 C21.2797,23.0969 21.497,23.4716 21.8229,23.6906 L21.8229,26.3093 C21.8229,26.3556 21.7979,26.3977 21.7561,26.4188 C21.3884,26.5998 19.5916,27.5176 17.9201,28.8986 C17.7446,29.0459 17.6109,29.2354 17.5315,29.4417 C16.3072,27.9681 15.5676,26.0693 15.5676,23.9979 C15.5676,19.3162 19.3492,15.5059 23.9958,15.5059 C28.6424,15.5059 32.4241,19.3162 32.4241,23.9979 C32.4241,26.0693 31.6887,27.9681 30.4601,29.4417 Z" style="stroke:none;fill-rule:nonzero;fill:#e7f0fb;fill-opacity:1;"/>
        </g>
    </g>
</svg>
