<?xml version="1.0"?>
<svg version="1.1" xmlns="http://www.w3.org/2000/svg" xmlns:xlink="http://www.w3.org/1999/xlink" width="48" height="48">
    <desc iVinci="yes" version="4.6" gridStep="8" showGrid="yes" snapToGrid="no" codePlatform="0"/>
    <g id="Layer1" name="Layer 1" opacity="1">
        <g id="Shape1">
            <desc shapeID="1" type="0" basicInfo-basicType="0" basicInfo-roundedRectRadius="12" basicInfo-polygonSides="6" basicInfo-starPoints="5" bounding="rect(-22.1667,-22.1667,44.3334,44.3334)" text="" font-familyName="" font-pixelSize="20" font-bold="0" font-underline="0" font-alignment="1" strokeStyle="0" markerStart="0" markerEnd="0" shadowEnabled="0" shadowOffsetX="0" shadowOffsetY="2" shadowBlur="4" shadowOpacity="160" blurEnabled="0" blurRadius="4" transform="matrix(0.445114,0,0,0.458647,24,24)" pers-center="0,0" pers-size="0,0" pers-start="0,0" pers-end="0,0" locked="0" mesh="" flag=""/>
            <path id="shapePath1" d="M24,13.8333 C29.4492,13.8333 33.8667,18.3851 33.8667,24 C33.8667,29.6149 29.4492,34.1667 24,34.1667 C18.5508,34.1667 14.1333,29.6149 14.1333,24 C14.1333,18.3851 18.5508,13.8333 24,13.8333 M24,15.2857 C23.5722,15.2857 23.1518,15.3184 22.741,15.3816 C22.6531,15.5789 22.5905,15.7954 22.5905,16.0119 C22.5905,16.7381 21.8857,15.2857 21.181,16.7381 C20.4762,18.1905 21.181,16.7381 21.181,18.1905 C21.181,18.9167 20.161,18.3912 20.4762,18.5536 C21.181,18.9167 21.181,18.9167 20.4762,19.6429 C20.4762,19.6429 19.0667,18.9167 19.0667,19.6429 C19.0667,20.369 18.3619,20.369 17.6571,20.369 C16.9524,20.369 17.6571,21.8214 16.9524,21.8214 C16.4105,21.8214 16.7019,20.9628 16.2248,20.5659 C16.0435,21.0013 15.8956,21.4549 15.7845,21.9233 C16.2594,22.3618 16.339,24.0942 16.9524,24.7262 C17.6571,24 17.6571,24.7262 18.3619,24.7262 C19.0667,24.7262 19.0667,24.7262 19.419,25.4524 C20.1238,25.4524 20.4762,26.1786 21.181,26.9048 C21.8857,27.631 23.2952,27.631 23.2952,28.3571 C23.2952,29.0833 22.5905,28.3571 22.5905,29.8095 C22.5905,30.5357 22.5905,30.5357 21.8857,30.5357 C21.442,30.5357 20.9982,31.3994 20.7304,32.0392 C21.7362,32.474 22.8409,32.7143 24,32.7143 C26.3671,32.7143 28.507,31.7123 30.0421,30.0974 L29.6381,29.2649 C29.6381,29.2649 30.519,27.8125 29.8143,27.0863 C29.1095,26.3602 29.1095,25.6339 29.1095,25.6339 C29.1095,25.6339 27.7,27.0863 26.9952,26.3601 C26.2905,25.6339 26.2905,26.3601 25.5857,24.9078 C24.8809,23.4554 26.2905,22.7292 26.2905,22.7292 C26.2905,22.7292 26.2905,21.2768 26.9952,21.2768 C27.7,21.2768 28.4048,19.8244 29.8143,21.2768 C29.8143,21.2768 30.6288,20.7173 31.7812,20.5805 C31.4197,19.7083 30.9242,18.9093 30.3213,18.2108 C30.1947,18.3046 30.0291,18.372 29.8143,18.372 C29.1095,18.372 30.519,19.8244 29.8143,19.8244 C29.1095,19.8244 29.1095,19.0982 28.4048,19.0982 C27.7,19.0982 27.7,19.8244 26.9952,20.5506 C26.2905,21.2768 26.9952,20.5506 26.2905,19.8244 C25.5857,19.0982 27.7,19.8244 26.9952,19.0982 C26.2905,18.372 27.7,18.372 27.7,17.6459 C27.7,17.0763 28.5671,16.9534 28.9411,16.9269 C28.5344,16.6247 28.1006,16.3588 27.7,16.1935 C28.4048,16.9196 26.9952,17.6459 26.2905,17.6459 C25.6285,17.6459 26.2101,16.3643 26.2832,15.607 C25.5569,15.3977 24.7911,15.2857 24,15.2857 M15.5428,24 C15.5428,26.5632 16.6168,28.8678 18.3263,30.4623 L17.6571,29.0833 C16.9524,29.0833 16.6,27.4494 16.6,26.7232 C16.6,26.1405 16.373,25.6746 16.6477,25.138 C15.6533,24.109 16.2476,24.6669 16.2476,24 C16.2476,23.6543 15.9282,23.3086 15.5935,23.0412 C15.56,23.3561 15.5428,23.676 15.5428,24 Z" style="stroke:none;fill-rule:nonzero;fill:#e7f0fb;fill-opacity:1;"/>
        </g>
    </g>
</svg>
