<?xml version="1.0"?>
<svg version="1.1" xmlns="http://www.w3.org/2000/svg" xmlns:xlink="http://www.w3.org/1999/xlink" width="48" height="48">
    <desc iVinci="yes" version="4.6" gridStep="8" showGrid="yes" snapToGrid="no" codePlatform="0"/>
    <g id="Layer1" name="Layer 1" opacity="1">
        <g id="Shape1">
            <desc shapeID="1" type="0" basicInfo-basicType="0" basicInfo-roundedRectRadius="12" basicInfo-polygonSides="6" basicInfo-starPoints="5" bounding="rect(-242.905,-220.264,485.811,440.526)" text="" font-familyName="" font-pixelSize="20" font-bold="0" font-underline="0" font-alignment="1" strokeStyle="0" markerStart="0" markerEnd="0" shadowEnabled="0" shadowOffsetX="0" shadowOffsetY="2" shadowBlur="4" shadowOpacity="160" blurEnabled="0" blurRadius="4" transform="matrix(0.0453076,0,0,0.0443243,24,24)" pers-center="0,0" pers-size="0,0" pers-start="0,0" pers-end="0,0" locked="0" mesh="" flag=""/>
            <path id="shapePath1" d="M34.5655,28.9227 L26.8541,15.8559 C25.5946,13.6973 22.4095,13.6973 21.1544,15.8559 L13.4385,28.9227 C12.179,31.0814 13.7466,33.763 16.2884,33.763 L31.6885,33.763 C34.2302,33.763 35.825,31.0547 34.5655,28.9227 M23.9997,30.8641 C23.3292,30.8641 22.7719,30.3189 22.7719,29.663 C22.7719,29.007 23.3292,28.4618 23.9997,28.4618 C24.6703,28.4618 25.2276,29.007 25.2004,29.694 C25.2321,30.3189 24.6431,30.8641 23.9997,30.8641 M25.1188,23.0985 C25.0645,24.0293 25.0056,24.9557 24.9512,25.8865 C24.924,26.1879 24.924,26.4627 24.924,26.7597 C24.8968,27.2517 24.5027,27.6329 23.9997,27.6329 C23.4968,27.6329 23.1072,27.2783 23.0755,26.7863 C22.9939,25.3369 22.9078,23.9141 22.8263,22.4647 C22.7991,22.0835 22.7719,21.6979 22.7402,21.3167 C22.7402,20.6873 23.1027,20.1687 23.6917,20.0047 C24.2807,19.8673 24.8651,20.1421 25.1188,20.6873 C25.2049,20.8779 25.2321,21.0685 25.2321,21.2901 C25.2049,21.8973 25.146,22.5001 25.1188,23.0985 Z" style="stroke:none;fill-rule:evenodd;fill:#e7f0fb;fill-opacity:1;"/>
        </g>
    </g>
</svg>
