<?xml version="1.0"?>
<!DOCTYPE svg PUBLIC "-//W3C//DTD SVG 1.1//EN"
"http://www.w3.org/Graphics/SVG/1.1/DTD/svg11.dtd">
<svg version="1.1" xmlns="http://www.w3.org/2000/svg" xmlns:xlink="http://www.w3.org/1999/xlink">
  <use xlink:href="#alarms"/>
  <symbol id="alarms" viewBox="0 0 48 48">
    <title>alarms</title>
    <path d="M24,15.6409 C29.1296,15.6409 33.2879,19.7992 33.2879,24.9288 C33.2879,30.0583 29.1296,34.2167 24,34.2167 C18.8704,34.2167 14.7121,30.0583 14.7121,24.9288 C14.7121,19.7992 18.8704,15.6409 24,15.6409 M24,17.9629 C20.1528,17.9629 17.0341,21.0816 17.0341,24.9288 C17.0341,28.7759 20.1528,31.8947 24,31.8947 C27.8472,31.8947 30.9659,28.7759 30.9659,24.9288 C30.9659,21.0816 27.8472,17.9629 24,17.9629 M23.7678,19.8204 C24.2807,19.8204 24.6966,20.2363 24.6966,20.7492 L24.6966,24.2322 L28.1796,24.2322 C28.6925,24.2322 29.1083,24.648 29.1083,25.161 L29.1083,25.6254 C29.1083,26.1383 28.6925,26.5542 28.1796,26.5542 L24,26.5542 C23.5356,26.4768 23.0712,26.3994 22.8003,26.1285 C22.5294,25.8576 22.452,25.3932 22.3746,24.9288 L22.3746,20.7492 C22.3746,20.2363 22.7904,19.8204 23.3034,19.8204 L23.7678,19.8204 M30.5015,13.7833 C32.5533,13.7833 34.2167,15.4467 34.2167,17.4985 C34.2167,18.3836 33.9071,19.1965 33.3904,19.8347 C32.179,17.6064 30.1975,15.8573 27.8032,14.9447 C28.4804,14.2295 29.4389,13.7833 30.5015,13.7833 M17.4985,13.7834 C18.5611,13.7834 19.5196,14.2295 20.1968,14.9447 C17.8025,15.8573 15.821,17.6064 14.6097,19.8347 C14.0929,19.1965 13.7833,18.3836 13.7833,17.4985 C13.7833,15.4467 15.4467,13.7834 17.4985,13.7834 Z" style=""/>
  </symbol>
  <use xlink:href="#build"/>
  <symbol id="build" viewBox="48 0 48 48">
    <title>build</title>
    <path d="M39.6321,36.3431 L39.6321,34.4165 C39.6321,33.1071 38.8083,32.3418 37.3989,32.3418 L23.3619,32.3418 C21.4676,32.3418 20.4907,33.1753 20.4907,34.4165 L20.4907,36.9175 C20.4907,38.2139 21.428,38.8624 23.3619,38.8624 L37.3989,38.8624 C38.8083,38.8624 39.6321,37.9916 39.6321,36.3431 M37.0799,36.4913 L23.0429,36.4913 L23.0429,34.7129 L37.0799,34.7129 L37.0799,36.4913 Z" style=""/>
    <path d="M28.7853,18.708 L28.7853,19.3008 L28.7853,24.3814 L28.7853,24.382 L29.5982,26.4141 L28.2303,26.4141 L14.8836,9.13762 L11.9429,10.7856 L12.8342,12.2372 L12.8342,19.8935 L11.8925,19.8935 L12.5254,24.043 L12.8023,24.043 L12.8342,24.043 L12.8342,25.2967 C12.26,25.5391 11.6219,26.0596 11.6219,26.9944 C11.6219,27.6222 11.8855,28.0804 12.2708,28.3863 L8.81073,31.1563 L9.78822,31.1563 L12.8528,28.7028 C13.1303,28.8036 13.427,28.8593 13.7205,28.8593 C14.0153,28.8593 14.3081,28.7864 14.5723,28.6542 L17.8946,31.1563 L18.8906,31.1563 L18.8976,31.148 L15.0757,28.27 C15.3348,27.9801 15.5064,27.5913 15.5064,27.0939 C15.5064,26.7661 15.2206,26.5012 14.8684,26.5012 C14.5162,26.5012 14.2304,26.7661 14.2304,27.0939 C14.2304,27.3068 14.1685,27.4401 14.0875,27.5261 L13.9127,27.3945 C13.7934,27.305 13.6204,27.3062 13.5037,27.4004 L13.2645,27.5919 C13.0577,27.503 12.8982,27.3287 12.8982,26.995 C12.8982,26.4591 13.4706,26.3293 13.5784,26.3103 C13.8859,26.2611 14.1105,26.0145 14.1105,25.7252 L14.1105,24.0429 L14.5572,24.0429 L14.8187,24.0429 L15.7113,19.8934 L15.0676,19.8934 L14.7484,19.8934 L14.7484,15.5911 L22.4049,29.2812 L22.4049,29.3755 L22.4049,29.5539 L22.4049,29.9707 L24.9571,29.9707 L24.9571,31.1562 L33.8897,31.1562 L34.5277,31.1562 L34.5277,29.9707 L37.7179,29.9707 L38.3559,29.9707 L38.3559,18.708 L28.7853,18.708 M23.2662,21.7904 L23.2739,21.8005 L20.6707,23.3744 L22.0093,20.184 L23.2662,21.7904 M14.1103,19.8936 L13.7913,19.8936 L13.4723,19.8936 L13.4723,13.3552 L14.1103,14.4732 L14.1103,19.8936 M14.6654,13.8508 L13.5642,11.9077 L15.2812,10.8591 L14.6654,13.8508 M16.1585,12.0695 L17.3822,14.0422 L15.4069,15.2243 L16.1585,12.0695 M16.3543,16.3576 L18.2155,15.2331 L17.4869,18.3126 L16.3543,16.3576 M19.0022,16.2379 L20.3746,18.0974 L18.3112,19.3251 L19.0022,16.2379 M18.7904,20.7418 L21.0963,19.2741 L19.7831,22.5414 L18.7904,20.7418 M22.2033,26.3785 L21.0912,24.5551 L23.8519,22.7234 L22.2033,26.3785 M23.0697,27.6738 L24.957,23.8948 L26.4922,25.8397 L23.0697,27.6738 M35.8038,24.6358 L31.3375,24.6358 L31.3375,21.0791 L35.8038,21.0791 L35.8038,24.6358 Z" style=""/>
    <path d="M9.00596,34.7129 L8.36795,34.7129 L8.36795,35.8985 L18.5766,35.8985 L18.5766,34.7129 L17.3006,34.7129 L17.3006,33.5274 L17.3006,32.9346 L18.5766,32.9346 L18.5766,31.7491 L8.36795,31.7491 L8.36795,32.9346 L9.64403,32.9346 L9.64403,34.7129 L9.00596,34.7129 Z" style=""/>
  </symbol>
  <use xlink:href="#buildings"/>
  <symbol id="buildings" viewBox="96 0 48 48">
    <title>buildings</title>
    <path d="M34.2019,36.6313 L34.2019,20.3911 L24,20.3911 L24,9.56421 L13.7984,9.56421 L13.7984,36.6313 L12.3409,36.6313 L12.3409,38.4358 L35.6591,38.4358 L35.6591,36.6313 L34.2019,36.6313 M15.2557,11.3688 L18.1705,11.3688 L18.1705,14.9777 L15.2557,14.9777 L15.2557,11.3688 M15.2557,16.7822 L18.1705,16.7822 L18.1705,20.3911 L15.2557,20.3911 L15.2557,16.7822 M15.2557,22.1956 L18.1705,22.1956 L18.1705,25.8044 L15.2557,25.8044 L15.2557,22.1956 M15.2557,27.6089 L18.1705,27.6089 L18.1705,31.2177 L15.2557,31.2177 L15.2557,27.6089 M21.0853,36.6313 L16.7131,36.6313 L16.7131,33.0225 L21.0853,33.0225 L21.0853,36.6313 L21.0853,36.6313 M22.5427,31.2177 L19.6278,31.2177 L19.6278,27.609 L22.5427,27.609 L22.5427,31.2177 M22.5427,25.8044 L19.6278,25.8044 L19.6278,22.1956 L22.5427,22.1956 L22.5427,25.8044 M22.5427,20.3911 L19.6278,20.3911 L19.6278,16.7822 L22.5427,16.7822 L22.5427,20.3911 M22.5427,14.9777 L19.6278,14.9777 L19.6278,11.3688 L22.5427,11.3688 L22.5427,14.9777 M25.4575,22.1956 L28.3723,22.1956 L28.3723,25.8044 L25.4575,25.8044 L25.4575,22.1956 M25.4575,27.6089 L28.3723,27.6089 L28.3723,31.2177 L25.4575,31.2177 L25.4575,27.6089 M31.287,36.6313 L26.9147,36.6313 L26.9147,33.0225 L31.287,33.0225 L31.287,36.6313 M32.7444,31.2177 L29.8295,31.2177 L29.8295,27.609 L32.7444,27.609 L32.7444,31.2177 M32.7444,25.8044 L29.8295,25.8044 L29.8295,22.1956 L32.7444,22.1956 L32.7444,25.8044 Z" style=""/>
  </symbol>
  <use xlink:href="#cloud"/>
  <symbol id="cloud" viewBox="144 0 48 48">
    <title>cloud</title>
    <path d="M36.3069,25.081 C35.5203,24.1452 34.5224,23.5431 33.3143,23.2746 C33.6986,22.7103 33.8902,22.0924 33.8902,21.421 C33.8902,20.4717 33.5389,19.6615 32.8367,18.9899 C32.1344,18.3185 31.2867,17.9826 30.2939,17.9826 C29.3947,17.9826 28.6173,18.2602 27.9619,18.8154 C27.4095,17.5439 26.5312,16.5141 25.3278,15.7261 C24.1242,14.9383 22.7823,14.544 21.3025,14.544 C19.3169,14.544 17.6215,15.2159 16.2165,16.559 C14.8115,17.9019 14.1092,19.5229 14.1092,21.4212 C14.1092,21.5554 14.1186,21.7479 14.1373,21.9986 C13.0509,22.4822 12.1751,23.2142 11.5101,24.1949 C10.8452,25.1752 10.5126,26.2566 10.5126,27.4387 C10.5126,29.0951 11.1285,30.5122 12.3601,31.6896 C13.5917,32.8672 15.0739,33.456 16.8067,33.456 L32.0927,33.456 C33.5816,33.456 34.8531,32.9519 35.9069,31.9449 C36.9606,30.9376 37.4875,29.7221 37.4875,28.2982 C37.4874,27.0895 37.0938,26.0166 36.3069,25.081 Z" style=""/>
  </symbol>
  <use xlink:href="#code"/>
  <symbol id="code" viewBox="192 0 48 48">
    <title>code</title>
    <path d="M36.5576,23.5876 L30.5079,16.5776 C30.3197,16.3596 29.9869,16.3596 29.7988,16.5776 L28.4872,18.0974 C28.2913,18.3243 28.2913,18.6923 28.4872,18.9193 L32.8709,23.9982 L28.4874,29.078 C28.2915,29.305 28.2915,29.6729 28.4874,29.9 L29.799,31.4197 C29.8931,31.5287 30.0207,31.5903 30.1537,31.5903 C30.2864,31.5903 30.4143,31.5287 30.5084,31.4197 L36.5576,24.41 C36.7535,24.1828 36.7535,23.8145 36.5576,23.5876 Z" style=""/>
    <path d="M21.2171,29.078 L16.8341,23.9988 L21.2179,18.9199 C21.312,18.8109 21.3648,18.6633 21.3648,18.5089 C21.3648,18.3548 21.3122,18.2069 21.2179,18.0979 L19.9063,16.5782 C19.8122,16.4692 19.6845,16.4079 19.5516,16.4079 C19.4187,16.4079 19.291,16.4692 19.197,16.5782 L13.1469,23.5875 C12.951,23.8145 12.951,24.1825 13.1469,24.4098 L19.1967,31.4194 C19.2908,31.5284 19.4184,31.59 19.5513,31.59 C19.6843,31.59 19.812,31.5284 19.9061,31.4194 L21.2176,29.8996 C21.4135,29.6729 21.4135,29.305 21.2171,29.078 Z" style=""/>
    <path d="M28.2925,14.2193 C28.2288,14.0839 28.1215,13.9833 27.994,13.9398 L26.9308,13.5762 C26.6654,13.4849 26.386,13.6613 26.3077,13.9691 L21.3717,33.3382 C21.334,33.4862 21.3485,33.6451 21.412,33.7803 C21.4755,33.916 21.5831,34.0163 21.7105,34.0602 L22.7738,34.4238 C22.8212,34.44 22.8691,34.4479 22.916,34.4479 C23.1324,34.4479 23.3324,34.284 23.3969,34.0308 L28.3329,14.6614 C28.3706,14.5135 28.3562,14.3545 28.2925,14.2193 Z" style=""/>
  </symbol>
  <use xlink:href="#components"/>
  <symbol id="components" viewBox="240 0 48 48">
    <title>components</title>
    <path d="M16.58,28.5424 L16.58,20.7118 L23.47,24.4698 L23.47,32.3102 L16.58,28.5424 Z" style=""/>
    <path d="M31.42,20.7118 L31.42,28.5424 L24.53,32.3102 L24.53,24.4698 L31.42,20.7118 Z" style=""/>
    <path d="M24,15.4 L31.2875,19.4471 L24,23.4941 L16.7125,19.4471 L24,15.4 M14.99,29.8176 L18.9691,32.0274 L17.9381,32.6 L17.8636,32.6 L13.4,30.1212 L13.4,17.8789 L17.8636,15.4001 L17.9381,15.4001 L18.9691,15.9726 L14.99,18.1824 L14.99,29.8176 M33.0099,29.8176 L33.01,18.1824 L29.0308,15.9726 L30.0619,15.4 L30.1363,15.4 L34.6,17.8789 L34.5999,30.1212 L30.1363,32.6 L30.0619,32.6 L29.0308,32.0274 L33.0099,29.8176 Z" style=""/>
  </symbol>
  <use xlink:href="#connection"/>
  <symbol id="connection" viewBox="288 0 48 48">
    <title>connection</title>
    <path d="M25.1895,26.1568 L25.1894,30.4703 L27.5684,30.4703 C28.2254,30.4703 28.7579,31.022 28.7579,31.7027 L28.7579,34.1676 C28.7579,34.8482 28.2253,35.4 27.5684,35.4 L20.4316,35.4 C19.7746,35.4 19.2421,34.8482 19.2421,34.1676 L19.2421,31.7027 C19.2421,31.022 19.7746,30.4703 20.4316,30.4703 L22.8105,30.4703 L22.8105,26.1568 L25.1895,26.1568 M29.3526,31.7027 L35.3,31.7027 L35.3,34.1676 L29.3526,34.1676 L29.3526,31.7027 M18.6474,31.7027 L18.6474,34.1676 L12.7,34.1676 L12.7,31.7027 L18.6474,31.7027 M12.7,12.6 L35.3,12.6 L35.3,18.1459 L12.7,18.1459 L12.7,12.6 M34.1105,13.8324 L32.9211,13.8324 L32.9211,16.9135 L34.1105,16.9135 L34.1105,13.8324 M31.7316,13.8324 L30.5421,13.8324 L30.5421,16.9135 L31.7316,16.9135 L31.7316,13.8324 M29.3526,13.8324 L28.1632,13.8324 L28.1632,16.9135 L29.3526,16.9135 L29.3526,13.8324 M13.8895,15.6811 L13.8895,16.9135 L15.0789,16.9135 L15.0789,15.6811 L13.8895,15.6811 M12.7,19.3784 L35.3,19.3784 L35.3,24.9243 L12.7,24.9243 L12.7,19.3784 M34.1105,20.6108 L32.9211,20.6108 L32.9211,23.6919 L34.1105,23.6919 L34.1105,20.6108 M31.7316,20.6108 L30.5421,20.6108 L30.5421,23.6919 L31.7316,23.6919 L31.7316,20.6108 M29.3526,20.6108 L28.1632,20.6108 L28.1632,23.6919 L29.3526,23.6919 L29.3526,20.6108 M13.8895,22.4595 L13.8895,23.6919 L15.0789,23.6919 L15.0789,22.4595 L13.8895,22.4595 Z" style=""/>
  </symbol>
  <use xlink:href="#datalogging"/>
  <symbol id="datalogging" viewBox="0 48 48 48">
    <title>datalogging</title>
    <path d="M15.5708,19.9906 L25.0536,19.9906 L23.2474,21.8694 L16.1729,21.8694 L16.1729,29.3847 L31.8271,29.3847 L31.8271,21.8694 L28.6661,21.8694 L30.4724,19.9906 L32.4292,19.9906 C33.0942,19.9906 33.6333,20.5514 33.6333,21.2432 L33.6333,30.0109 C33.6333,30.7027 33.0942,31.2635 32.4292,31.2635 L15.5708,31.2635 C14.9058,31.2635 14.3667,30.7027 14.3667,30.0109 L14.3667,21.2432 C14.3667,20.5514 14.9058,19.9906 15.5708,19.9906 M30.4881,16.9995 C30.6566,17.1861 30.7409,17.3871 30.7409,17.6027 L30.676,17.92 L30.4881,18.2059 L26.8766,21.9624 L25.965,22.9106 L25.0906,23.8202 L24.3078,24.6345 L23.656,25.3088 L23.1886,25.7913 L22.9567,26.0326 L22.5798,26.3909 L22.0462,26.8288 L21.4629,27.1979 C21.265,27.3009 21.0887,27.3523 20.9341,27.3523 C20.8134,27.3523 20.7168,27.3146 20.6441,27.2389 C20.5714,27.1633 20.5351,27.0604 20.5351,26.9301 C20.5351,26.7693 20.5846,26.5871 20.6836,26.3836 L21.0384,25.7768 L21.456,25.2219 L21.7969,24.8335 L29.3283,16.9995 L29.6032,16.8041 L29.9082,16.7365 C30.1154,16.7365 30.3087,16.8242 30.4881,16.9995 M20.0642,27.2389 L20.6441,27.8421 L19.4844,28.4453 L20.0642,27.2389 Z" style=""/>
  </symbol>
  <use xlink:href="#datasources"/>
  <symbol id="datasources" viewBox="48 48 48 48">
    <title>datasources</title>
    <path d="M24,14.4 C28.6944,14.4 32.5,15.418 32.5,16.6756 L32.5,17.6842 C32.5,18.9399 28.6944,19.9579 24,19.9579 C19.3056,19.9579 15.5,18.9399 15.5,17.6842 L15.5,16.6737 C15.5,15.418 19.3056,14.4 24,14.4 M32.5,31.3263 C32.5,32.582 28.6944,33.6 24,33.6 C19.3056,33.6 15.5,32.582 15.5,31.3263 L15.5,28.2947 C15.5,29.5505 19.3056,30.5684 24,30.5684 C28.692,30.5684 32.496,29.5515 32.5,28.2967 L32.5,31.3263 M32.5,26.7789 C32.5,28.0347 28.6944,29.0526 24,29.0526 C19.3056,29.0526 15.5,28.0347 15.5,26.7789 L15.5,23.7474 C15.5,25.0031 19.3056,26.0211 24,26.0211 C28.692,26.0211 32.496,25.0042 32.5,23.7493 L32.5,26.7789 M32.5,22.2316 C32.5,23.4873 28.6944,24.5053 24,24.5053 C19.3056,24.5053 15.5,23.4873 15.5,22.2316 L15.5,19.2 C15.5,20.4557 19.3056,21.4737 24,21.4737 C28.692,21.4737 32.496,20.4568 32.5,19.2019 L32.5,22.2316 Z" style=""/>
  </symbol>
  <use xlink:href="#download"/>
  <symbol id="download" viewBox="96 48 48 48">
    <title>download</title>
    <path d="M17.4,31.4854 L30.6,31.4854 L30.6,33.9 L17.4,33.9 L17.4,31.4854 M22.4769,14.1 L25.5231,14.1 L25.5231,24 L29.5846,19.4122 L29.5846,24 L24,30.0366 L18.4154,24 L18.4154,19.4122 L22.4769,24 L22.4769,14.1 Z" style=""/>
  </symbol>
  <use xlink:href="#drawer"/>
  <symbol id="drawer" viewBox="144 48 48 48">
    <title>drawer</title>
    <path d="M35.4,17.3639 C35.4,17.6707 35.1231,17.9196 34.7814,17.9196 L13.2186,17.9196 C12.8769,17.9196 12.6,17.6707 12.6,17.3639 L12.6,15.8557 C12.6,15.5488 12.8769,15.3 13.2186,15.3 L34.7814,15.3 C35.1231,15.3 35.4,15.5488 35.4,15.8557 L35.4,17.3639 M35.2233,32.1443 C35.2233,32.4512 34.9464,32.7 34.6047,32.7 L16.7535,32.7 C16.4118,32.7 16.1349,32.4512 16.1349,32.1443 L16.1349,30.6361 C16.1349,30.3293 16.4118,30.0804 16.7535,30.0804 L34.6047,30.0804 C34.9464,30.0804 35.2233,30.3293 35.2233,30.6361 L35.2233,32.1443 M35.4,22.291 C35.4,22.5979 35.1231,22.8466 34.7814,22.8466 L21.4372,22.8466 C21.0956,22.8466 20.8186,22.5979 20.8186,22.291 L20.8186,20.7827 C20.8186,20.4758 21.0956,20.2271 21.4372,20.2271 L34.7814,20.2271 C35.1231,20.2271 35.4,20.4758 35.4,20.7827 L35.4,22.291 M35.2233,27.2505 C35.2233,27.5574 34.9464,27.8062 34.6047,27.8062 L24.4419,27.8062 C24.1003,27.8062 23.8233,27.5574 23.8233,27.2505 L23.8233,25.7424 C23.8233,25.4355 24.1003,25.1867 24.4419,25.1867 L34.6047,25.1867 C34.9464,25.1867 35.2233,25.4355 35.2233,25.7424 L35.2233,27.2505 Z" style=""/>
  </symbol>
  <use xlink:href="#error"/>
  <symbol id="error" viewBox="192 48 48 48">
    <title>error</title>
    <path d="M23.9999,13.6988 C18.477,13.6988 13.9997,18.3109 13.9997,24 C13.9997,29.6888 18.4769,34.3013 23.9997,34.3013 C29.5225,34.3013 34.0002,29.6888 34.0002,24 C34.0002,18.3109 29.5226,13.6988 23.9999,13.6988 M27.7722,27.9261 C27.3729,28.3371 26.7261,28.3371 26.3272,27.9261 L24.0517,25.5822 L21.6725,28.0329 C21.2735,28.4438 20.6266,28.4438 20.2277,28.0329 C19.8284,27.6214 19.8284,26.9553 20.2277,26.544 L22.6066,24.0935 L20.3916,21.812 C19.9927,21.4006 19.9927,20.7345 20.3916,20.3233 C20.7907,19.9122 21.4377,19.9122 21.8369,20.3233 L24.0517,22.6048 L26.1632,20.4297 C26.5623,20.0187 27.2095,20.0185 27.6082,20.4297 C28.0075,20.8411 28.0075,21.5077 27.6082,21.9184 L25.497,24.0934 L27.7723,26.4374 C28.1713,26.8483 28.1715,27.515 27.7722,27.9261 Z" style=""/>
  </symbol>
  <use xlink:href="#explorer"/>
  <symbol id="explorer" viewBox="240 48 48 48">
    <title>explorer</title>
    <path d="M13.2,19.1001 L34.7999,19.1001 L34.7999,33.1 L13.2,33.1 L13.2,19.1001 M32.3314,17.7 L23.0743,17.7 C23.6914,15.6 24.6171,14.9001 24.6171,14.9001 L31.56,14.9 C31.9008,14.9 32.3314,15.3884 32.3314,15.775 L32.3314,17.7 Z" style=""/>
  </symbol>
  <use xlink:href="#flow"/>
  <symbol id="flow" viewBox="288 48 48 48">
    <title>flow</title>
    <path d="M13.9974,21.475 L18.9987,21.475 L18.9987,23.1589 L19.8323,23.1589 C20.6659,22.5976 22.3329,22.0363 23.2591,20.8903 C24.1852,19.7443 25.204,18.0137 26.1765,17.0314 C27.1476,16.0505 28.0726,15.8159 28.9975,15.5823 L28.9975,13.8957 L33.9988,13.8957 L33.9988,18.9474 L28.9975,18.9474 L28.9975,17.2662 C28.0919,17.4998 27.1863,17.7344 26.2211,18.7153 C25.2544,19.6976 24.2278,21.4282 23.292,22.5742 L22.7765,23.1589 L29.0013,23.1589 L29.0013,21.475 L34.0026,21.475 L34.0026,26.5267 L29.0013,26.5267 L29.0013,24.8428 L22.7766,24.8428 C22.9456,25.0199 23.1172,25.2135 23.292,25.4275 C24.2278,26.5735 25.2544,28.3041 26.2211,29.2864 C27.1877,30.2687 28.0945,30.5026 29.0013,30.7364 L29.0013,29.0525 L34.0026,29.0525 L34.0026,34.1043 L29.0013,34.1043 L29.0013,32.4204 C28.0751,32.1865 27.149,31.9526 26.1765,30.9703 C25.204,29.9881 24.1852,28.2574 23.2591,27.1114 C22.3329,25.9654 20.6659,25.4041 19.8323,24.8428 L18.9987,24.8428 L18.9987,26.5267 L13.9974,26.5267 L13.9974,21.475 Z" style=""/>
  </symbol>
  <use xlink:href="#gears"/>
  <symbol id="gears" viewBox="0 96 48 48">
    <title>gears</title>
    <path d="M27.9131,27.0572 C27.9708,26.4599 27.9534,25.8649 27.8658,25.2838 L29.2289,24.6852 C29.1002,24.0346 28.8976,23.3928 28.6169,22.7717 C28.3361,22.1511 27.9873,21.5736 27.5831,21.0436 L26.2191,21.6418 C25.8395,21.1895 25.4022,20.779 24.9131,20.4212 L25.4478,19.0487 C24.8893,18.6786 24.2858,18.3659 23.6415,18.1224 C22.9999,17.8796 22.3409,17.7118 21.6707,17.6188 L21.1355,18.9927 C20.5292,18.9359 19.9251,18.9531 19.3354,19.0394 L18.7314,17.703 C17.3821,17.9642 16.1212,18.528 15.0388,19.3336 L15.6388,20.6613 C15.1787,21.0353 14.762,21.4665 14.399,21.948 L13.0094,21.4229 C12.6302,21.9718 12.3123,22.5669 12.0647,23.2012 C11.8192,23.8355 11.6511,24.4865 11.5567,25.1424 L12.9499,25.6693 C12.8922,26.2665 12.9097,26.8616 12.9973,27.4426 L11.6341,28.0408 C11.7629,28.6919 11.9654,29.3332 12.2462,29.9543 C12.5274,30.5754 12.8757,31.1525 13.2803,31.6824 L14.6435,31.0842 C15.0231,31.537 15.4604,31.9476 15.95,32.3053 L15.4152,33.6787 C15.9737,34.0492 16.5773,34.3615 17.2215,34.605 C17.8631,34.8478 18.5222,35.0156 19.1924,35.1086 L19.7276,33.7346 C20.3338,33.791 20.9378,33.7738 21.5276,33.6875 L22.1316,35.0235 C23.4809,34.7623 24.7427,34.1985 25.8247,33.3928 L25.2242,32.0652 C25.6839,31.6912 26.101,31.2604 26.464,30.7785 L27.8528,31.3035 C28.2319,30.7547 28.5498,30.1596 28.7975,29.5257 C29.0447,28.8914 29.2124,28.24 29.3067,27.5836 L27.9131,27.0572 M24.2098,27.7916 C23.409,29.8478 21.0684,30.8741 18.9809,30.0852 C16.8961,29.2967 15.853,26.9911 16.6533,24.9354 C17.454,22.8796 19.7946,21.8533 21.8808,22.6413 C23.9674,23.4298 25.01,25.7362 24.2098,27.7916 Z" style=""/>
    <path d="M35.4612,16.0677 C35.4588,15.8017 35.4286,15.5416 35.3789,15.2893 L36.4183,14.6839 C36.1565,13.7387 35.646,12.8951 34.9526,12.2318 L33.9106,12.8385 C33.5078,12.5053 33.0422,12.2458 32.534,12.0748 L32.5229,10.8843 C32.0603,10.7644 31.5764,10.698 31.0761,10.7031 C30.5757,10.7083 30.0936,10.7855 29.6328,10.914 L29.6439,12.105 C29.1389,12.2864 28.6786,12.5558 28.2816,12.8969 L27.2281,12.3118 C26.5479,12.9892 26.0529,13.8431 25.808,14.7936 L26.8589,15.3774 C26.8139,15.6312 26.7882,15.8909 26.7906,16.1573 C26.793,16.4238 26.8237,16.6834 26.8734,16.9358 L25.8335,17.541 C26.0958,18.4863 26.6067,19.3303 27.2992,19.9932 L28.3413,19.3865 C28.7445,19.7197 29.2097,19.9793 29.7179,20.1502 L29.7289,21.3413 C30.1919,21.4607 30.6754,21.5274 31.1758,21.5223 C31.6761,21.5172 32.1592,21.44 32.619,21.3115 L32.6079,20.1205 C33.113,19.9391 33.5736,19.6697 33.9703,19.3286 L35.0233,19.9137 C35.7043,19.2363 36.199,18.3824 36.4433,17.4319 L35.3929,16.848 C35.4384,16.5939 35.4637,16.3342 35.4612,16.0677 M31.1451,18.1058 C30.0273,18.1173 29.1127,17.2342 29.1025,16.1336 C29.0924,15.0329 29.9904,14.1308 31.1082,14.1193 C32.2246,14.1078 33.1391,14.9908 33.1492,16.0915 C33.1595,17.1922 32.2615,18.0943 31.1451,18.1058 Z" style=""/>
  </symbol>
  <use xlink:href="#help"/>
  <symbol id="help" viewBox="48 96 48 48">
    <title>help</title>
    <path d="M25.3792,26.8586 L22.6207,26.8586 C22.6207,24 24.2758,23.1425 25.3792,22.5708 C25.793,22.4278 26.0688,22.2849 26.3446,21.999 C26.4826,21.8561 26.7584,21.5703 26.4826,20.9986 C26.2067,20.2839 25.3792,19.5693 24.1379,19.5693 C22.207,19.5693 21.9311,21.2844 21.7932,21.7132 L19.0347,21.2844 C19.1726,19.7122 20.4139,16.7108 24,16.7108 C26.2067,16.7108 28.1377,17.9971 28.9652,19.8551 C29.5168,21.4274 29.2411,22.9995 28.1377,24.1429 C27.586,24.7146 27.0343,25.0005 26.4826,25.1434 C25.655,25.7151 25.3792,25.4293 25.3792,26.8586 Z" style=""/>
    <path d="M24,13.9952 C29.379,13.9952 33.6544,18.4259 33.6544,24 C33.6544,29.574 29.379,34.0048 24,34.0048 C18.6209,34.0048 14.3454,29.574 14.3454,24 C14.3454,18.4259 18.6209,13.9952 24,13.9952 M24,12.5659 C17.9313,12.5659 12.9661,17.7113 12.9661,24 C12.9661,30.2888 17.9313,35.4341 24,35.4341 C30.0686,35.4341 35.0339,30.2888 35.0339,24 C35.0339,17.7113 30.0686,12.5659 24,12.5659 Z" style=""/>
    <path d="M22.4828,28.2878 L25.2413,28.2878 L25.2413,31.1463 L22.4828,31.1463 L22.4828,28.2878 Z" style=""/>
  </symbol>
  <use xlink:href="#home"/>
  <symbol id="home" viewBox="96 96 48 48">
    <title>home</title>
    <path d="M16.1875,34.9025 L16.1875,24 L15.0714,25.2114 L13.3974,22.1829 L24,13.0975 L27.9062,16.4448 L27.9062,14.1574 L30.1383,13.7032 L30.1383,18.3575 L34.6026,22.1829 L32.9285,25.2114 L31.8125,24 L31.8125,34.9025 L16.1875,34.9025 M24,17.2869 L17.8616,22.7886 L17.8616,33.0854 L21.2098,33.0854 L21.2098,26.4229 L26.7901,26.4229 L26.7901,33.0854 L30.1383,33.0854 L30.1383,22.7886 L24,17.2869 Z" style=""/>
  </symbol>
  <use xlink:href="#information"/>
  <symbol id="information" viewBox="144 96 48 48">
    <title>information</title>
    <path d="M31.7786,16.1511 C27.4829,11.8169 20.518,11.8164 16.2219,16.1511 C11.9262,20.4859 11.9266,27.514 16.2219,31.8493 C20.5176,36.183 27.4824,36.1835 31.7786,31.8493 C36.0738,27.514 36.0733,20.4864 31.7786,16.1511 M25.4345,28.8262 C25.4345,29.6259 24.7922,30.274 23.9997,30.274 C23.2073,30.274 22.565,29.6259 22.565,28.8262 L22.565,23.035 C22.565,22.2353 23.2073,21.5872 23.9997,21.5872 C24.7922,21.5872 25.4345,22.2353 25.4345,23.035 L25.4345,28.8262 M23.9744,20.5602 C23.148,20.5602 22.597,19.9695 22.6142,19.2403 C22.597,18.4758 23.148,17.903 23.9911,17.903 C24.8348,17.903 25.3685,18.4763 25.3862,19.2403 C25.3857,19.9695 24.8352,20.5602 23.9744,20.5602 Z" style=""/>
  </symbol>
  <use xlink:href="#language"/>
  <symbol id="language" viewBox="192 96 48 48">
    <title>language</title>
    <path d="M21.5617,24.7257 L21.5617,23.9574 C21.1142,23.6651 20.6909,23.3181 20.3007,22.9066 C19.1706,23.9525 18.0888,24.6149 17.9667,24.6892 L17.8638,24.75 L17.2409,23.7966 L17.3426,23.7345 C17.3553,23.726 18.4561,23.0576 19.5685,22.014 C18.5477,20.5881 18.1549,19.1513 18.1396,19.0892 L18.1104,18.9796 L19.2481,18.6996 L19.2761,18.8104 C19.2786,18.8226 19.6028,19.972 20.3909,21.1556 C21.1702,20.2484 21.624,19.3742 21.7397,18.5498 L16.9612,18.5498 L16.9612,17.3261 L19.5951,17.3261 L19.5951,16.6454 L20.8231,16.6454 L20.8231,17.3249 L23.4571,17.3249 L23.4571,18.5498 L22.927,18.5498 C22.8037,19.6956 22.1961,20.8828 21.1168,22.0822 C21.2617,22.2381 21.4104,22.3805 21.5617,22.5169 L21.5617,22.4378 L21.5617,21.9409 C21.5617,21.5318 21.9075,21.2006 22.3346,21.2006 L25.7732,21.2006 L25.7732,15.3754 C25.7732,15.2731 25.6881,15.1903 25.58,15.1903 L14.4658,15.1903 C14.359,15.1903 14.2726,15.2731 14.2726,15.3754 L14.2726,26.0201 C14.2726,26.1236 14.359,26.2052 14.4658,26.2052 L21.5617,26.2052 L21.5617,24.7257 Z" style=""/>
    <path d="M27.9101,25.0508 L27.8885,25.0508 C27.7818,25.4563 27.6775,25.9701 27.5605,26.3634 L27.1385,27.8088 L28.7097,27.8088 L28.2686,26.3634 C28.1415,25.9592 28.0144,25.4551 27.9101,25.0508 Z" style=""/>
    <path d="M33.534,21.7948 L22.4211,21.7948 C22.3143,21.7948 22.2278,21.8776 22.2278,21.9799 L22.2278,32.6258 C22.2278,32.7281 22.3143,32.8097 22.4211,32.8097 L33.534,32.8097 C33.642,32.8097 33.7274,32.7281 33.7274,32.6258 L33.7274,21.9799 C33.7274,21.8789 33.642,21.7948 33.534,21.7948 M29.4914,30.7068 L28.9436,28.9583 L26.9084,28.9583 L26.4012,30.7068 L24.7359,30.7068 L26.9084,23.9001 L29.0161,23.9001 L31.2191,30.7068 L29.4914,30.7068 Z" style=""/>
  </symbol>
  <use xlink:href="#languages"/>
  <symbol id="languages" viewBox="240 96 48 48">
    <title>languages</title>
    <path d="M17.6427,14.4987 L18.4374,14.4987 C18.8762,14.4987 19.232,14.8531 19.232,15.2904 L19.232,32.7095 C19.232,33.1468 18.8762,33.5013 18.4374,33.5013 L17.6427,33.5013 C17.2038,33.5013 16.848,33.1468 16.848,32.7095 L16.848,15.2904 C16.848,14.8531 17.2038,14.4987 17.6427,14.4987 M20.0267,16.874 C20.8213,16.3461 21.616,15.8183 22.9405,15.9503 C24.2649,16.0822 26.1191,16.8741 27.576,16.8741 C29.0329,16.8741 30.0924,16.0822 31.1519,15.2904 L31.1519,22.4163 C30.0924,23.2081 29.0329,23.9999 27.576,23.9999 C26.1191,23.9999 24.2649,23.2081 22.9405,23.0761 C21.616,22.9442 20.8213,23.472 20.0267,23.9999 L20.0267,16.874 Z" style=""/>
  </symbol>
  <use xlink:href="#loading"/>
  <symbol id="loading" viewBox="288 96 48 48">
    <title>loading</title>
    <path d="M22.9275,7.7 L24.8775,7.7 L24.8775,17.8875 L22.9275,17.8875 L22.9275,7.7 Z" style="stroke:none;fill-rule:nonzero;fill:#0b101b;fill-opacity:1;"/>
    <path d="M30.8712,9.32347 L32.5599,10.3422 L27.6849,19.1649 L25.9962,18.1461 L30.8712,9.32347 Z" style="stroke:none;fill-rule:nonzero;fill:#d7dce0;fill-opacity:0.2;"/>
    <path d="M36.9737,14.8795 L37.9487,16.644 L29.505,21.7378 L28.53,19.9733 L36.9737,14.8795 Z" style="stroke:none;fill-rule:nonzero;fill:#d7dce0;fill-opacity:0.2;"/>
    <path d="M39.6,22.8794 L39.6,24.9169 L29.85,24.9169 L29.85,22.8794 L39.6,22.8794 Z" style="stroke:none;fill-rule:nonzero;fill:#d7dce0;fill-opacity:0.2;"/>
    <path d="M38.0462,31.1795 L37.0712,32.944 L28.6275,27.8503 L29.6025,26.0858 L38.0462,31.1795 Z" style="stroke:none;fill-rule:nonzero;fill:#d7dce0;fill-opacity:0.2;"/>
    <path d="M32.7288,37.5559 L31.0401,38.5747 L26.1651,29.752 L27.8538,28.7333 L32.7288,37.5559 Z" style="stroke:none;fill-rule:nonzero;fill:#c2cad0;fill-opacity:0.298039;"/>
    <path d="M25.0725,40.3 L23.1225,40.3 L23.1225,30.1125 L25.0725,30.1125 L25.0725,40.3 Z" style="stroke:none;fill-rule:nonzero;fill:#afb9c1;fill-opacity:0.4;"/>
    <path d="M17.1288,38.6765 L15.4401,37.6578 L20.3151,28.8351 L22.0038,29.8539 L17.1288,38.6765 Z" style="stroke:none;fill-rule:nonzero;fill:#9aa7b1;fill-opacity:0.501961;"/>
    <path d="M11.0263,33.1205 L10.0513,31.356 L18.495,26.2622 L19.47,28.0267 L11.0263,33.1205 Z" style="stroke:none;fill-rule:nonzero;fill:#8696a1;fill-opacity:0.6;"/>
    <path d="M8.4,25.1206 L8.4,23.0831 L18.15,23.0831 L18.15,25.1206 L8.4,25.1206 Z" style="stroke:none;fill-rule:nonzero;fill:#728491;fill-opacity:0.701961;"/>
    <path d="M9.95375,16.8205 L10.9288,15.056 L19.3725,20.1497 L18.3975,21.9142 L9.95375,16.8205 Z" style="stroke:none;fill-rule:nonzero;fill:#5e7382;fill-opacity:0.8;"/>
    <path d="M15.2712,10.4441 L16.9599,9.42535 L21.8349,18.248 L20.1462,19.2667 L15.2712,10.4441 Z" style="stroke:none;fill-rule:nonzero;fill:#4a6172;fill-opacity:0.901961;"/>
  </symbol>
  <use xlink:href="#more"/>
  <symbol id="more" viewBox="0 144 48 48">
    <title>more</title>
    <path d="M23.983,21.3 C22.4766,21.3 21.2596,22.5066 21.2596,24 C21.2596,25.4934 22.4766,26.7 23.983,26.7 C25.4894,26.7 26.7064,25.4934 26.7064,24 C26.7064,22.5066 25.4894,21.3 23.983,21.3 Z" style="stroke:none;fill-rule:nonzero;fill:#e7f0fb;fill-opacity:1;"/>
    <path d="M13.1234,21.3 C11.617,21.3 10.4,22.5066 10.4,24 C10.4,25.4934 11.617,26.7 13.1234,26.7 C14.6298,26.7 15.8468,25.4934 15.8468,24 C15.8468,22.5066 14.6213,21.3 13.1234,21.3 Z" style="stroke:none;fill-rule:nonzero;fill:#e7f0fb;fill-opacity:1;"/>
    <path d="M34.8766,21.3 C33.3702,21.3 32.1532,22.5066 32.1532,24 C32.1532,25.4934 33.3702,26.7 34.8766,26.7 C36.383,26.7 37.6,25.4934 37.6,24 C37.6,22.5066 36.383,21.3 34.8766,21.3 Z" style="stroke:none;fill-rule:nonzero;fill:#e7f0fb;fill-opacity:1;"/>
  </symbol>
  <use xlink:href="#moreV"/>
  <symbol id="moreV" viewBox="48 144 48 48">
    <title>moreV</title>
    <path d="M24,18.9 C22.57,18.9 21.4,17.7525 21.4,16.35 C21.4,14.9476 22.57,13.8 24,13.8 C25.43,13.8 26.6,14.9476 26.6,16.35 C26.6,17.7525 25.43,18.9 24,18.9 M24,21.45 C25.43,21.45 26.6,22.5976 26.6,24 C26.6,25.4025 25.43,26.55 24,26.55 C22.57,26.55 21.4,25.4025 21.4,24 C21.4,22.5976 22.57,21.45 24,21.45 M24,29.1 C25.43,29.1 26.6,30.2476 26.6,31.65 C26.6,33.0525 25.43,34.2 24,34.2 C22.57,34.2 21.4,33.0525 21.4,31.65 C21.4,30.2476 22.57,29.1 24,29.1 Z" style="stroke:none;fill-rule:evenodd;fill:#e7f0fb;fill-opacity:1;"/>
  </symbol>
  <use xlink:href="#notification"/>
  <symbol id="notification" viewBox="96 144 48 48">
    <title>notification</title>
    <path d="M12.884,28.3195 L12.884,14.4237 L35.116,14.4237 L35.116,28.3195 L27.0894,28.3195 L24,33.5763 L20.9106,28.3195 " style="stroke:none;fill-rule:evenodd;fill:#e7f0fb;fill-opacity:1;"/>
  </symbol>
  <use xlink:href="#notifications"/>
  <symbol id="notifications" viewBox="144 144 48 48">
    <title>notifications</title>
    <path d="M12.6,16.5789 L33.2791,16.5789 L33.2791,28.4526 L27.9767,28.4526 L22.9395,33.4 L17.9023,28.4526 L12.6,28.4526 L12.6,16.5789 M14.1907,16.0842 L14.1907,14.6 L35.4,14.6 L35.4,26.9684 L33.8093,26.9272 L33.8093,16.0842 L14.1907,16.0842 Z" style="stroke:none;fill-rule:evenodd;fill:#e7f0fb;fill-opacity:1;"/>
  </symbol>
  <use xlink:href="#pages"/>
  <symbol id="pages" viewBox="192 144 48 48">
    <title>pages</title>
    <path d="M18.1667,16.0409 L23.65,16.0409 L23.1833,15.5727 L16.7667,15.5727 L16.7667,30.0864 L18.1667,30.0864 L18.1667,16.0409 M27.15,16.0409 L33.1,22.0102 L33.1,34.3 L18.1667,34.3 L18.1667,31.9591 L14.9,31.9591 L14.9,13.7 L23.8833,13.7 L26.2167,16.0409 L27.15,16.0409 M20.0333,17.9136 L20.0333,32.4273 L31.2333,32.4273 L31.2333,24 L25.1667,24 L25.1667,17.9136 L20.0333,17.9136 M27.0333,18.4989 L27.0333,22.1273 L30.65,22.1273 L27.0333,18.4989 Z" style="stroke:none;fill-rule:nonzero;fill:#e7f0fb;fill-opacity:1;"/>
  </symbol>
  <use xlink:href="#project"/>
  <symbol id="project" viewBox="240 144 48 48">
    <title>project</title>
    <path d="M14.8619,24 L14.8619,14.7368 L17.2667,14.7368 L17.2667,13.579 L19.6714,13.579 L19.6714,13 L28.2083,13 L33.1381,18.9342 L33.1381,24 L34.1,24 L34.1,35 L33.8996,35 L14.1004,35 L13.9,35 L13.9,24 L14.8619,24 M17.2667,24 L17.2667,16.4737 L16.3048,16.4737 L16.3048,24 L17.2667,24 M18.7095,15.3158 L18.7095,24 L19.6714,24 L19.6714,15.3158 L18.7095,15.3158 M26.4048,28.6316 L26.4048,30.3684 L21.5952,30.3684 L21.5952,28.6316 L26.4048,28.6316 M31.6952,24 L31.6952,21.1053 L26.4048,21.1053 L26.4048,14.7368 L21.1143,14.7368 L21.1143,24 L31.6952,24 M27.8476,15.1711 L27.8476,19.3684 L31.3345,19.3684 L27.8476,15.1711 M15.8238,26.3158 L15.8238,32.6842 L32.1762,32.6842 L32.1762,26.3158 L15.8238,26.3158 Z" style="stroke:none;fill-rule:nonzero;fill:#e7f0fb;fill-opacity:1;"/>
  </symbol>
  <use xlink:href="#properties"/>
  <symbol id="properties" viewBox="288 144 48 48">
    <title>properties</title>
    <path d="M28.7846,23.9562 L30.4035,22.3912 C30.7074,22.5369 30.996,22.7153 31.2657,22.9225 L30.975,25.3028 L33.1015,25.4865 C33.2231,25.8256 33.3165,26.1809 33.3783,26.5489 L31.679,28.0007 L33.0674,29.8253 C32.9382,30.1679 32.78,30.4931 32.5961,30.7972 L30.4842,30.4694 L30.3213,32.8663 C30.0204,33.0034 29.7051,33.1086 29.3786,33.1783 L28.0907,31.2629 L26.4718,32.8279 C26.1679,32.6823 25.8793,32.5039 25.6095,32.2967 L25.9003,29.9163 L23.7738,29.7327 C23.6521,29.3936 23.5588,29.0382 23.497,28.6702 L25.1963,27.2185 L23.8079,25.3938 C23.9371,25.0513 24.0953,24.726 24.2792,24.422 L26.391,24.7497 L26.554,22.3529 C26.8548,22.2157 27.1701,22.1105 27.4966,22.0409 L28.7846,23.9562 M28.4376,25.3425 C27.3268,25.3425 26.4262,26.3575 26.4262,27.6096 C26.4262,28.8617 27.3268,29.8767 28.4376,29.8767 C29.5485,29.8767 30.449,28.8617 30.449,27.6096 C30.449,26.3575 29.5485,25.3425 28.4376,25.3425 M14.6217,14.8217 L17.9155,14.8217 L17.9155,18.5342 L14.6217,18.5342 L14.6217,14.8217 M14.6217,19.9263 L17.9155,19.9263 L17.9155,23.6388 L14.6217,23.6388 L14.6217,19.9263 M19.5624,14.8217 L30.2671,14.8217 L30.2671,18.5342 L19.5624,18.5342 L19.5624,14.8217 M14.6217,25.031 L17.9155,25.031 L17.9155,28.7435 L14.6217,28.7435 L14.6217,25.031 M19.5624,19.9263 L30.2671,19.9263 L30.2671,21.8439 L28.8481,23.1326 L27.5468,21.3185 L26.1627,21.9406 L25.8654,23.6388 L25.2235,23.6388 L23.4221,23.3668 L23.2656,23.6388 L19.5624,23.6388 L19.5624,19.9263 M19.5624,25.031 L22.9691,25.031 L24.2598,27.0944 L22.5588,28.7435 L19.5624,28.7435 L19.5624,25.031 M28.4144,25.9591 C29.2102,25.9591 29.8554,26.6863 29.8554,27.5833 C29.8554,28.4804 29.2102,29.2075 28.4144,29.2075 C27.6185,29.2075 26.9733,28.4804 26.9733,27.5833 C26.9733,26.6863 27.6185,25.9591 28.4144,25.9591 Z" style="stroke:none;fill-rule:evenodd;fill:#e7f0fb;fill-opacity:1;"/>
  </symbol>
  <use xlink:href="#recipes"/>
  <symbol id="recipes" viewBox="0 192 48 48">
    <title>recipes</title>
    <path d="M35.792,15.9957 C35.6583,15.7746 35.4377,15.6197 35.1833,15.5691 L21.6794,12.3529 C21.2343,12.2677 20.7952,12.5105 20.6412,12.9306 L15.4939,25.8494 L17.2123,26.4682 L22.0903,14.1844 L33.8236,17.1424 C33.0908,19.3867 31.3471,24.071 29.6756,28.4326 C28.2183,32.2382 27.3798,33.5413 25.7859,33.8074 C25.784,33.8056 25.7823,33.8037 25.7823,33.8009 C22.5249,34.2521 22.5833,30.1494 22.5833,30.1494 L12.1801,25.9978 C11.4408,30.6272 15.0413,31.7406 15.0413,31.7406 L22.658,35.157 C22.6599,35.158 23.8489,35.7175 25.1412,35.6599 C28.6269,35.5789 29.8518,33.0784 31.3867,29.0722 C33.6041,23.2825 35.8548,16.7952 35.8769,16.7264 C35.9562,16.4809 35.9249,16.2162 35.792,15.9957 Z" style="stroke:none;fill-rule:evenodd;fill:#e7f0fb;fill-opacity:1;"/>
    <path d="M29.6367,21.2055 C29.716,21.2269 29.7982,21.2383 29.8792,21.2383 C30.2804,21.2383 30.6475,20.974 30.7599,20.573 C30.8937,20.0914 30.605,19.5938 30.1181,19.4626 L26.1548,18.2541 C25.6734,18.1225 25.1641,18.4054 25.0313,18.8866 C24.8984,19.3681 25.1845,19.8657 25.6732,19.9974 L29.6367,21.2055 Z" style="stroke:none;fill-rule:evenodd;fill:#e7f0fb;fill-opacity:1;"/>
    <path d="M23.444,22.5058 C23.2852,22.9802 23.543,23.491 24.0219,23.6493 L27.9644,25.0412 C28.0601,25.0727 28.1542,25.0868 28.2491,25.0873 C28.6336,25.0893 28.9939,24.8497 29.1223,24.4702 C29.2816,23.9971 29.0242,23.4856 28.5434,23.3274 L24.6023,21.9363 C24.1208,21.7789 23.6047,22.0337 23.444,22.5058 Z" style="stroke:none;fill-rule:evenodd;fill:#e7f0fb;fill-opacity:1;"/>
    <path d="M23.0971,25.7078 C22.6175,25.5492 22.0996,25.8079 21.9428,26.2837 C21.785,26.7558 22.0479,27.268 22.5275,27.4228 L26.4783,28.809 C26.5736,28.8408 26.6683,28.8544 26.7644,28.8544 C27.1481,28.8544 27.506,28.613 27.6324,28.2339 C27.7901,27.7591 27.5282,27.2479 27.0485,27.0929 L23.0971,25.7078 Z" style="stroke:none;fill-rule:evenodd;fill:#e7f0fb;fill-opacity:1;"/>
    <path d="M22.9509,17.2004 C23.5107,17.2004 23.9651,17.6369 23.9651,18.1746 C23.9651,18.7126 23.5107,19.1487 22.9509,19.1487 C22.3905,19.1487 21.9363,18.7126 21.9363,18.1746 C21.9363,17.6369 22.3905,17.2004 22.9509,17.2004 Z" style="stroke:none;fill-rule:evenodd;fill:#e7f0fb;fill-opacity:1;"/>
    <path d="M21.516,20.8218 C22.0765,20.8218 22.5303,21.2578 22.5303,21.7954 C22.5303,22.3327 22.0765,22.7687 21.516,22.7687 C20.9558,22.7687 20.5014,22.3327 20.5014,21.7954 C20.5014,21.2579 20.9558,20.8218 21.516,20.8218 Z" style="stroke:none;fill-rule:evenodd;fill:#e7f0fb;fill-opacity:1;"/>
    <path d="M19.9858,24.5581 C20.5463,24.5581 21.0005,24.9945 21.0005,25.5331 C21.0005,26.0707 20.5463,26.5063 19.9858,26.5063 C19.4255,26.5063 18.9712,26.0708 18.9712,25.5331 C18.9712,24.9945 19.4255,24.5581 19.9858,24.5581 Z" style="stroke:none;fill-rule:evenodd;fill:#e7f0fb;fill-opacity:1;"/>
  </symbol>
  <use xlink:href="#search"/>
  <symbol id="search" viewBox="48 192 48 48">
    <title>search</title>
    <path d="M27.02,17.1573 C24.2746,14.4501 19.806,14.4501 17.0606,17.1573 C14.3157,19.8649 14.3157,24.2705 17.0606,26.9783 C19.5055,29.3885 23.3133,29.6468 26.0571,27.7646 C26.1148,28.0341 26.247,28.2911 26.4594,28.5005 L30.4577,32.4431 C31.0404,33.0164 31.9819,33.0164 32.5616,32.4431 C33.1436,31.8692 33.1436,30.9407 32.5616,30.3686 L28.5633,26.4248 C28.352,26.2171 28.0907,26.0863 27.8176,26.0294 C29.7275,23.3234 29.4656,19.5692 27.02,17.1573 M25.7577,25.7336 C23.708,27.7547 20.372,27.7547 18.3229,25.7336 C16.2744,23.7124 16.2744,20.4237 18.3229,18.4026 C20.372,16.382 23.708,16.382 25.7577,18.4026 C27.8075,20.4237 27.8075,23.7124 25.7577,25.7336 Z" style="stroke:none;fill-rule:evenodd;fill:#e7f0fb;fill-opacity:1;"/>
  </symbol>
  <use xlink:href="#settings-bars"/>
  <symbol id="settings-bars" viewBox="96 192 48 48">
    <title>settings-bars</title>
    <path d="M12.1619,29.9316 L12.1619,32.3027 L20.0519,32.3027 L20.0519,29.9316 L12.1619,29.9316 M12.1619,15.6972 L12.1619,18.0683 L25.316,18.0683 L25.316,15.6972 L12.1619,15.6972 M25.316,34.6765 L25.316,32.3027 L35.838,32.3027 L35.838,29.9316 L25.316,29.9316 L25.316,27.5579 L22.6839,27.5579 L22.6839,34.6765 L25.316,34.6765 M17.4259,20.442 L17.4259,22.8131 L12.1619,22.8131 L12.1619,25.1868 L17.4259,25.1868 L17.4259,27.5579 L20.0519,27.5579 L20.0519,20.442 L17.4259,20.442 M35.838,25.1868 L35.838,22.8131 L22.6839,22.8131 L22.6839,25.1868 L35.838,25.1868 M27.9479,20.442 L30.5739,20.442 L30.5739,18.0683 L35.838,18.0683 L35.838,15.6972 L30.574,15.6972 L30.574,13.3235 L27.9479,13.3235 C27.9479,13.3235 27.9479,20.442 27.9479,20.442 Z" style="stroke:none;fill-rule:evenodd;fill:#e7f0fb;fill-opacity:1;"/>
  </symbol>
  <use xlink:href="#settings"/>
  <symbol id="settings" viewBox="144 192 48 48">
    <title>settings</title>
    <path d="M28.2928,28.6278 C28.3566,27.962 28.3374,27.2986 28.2404,26.651 L29.7488,25.9837 C29.6063,25.2584 29.3822,24.543 29.0715,23.8506 C28.7608,23.1588 28.375,22.5151 27.9277,21.9243 L26.4183,22.5912 C25.9983,22.0869 25.5144,21.6292 24.9732,21.2305 L25.5649,19.7005 C24.947,19.288 24.2791,18.9394 23.5662,18.6679 C22.8562,18.3973 22.127,18.2102 21.3854,18.1066 L20.7932,19.6381 C20.1224,19.5748 19.454,19.5939 18.8014,19.6902 L18.133,18.2004 C16.6399,18.4916 15.2448,19.1201 14.0471,20.0182 L14.711,21.4981 C14.2019,21.915 13.7408,22.3957 13.3391,22.9324 L11.8015,22.3471 C11.3819,22.9589 11.0302,23.6223 10.7561,24.3294 C10.4845,25.0365 10.2985,25.7622 10.1941,26.4934 L11.7357,27.0806 C11.6719,27.7465 11.6912,28.4098 11.7881,29.0575 L10.2797,29.7243 C10.4222,30.45 10.6463,31.165 10.957,31.8573 C11.2682,32.5497 11.6536,33.1929 12.1013,33.7836 L13.6097,33.1168 C14.0297,33.6216 14.5136,34.0792 15.0553,34.4779 L14.4636,36.009 C15.0815,36.4219 15.7494,36.7701 16.4623,37.0416 C17.1723,37.3121 17.9015,37.4992 18.6431,37.6028 L19.2353,36.0713 C19.9062,36.1342 20.5745,36.115 21.2271,36.0188 L21.8955,37.5081 C23.3886,37.2169 24.7847,36.5884 25.9819,35.6903 L25.3175,34.2103 C25.8261,33.7934 26.2877,33.3132 26.6894,32.776 L28.226,33.3613 C28.6456,32.7495 28.9973,32.0861 29.2714,31.3796 C29.545,30.6725 29.7305,29.9463 29.8349,29.2146 L28.2928,28.6278 M24.195,29.4464 C23.3089,31.7385 20.719,32.8826 18.4091,32.0032 C16.1022,31.1242 14.948,28.5542 15.8335,26.2626 C16.7196,23.9709 19.3095,22.8269 21.6179,23.7053 C23.9268,24.5842 25.0805,27.1553 24.195,29.4464 Z" style="stroke:none;fill-rule:evenodd;fill:#d3d7db;fill-opacity:0.701961;"/>
    <path d="M36.6345,16.115 C36.615,15.8191 36.5652,15.5315 36.4943,15.2537 L37.6042,14.517 C37.2551,13.4808 36.6378,12.5728 35.8297,11.8765 L34.7169,12.6147 C34.2507,12.2682 33.7198,12.0075 33.1476,11.8479 L33.0599,10.5235 C32.5413,10.4181 32.0024,10.3735 31.45,10.4094 C30.8976,10.4454 30.3698,10.5605 29.8689,10.7314 L29.9565,12.0563 C29.4101,12.2887 28.9187,12.6165 28.5016,13.0201 L27.3006,12.4325 C26.5921,13.2276 26.0992,14.208 25.889,15.2807 L27.087,15.8669 C27.0533,16.1521 27.0413,16.4427 27.0608,16.7391 C27.0804,17.0355 27.1306,17.3226 27.2016,17.6005 L26.0911,18.3371 C26.4408,19.3733 27.0586,20.2818 27.8657,20.9776 L28.9785,20.2394 C29.4452,20.5859 29.9755,20.8466 30.5479,21.0062 L30.6355,22.3311 C31.1545,22.436 31.693,22.4811 32.2454,22.4452 C32.7978,22.4092 33.3267,22.294 33.8265,22.1232 L33.7389,20.7983 C34.2853,20.5659 34.7773,20.2381 35.1938,19.8345 L36.3943,20.4221 C37.1038,19.6269 37.5962,18.6466 37.8059,17.574 L36.6085,16.9877 C36.6426,16.702 36.6541,16.4114 36.6345,16.115 M31.9951,18.6444 C30.7609,18.7248 29.6946,17.7973 29.6136,16.5728 C29.5327,15.3484 30.4677,14.29 31.7018,14.2096 C32.9345,14.1293 34.0008,15.0568 34.0818,16.2813 C34.1628,17.5057 33.2278,18.5641 31.9951,18.6444 Z" style="stroke:none;fill-rule:evenodd;fill:#d3d7db;fill-opacity:0.701961;"/>
  </symbol>
  <use xlink:href="#switch"/>
  <symbol id="switch" viewBox="192 192 48 48">
    <title>switch</title>
    <path d="M465.455,203.636 L465.455,296.727 C465.455,303.709 460.8,308.363 453.819,308.363 L58.182,308.363 C51.2,308.363 46.546,303.708 46.546,296.727 L46.546,203.636 C46.545,196.655 51.2,192 58.182,192 L453.818,192 C459.636,192 465.455,196.655 465.455,203.636 Z" style="stroke:none;fill-rule:nonzero;fill:#595a66;fill-opacity:1;"/>
    <path d="M244.364,273.455 C237.382,273.455 232.728,268.8 232.728,261.819 L232.728,238.545 C232.728,231.563 237.383,226.909 244.364,226.909 C251.346,226.909 256,231.564 256,238.545 L256,261.818 C256,268.8 251.345,273.455 244.364,273.455 Z" style="stroke:none;fill-rule:nonzero;fill:#35363e;fill-opacity:1;"/>
    <path d="M279.273,273.455 C272.291,273.455 267.637,268.8 267.637,261.819 L267.637,238.545 C267.637,231.563 272.292,226.909 279.273,226.909 C286.254,226.909 290.909,231.564 290.909,238.545 L290.909,261.818 C290.909,268.8 286.255,273.455 279.273,273.455 Z" style="stroke:none;fill-rule:nonzero;fill:#35363e;fill-opacity:1;"/>
    <path d="M314.182,273.455 C307.2,273.455 302.546,268.8 302.546,261.819 L302.546,238.545 C302.546,231.563 307.201,226.909 314.182,226.909 C321.163,226.909 325.818,231.564 325.818,238.545 L325.818,261.818 C325.818,268.8 321.164,273.455 314.182,273.455 Z" style="stroke:none;fill-rule:nonzero;fill:#35363e;fill-opacity:1;"/>
    <path d="M349.091,273.455 C342.109,273.455 337.455,268.8 337.455,261.819 L337.455,238.545 C337.455,231.563 342.11,226.909 349.091,226.909 C356.073,226.909 360.727,231.564 360.727,238.545 L360.727,261.818 C360.727,268.8 356.073,273.455 349.091,273.455 Z" style="stroke:none;fill-rule:nonzero;fill:#35363e;fill-opacity:1;"/>
    <path d="M384,273.455 C377.018,273.455 372.364,268.8 372.364,261.819 L372.364,238.545 C372.364,231.563 377.019,226.909 384,226.909 C390.982,226.909 395.636,231.564 395.636,238.545 L395.636,261.818 C395.636,268.8 390.982,273.455 384,273.455 Z" style="stroke:none;fill-rule:nonzero;fill:#35363e;fill-opacity:1;"/>
    <path d="M418.909,273.455 C411.927,273.455 407.273,268.8 407.273,261.819 L407.273,238.545 C407.273,231.563 411.928,226.909 418.909,226.909 C425.891,226.909 430.545,231.564 430.545,238.545 L430.545,261.818 C430.545,268.8 425.891,273.455 418.909,273.455 Z" style="stroke:none;fill-rule:nonzero;fill:#35363e;fill-opacity:1;"/>
    <path d="M104.727,250.182 C104.727,256.608 99.5174,261.818 93.091,261.818 C86.6646,261.818 81.455,256.608 81.455,250.182 C81.455,243.756 86.6646,238.546 93.091,238.546 C99.5174,238.546 104.727,243.756 104.727,250.182 Z" style="stroke:none;fill-rule:evenodd;fill:#89c763;fill-opacity:1;"/>
    <path d="M139.636,250.182 C139.636,256.608 134.426,261.818 128,261.818 C121.574,261.818 116.364,256.608 116.364,250.182 C116.364,243.756 121.574,238.546 128,238.546 C134.426,238.546 139.636,243.756 139.636,250.182 Z" style="stroke:none;fill-rule:evenodd;fill:#ffcb5b;fill-opacity:1;"/>
    <path d="M174.545,250.182 C174.545,256.608 169.335,261.818 162.909,261.818 C156.483,261.818 151.273,256.608 151.273,250.182 C151.273,243.756 156.483,238.546 162.909,238.546 C169.335,238.546 174.545,243.756 174.545,250.182 Z" style="stroke:none;fill-rule:evenodd;fill:#ffcb5b;fill-opacity:1;"/>
    <path d="M296.727,203.636 L75.636,203.636 C72.145,203.636 69.818,201.309 69.818,197.818 C69.818,194.327 72.145,192 75.636,192 L296.727,192 C300.218,192 302.545,194.327 302.545,197.818 C302.545,201.309 300.218,203.636 296.727,203.636 Z" style="stroke:none;fill-rule:nonzero;fill:#6f707e;fill-opacity:1;"/>
    <path d="M459.636,215.273 C456.145,215.273 453.818,217.6 453.818,221.091 L453.818,296.727 L46.545,296.727 C46.545,303.709 51.2,308.363 58.181,308.363 L453.817,308.363 C460.799,308.363 465.453,303.708 465.453,296.727 L465.453,221.091 C465.455,217.6 463.127,215.273 459.636,215.273 Z" style="stroke:none;fill-rule:nonzero;fill:#494a52;fill-opacity:1;"/>
    <path d="M81.455,308.364 L430.546,308.364 L430.546,320 L81.455,320 L81.455,308.364 Z" style="stroke:none;fill-rule:evenodd;fill:#35363e;fill-opacity:1;"/>
  </symbol>
  <use xlink:href="#usermanagement"/>
  <symbol id="usermanagement" viewBox="240 192 48 48">
    <title>usermanagement</title>
    <path d="M23.8937,15.2 C25.2361,15.2 26.3243,16.3059 26.3243,17.6702 C26.3243,19.0344 25.2361,20.1404 23.8937,20.1404 C22.5513,20.1404 21.463,19.0344 21.463,17.6702 C21.463,16.3059 22.5513,15.2 23.8937,15.2 M21.463,23.2513 C21.1389,23.4159 20.6047,24.8491 20.8977,25.0422 L19.3198,24.7472 C20.3932,24.352 20.6082,23.6917 20.6954,22.4871 L20.6127,21.7381 C20.9652,21.4399 21.4866,20.7811 21.9491,20.7811 L25.8382,20.7811 C26.3108,20.7811 26.7261,20.9854 27.0839,21.2948 L27.3117,22.1474 C27.3117,23.1541 28.0663,23.4568 28.8549,23.9443 L27.7523,23.9209 C27.4656,23.9105 27.2002,23.9761 26.9557,24.0954 C26.7487,23.7338 26.4928,23.3368 26.3243,23.2513 L26.379,24.5018 C25.3501,25.4621 24.8355,27.2736 24.8355,27.2736 L24.6577,28.1709 L24.1367,28.1916 C23.7871,28.1916 23.4438,28.1638 23.109,28.1103 C22.8424,27.3907 22.2613,26.0917 21.3658,25.4858 L21.463,23.2513 M17.8474,19.8084 C19.1899,19.8084 20.2781,20.9143 20.2781,22.2786 C20.2781,23.6428 19.1899,24.7488 17.8474,24.7488 C16.505,24.7488 15.4168,23.6428 15.4168,22.2786 C15.4168,20.9143 16.505,19.8084 17.8474,19.8084 M15.4168,27.8596 C15.0927,28.0243 14.4445,29.3417 14.4445,29.3417 C14.4445,29.3417 14.1205,29.8358 13.9584,31.8119 L12.5,31.3179 L12.9861,28.8477 C12.9861,28.8477 13.9584,25.3895 15.9029,25.3895 L19.7919,25.3895 C21.7365,25.3895 22.7087,28.8477 22.7087,28.8477 L23.1948,31.3179 L21.7365,31.8119 C21.5744,29.8358 21.2504,29.3417 21.2504,29.3417 C21.2504,29.3417 20.6022,28.0243 20.2781,27.8596 L20.4745,32.3463 C19.7355,32.6392 18.9315,32.8 18.0905,32.8 C17.0654,32.8 16.0951,32.5611 15.2307,32.1352 L15.4168,27.8596 M30.1526,18.8733 C31.495,18.9219 32.5833,20.0672 32.5833,21.4314 C32.5833,22.7957 31.495,23.8622 30.1526,23.8137 C28.8102,23.7651 27.7219,22.6198 27.7219,21.2556 C27.7219,19.8913 28.8102,18.8248 30.1526,18.8733 M27.7219,26.8366 C27.3979,26.9895 26.7497,28.2835 26.7497,28.2835 C26.7497,28.2835 26.4256,28.7658 26.2636,30.7361 L24.8052,30.1893 L25.2913,27.7367 C25.2913,27.7367 26.2636,24.3137 28.208,24.3841 L32.0971,24.5248 C34.0417,24.5951 35.0139,28.0885 35.0139,28.0885 L35.5,30.5763 L34.0417,31.0175 C33.8796,29.0355 33.5555,28.5298 33.5555,28.5298 C33.5555,28.5298 32.9073,27.1889 32.5833,27.0125 L32.7796,31.5063 C32.0407,31.7724 31.2367,31.9041 30.3957,31.8737 C29.3705,31.8366 28.4003,31.5626 27.5359,31.1054 L27.7219,26.8366 Z" style="stroke:none;fill-rule:nonzero;fill:#e7f0fb;fill-opacity:1;"/>
  </symbol>
  <use xlink:href="#users"/>
  <symbol id="users" viewBox="288 192 48 48">
    <title>users</title>
    <path d="M33.3894,19.9982 C32.8754,18.773 32.1399,17.6784 31.2039,16.7311 C30.2679,15.788 29.1773,15.047 27.9613,14.5292 C26.7077,13.9987 25.3706,13.725 23.9958,13.725 C22.6211,13.725 21.2839,13.9987 20.0261,14.5334 C18.8143,15.0512 17.7237,15.7922 16.7877,16.7353 C15.8517,17.6784 15.1163,18.7773 14.6023,20.0024 C14.0716,21.2655 13.8,22.6127 13.8,23.9979 C13.8,25.3831 14.0716,26.7303 14.6023,27.9976 C15.1163,29.2228 15.8517,30.3216 16.7877,31.2647 C17.7237,32.2078 18.8143,32.9488 20.0303,33.4666 C21.2881,34.0013 22.6252,34.275 24,34.275 C25.3748,34.275 26.7119,34.0013 27.9697,33.4666 C29.1857,32.9488 30.2721,32.2078 31.2123,31.2647 C32.1483,30.3216 32.8837,29.2228 33.3977,27.9976 C33.9284,26.7303 34.2,25.3831 34.2,23.9979 C34.2,22.6127 33.92,21.2655 33.3894,19.9982 M30.4601,29.4417 C30.3807,29.2312 30.247,29.0417 30.0715,28.8986 C28.4043,27.5176 26.6033,26.5998 26.2356,26.4188 C26.1938,26.3977 26.1687,26.3556 26.1687,26.3093 L26.1687,23.6906 C26.4946,23.4716 26.7119,23.0969 26.7119,22.6717 L26.7119,19.9561 C26.7119,18.6046 25.6255,17.51 24.2841,17.51 L23.9958,17.51 L23.7075,17.51 C22.3662,17.51 21.2797,18.6046 21.2797,19.9561 L21.2797,22.6717 C21.2797,23.0969 21.497,23.4716 21.8229,23.6906 L21.8229,26.3093 C21.8229,26.3556 21.7979,26.3977 21.7561,26.4188 C21.3884,26.5998 19.5916,27.5176 17.9201,28.8986 C17.7446,29.0459 17.6109,29.2354 17.5315,29.4417 C16.3072,27.9681 15.5676,26.0693 15.5676,23.9979 C15.5676,19.3162 19.3492,15.5059 23.9958,15.5059 C28.6424,15.5059 32.4241,19.3162 32.4241,23.9979 C32.4241,26.0693 31.6887,27.9681 30.4601,29.4417 Z" style="stroke:none;fill-rule:nonzero;fill:#e7f0fb;fill-opacity:1;"/>
  </symbol>
  <use xlink:href="#variables"/>
  <symbol id="variables" viewBox="0 240 48 48">
    <title>variables</title>
    <path d="M24,13.8333 C29.4492,13.8333 33.8667,18.3851 33.8667,24 C33.8667,29.6149 29.4492,34.1667 24,34.1667 C18.5508,34.1667 14.1333,29.6149 14.1333,24 C14.1333,18.3851 18.5508,13.8333 24,13.8333 M24,15.2857 C23.5722,15.2857 23.1518,15.3184 22.741,15.3816 C22.6531,15.5789 22.5905,15.7954 22.5905,16.0119 C22.5905,16.7381 21.8857,15.2857 21.181,16.7381 C20.4762,18.1905 21.181,16.7381 21.181,18.1905 C21.181,18.9167 20.161,18.3912 20.4762,18.5536 C21.181,18.9167 21.181,18.9167 20.4762,19.6429 C20.4762,19.6429 19.0667,18.9167 19.0667,19.6429 C19.0667,20.369 18.3619,20.369 17.6571,20.369 C16.9524,20.369 17.6571,21.8214 16.9524,21.8214 C16.4105,21.8214 16.7019,20.9628 16.2248,20.5659 C16.0435,21.0013 15.8956,21.4549 15.7845,21.9233 C16.2594,22.3618 16.339,24.0942 16.9524,24.7262 C17.6571,24 17.6571,24.7262 18.3619,24.7262 C19.0667,24.7262 19.0667,24.7262 19.419,25.4524 C20.1238,25.4524 20.4762,26.1786 21.181,26.9048 C21.8857,27.631 23.2952,27.631 23.2952,28.3571 C23.2952,29.0833 22.5905,28.3571 22.5905,29.8095 C22.5905,30.5357 22.5905,30.5357 21.8857,30.5357 C21.442,30.5357 20.9982,31.3994 20.7304,32.0392 C21.7362,32.474 22.8409,32.7143 24,32.7143 C26.3671,32.7143 28.507,31.7123 30.0421,30.0974 L29.6381,29.2649 C29.6381,29.2649 30.519,27.8125 29.8143,27.0863 C29.1095,26.3602 29.1095,25.6339 29.1095,25.6339 C29.1095,25.6339 27.7,27.0863 26.9952,26.3601 C26.2905,25.6339 26.2905,26.3601 25.5857,24.9078 C24.8809,23.4554 26.2905,22.7292 26.2905,22.7292 C26.2905,22.7292 26.2905,21.2768 26.9952,21.2768 C27.7,21.2768 28.4048,19.8244 29.8143,21.2768 C29.8143,21.2768 30.6288,20.7173 31.7812,20.5805 C31.4197,19.7083 30.9242,18.9093 30.3213,18.2108 C30.1947,18.3046 30.0291,18.372 29.8143,18.372 C29.1095,18.372 30.519,19.8244 29.8143,19.8244 C29.1095,19.8244 29.1095,19.0982 28.4048,19.0982 C27.7,19.0982 27.7,19.8244 26.9952,20.5506 C26.2905,21.2768 26.9952,20.5506 26.2905,19.8244 C25.5857,19.0982 27.7,19.8244 26.9952,19.0982 C26.2905,18.372 27.7,18.372 27.7,17.6459 C27.7,17.0763 28.5671,16.9534 28.9411,16.9269 C28.5344,16.6247 28.1006,16.3588 27.7,16.1935 C28.4048,16.9196 26.9952,17.6459 26.2905,17.6459 C25.6285,17.6459 26.2101,16.3643 26.2832,15.607 C25.5569,15.3977 24.7911,15.2857 24,15.2857 M15.5428,24 C15.5428,26.5632 16.6168,28.8678 18.3263,30.4623 L17.6571,29.0833 C16.9524,29.0833 16.6,27.4494 16.6,26.7232 C16.6,26.1405 16.373,25.6746 16.6477,25.138 C15.6533,24.109 16.2476,24.6669 16.2476,24 C16.2476,23.6543 15.9282,23.3086 15.5935,23.0412 C15.56,23.3561 15.5428,23.676 15.5428,24 Z" style="stroke:none;fill-rule:nonzero;fill:#e7f0fb;fill-opacity:1;"/>
  </symbol>
  <use xlink:href="#warning"/>
  <symbol id="warning" viewBox="48 240 48 48">
    <title>warning</title>
    <path d="M34.5655,28.9227 L26.8541,15.8559 C25.5946,13.6973 22.4095,13.6973 21.1544,15.8559 L13.4385,28.9227 C12.179,31.0814 13.7466,33.763 16.2884,33.763 L31.6885,33.763 C34.2302,33.763 35.825,31.0547 34.5655,28.9227 M23.9997,30.8641 C23.3292,30.8641 22.7719,30.3189 22.7719,29.663 C22.7719,29.007 23.3292,28.4618 23.9997,28.4618 C24.6703,28.4618 25.2276,29.007 25.2004,29.694 C25.2321,30.3189 24.6431,30.8641 23.9997,30.8641 M25.1188,23.0985 C25.0645,24.0293 25.0056,24.9557 24.9512,25.8865 C24.924,26.1879 24.924,26.4627 24.924,26.7597 C24.8968,27.2517 24.5027,27.6329 23.9997,27.6329 C23.4968,27.6329 23.1072,27.2783 23.0755,26.7863 C22.9939,25.3369 22.9078,23.9141 22.8263,22.4647 C22.7991,22.0835 22.7719,21.6979 22.7402,21.3167 C22.7402,20.6873 23.1027,20.1687 23.6917,20.0047 C24.2807,19.8673 24.8651,20.1421 25.1188,20.6873 C25.2049,20.8779 25.2321,21.0685 25.2321,21.2901 C25.2049,21.8973 25.146,22.5001 25.1188,23.0985 Z" style="stroke:none;fill-rule:evenodd;fill:#e7f0fb;fill-opacity:1;"/>
  </symbol>
</svg>
