<svg version="1.1" xmlns="http://www.w3.org/2000/svg" xmlns:xlink="http://www.w3.org/1999/xlink" class="icon">
  <defs>
    <style>
 svg .icon { display: none; } 
 svg .icon:target { display: inline; } 
</style>
  </defs>
  <svg viewBox="0 0 48 48">
    <g id="alarms" class="icon">
      <path d="M 22.4452,14.6276 C 27.2425,14.6276 31.1314,18.5165 31.1314,23.3138 C 31.1314,28.1110 27.2425,32.0000 22.4452,32.0000 C 17.6479,32.0000 13.7590,28.1110 13.7590,23.3138 C 13.7590,18.5165 17.6479,14.6276 22.4452,14.6276 M 22.4452,16.7992 C 18.8472,16.7992 15.9306,19.7158 15.9306,23.3138 C 15.9306,26.9117 18.8472,29.8284 22.4452,29.8284 C 26.0431,29.8284 28.9598,26.9117 28.9598,23.3138 C 28.9598,19.7158 26.0431,16.7992 22.4452,16.7992 M 22.2280,18.5364 C 22.7077,18.5364 23.0967,18.9253 23.0967,19.4050 L 23.0967,22.6623 L 26.3540,22.6623 C 26.8337,22.6623 27.2225,23.0512 27.2225,23.5310 L 27.2225,23.9653 C 27.2225,24.4450 26.8337,24.8339 26.3540,24.8339 L 22.4452,24.8339 C 22.0109,24.7615 21.5766,24.6891 21.3232,24.4358 C 21.0699,24.1824 20.9975,23.7481 20.9251,23.3138 L 20.9251,19.4050 C 20.9251,18.9253 21.3139,18.5364 21.7937,18.5364 L 22.2280,18.5364 M 28.5255,12.8904 C 30.4444,12.8904 32.0000,14.4460 32.0000,16.3649 C 32.0000,17.1926 31.7105,17.9529 31.2272,18.5497 C 30.0943,16.4658 28.2412,14.8300 26.0020,13.9765 C 26.6353,13.3077 27.5317,12.8904 28.5255,12.8904 M 16.3649,12.8905 C 17.3586,12.8905 18.2550,13.3077 18.8884,13.9765 C 16.6492,14.8300 14.7960,16.4658 13.6632,18.5497 C 13.1799,17.9529 12.8904,17.1926 12.8904,16.3649 C 12.8904,14.4460 14.4460,12.8905 16.3649,12.8905 Z " style=""/>
    </g>
  </svg>
  <svg viewBox="0 0 48 48">
    <g id="build" class="icon">
      <path d="M 32.0000,29.9256 L 32.0000,28.3392 C 32.0000,27.2610 31.3348,26.6308 30.1969,26.6308 L 18.8630,26.6308 C 17.3335,26.6308 16.5447,27.3171 16.5447,28.3392 L 16.5447,30.3985 C 16.5447,31.4660 17.3015,32.0000 18.8630,32.0000 L 30.1969,32.0000 C 31.3348,32.0000 32.0000,31.2830 32.0000,29.9256 M 29.9393,30.0476 L 18.6054,30.0476 L 18.6054,28.5832 L 29.9393,28.5832 L 29.9393,30.0476 Z " style=""/>
      <path d="M 24.0153,19.2146 L 24.0153,19.8235 L 24.0153,25.0416 L 24.0153,25.0423 L 24.6935,27.1294 L 23.5523,27.1294 L 12.4173,9.3851 L 9.9639,11.0777 L 10.7075,12.5686 L 10.7075,20.4322 L 9.9218,20.4322 L 10.4498,24.6941 L 10.6808,24.6941 L 10.7075,24.6941 L 10.7075,25.9817 C 10.2284,26.2307 9.6961,26.7653 9.6961,27.7254 C 9.6961,28.3702 9.9160,28.8408 10.2374,29.1550 L 7.3507,32.0000 L 8.1662,32.0000 L 10.7230,29.4801 C 10.9545,29.5836 11.2020,29.6408 11.4469,29.6408 C 11.6928,29.6408 11.9371,29.5659 12.1575,29.4301 L 14.9293,32.0000 L 15.7603,32.0000 L 15.7661,31.9915 L 12.5775,29.0355 C 12.7937,28.7378 12.9369,28.3385 12.9369,27.8276 C 12.9369,27.4909 12.6984,27.2188 12.4046,27.2188 C 12.1107,27.2188 11.8723,27.4909 11.8723,27.8276 C 11.8723,28.0463 11.8207,28.1832 11.7531,28.2715 L 11.6072,28.1363 C 11.5077,28.0444 11.3634,28.0456 11.2660,28.1424 L 11.0665,28.3391 C 10.8939,28.2478 10.7609,28.0688 10.7609,27.7260 C 10.7609,27.1756 11.2384,27.0423 11.3283,27.0228 C 11.5849,26.9722 11.7723,26.7190 11.7723,26.4218 L 11.7723,24.6940 L 12.1449,24.6940 L 12.3631,24.6940 L 13.1078,20.4321 L 12.5708,20.4321 L 12.3045,20.4321 L 12.3045,16.0133 L 18.6922,30.0741 L 18.6922,30.1710 L 18.6922,30.3542 L 18.6922,30.7823 L 20.8215,30.7823 L 20.8215,31.9999 L 28.2739,31.9999 L 28.8062,31.9999 L 28.8062,30.7823 L 31.4677,30.7823 L 32.0000,30.7823 L 32.0000,19.2146 L 24.0153,19.2146 M 19.4108,22.3805 L 19.4172,22.3908 L 17.2454,24.0074 L 18.3622,20.7306 L 19.4108,22.3805 M 11.7721,20.4323 L 11.5060,20.4323 L 11.2398,20.4323 L 11.2398,13.7169 L 11.7721,14.8651 L 11.7721,20.4323 M 12.2352,14.2259 L 11.3165,12.2302 L 12.7490,11.1532 L 12.2352,14.2259 M 13.4809,12.3963 L 14.5018,14.4225 L 12.8538,15.6366 L 13.4809,12.3963 M 13.6443,16.8006 L 15.1970,15.6456 L 14.5892,18.8085 L 13.6443,16.8006 M 15.8534,16.6776 L 16.9984,18.5875 L 15.2769,19.8484 L 15.8534,16.6776 M 15.6767,21.3035 L 17.6005,19.7960 L 16.5049,23.1518 L 15.6767,21.3035 M 18.5240,27.0928 L 17.5962,25.2200 L 19.8994,23.3387 L 18.5240,27.0928 M 19.2469,28.4232 L 20.8214,24.5419 L 22.1022,26.5394 L 19.2469,28.4232 M 29.8708,25.3029 L 26.1446,25.3029 L 26.1446,21.6499 L 29.8708,21.6499 L 29.8708,25.3029 Z " style=""/>
      <path d="M 15.5136,30.9432 L 14.4146,30.9432 L 14.4146,32.0000 L 32.0000,32.0000 L 32.0000,30.9432 L 29.8020,30.9432 L 29.8020,29.8864 L 29.8020,29.3580 L 32.0000,29.3580 L 32.0000,28.3012 L 14.4146,28.3012 L 14.4146,29.3580 L 16.6128,29.3580 L 16.6128,30.9432 L 15.5136,30.9432 Z " style=""/>
    </g>
  </svg>
  <svg viewBox="0 0 48 48">
    <g id="buildings" class="icon">
      <path d="M 30.6923,30.4977 L 30.6923,16.9768 L 21.5373,16.9768 L 21.5373,7.9628 L 12.3825,7.9628 L 12.3825,30.4977 L 11.0746,30.4977 L 11.0746,32.0000 L 32.0000,32.0000 L 32.0000,30.4977 L 30.6923,30.4977 M 13.6903,9.4652 L 16.3060,9.4652 L 16.3060,12.4698 L 13.6903,12.4698 L 13.6903,9.4652 M 13.6903,13.9721 L 16.3060,13.9721 L 16.3060,16.9768 L 13.6903,16.9768 L 13.6903,13.9721 M 13.6903,18.4791 L 16.3060,18.4791 L 16.3060,21.4836 L 13.6903,21.4836 L 13.6903,18.4791 M 13.6903,22.9860 L 16.3060,22.9860 L 16.3060,25.9905 L 13.6903,25.9905 L 13.6903,22.9860 M 18.9217,30.4977 L 14.9981,30.4977 L 14.9981,27.4931 L 18.9217,27.4931 L 18.9217,30.4977 L 18.9217,30.4977 M 20.2295,25.9905 L 17.6137,25.9905 L 17.6137,22.9861 L 20.2295,22.9861 L 20.2295,25.9905 M 20.2295,21.4836 L 17.6137,21.4836 L 17.6137,18.4791 L 20.2295,18.4791 L 20.2295,21.4836 M 20.2295,16.9768 L 17.6137,16.9768 L 17.6137,13.9721 L 20.2295,13.9721 L 20.2295,16.9768 M 20.2295,12.4698 L 17.6137,12.4698 L 17.6137,9.4652 L 20.2295,9.4652 L 20.2295,12.4698 M 22.8452,18.4791 L 25.4609,18.4791 L 25.4609,21.4836 L 22.8452,21.4836 L 22.8452,18.4791 M 22.8452,22.9860 L 25.4609,22.9860 L 25.4609,25.9905 L 22.8452,25.9905 L 22.8452,22.9860 M 28.0765,30.4977 L 24.1529,30.4977 L 24.1529,27.4931 L 28.0765,27.4931 L 28.0765,30.4977 M 29.3844,25.9905 L 26.7686,25.9905 L 26.7686,22.9861 L 29.3844,22.9861 L 29.3844,25.9905 M 29.3844,21.4836 L 26.7686,21.4836 L 26.7686,18.4791 L 29.3844,18.4791 L 29.3844,21.4836 Z " style=""/>
    </g>
  </svg>
  <svg viewBox="0 0 48 48">
    <g id="cloud" class="icon">
      <path d="M 30.9922,23.9895 C 30.3208,23.0944 29.4689,22.5185 28.4377,22.2617 C 28.7657,21.7220 28.9293,21.1309 28.9293,20.4888 C 28.9293,19.5808 28.6294,18.8058 28.0300,18.1635 C 27.4305,17.5213 26.7069,17.2000 25.8594,17.2000 C 25.0918,17.2000 24.4282,17.4655 23.8688,17.9966 C 23.3972,16.7804 22.6475,15.7954 21.6203,15.0417 C 20.5928,14.2882 19.4474,13.9110 18.1842,13.9110 C 16.4893,13.9110 15.0420,14.5537 13.8427,15.8384 C 12.6434,17.1228 12.0439,18.6733 12.0439,20.4890 C 12.0439,20.6173 12.0519,20.8014 12.0679,21.0412 C 11.1405,21.5038 10.3929,22.2039 9.8252,23.1419 C 9.2577,24.0796 8.9737,25.1139 8.9737,26.2446 C 8.9737,27.8289 9.4995,29.1843 10.5508,30.3105 C 11.6021,31.4368 12.8674,32.0000 14.3465,32.0000 L 27.3949,32.0000 C 28.6659,32.0000 29.7512,31.5178 30.6508,30.5547 C 31.5502,29.5912 32.0000,28.4286 32.0000,27.0667 C 31.9999,25.9106 31.6639,24.8844 30.9922,23.9895 Z " style=""/>
    </g>
  </svg>
  <svg viewBox="0 0 48 48">
    <g id="code" class="icon">
      <path d="M 31.8719,23.8935 L 26.5976,16.7926 C 26.4335,16.5718 26.1434,16.5718 25.9794,16.7926 L 24.8359,18.3321 C 24.6651,18.5620 24.6651,18.9347 24.8359,19.1647 L 28.6577,24.3094 L 24.8361,29.4551 C 24.6653,29.6851 24.6653,30.0577 24.8361,30.2878 L 25.9796,31.8272 C 26.0616,31.9376 26.1729,32.0000 26.2888,32.0000 C 26.4045,32.0000 26.5160,31.9376 26.5981,31.8272 L 31.8719,24.7266 C 32.0427,24.4964 32.0427,24.1234 31.8719,23.8935 Z " style=""/>
      <path d="M 31.7788,29.4554 L 25.2140,24.3103 L 31.7800,19.1655 C 31.9209,19.0550 32.0000,18.9055 32.0000,18.7491 C 32.0000,18.5930 31.9212,18.4432 31.7800,18.3328 L 29.8155,16.7934 C 29.6745,16.6830 29.4833,16.6209 29.2842,16.6209 C 29.0851,16.6209 28.8939,16.6830 28.7531,16.7934 L 19.6913,23.8936 C 19.3979,24.1236 19.3979,24.4964 19.6913,24.7266 L 28.7526,31.8272 C 28.8936,31.9376 29.0847,32.0000 29.2838,32.0000 C 29.4830,32.0000 29.6742,31.9376 29.8152,31.8272 L 31.7795,30.2877 C 32.0729,30.0580 32.0729,29.6853 31.7788,29.4554 Z " style=""/>
      <path d="M 31.9343,13.2089 C 31.8624,13.0831 31.7413,12.9896 31.5974,12.9492 L 30.3973,12.6115 C 30.0977,12.5267 29.7824,12.6905 29.6940,12.9764 L 24.1226,30.9692 C 24.0801,31.1066 24.0965,31.2542 24.1681,31.3798 C 24.2398,31.5059 24.3613,31.5991 24.5051,31.6399 L 25.7052,31.9776 C 25.7587,31.9927 25.8128,32.0000 25.8657,32.0000 C 26.1100,32.0000 26.3357,31.8477 26.4085,31.6125 L 31.9799,13.6195 C 32.0224,13.4822 32.0062,13.3345 31.9343,13.2089 Z " style=""/>
    </g>
  </svg>
  <svg viewBox="0 0 48 48">
    <g id="components" class="icon">
      <path d="M 22.6059,28.2684 L 22.6059,20.5130 L 32.0000,24.2349 L 32.0000,32.0000 L 22.6059,28.2684 Z " style=""/>
      <path d="M 32.0000,20.5130 L 32.0000,28.2684 L 24.9828,32.0000 L 24.9828,24.2349 L 32.0000,20.5130 Z " style=""/>
      <path d="M 22.1965,15.1166 L 28.9364,19.0892 L 22.1965,23.0617 L 15.4566,19.0892 L 22.1965,15.1166 M 13.8636,29.2688 L 17.5437,31.4379 L 16.5902,32.0000 L 16.5212,32.0000 L 12.3931,29.5668 L 12.3931,17.5498 L 16.5212,15.1167 L 16.5902,15.1167 L 17.5437,15.6786 L 13.8636,17.8478 L 13.8636,29.2688 M 30.5294,29.2688 L 30.5295,17.8478 L 26.8493,15.6786 L 27.8029,15.1166 L 27.8717,15.1166 L 32.0000,17.5498 L 31.9999,29.5668 L 27.8717,32.0000 L 27.8029,32.0000 L 26.8493,31.4379 L 30.5294,29.2688 Z " style=""/>
    </g>
  </svg>
  <svg viewBox="0 0 48 48">
    <g id="connection" class="icon">
      <path d="M 22.8347,23.6446 L 22.8346,27.5438 L 24.9912,27.5438 C 25.5868,27.5438 26.0695,28.0425 26.0695,28.6578 L 26.0695,30.8860 C 26.0695,31.5012 25.5867,32.0000 24.9912,32.0000 L 18.5216,32.0000 C 17.9260,32.0000 17.4433,31.5012 17.4433,30.8860 L 17.4433,28.6578 C 17.4433,28.0425 17.9260,27.5438 18.5216,27.5438 L 20.6781,27.5438 L 20.6781,23.6446 L 22.8347,23.6446 M 26.6086,28.6578 L 32.0000,28.6578 L 32.0000,30.8860 L 26.6086,30.8860 L 26.6086,28.6578 M 16.9042,28.6578 L 16.9042,30.8860 L 11.5127,30.8860 L 11.5127,28.6578 L 16.9042,28.6578 M 11.5127,11.3898 L 32.0000,11.3898 L 32.0000,16.4031 L 11.5127,16.4031 L 11.5127,11.3898 M 30.9217,12.5039 L 29.8435,12.5039 L 29.8435,15.2890 L 30.9217,15.2890 L 30.9217,12.5039 M 28.7652,12.5039 L 27.6869,12.5039 L 27.6869,15.2890 L 28.7652,15.2890 L 28.7652,12.5039 M 26.6086,12.5039 L 25.5304,12.5039 L 25.5304,15.2890 L 26.6086,15.2890 L 26.6086,12.5039 M 12.5910,14.1750 L 12.5910,15.2890 L 13.6693,15.2890 L 13.6693,14.1750 L 12.5910,14.1750 M 11.5127,17.5172 L 32.0000,17.5172 L 32.0000,22.5304 L 11.5127,22.5304 L 11.5127,17.5172 M 30.9217,18.6312 L 29.8435,18.6312 L 29.8435,21.4164 L 30.9217,21.4164 L 30.9217,18.6312 M 28.7652,18.6312 L 27.6869,18.6312 L 27.6869,21.4164 L 28.7652,21.4164 L 28.7652,18.6312 M 26.6086,18.6312 L 25.5304,18.6312 L 25.5304,21.4164 L 26.6086,21.4164 L 26.6086,18.6312 M 12.5910,20.3024 L 12.5910,21.4164 L 13.6693,21.4164 L 13.6693,20.3024 L 12.5910,20.3024 Z " style=""/>
    </g>
  </svg>
  <svg viewBox="0 0 48 48">
    <g id="datalogging" class="icon">
      <path d="M 14.8147,20.4615 L 23.8369,20.4615 L 22.1185,22.3846 L 15.3875,22.3846 L 15.3875,30.0769 L 30.2815,30.0769 L 30.2815,22.3846 L 27.2740,22.3846 L 28.9926,20.4615 L 30.8544,20.4615 C 31.4871,20.4615 32.0000,21.0355 32.0000,21.7436 L 32.0000,30.7179 C 32.0000,31.4260 31.4871,32.0000 30.8544,32.0000 L 14.8147,32.0000 C 14.1819,32.0000 13.6690,31.4260 13.6690,30.7179 L 13.6690,21.7436 C 13.6690,21.0355 14.1819,20.4615 14.8147,20.4615 M 29.0075,17.4000 C 29.1679,17.5910 29.2481,17.7967 29.2481,18.0174 L 29.1863,18.3422 L 29.0075,18.6348 L 25.5714,22.4798 L 24.7041,23.4503 L 23.8722,24.3814 L 23.1274,25.2148 L 22.5072,25.9050 L 22.0625,26.3989 L 21.8419,26.6459 L 21.4833,27.0126 L 20.9756,27.4608 L 20.4206,27.8386 C 20.2323,27.9440 20.0646,27.9967 19.9175,27.9967 C 19.8027,27.9967 19.7108,27.9581 19.6416,27.8806 C 19.5724,27.8032 19.5379,27.6979 19.5379,27.5645 C 19.5379,27.3999 19.5850,27.2134 19.6792,27.0051 L 20.0167,26.3840 L 20.4141,25.8161 L 20.7384,25.4185 L 27.9041,17.4000 L 28.1656,17.2000 L 28.4558,17.1308 C 28.6529,17.1308 28.8368,17.2205 29.0075,17.4000 M 19.0898,27.8806 L 19.6416,28.4980 L 18.5382,29.1154 L 19.0898,27.8806 Z " style=""/>
    </g>
  </svg>
  <svg viewBox="0 0 48 48">
    <g id="datasources" class="icon">
      <path d="M 23.6308,13.7143 C 28.2529,13.7143 32.0000,14.6838 32.0000,15.8815 L 32.0000,16.8421 C 32.0000,18.0380 28.2529,19.0075 23.6308,19.0075 C 19.0086,19.0075 15.2615,18.0380 15.2615,16.8421 L 15.2615,15.8797 C 15.2615,14.6838 19.0086,13.7143 23.6308,13.7143 M 32.0000,29.8346 C 32.0000,31.0305 28.2529,32.0000 23.6308,32.0000 C 19.0086,32.0000 15.2615,31.0305 15.2615,29.8346 L 15.2615,26.9473 C 15.2615,28.1433 19.0086,29.1128 23.6308,29.1128 C 28.2506,29.1128 31.9961,28.1443 32.0000,26.9492 L 32.0000,29.8346 M 32.0000,25.5037 C 32.0000,26.6997 28.2529,27.6691 23.6308,27.6691 C 19.0086,27.6691 15.2615,26.6997 15.2615,25.5037 L 15.2615,22.6166 C 15.2615,23.8125 19.0086,24.7820 23.6308,24.7820 C 28.2506,24.7820 31.9961,23.8135 32.0000,22.6184 L 32.0000,25.5037 M 32.0000,21.1730 C 32.0000,22.3689 28.2529,23.3384 23.6308,23.3384 C 19.0086,23.3384 15.2615,22.3689 15.2615,21.1730 L 15.2615,18.2857 C 15.2615,19.4816 19.0086,20.4511 23.6308,20.4511 C 28.2506,20.4511 31.9961,19.4827 32.0000,18.2875 L 32.0000,21.1730 Z " style=""/>
    </g>
  </svg>
  <svg viewBox="0 0 48 48">
    <g id="download" class="icon">
      <path d="M 18.1961,29.7207 L 32.0000,29.7207 L 32.0000,32.0000 L 18.1961,32.0000 L 18.1961,29.7207 M 23.5053,13.3097 L 26.6908,13.3097 L 26.6908,22.6549 L 30.9381,18.3242 L 30.9381,22.6549 L 25.0980,28.3531 L 19.2579,22.6549 L 19.2579,18.3242 L 23.5053,22.6549 L 23.5053,13.3097 Z " style=""/>
    </g>
  </svg>
  <svg viewBox="0 0 48 48">
    <g id="drawer" class="icon">
      <path d="M 32.0000,16.9922 C 32.0000,17.2924 31.7497,17.5360 31.4408,17.5360 L 11.9490,17.5360 C 11.6401,17.5360 11.3898,17.2924 11.3898,16.9922 L 11.3898,15.5163 C 11.3898,15.2160 11.6401,14.9725 11.9490,14.9725 L 31.4408,14.9725 C 31.7497,14.9725 32.0000,15.2160 32.0000,15.5163 L 32.0000,16.9922 M 31.8403,31.4562 C 31.8403,31.7565 31.5900,32.0000 31.2811,32.0000 L 15.1444,32.0000 C 14.8355,32.0000 14.5852,31.7565 14.5852,31.4562 L 14.5852,29.9803 C 14.5852,29.6800 14.8355,29.4365 15.1444,29.4365 L 31.2811,29.4365 C 31.5900,29.4365 31.8403,29.6800 31.8403,29.9803 L 31.8403,31.4562 M 32.0000,21.8138 C 32.0000,22.1142 31.7497,22.3575 31.4408,22.3575 L 19.3783,22.3575 C 19.0695,22.3575 18.8191,22.1142 18.8191,21.8138 L 18.8191,20.3378 C 18.8191,20.0375 19.0695,19.7941 19.3783,19.7941 L 31.4408,19.7941 C 31.7497,19.7941 32.0000,20.0375 32.0000,20.3378 L 32.0000,21.8138 M 31.8403,26.6672 C 31.8403,26.9675 31.5900,27.2110 31.2811,27.2110 L 22.0944,27.2110 C 21.7856,27.2110 21.5352,26.9675 21.5352,26.6672 L 21.5352,25.1913 C 21.5352,24.8910 21.7856,24.6475 22.0944,24.6475 L 31.2811,24.6475 C 31.5900,24.6475 31.8403,24.8910 31.8403,25.1913 L 31.8403,26.6672 Z " style=""/>
    </g>
  </svg>
  <svg viewBox="0 0 48 48">
    <g id="error" class="icon">
      <path d="M 22.5880,12.7797 C 17.3900,12.7797 13.1761,17.0824 13.1761,22.3898 C 13.1761,27.6970 17.3899,32.0000 22.5878,32.0000 C 27.7857,32.0000 32.0000,27.6970 32.0000,22.3898 C 32.0000,17.0824 27.7858,12.7797 22.5880,12.7797 M 26.1384,26.0525 C 25.7626,26.4359 25.1538,26.4359 24.7784,26.0525 L 22.6368,23.8659 L 20.3975,26.1522 C 20.0220,26.5355 19.4132,26.5355 19.0377,26.1522 C 18.6619,25.7683 18.6619,25.1468 19.0377,24.7631 L 21.2767,22.4770 L 19.1920,20.3486 C 18.8165,19.9648 18.8165,19.3434 19.1920,18.9598 C 19.5676,18.5763 20.1765,18.5763 20.5523,18.9598 L 22.6368,21.0882 L 24.6240,19.0591 C 24.9997,18.6756 25.6088,18.6754 25.9840,19.0591 C 26.3598,19.4429 26.3598,20.0647 25.9840,20.4479 L 23.9970,22.4770 L 26.1385,24.6637 C 26.5140,25.0470 26.5142,25.6690 26.1384,26.0525 Z " style=""/>
    </g>
  </svg>
  <svg viewBox="0 0 48 48">
    <g id="explorer" class="icon">
      <path d="M 12.1380,18.4654 L 32.0000,18.4654 L 32.0000,32.0000 L 12.1380,32.0000 L 12.1380,18.4654 M 29.7301,17.1118 L 21.2178,17.1118 C 21.7853,15.0816 22.6365,14.4049 22.6365,14.4049 L 29.0208,14.4048 C 29.3342,14.4048 29.7301,14.8770 29.7301,15.2508 L 29.7301,17.1118 Z " style=""/>
    </g>
  </svg>
  <svg viewBox="0 0 48 48">
    <g id="flow" class="icon">
      <path d="M 13.1730,20.1500 L 17.8798,20.1500 L 17.8798,21.7300 L 18.6643,21.7300 C 19.4488,21.2033 21.0176,20.6766 21.8892,19.6013 C 22.7608,18.5260 23.7196,16.9022 24.6348,15.9805 C 25.5487,15.0602 26.4193,14.8400 27.2897,14.6208 L 27.2897,13.0383 L 31.9964,13.0383 L 31.9964,17.7783 L 27.2897,17.7783 L 27.2897,16.2008 C 26.4374,16.4200 25.5851,16.6402 24.6768,17.5605 C 23.7670,18.4822 22.8009,20.1060 21.9202,21.1813 L 21.4351,21.7300 L 27.2933,21.7300 L 27.2933,20.1500 L 32.0000,20.1500 L 32.0000,24.8900 L 27.2933,24.8900 L 27.2933,23.3100 L 21.4352,23.3100 C 21.5942,23.4761 21.7557,23.6578 21.9202,23.8586 C 22.8009,24.9339 23.7670,26.5577 24.6768,27.4794 C 25.5865,28.4011 26.4399,28.6205 27.2933,28.8399 L 27.2933,27.2599 L 32.0000,27.2599 L 32.0000,32.0000 L 27.2933,32.0000 L 27.2933,30.4200 C 26.4216,30.2005 25.5500,29.9811 24.6348,29.0594 C 23.7196,28.1378 22.7608,26.5139 21.8892,25.4386 C 21.0176,24.3633 19.4488,23.8366 18.6643,23.3100 L 17.8798,23.3100 L 17.8798,24.8900 L 13.1730,24.8900 L 13.1730,20.1500 Z " style=""/>
    </g>
  </svg>
  <svg viewBox="0 0 48 48">
    <g id="gears" class="icon">
      <path d="M 30.4783,24.6615 C 30.5413,24.1171 30.5223,23.5748 30.4267,23.0451 L 31.9151,22.4995 C 31.7745,21.9065 31.5533,21.3215 31.2468,20.7554 C 30.9402,20.1898 30.5593,19.6634 30.1180,19.1803 L 28.6286,19.7256 C 28.2142,19.3133 27.7367,18.9392 27.2026,18.6131 L 27.7865,17.3621 C 27.1766,17.0248 26.5177,16.7397 25.8142,16.5178 C 25.1136,16.2965 24.3940,16.1436 23.6622,16.0588 L 23.0779,17.3110 C 22.4158,17.2593 21.7562,17.2749 21.1123,17.3536 L 20.4528,16.1355 C 18.9795,16.3736 17.6027,16.8875 16.4209,17.6218 L 17.0760,18.8319 C 16.5736,19.1728 16.1186,19.5658 15.7223,20.0047 L 14.2050,19.5261 C 13.7909,20.0264 13.4438,20.5688 13.1735,21.1469 C 12.9054,21.7250 12.7218,22.3184 12.6188,22.9162 L 14.1400,23.3965 C 14.0770,23.9408 14.0961,24.4832 14.1918,25.0128 L 12.7033,25.5580 C 12.8439,26.1515 13.0650,26.7360 13.3716,27.3021 C 13.6787,27.8682 14.0590,28.3942 14.5008,28.8772 L 15.9892,28.3319 C 16.4037,28.7446 16.8812,29.1189 17.4158,29.4449 L 16.8319,30.6967 C 17.4417,31.0344 18.1008,31.3191 18.8042,31.5410 C 19.5047,31.7623 20.2244,31.9152 20.9562,32.0000 L 21.5406,30.7477 C 22.2025,30.7991 22.8620,30.7834 23.5060,30.7047 L 24.1655,31.9224 C 25.6388,31.6844 27.0166,31.1705 28.1980,30.4361 L 27.5423,29.2261 C 28.0443,28.8852 28.4997,28.4925 28.8961,28.0533 L 30.4125,28.5318 C 30.8264,28.0316 31.1735,27.4892 31.4440,26.9114 C 31.7139,26.3333 31.8970,25.7396 32.0000,25.1413 L 30.4783,24.6615 M 26.4347,25.3309 C 25.5603,27.2050 23.0046,28.1404 20.7253,27.4214 C 18.4489,26.7027 17.3099,24.6012 18.1837,22.7276 C 19.0580,20.8538 21.6137,19.9184 23.8917,20.6366 C 26.1700,21.3553 27.3084,23.4575 26.4347,25.3309 Z " style=""/>
      <path d="M 31.1376,23.8899 C 31.1355,23.4944 31.1090,23.1077 31.0654,22.7326 L 31.9780,21.8325 C 31.7482,20.4271 31.2999,19.1728 30.6911,18.1866 L 29.7761,19.0887 C 29.4224,18.5933 29.0136,18.2074 28.5673,17.9532 L 28.5576,16.1831 C 28.1514,16.0048 27.7265,15.9061 27.2872,15.9137 C 26.8478,15.9214 26.4245,16.0362 26.0199,16.2273 L 26.0296,17.9981 C 25.5862,18.2678 25.1820,18.6683 24.8334,19.1755 L 23.9084,18.3056 C 23.3111,19.3127 22.8764,20.5823 22.6614,21.9956 L 23.5842,22.8636 C 23.5447,23.2409 23.5221,23.6271 23.5242,24.0232 C 23.5263,24.4194 23.5533,24.8054 23.5969,25.1807 L 22.6838,26.0805 C 22.9141,27.4860 23.3627,28.7409 23.9708,29.7265 L 24.8858,28.8244 C 25.2399,29.3198 25.6483,29.7058 26.0946,29.9599 L 26.1042,31.7309 C 26.5108,31.9084 26.9353,32.0076 27.3747,32.0000 C 27.8140,31.9924 28.2382,31.8776 28.6420,31.6866 L 28.6322,29.9158 C 29.0757,29.6461 29.4802,29.2455 29.8285,28.7383 L 30.7531,29.6083 C 31.3511,28.6011 31.7855,27.3315 32.0000,25.9183 L 31.0777,25.0501 C 31.1176,24.6723 31.1398,24.2862 31.1376,23.8899 M 27.3478,26.9202 C 26.3663,26.9373 25.5632,25.6243 25.5542,23.9879 C 25.5453,22.3514 26.3339,21.0101 27.3154,20.9930 C 28.2957,20.9759 29.0987,22.2888 29.1075,23.9253 C 29.1166,25.5619 28.3281,26.9031 27.3478,26.9202 Z " style=""/>
    </g>
  </svg>
  <svg viewBox="0 0 48 48">
    <g id="help" class="icon">
      <path d="M 27.8394,32.0000 L 24.8135,32.0000 C 24.8135,28.5942 26.6291,27.5725 27.8394,26.8914 C 28.2934,26.7210 28.5959,26.5508 28.8984,26.2102 C 29.0498,26.0399 29.3523,25.6994 29.0498,25.0183 C 28.7472,24.1667 27.8394,23.3153 26.4778,23.3153 C 24.3597,23.3153 24.0571,25.3588 23.9058,25.8696 L 20.8799,25.3588 C 21.0312,23.4856 22.3928,19.9097 26.3265,19.9097 C 28.7472,19.9097 30.8654,21.4422 31.7731,23.6559 C 32.3781,25.5291 32.0757,27.4022 30.8654,28.7644 C 30.2602,29.4456 29.6550,29.7862 29.0498,29.9565 C 28.1420,30.6376 27.8394,30.2971 27.8394,32.0000 Z " style=""/>
      <path d="M 21.9216,12.6389 C 26.8348,12.6389 30.7400,16.6402 30.7400,21.6740 C 30.7400,26.7078 26.8348,30.7092 21.9216,30.7092 C 17.0083,30.7092 13.1031,26.7078 13.1031,21.6740 C 13.1031,16.6402 17.0083,12.6389 21.9216,12.6389 M 21.9216,11.3481 C 16.3785,11.3481 11.8432,15.9948 11.8432,21.6740 C 11.8432,27.3534 16.3785,32.0000 21.9216,32.0000 C 27.4647,32.0000 32.0000,27.3534 32.0000,21.6740 C 32.0000,15.9948 27.4647,11.3481 21.9216,11.3481 Z " style=""/>
      <path d="M 28.5029,29.0632 L 32.0000,29.0632 L 32.0000,32.0000 L 28.5029,32.0000 L 28.5029,29.0632 Z " style=""/>
    </g>
  </svg>
  <svg viewBox="0 0 48 48">
    <g id="home" class="icon">
      <path d="M 14.9700,32.0000 L 14.9700,22.0042 L 13.9378,23.1148 L 12.3897,20.3382 L 22.1949,12.0083 L 25.8073,15.0772 L 25.8073,12.9801 L 27.8715,12.5636 L 27.8715,16.8309 L 32.0000,20.3382 L 30.4518,23.1148 L 29.4198,22.0042 L 29.4198,32.0000 L 14.9700,32.0000 M 22.1949,15.8493 L 16.5182,20.8935 L 16.5182,30.3340 L 19.6145,30.3340 L 19.6145,24.2256 L 24.7751,24.2256 L 24.7751,30.3340 L 27.8715,30.3340 L 27.8715,20.8935 L 22.1949,15.8493 Z " style=""/>
    </g>
  </svg>
  <svg viewBox="0 0 48 48">
    <g id="information" class="icon">
      <path d="M 29.0549,14.7247 C 25.1274,10.7733 18.7594,10.7729 14.8315,14.7247 C 10.9040,18.6767 10.9044,25.0842 14.8315,29.0366 C 18.7590,32.9876 25.1269,32.9880 29.0549,29.0366 C 32.9819,25.0842 32.9815,18.6772 29.0549,14.7247 M 23.2545,26.2805 C 23.2545,27.0096 22.6673,27.6004 21.9427,27.6004 C 21.2182,27.6004 20.6310,27.0096 20.6310,26.2805 L 20.6310,21.0007 C 20.6310,20.2716 21.2182,19.6808 21.9427,19.6808 C 22.6673,19.6808 23.2545,20.2716 23.2545,21.0007 L 23.2545,26.2805 M 21.9196,18.7445 C 21.1640,18.7445 20.6602,18.2059 20.6760,17.5411 C 20.6602,16.8441 21.1640,16.3219 21.9348,16.3219 C 22.7062,16.3219 23.1942,16.8446 23.2104,17.5411 C 23.2099,18.2059 22.7066,18.7445 21.9196,18.7445 Z " style=""/>
    </g>
  </svg>
  <svg viewBox="0 0 48 48">
    <g id="language" class="icon">
      <path d="M 26.7710,30.1933 L 26.7710,29.2551 C 26.2154,28.8982 25.6898,28.4745 25.2053,27.9720 C 23.8022,29.2492 22.4591,30.0580 22.3075,30.1488 L 22.1797,30.2230 L 21.4063,29.0588 L 21.5326,28.9829 C 21.5483,28.9726 22.9151,28.1564 24.2962,26.8820 C 23.0288,25.1408 22.5411,23.3863 22.5221,23.3104 L 22.4859,23.1766 L 23.8984,22.8347 L 23.9332,22.9700 C 23.9363,22.9849 24.3388,24.3884 25.3173,25.8338 C 26.2849,24.7260 26.8484,23.6584 26.9920,22.6517 L 21.0590,22.6517 L 21.0590,21.1574 L 24.3293,21.1574 L 24.3293,20.3262 L 25.8540,20.3262 L 25.8540,21.1560 L 29.1243,21.1560 L 29.1243,22.6517 L 28.4662,22.6517 C 28.3131,24.0509 27.5587,25.5006 26.2186,26.9653 C 26.3985,27.1556 26.5831,27.3295 26.7710,27.4961 L 26.7710,27.3995 L 26.7710,26.7927 C 26.7710,26.2932 27.2003,25.8887 27.7306,25.8887 L 32.0000,25.8887 L 32.0000,18.7754 C 32.0000,18.6505 31.8943,18.5494 31.7601,18.5494 L 17.9607,18.5494 C 17.8281,18.5494 17.7209,18.6505 17.7209,18.7754 L 17.7209,31.7740 C 17.7209,31.9004 17.8281,32.0000 17.9607,32.0000 L 26.7710,32.0000 L 26.7710,30.1933 Z " style=""/>
      <path d="M 31.1088,28.8263 L 31.0847,28.8263 C 30.9658,29.2929 30.8495,29.8842 30.7191,30.3368 L 30.2487,32.0000 L 32.0000,32.0000 L 31.5083,30.3368 C 31.3667,29.8716 31.2250,29.2916 31.1088,28.8263 Z " style=""/>
      <path d="M 31.8165,21.2569 L 21.2728,21.2569 C 21.1714,21.2569 21.0894,21.3377 21.0894,21.4375 L 21.0894,31.8206 C 21.0894,31.9204 21.1714,32.0000 21.2728,32.0000 L 31.8165,32.0000 C 31.9190,32.0000 32.0000,31.9204 32.0000,31.8206 L 32.0000,21.4375 C 32.0000,21.3390 31.9190,21.2569 31.8165,21.2569 M 27.9810,29.9490 L 27.4612,28.2436 L 25.5302,28.2436 L 25.0490,29.9490 L 23.4690,29.9490 L 25.5302,23.3103 L 27.5300,23.3103 L 29.6202,29.9490 L 27.9810,29.9490 Z " style=""/>
    </g>
  </svg>
  <svg viewBox="0 0 48 48">
    <g id="languages" class="icon">
      <path d="M 18.1230,13.8490 L 18.9394,13.8490 C 19.3901,13.8490 19.7556,14.1875 19.7556,14.6052 L 19.7556,31.2437 C 19.7556,31.6614 19.3901,32.0000 18.9394,32.0000 L 18.1230,32.0000 C 17.6722,32.0000 17.3067,31.6614 17.3067,31.2437 L 17.3067,14.6052 C 17.3067,14.1875 17.6722,13.8490 18.1230,13.8490 M 20.5719,16.1178 C 21.3882,15.6136 22.2045,15.1094 23.5650,15.2355 C 24.9255,15.3615 26.8302,16.1179 28.3267,16.1179 C 29.8233,16.1179 30.9117,15.3615 32.0000,14.6052 L 32.0000,21.4118 C 30.9117,22.1681 29.8233,22.9244 28.3267,22.9244 C 26.8302,22.9244 24.9255,22.1681 23.5650,22.0420 C 22.2045,21.9160 21.3882,22.4201 20.5719,22.9244 L 20.5719,16.1178 Z " style=""/>
    </g>
  </svg>
  <svg viewBox="0 0 48 48">
    <g id="loading" class="icon">
      <path d="M 29.4917,13.7750 L 32.0000,13.7750 L 32.0000,32.0000 L 29.4917,32.0000 L 29.4917,13.7750 Z " style="stroke:none;fill-rule:nonzero;fill:#0b101b;fill-opacity:1;"/>
      <path d="M 30.3403,15.5676 L 32.0000,17.2686 L 27.2088,32.0000 L 25.5492,30.2989 L 30.3403,15.5676 Z " style="stroke:none;fill-rule:nonzero;fill:#d7dce0;fill-opacity:0.2;"/>
      <path d="M 31.1778,21.9040 L 32.0000,24.5015 L 24.8799,32.0000 L 24.0577,29.4025 L 31.1778,21.9040 Z " style="stroke:none;fill-rule:nonzero;fill:#d7dce0;fill-opacity:0.2;"/>
      <path d="M 32.0000,29.3833 L 32.0000,32.0000 L 24.1212,32.0000 L 24.1212,29.3833 L 32.0000,29.3833 Z " style="stroke:none;fill-rule:nonzero;fill:#d7dce0;fill-opacity:0.2;"/>
      <path d="M 32.0000,30.2861 L 31.1799,32.0000 L 24.0781,27.0523 L 24.8982,25.3383 L 32.0000,30.2861 Z " style="stroke:none;fill-rule:nonzero;fill:#d7dce0;fill-opacity:0.2;"/>
      <path d="M 32.0000,31.1548 L 30.3489,32.0000 L 25.5825,24.6810 L 27.2336,23.8360 L 32.0000,31.1548 Z " style="stroke:none;fill-rule:nonzero;fill:#c2cad0;fill-opacity:0.298039;"/>
      <path d="M 32.0000,32.0000 L 29.5112,32.0000 L 29.5112,23.9107 L 32.0000,23.9107 L 32.0000,32.0000 Z " style="stroke:none;fill-rule:nonzero;fill:#afb9c1;fill-opacity:0.4;"/>
      <path d="M 24.9103,32.0000 L 22.4544,31.1572 L 29.5441,23.8575 L 32.0000,24.7004 L 24.9103,32.0000 Z " style="stroke:none;fill-rule:nonzero;fill:#9aa7b1;fill-opacity:0.501961;"/>
      <path d="M 18.1223,32.0000 L 16.5199,30.2952 L 30.3975,25.3737 L 32.0000,27.0785 L 18.1223,32.0000 Z " style="stroke:none;fill-rule:nonzero;fill:#8696a1;fill-opacity:0.6;"/>
      <path d="M 14.8099,32.0000 L 14.8099,29.4045 L 32.0000,29.4045 L 32.0000,32.0000 L 14.8099,32.0000 Z " style="stroke:none;fill-rule:nonzero;fill:#728491;fill-opacity:0.701961;"/>
      <path d="M 16.4419,24.5620 L 18.0525,21.9854 L 32.0000,29.4234 L 30.3895,32.0000 L 16.4419,24.5620 Z " style="stroke:none;fill-rule:nonzero;fill:#5e7382;fill-opacity:0.8;"/>
      <path d="M 22.3806,17.3466 L 24.8555,15.6545 L 32.0000,30.3080 L 29.5251,32.0000 L 22.3806,17.3466 Z " style="stroke:none;fill-rule:nonzero;fill:#4a6172;fill-opacity:0.901961;"/>
    </g>
  </svg>
  <svg viewBox="0 0 48 48">
    <g id="more" class="icon">
      <path d="M 28.7368,25.5281 C 26.9318,25.5281 25.4736,26.9742 25.4736,28.7640 C 25.4736,30.5539 26.9318,32.0000 28.7368,32.0000 C 30.5418,32.0000 32.0000,30.5539 32.0000,28.7640 C 32.0000,26.9742 30.5418,25.5281 28.7368,25.5281 Z " style="stroke:none;fill-rule:nonzero;fill:#e7f0fb;fill-opacity:1;"/>
      <path d="M 26.5005,25.5281 C 23.4586,25.5281 21.0011,26.9742 21.0011,28.7640 C 21.0011,30.5539 23.4586,32.0000 26.5005,32.0000 C 29.5425,32.0000 32.0000,30.5539 32.0000,28.7640 C 32.0000,26.9742 29.5253,25.5281 26.5005,25.5281 Z " style="stroke:none;fill-rule:nonzero;fill:#e7f0fb;fill-opacity:1;"/>
      <path d="M 29.6822,25.5281 C 28.4002,25.5281 27.3644,26.9742 27.3644,28.7640 C 27.3644,30.5539 28.4002,32.0000 29.6822,32.0000 C 30.9643,32.0000 32.0000,30.5539 32.0000,28.7640 C 32.0000,26.9742 30.9643,25.5281 29.6822,25.5281 Z " style="stroke:none;fill-rule:nonzero;fill:#e7f0fb;fill-opacity:1;"/>
    </g>
  </svg>
  <svg viewBox="0 0 48 48">
    <g id="moreV" class="icon">
      <path d="M 28.8722,17.6842 C 27.1519,17.6842 25.7444,16.6105 25.7444,15.2982 C 25.7444,13.9861 27.1519,12.9123 28.8722,12.9123 C 30.5925,12.9123 32.0000,13.9861 32.0000,15.2982 C 32.0000,16.6105 30.5925,17.6842 28.8722,17.6842 M 28.8722,20.0702 C 30.5925,20.0702 32.0000,21.1440 32.0000,22.4561 C 32.0000,23.7684 30.5925,24.8421 28.8722,24.8421 C 27.1519,24.8421 25.7444,23.7684 25.7444,22.4561 C 25.7444,21.1440 27.1519,20.0702 28.8722,20.0702 M 28.8722,27.2281 C 30.5925,27.2281 32.0000,28.3018 32.0000,29.6140 C 32.0000,30.9263 30.5925,32.0000 28.8722,32.0000 C 27.1519,32.0000 25.7444,30.9263 25.7444,29.6140 C 25.7444,28.3018 27.1519,27.2281 28.8722,27.2281 Z " style="stroke:none;fill-rule:evenodd;fill:#e7f0fb;fill-opacity:1;"/>
    </g>
  </svg>
  <svg viewBox="0 0 48 48">
    <g id="notification" class="icon">
      <path d="M 11.7407,26.9900 L 11.7407,13.7466 L 32.0000,13.7466 L 32.0000,26.9900 L 24.6856,26.9900 L 21.8704,32.0000 L 19.0551,26.9900 " style="stroke:none;fill-rule:evenodd;fill:#e7f0fb;fill-opacity:1;"/>
    </g>
  </svg>
  <svg viewBox="0 0 48 48">
    <g id="notifications" class="icon">
      <path d="M 11.3898,15.8840 L 30.0828,15.8840 L 30.0828,27.2600 L 25.2897,27.2600 L 20.7363,32.0000 L 16.1829,27.2600 L 11.3898,27.2600 L 11.3898,15.8840 M 12.8278,15.4100 L 12.8278,13.9880 L 32.0000,13.9880 L 32.0000,25.8380 L 30.5621,25.7985 L 30.5621,15.4100 L 12.8278,15.4100 Z " style="stroke:none;fill-rule:evenodd;fill:#e7f0fb;fill-opacity:1;"/>
    </g>
  </svg>
  <svg viewBox="0 0 48 48">
    <g id="pages" class="icon">
      <path d="M 17.5630,14.9653 L 22.8640,14.9653 L 22.4129,14.5285 L 16.2095,14.5285 L 16.2095,28.0689 L 17.5630,28.0689 L 17.5630,14.9653 M 26.2477,14.9653 L 32.0000,20.5343 L 32.0000,32.0000 L 17.5630,32.0000 L 17.5630,29.8161 L 14.4048,29.8161 L 14.4048,12.7813 L 23.0896,12.7813 L 25.3455,14.9653 L 26.2477,14.9653 M 19.3675,16.7124 L 19.3675,30.2529 L 30.1953,30.2529 L 30.1953,22.3907 L 24.3303,22.3907 L 24.3303,16.7124 L 19.3675,16.7124 M 26.1349,17.2584 L 26.1349,20.6435 L 29.6314,20.6435 L 26.1349,17.2584 Z " style="stroke:none;fill-rule:nonzero;fill:#e7f0fb;fill-opacity:1;"/>
    </g>
  </svg>
  <svg viewBox="0 0 48 48">
    <g id="project" class="icon">
      <path d="M 13.9467,21.9429 L 13.9467,13.4736 L 16.2034,13.4736 L 16.2034,12.4151 L 18.4600,12.4151 L 18.4600,11.8857 L 26.4711,11.8857 L 31.0973,17.3113 L 31.0973,21.9429 L 32.0000,21.9429 L 32.0000,32.0000 L 31.8119,32.0000 L 13.2320,32.0000 L 13.0440,32.0000 L 13.0440,21.9429 L 13.9467,21.9429 M 16.2034,21.9429 L 16.2034,15.0617 L 15.3007,15.0617 L 15.3007,21.9429 L 16.2034,21.9429 M 17.5573,14.0030 L 17.5573,21.9429 L 18.4600,21.9429 L 18.4600,14.0030 L 17.5573,14.0030 M 24.7787,26.1775 L 24.7787,27.7654 L 20.2653,27.7654 L 20.2653,26.1775 L 24.7787,26.1775 M 29.7433,21.9429 L 29.7433,19.2963 L 24.7787,19.2963 L 24.7787,13.4736 L 19.8140,13.4736 L 19.8140,21.9429 L 29.7433,21.9429 M 26.1326,13.8707 L 26.1326,17.7083 L 29.4048,17.7083 L 26.1326,13.8707 M 14.8493,24.0602 L 14.8493,29.8827 L 30.1947,29.8827 L 30.1947,24.0602 L 14.8493,24.0602 Z " style="stroke:none;fill-rule:nonzero;fill:#e7f0fb;fill-opacity:1;"/>
    </g>
  </svg>
  <svg viewBox="0 0 48 48">
    <g id="properties" class="icon">
      <path d="M 27.5960,23.1054 L 29.1480,21.5960 C 29.4394,21.7365 29.7161,21.9086 29.9746,22.1084 L 29.6959,24.4042 L 31.7346,24.5814 C 31.8512,24.9084 31.9408,25.2511 32.0000,25.6060 L 30.3709,27.0063 L 31.7019,28.7661 C 31.5781,29.0965 31.4264,29.4102 31.2501,29.7035 L 29.2254,29.3873 L 29.0692,31.6991 C 28.7808,31.8313 28.4785,31.9328 28.1655,32.0000 L 26.9307,30.1526 L 25.3787,31.6620 C 25.0873,31.5216 24.8107,31.3496 24.5520,31.1497 L 24.8308,28.8538 L 22.7921,28.6768 C 22.6754,28.3497 22.5860,28.0069 22.5267,27.6520 L 24.1559,26.2519 L 22.8248,24.4920 C 22.9487,24.1616 23.1003,23.8479 23.2766,23.5547 L 25.3012,23.8707 L 25.4575,21.5591 C 25.7459,21.4267 26.0482,21.3253 26.3612,21.2581 L 27.5960,23.1054 M 27.2633,24.4425 C 26.1984,24.4425 25.3350,25.4214 25.3350,26.6291 C 25.3350,27.8367 26.1984,28.8157 27.2633,28.8157 C 28.3283,28.8157 29.1917,27.8367 29.1917,26.6291 C 29.1917,25.4214 28.3283,24.4425 27.2633,24.4425 M 14.0179,14.2953 L 17.1757,14.2953 L 17.1757,17.8760 L 14.0179,17.8760 L 14.0179,14.2953 M 14.0179,19.2186 L 17.1757,19.2186 L 17.1757,22.7993 L 14.0179,22.7993 L 14.0179,19.2186 M 18.7546,14.2953 L 29.0173,14.2953 L 29.0173,17.8760 L 18.7546,17.8760 L 18.7546,14.2953 M 14.0179,24.1420 L 17.1757,24.1420 L 17.1757,27.7227 L 14.0179,27.7227 L 14.0179,24.1420 M 18.7546,19.2186 L 29.0173,19.2186 L 29.0173,21.0681 L 27.6569,22.3111 L 26.4093,20.5614 L 25.0824,21.1614 L 24.7973,22.7993 L 24.1819,22.7993 L 22.4549,22.5369 L 22.3049,22.7993 L 18.7546,22.7993 L 18.7546,19.2186 M 18.7546,24.1420 L 22.0206,24.1420 L 23.2580,26.1322 L 21.6273,27.7227 L 18.7546,27.7227 L 18.7546,24.1420 M 27.2411,25.0372 C 28.0040,25.0372 28.6226,25.7386 28.6226,26.6037 C 28.6226,27.4689 28.0040,28.1702 27.2411,28.1702 C 26.4780,28.1702 25.8595,27.4689 25.8595,26.6037 C 25.8595,25.7386 26.4780,25.0372 27.2411,25.0372 Z " style="stroke:none;fill-rule:evenodd;fill:#e7f0fb;fill-opacity:1;"/>
    </g>
  </svg>
  <svg viewBox="0 0 48 48">
    <g id="recipes" class="icon">
      <path d="M 31.8913,14.3540 C 31.7721,14.1556 31.5756,14.0166 31.3489,13.9712 L 19.3167,11.0851 C 18.9201,11.0086 18.5289,11.2265 18.3917,11.6035 L 13.8053,23.1964 L 15.3364,23.7517 L 19.6828,12.7286 L 30.1374,15.3830 C 29.4845,17.3970 27.9308,21.6005 26.4415,25.5145 C 25.1430,28.9295 24.3959,30.0988 22.9757,30.3376 C 22.9740,30.3360 22.9725,30.3343 22.9725,30.3318 C 20.0701,30.7367 20.1221,27.0551 20.1221,27.0551 L 10.8527,23.3296 C 10.1939,27.4838 13.4021,28.4830 13.4021,28.4830 L 20.1887,31.5487 C 20.1904,31.5496 21.2498,32.0517 22.4012,32.0000 C 25.5070,31.9273 26.5985,29.6834 27.9661,26.0884 C 29.9418,20.8929 31.9472,15.0715 31.9669,15.0097 C 32.0376,14.7894 32.0097,14.5519 31.8913,14.3540 Z " style="stroke:none;fill-rule:evenodd;fill:#e7f0fb;fill-opacity:1;"/>
      <path d="M 30.8315,31.9506 C 30.9140,31.9828 30.9995,32.0000 31.0838,32.0000 C 31.5012,32.0000 31.8831,31.6018 32.0000,30.9976 C 32.1392,30.2720 31.8389,29.5222 31.3323,29.3245 L 27.2092,27.5037 C 26.7084,27.3054 26.1786,27.7316 26.0404,28.4567 C 25.9022,29.1821 26.1998,29.9319 26.7082,30.1303 L 30.8315,31.9506 Z " style="stroke:none;fill-rule:evenodd;fill:#e7f0fb;fill-opacity:1;"/>
      <path d="M 25.7606,28.7072 C 25.5861,29.3123 25.8694,29.9638 26.3956,30.1658 L 30.7277,31.9412 C 30.8328,31.9814 30.9362,31.9994 31.0405,32.0000 C 31.4630,32.0026 31.8589,31.6969 32.0000,31.2129 C 32.1750,30.6094 31.8922,29.9570 31.3639,29.7552 L 27.0334,27.9808 C 26.5043,27.7800 25.9372,28.1050 25.7606,28.7072 Z " style="stroke:none;fill-rule:evenodd;fill:#e7f0fb;fill-opacity:1;"/>
      <path d="M 26.7478,28.5104 C 26.1924,28.3345 25.5927,28.6214 25.4111,29.1491 C 25.2284,29.6726 25.5328,30.2407 26.0882,30.4123 L 30.6635,31.9497 C 30.7738,31.9849 30.8835,32.0000 30.9948,32.0000 C 31.4392,32.0000 31.8536,31.7323 32.0000,31.3119 C 32.1826,30.7853 31.8793,30.2184 31.3238,30.0465 L 26.7478,28.5104 Z " style="stroke:none;fill-rule:evenodd;fill:#e7f0fb;fill-opacity:1;"/>
      <path d="M 30.6458,28.7441 C 31.3933,28.7441 32.0000,29.4736 32.0000,30.3722 C 32.0000,31.2712 31.3933,32.0000 30.6458,32.0000 C 29.8975,32.0000 29.2910,31.2712 29.2910,30.3722 C 29.2910,29.4736 29.8975,28.7441 30.6458,28.7441 Z " style="stroke:none;fill-rule:evenodd;fill:#e7f0fb;fill-opacity:1;"/>
      <path d="M 30.5594,29.2638 C 31.3555,29.2638 32.0000,29.8765 32.0000,30.6321 C 32.0000,31.3872 31.3555,32.0000 30.5594,32.0000 C 29.7637,32.0000 29.1183,31.3872 29.1183,30.6321 C 29.1183,29.8767 29.7637,29.2638 30.5594,29.2638 Z " style="stroke:none;fill-rule:evenodd;fill:#e7f0fb;fill-opacity:1;"/>
      <path d="M 30.4538,29.6480 C 31.3079,29.6480 32.0000,30.1749 32.0000,30.8251 C 32.0000,31.4741 31.3079,32.0000 30.4538,32.0000 C 29.6001,32.0000 28.9078,31.4742 28.9078,30.8251 C 28.9078,30.1749 29.6001,29.6480 30.4538,29.6480 Z " style="stroke:none;fill-rule:evenodd;fill:#e7f0fb;fill-opacity:1;"/>
    </g>
  </svg>
  <svg viewBox="0 0 48 48">
    <g id="search" class="icon">
      <path d="M 26.2027,16.7016 C 23.5404,14.0663 19.2069,14.0663 16.5446,16.7016 C 13.8827,19.3373 13.8827,23.6259 16.5446,26.2618 C 18.9155,28.6080 22.6081,28.8594 25.2689,27.0272 C 25.3249,27.2895 25.4531,27.5397 25.6591,27.7436 L 29.5364,31.5814 C 30.1015,32.1395 31.0145,32.1395 31.5767,31.5814 C 32.1411,31.0228 32.1411,30.1189 31.5767,29.5620 L 27.6993,25.7230 C 27.4944,25.5208 27.2410,25.3935 26.9762,25.3381 C 28.8283,22.7040 28.5743,19.0495 26.2027,16.7016 M 24.9786,25.0501 C 22.9909,27.0176 19.7558,27.0176 17.7687,25.0501 C 15.7821,23.0826 15.7821,19.8813 17.7687,17.9138 C 19.7558,15.9469 22.9909,15.9469 24.9786,17.9138 C 26.9664,19.8813 26.9664,23.0826 24.9786,25.0501 Z " style="stroke:none;fill-rule:evenodd;fill:#e7f0fb;fill-opacity:1;"/>
    </g>
  </svg>
  <svg viewBox="0 0 48 48">
    <g id="settings-bars" class="icon">
      <path d="M 10.8594,27.6213 L 10.8594,29.8094 L 17.9045,29.8094 L 17.9045,27.6213 L 10.8594,27.6213 M 10.8594,14.4856 L 10.8594,16.6737 L 22.6048,16.6737 L 22.6048,14.4856 L 10.8594,14.4856 M 22.6048,32.0000 L 22.6048,29.8094 L 32.0000,29.8094 L 32.0000,27.6213 L 22.6048,27.6213 L 22.6048,25.4308 L 20.2546,25.4308 L 20.2546,32.0000 L 22.6048,32.0000 M 15.5597,18.8642 L 15.5597,21.0523 L 10.8594,21.0523 L 10.8594,23.2428 L 15.5597,23.2428 L 15.5597,25.4308 L 17.9045,25.4308 L 17.9045,18.8642 L 15.5597,18.8642 M 32.0000,23.2428 L 32.0000,21.0523 L 20.2546,21.0523 L 20.2546,23.2428 L 32.0000,23.2428 M 24.9549,18.8642 L 27.2996,18.8642 L 27.2996,16.6737 L 32.0000,16.6737 L 32.0000,14.4856 L 27.2997,14.4856 L 27.2997,12.2951 L 24.9549,12.2951 C 24.9549,12.2951 24.9549,18.8642 24.9549,18.8642 Z " style="stroke:none;fill-rule:evenodd;fill:#e7f0fb;fill-opacity:1;"/>
    </g>
  </svg>
  <svg viewBox="0 0 48 48">
    <g id="settings" class="icon">
      <path d="M 30.3460,24.3623 C 30.4144,23.7957 30.3938,23.2311 30.2898,22.6800 L 31.9077,22.1121 C 31.7548,21.4949 31.5144,20.8861 31.1812,20.2969 C 30.8480,19.7081 30.4342,19.1604 29.9544,18.6576 L 28.3355,19.2251 C 27.8850,18.7960 27.3660,18.4065 26.7855,18.0672 L 27.4201,16.7651 C 26.7574,16.4141 26.0410,16.1174 25.2764,15.8864 C 24.5149,15.6561 23.7327,15.4969 22.9373,15.4087 L 22.3021,16.7120 C 21.5827,16.6582 20.8658,16.6744 20.1658,16.7564 L 19.4489,15.4885 C 17.8474,15.7364 16.3511,16.2712 15.0665,17.0355 L 15.7786,18.2949 C 15.2325,18.6497 14.7380,19.0588 14.3071,19.5155 L 12.6579,19.0174 C 12.2079,19.5380 11.8307,20.1026 11.5367,20.7043 C 11.2454,21.3061 11.0459,21.9236 10.9339,22.5459 L 12.5874,23.0456 C 12.5189,23.6123 12.5396,24.1768 12.6436,24.7279 L 11.0257,25.2954 C 11.1785,25.9130 11.4189,26.5214 11.7521,27.1106 C 12.0859,27.6998 12.4993,28.2472 12.9795,28.7499 L 14.5973,28.1824 C 15.0478,28.6120 15.5668,29.0014 16.1479,29.3407 L 15.5132,30.6437 C 16.1760,30.9951 16.8923,31.2914 17.6570,31.5224 C 18.4185,31.7526 19.2006,31.9118 19.9960,32.0000 L 20.6312,30.6967 C 21.3508,30.7502 22.0676,30.7339 22.7675,30.6520 L 23.4844,31.9194 C 25.0859,31.6716 26.5833,31.1367 27.8674,30.3725 L 27.1548,29.1130 C 27.7003,28.7582 28.1954,28.3495 28.6262,27.8924 L 30.2743,28.3905 C 30.7244,27.8698 31.1016,27.3053 31.3956,26.7041 C 31.6891,26.1023 31.8880,25.4843 32.0000,24.8616 L 30.3460,24.3623 M 25.9508,25.0589 C 25.0004,27.0095 22.2226,27.9831 19.7450,27.2347 C 17.2707,26.4867 16.0328,24.2996 16.9825,22.3495 C 17.9329,20.3992 20.7108,19.4257 23.1867,20.1732 C 25.6632,20.9212 26.9006,23.1092 25.9508,25.0589 Z " style="stroke:none;fill-rule:evenodd;fill:#d3d7db;fill-opacity:0.701961;"/>
      <path d="M 31.0085,22.9751 C 30.9920,22.5532 30.9498,22.1432 30.8898,21.7471 L 31.8293,20.6968 C 31.5338,19.2195 31.0113,17.9250 30.3273,16.9323 L 29.3854,17.9847 C 28.9908,17.4907 28.5414,17.1190 28.0571,16.8915 L 27.9828,15.0033 C 27.5439,14.8530 27.0878,14.7894 26.6202,14.8406 C 26.1526,14.8920 25.7059,15.0560 25.2819,15.2997 L 25.3560,17.1886 C 24.8936,17.5199 24.4776,17.9873 24.1246,18.5627 L 23.1080,17.7249 C 22.5083,18.8585 22.0911,20.2563 21.9132,21.7856 L 22.9272,22.6214 C 22.8987,23.0280 22.8885,23.4423 22.9050,23.8648 C 22.9216,24.2874 22.9641,24.6967 23.0242,25.0929 L 22.0843,26.1431 C 22.3803,27.6204 22.9032,28.9157 23.5863,29.9077 L 24.5282,28.8552 C 24.9233,29.3492 25.3721,29.7209 25.8566,29.9484 L 25.9308,31.8373 C 26.3701,31.9869 26.8259,32.0512 27.2934,32.0000 C 27.7610,31.9487 28.2087,31.7844 28.6317,31.5409 L 28.5576,29.6520 C 29.0201,29.3207 29.4365,28.8533 29.7890,28.2779 L 30.8052,29.1157 C 31.4057,27.9820 31.8225,26.5844 32.0000,25.0552 L 30.9865,24.2193 C 31.0153,23.8120 31.0251,23.3976 31.0085,22.9751 M 27.0816,26.5812 C 26.0369,26.6958 25.1344,25.3735 25.0658,23.6278 C 24.9973,21.8821 25.7887,20.3732 26.8333,20.2585 C 27.8767,20.1441 28.7793,21.4664 28.8478,23.2122 C 28.9164,24.9578 28.1250,26.4667 27.0816,26.5812 Z " style="stroke:none;fill-rule:evenodd;fill:#d3d7db;fill-opacity:0.701961;"/>
    </g>
  </svg>
  <svg viewBox="0 0 48 48">
    <g id="switch" class="icon">
      <path d="M 32.0000,21.1321 L 32.0000,30.7925 C 32.0000,31.5170 31.6800,32.0000 31.2000,32.0000 L 4.0000,32.0000 C 3.5200,32.0000 3.2000,31.5169 3.2000,30.7925 L 3.2000,21.1321 C 3.2000,20.4076 3.5200,19.9246 4.0000,19.9246 L 31.2000,19.9246 C 31.5999,19.9246 32.0000,20.4076 32.0000,21.1321 Z " style="stroke:none;fill-rule:nonzero;fill:#595a66;fill-opacity:1;"/>
      <path d="M 30.5455,32.0000 C 29.6728,32.0000 29.0910,31.4553 29.0910,30.6383 L 29.0910,27.9148 C 29.0910,27.0978 29.6729,26.5531 30.5455,26.5531 C 31.4183,26.5531 32.0000,27.0979 32.0000,27.9148 L 32.0000,30.6382 C 32.0000,31.4553 31.4181,32.0000 30.5455,32.0000 Z " style="stroke:none;fill-rule:nonzero;fill:#35363e;fill-opacity:1;"/>
      <path d="M 30.7200,32.0000 C 29.9520,32.0000 29.4401,31.4553 29.4401,30.6383 L 29.4401,27.9148 C 29.4401,27.0978 29.9521,26.5531 30.7200,26.5531 C 31.4879,26.5531 32.0000,27.0979 32.0000,27.9148 L 32.0000,30.6382 C 32.0000,31.4553 31.4881,32.0000 30.7200,32.0000 Z " style="stroke:none;fill-rule:nonzero;fill:#35363e;fill-opacity:1;"/>
      <path d="M 30.8572,32.0000 C 30.1714,32.0000 29.7144,31.4553 29.7144,30.6383 L 29.7144,27.9148 C 29.7144,27.0978 30.1715,26.5531 30.8572,26.5531 C 31.5428,26.5531 32.0000,27.0979 32.0000,27.9148 L 32.0000,30.6382 C 32.0000,31.4553 31.5429,32.0000 30.8572,32.0000 Z " style="stroke:none;fill-rule:nonzero;fill:#35363e;fill-opacity:1;"/>
      <path d="M 30.9678,32.0000 C 30.3484,32.0000 29.9355,31.4553 29.9355,30.6383 L 29.9355,27.9148 C 29.9355,27.0978 30.3485,26.5531 30.9678,26.5531 C 31.5871,26.5531 32.0000,27.0979 32.0000,27.9148 L 32.0000,30.6382 C 32.0000,31.4553 31.5871,32.0000 30.9678,32.0000 Z " style="stroke:none;fill-rule:nonzero;fill:#35363e;fill-opacity:1;"/>
      <path d="M 31.0589,32.0000 C 30.4941,32.0000 30.1177,31.4553 30.1177,30.6383 L 30.1177,27.9148 C 30.1177,27.0978 30.4942,26.5531 31.0589,26.5531 C 31.6236,26.5531 32.0000,27.0979 32.0000,27.9148 L 32.0000,30.6382 C 32.0000,31.4553 31.6236,32.0000 31.0589,32.0000 Z " style="stroke:none;fill-rule:nonzero;fill:#35363e;fill-opacity:1;"/>
      <path d="M 31.1352,32.0000 C 30.6162,32.0000 30.2703,31.4553 30.2703,30.6383 L 30.2703,27.9148 C 30.2703,27.0978 30.6163,26.5531 31.1352,26.5531 C 31.6541,26.5531 32.0000,27.0979 32.0000,27.9148 L 32.0000,30.6382 C 32.0000,31.4553 31.6541,32.0000 31.1352,32.0000 Z " style="stroke:none;fill-rule:nonzero;fill:#35363e;fill-opacity:1;"/>
      <path d="M 32.0000,30.5778 C 32.0000,31.3632 30.4082,32.0000 28.4445,32.0000 C 26.4809,32.0000 24.8891,31.3632 24.8891,30.5778 C 24.8891,29.7924 26.4809,29.1556 28.4445,29.1556 C 30.4082,29.1556 32.0000,29.7924 32.0000,30.5778 Z " style="stroke:none;fill-rule:evenodd;fill:#89c763;fill-opacity:1;"/>
      <path d="M 32.0000,30.5778 C 32.0000,31.3632 30.8060,32.0000 29.3334,32.0000 C 27.8608,32.0000 26.6668,31.3632 26.6668,30.5778 C 26.6668,29.7924 27.8608,29.1556 29.3334,29.1556 C 30.8060,29.1556 32.0000,29.7924 32.0000,30.5778 Z " style="stroke:none;fill-rule:evenodd;fill:#ffcb5b;fill-opacity:1;"/>
      <path d="M 32.0000,30.5778 C 32.0000,31.3632 31.0448,32.0000 29.8667,32.0000 C 28.6886,32.0000 27.7335,31.3632 27.7335,30.5778 C 27.7335,29.7924 28.6886,29.1556 29.8667,29.1556 C 31.0448,29.1556 32.0000,29.7924 32.0000,30.5778 Z " style="stroke:none;fill-rule:evenodd;fill:#ffcb5b;fill-opacity:1;"/>
      <path d="M 31.3846,32.0000 L 8.0000,32.0000 C 7.6307,32.0000 7.3846,31.6343 7.3846,31.0857 C 7.3846,30.5372 7.6307,30.1715 8.0000,30.1715 L 31.3846,30.1715 C 31.7539,30.1715 32.0000,30.5372 32.0000,31.0857 C 32.0000,31.6343 31.7539,32.0000 31.3846,32.0000 Z " style="stroke:none;fill-rule:nonzero;fill:#6f707e;fill-opacity:1;"/>
      <path d="M 31.6001,22.3397 C 31.3601,22.3397 31.2001,22.5812 31.2001,22.9435 L 31.2001,30.7925 L 3.2000,30.7925 C 3.2000,31.5170 3.5200,32.0000 4.0000,32.0000 L 31.2000,32.0000 C 31.6800,32.0000 32.0000,31.5169 32.0000,30.7925 L 32.0000,22.9435 C 32.0001,22.5812 31.8401,22.3397 31.6001,22.3397 Z " style="stroke:none;fill-rule:nonzero;fill:#494a52;fill-opacity:1;"/>
      <path d="M 6.0541,30.8364 L 32.0000,30.8364 L 32.0000,32.0000 L 6.0541,32.0000 L 6.0541,30.8364 Z " style="stroke:none;fill-rule:evenodd;fill:#35363e;fill-opacity:1;"/>
    </g>
  </svg>
  <svg viewBox="0 0 48 48">
    <g id="usermanagement" class="icon">
      <path d="M 21.5380,14.8293 C 22.7480,14.8293 23.7289,15.9082 23.7289,17.2392 C 23.7289,18.5701 22.7480,19.6492 21.5380,19.6492 C 20.3279,19.6492 19.3469,18.5701 19.3469,17.2392 C 19.3469,15.9082 20.3279,14.8293 21.5380,14.8293 M 19.3469,22.6842 C 19.0548,22.8448 18.5733,24.2430 18.8374,24.4314 L 17.4150,24.1436 C 18.3826,23.7580 18.5764,23.1139 18.6550,21.9386 L 18.5805,21.2079 C 18.8982,20.9170 19.3682,20.2742 19.7851,20.2742 L 23.2908,20.2742 C 23.7168,20.2742 24.0911,20.4736 24.4137,20.7754 L 24.6190,21.6072 C 24.6190,22.5894 25.2992,22.8847 26.0101,23.3603 L 25.0162,23.3375 C 24.7577,23.3273 24.5185,23.3913 24.2981,23.5077 C 24.1115,23.1549 23.8808,22.7676 23.7289,22.6842 L 23.7783,23.9042 C 22.8508,24.8411 22.3869,26.6084 22.3869,26.6084 L 22.2267,27.4838 L 21.7570,27.5040 C 21.4419,27.5040 21.1324,27.4769 20.8306,27.4247 C 20.5903,26.7226 20.0665,25.4553 19.2593,24.8642 L 19.3469,22.6842 M 16.0878,19.3253 C 17.2979,19.3253 18.2789,20.4042 18.2789,21.7352 C 18.2789,23.0661 17.2979,24.1452 16.0878,24.1452 C 14.8777,24.1452 13.8968,23.0661 13.8968,21.7352 C 13.8968,20.4042 14.8777,19.3253 16.0878,19.3253 M 13.8968,27.1801 C 13.6047,27.3408 13.0204,28.6260 13.0204,28.6260 C 13.0204,28.6260 12.7283,29.1081 12.5822,31.0360 L 11.2676,30.5540 L 11.7058,28.1441 C 11.7058,28.1441 12.5822,24.7702 14.3350,24.7702 L 17.8406,24.7702 C 19.5935,24.7702 20.4698,28.1441 20.4698,28.1441 L 20.9080,30.5540 L 19.5935,31.0360 C 19.4473,29.1081 19.1553,28.6260 19.1553,28.6260 C 19.1553,28.6260 18.5710,27.3408 18.2789,27.1801 L 18.4559,31.5574 C 17.7897,31.8431 17.0650,32.0000 16.3069,32.0000 C 15.3829,32.0000 14.5083,31.7669 13.7291,31.3514 L 13.8968,27.1801 M 27.1798,18.4130 C 28.3899,18.4604 29.3709,19.5778 29.3709,20.9087 C 29.3709,22.2397 28.3899,23.2802 27.1798,23.2329 C 25.9698,23.1855 24.9888,22.0681 24.9888,20.7372 C 24.9888,19.4061 25.9698,18.3657 27.1798,18.4130 M 24.9888,26.1820 C 24.6967,26.3312 24.1124,27.5937 24.1124,27.5937 C 24.1124,27.5937 23.8203,28.0642 23.6742,29.9864 L 22.3596,29.4530 L 22.7978,27.0602 C 22.7978,27.0602 23.6742,23.7207 25.4269,23.7894 L 28.9326,23.9266 C 30.6855,23.9952 31.5618,27.4034 31.5618,27.4034 L 32.0000,29.8305 L 30.6855,30.2610 C 30.5394,28.3273 30.2472,27.8340 30.2472,27.8340 C 30.2472,27.8340 29.6629,26.5258 29.3709,26.3537 L 29.5478,30.7379 C 28.8818,30.9975 28.1570,31.1260 27.3989,31.0963 C 26.4748,31.0601 25.6003,30.7928 24.8211,30.3467 L 24.9888,26.1820 Z " style="stroke:none;fill-rule:nonzero;fill:#e7f0fb;fill-opacity:1;"/>
    </g>
  </svg>
  <svg viewBox="0 0 48 48">
    <g id="users" class="icon">
      <path d="M 31.2415,18.6708 C 30.7606,17.5269 30.0724,16.5050 29.1966,15.6206 C 28.3208,14.7401 27.3004,14.0483 26.1626,13.5648 C 24.9897,13.0695 23.7386,12.8140 22.4522,12.8140 C 21.1659,12.8140 19.9148,13.0695 18.7379,13.5687 C 17.6040,14.0522 16.5836,14.7440 15.7078,15.6245 C 14.8320,16.5050 14.1439,17.5310 13.6630,18.6747 C 13.1664,19.8540 12.9123,21.1118 12.9123,22.4050 C 12.9123,23.6983 13.1664,24.9561 13.6630,26.1393 C 14.1439,27.2831 14.8320,28.3090 15.7078,29.1895 C 16.5836,30.0700 17.6040,30.7618 18.7418,31.2453 C 19.9187,31.7445 21.1698,32.0000 22.4561,32.0000 C 23.7425,32.0000 24.9936,31.7445 26.1705,31.2453 C 27.3083,30.7618 28.3248,30.0700 29.2045,29.1895 C 30.0803,28.3090 30.7684,27.2831 31.2493,26.1393 C 31.7459,24.9561 32.0000,23.6983 32.0000,22.4050 C 32.0000,21.1118 31.7380,19.8540 31.2415,18.6708 M 28.5007,27.4875 C 28.4264,27.2910 28.3013,27.1141 28.1371,26.9805 C 26.5771,25.6911 24.8920,24.8342 24.5479,24.6653 C 24.5088,24.6456 24.4853,24.6062 24.4853,24.5630 L 24.4853,22.1181 C 24.7903,21.9137 24.9936,21.5638 24.9936,21.1669 L 24.9936,18.6315 C 24.9936,17.3697 23.9771,16.3478 22.7220,16.3478 L 22.4522,16.3478 L 22.1825,16.3478 C 20.9274,16.3478 19.9108,17.3697 19.9108,18.6315 L 19.9108,21.1669 C 19.9108,21.5638 20.1142,21.9137 20.4191,22.1181 L 20.4191,24.5630 C 20.4191,24.6062 20.3957,24.6456 20.3566,24.6653 C 20.0125,24.8342 18.3313,25.6911 16.7673,26.9805 C 16.6031,27.1180 16.4780,27.2949 16.4037,27.4875 C 15.2582,26.1117 14.5662,24.3390 14.5662,22.4050 C 14.5662,18.0341 18.1045,14.4767 22.4522,14.4767 C 26.7999,14.4767 30.3383,18.0341 30.3383,22.4050 C 30.3383,24.3390 29.6502,26.1117 28.5007,27.4875 Z " style="stroke:none;fill-rule:nonzero;fill:#e7f0fb;fill-opacity:1;"/>
    </g>
  </svg>
  <svg viewBox="0 0 48 48">
    <g id="variables" class="icon">
      <path d="M 22.6771,12.9561 C 27.8260,12.9561 32.0000,17.2192 32.0000,22.4780 C 32.0000,27.7369 27.8260,32.0000 22.6771,32.0000 C 17.5283,32.0000 13.3543,27.7369 13.3543,22.4780 C 13.3543,17.2192 17.5283,12.9561 22.6771,12.9561 M 22.6771,14.3163 C 22.2729,14.3163 21.8757,14.3470 21.4875,14.4062 C 21.4045,14.5910 21.3453,14.7937 21.3453,14.9965 C 21.3453,15.6766 20.6794,14.3163 20.0135,15.6766 C 19.3476,17.0369 20.0135,15.6766 20.0135,17.0369 C 20.0135,17.7171 19.0497,17.2249 19.3476,17.3770 C 20.0135,17.7171 20.0135,17.7171 19.3476,18.3972 C 19.3476,18.3972 18.0158,17.7171 18.0158,18.3972 C 18.0158,19.0773 17.3498,19.0773 16.6839,19.0773 C 16.0180,19.0773 16.6839,20.4376 16.0180,20.4376 C 15.5060,20.4376 15.7813,19.6334 15.3305,19.2617 C 15.1592,19.6695 15.0194,20.0943 14.9145,20.5330 C 15.3632,20.9437 15.4384,22.5663 16.0180,23.1582 C 16.6839,22.4780 16.6839,23.1582 17.3498,23.1582 C 18.0158,23.1582 18.0158,23.1582 18.3486,23.8383 C 19.0146,23.8383 19.3476,24.5185 20.0135,25.1986 C 20.6794,25.8788 22.0112,25.8788 22.0112,26.5588 C 22.0112,27.2390 21.3453,26.5588 21.3453,27.9191 C 21.3453,28.5993 21.3453,28.5993 20.6794,28.5993 C 20.2601,28.5993 19.8408,29.4082 19.5878,30.0074 C 20.5381,30.4146 21.5819,30.6397 22.6771,30.6397 C 24.9138,30.6397 26.9357,29.7012 28.3862,28.1888 L 28.0045,27.4091 C 28.0045,27.4091 28.8368,26.0488 28.1710,25.3686 C 27.5050,24.6886 27.5050,24.0083 27.5050,24.0083 C 27.5050,24.0083 26.1732,25.3686 25.5073,24.6885 C 24.8414,24.0083 24.8414,24.6885 24.1754,23.3283 C 23.5095,21.9680 24.8414,21.2878 24.8414,21.2878 C 24.8414,21.2878 24.8414,19.9275 25.5073,19.9275 C 26.1732,19.9275 26.8392,18.5672 28.1710,19.9275 C 28.1710,19.9275 28.9406,19.4035 30.0295,19.2754 C 29.6879,18.4585 29.2197,17.7102 28.6500,17.0560 C 28.5304,17.1438 28.3739,17.2069 28.1710,17.2069 C 27.5050,17.2069 28.8368,18.5672 28.1710,18.5672 C 27.5050,18.5672 27.5050,17.8871 26.8392,17.8871 C 26.1732,17.8871 26.1732,18.5672 25.5073,19.2474 C 24.8414,19.9275 25.5073,19.2474 24.8414,18.5672 C 24.1754,17.8871 26.1732,18.5672 25.5073,17.8871 C 24.8414,17.2069 26.1732,17.2069 26.1732,16.5269 C 26.1732,15.9934 26.9925,15.8783 27.3459,15.8535 C 26.9616,15.5704 26.5517,15.3214 26.1732,15.1666 C 26.8392,15.8466 25.5073,16.5269 24.8414,16.5269 C 24.2159,16.5269 24.7654,15.3265 24.8345,14.6173 C 24.1482,14.4212 23.4246,14.3163 22.6771,14.3163 M 14.6861,22.4780 C 14.6861,24.8787 15.7009,27.0371 17.3162,28.5305 L 16.6839,27.2390 C 16.0180,27.2390 15.6850,25.7087 15.6850,25.0285 C 15.6850,24.4828 15.4705,24.0464 15.7301,23.5439 C 14.7905,22.5801 15.3520,23.1026 15.3520,22.4780 C 15.3520,22.1542 15.0503,21.8305 14.7340,21.5800 C 14.7023,21.8750 14.6861,22.1746 14.6861,22.4780 Z " style="stroke:none;fill-rule:nonzero;fill:#e7f0fb;fill-opacity:1;"/>
    </g>
  </svg>
  <svg viewBox="0 0 48 48">
    <g id="warning" class="icon">
      <path d="M 32.0000,27.4124 L 24.8610,15.0280 C 23.6949,12.9821 20.7462,12.9821 19.5843,15.0280 L 12.4411,27.4124 C 11.2751,29.4584 12.7263,32.0000 15.0795,32.0000 L 29.3365,32.0000 C 31.6896,32.0000 33.1660,29.4331 32.0000,27.4124 M 22.2184,29.2525 C 21.5977,29.2525 21.0817,28.7357 21.0817,28.1141 C 21.0817,27.4923 21.5977,26.9756 22.2184,26.9756 C 22.8392,26.9756 23.3552,27.4923 23.3300,28.1435 C 23.3593,28.7357 22.8141,29.2525 22.2184,29.2525 M 23.2544,21.8924 C 23.2042,22.7746 23.1496,23.6526 23.0993,24.5348 C 23.0741,24.8204 23.0741,25.0809 23.0741,25.3624 C 23.0489,25.8287 22.6841,26.1900 22.2184,26.1900 C 21.7528,26.1900 21.3922,25.8539 21.3628,25.3876 C 21.2873,24.0139 21.2076,22.6654 21.1321,21.2917 C 21.1069,20.9304 21.0817,20.5649 21.0524,20.2036 C 21.0524,19.6071 21.3880,19.1156 21.9333,18.9601 C 22.4786,18.8299 23.0196,19.0903 23.2544,19.6071 C 23.3342,19.7877 23.3593,19.9684 23.3593,20.1784 C 23.3342,20.7539 23.2796,21.3252 23.2544,21.8924 Z " style="stroke:none;fill-rule:evenodd;fill:#e7f0fb;fill-opacity:1;"/>
    </g>
  </svg>
</svg>
