<svg version="1.1" xmlns="http://www.w3.org/2000/svg" xmlns:xlink="http://www.w3.org/1999/xlink">
  <view id="eye-blocked" viewBox="0 0 48 48"/>
  <g transform="translate(0 0)">
    <path d="M 32.0000,0.8780 M -0.6343,-1.1720 M -1.6616,-1.1720 M -2.2960,0.0000 M -6.8393,12.6360 M -1.7569,-0.9840 M -3.6177,-1.5140 M -5.5446,-1.5140 M -7.5548,0.0000 M -14.1029,8.1280 M -17.3201,20.0000 M 1.3910,5.1320 M 3.4045,9.5640 M 5.8531,12.9440 M -5.3779,9.9360 M -0.6343,1.1720 M -0.6343,3.0700 M 0.0000,4.2420 M 0.3172,0.5860 M 0.7329,0.8780 M 1.1485,0.8780 M -0.1580,2.1220 M -0.4752,-54.0000 M -0.6343,1.1720 M -1.6627,0.0000 M 14.0726,20.0000 M 0.0000,4.8800 M 0.9234,5.6820 M 2.2051,-6.7300 M 4.1179,-1.4900 M 31.5659,-3.1960 M 30.3535,-3.1960 M 28.9246,0.0000 M 30.2063,2.6860 M 28.7525,6.0000 M 3.7249,32.0000 M 29.9530,5.5800 M 28.2134,9.3400 M 26.9155,0.2440 M 31.9156,0.4920 M 31.8333,0.7420 M 31.7532,0.2560 M 0.9245,-0.0860 M 1.9225,-0.0860 M 2.9628,0.0000 M 1.8565,1.0800 M 3.5766,2.9180 M 4.9871,-2.9300 M 2.0611,-2.4000 M 30.7540,-5.1980 M 29.1627,-7.3500 " style="fill: var(--icon-color);"/>
    <path d="M 25.9802,27.6260 M -0.9190,-0.2660 M -1.8045,-0.7560 M -2.6348,-20.1120 M 10.8857,0.4900 M 1.7169,0.7560 M 2.6359,0.7560 M 4.7825,0.0000 M 8.6601,-7.1640 M 8.6601,-16.0000 " style="fill: var(--icon-color);"/>
    <path d="M 28.0781,18.1240 M -2.3469,4.3360 M 0.0271,0.1580 M 0.0530,0.2360 M 0.0801,3.7600 M 1.2979,6.9460 M 3.0364,9.3400 M 5.0845,-2.3940 M 2.0470,-5.5800 M 3.7866,-9.3400 M 5.0845,-4.7240 M 1.6313,-10.1800 M 2.4930,-15.7780 M 2.4930,-2.4160 M 0.0000,-4.8060 M -0.1613,-7.1220 M -0.4752,-4.8060 M 2.6013,1.3420 M 4.1926,2.0720 M 6.4561,2.0720 M 7.5537,0.0000 M 14.1018,-8.1280 M 17.3201,-20.0000 M -1.5231,-5.6200 M -3.7931,-10.4000 M -6.5622,-13.8760 " style="fill: var(--icon-color);"/>
  </g>
</svg>
