<svg version="1.1" xmlns="http://www.w3.org/2000/svg" xmlns:xlink="http://www.w3.org/1999/xlink">
  <view id="alarms" viewBox="0 0 48 48"/>
  <g transform="translate(0 0)">
    <path d="M 22.4452,14.6276 C 27.2425,14.6276 31.1314,18.5165 31.1314,23.3138 C 31.1314,28.1110 27.2425,32.0000 22.4452,32.0000 C 17.6479,32.0000 13.7590,28.1110 13.7590,23.3138 C 13.7590,18.5165 17.6479,14.6276 22.4452,14.6276 M 22.4452,16.7992 C 18.8472,16.7992 15.9306,19.7158 15.9306,23.3138 C 15.9306,26.9117 18.8472,29.8284 22.4452,29.8284 C 26.0431,29.8284 28.9598,26.9117 28.9598,23.3138 C 28.9598,19.7158 26.0431,16.7992 22.4452,16.7992 M 22.2280,18.5364 C 22.7077,18.5364 23.0967,18.9253 23.0967,19.4050 L 23.0967,22.6623 L 26.3540,22.6623 C 26.8337,22.6623 27.2225,23.0512 27.2225,23.5310 L 27.2225,23.9653 C 27.2225,24.4450 26.8337,24.8339 26.3540,24.8339 L 22.4452,24.8339 C 22.0109,24.7615 21.5766,24.6891 21.3232,24.4358 C 21.0699,24.1824 20.9975,23.7481 20.9251,23.3138 L 20.9251,19.4050 C 20.9251,18.9253 21.3139,18.5364 21.7937,18.5364 L 22.2280,18.5364 M 28.5255,12.8904 C 30.4444,12.8904 32.0000,14.4460 32.0000,16.3649 C 32.0000,17.1926 31.7105,17.9529 31.2272,18.5497 C 30.0943,16.4658 28.2412,14.8300 26.0020,13.9765 C 26.6353,13.3077 27.5317,12.8904 28.5255,12.8904 M 16.3649,12.8905 C 17.3586,12.8905 18.2550,13.3077 18.8884,13.9765 C 16.6492,14.8300 14.7960,16.4658 13.6632,18.5497 C 13.1799,17.9529 12.8904,17.1926 12.8904,16.3649 C 12.8904,14.4460 14.4460,12.8905 16.3649,12.8905 Z " style="fill: var(--icon-color);"/>
  </g>
  <view id="build" viewBox="48 0 48 48"/>
  <g transform="translate(48 0)">
    <path d="M 32.0000,29.9256 L 32.0000,28.3392 C 32.0000,27.2610 31.3348,26.6308 30.1969,26.6308 L 18.8630,26.6308 C 17.3335,26.6308 16.5447,27.3171 16.5447,28.3392 L 16.5447,30.3985 C 16.5447,31.4660 17.3015,32.0000 18.8630,32.0000 L 30.1969,32.0000 C 31.3348,32.0000 32.0000,31.2830 32.0000,29.9256 M 29.9393,30.0476 L 18.6054,30.0476 L 18.6054,28.5832 L 29.9393,28.5832 L 29.9393,30.0476 Z " style="fill: var(--icon-color);"/>
    <path d="M 23.2420,15.4045 L 23.2420,15.8926 L 23.2420,20.0761 L 23.2420,20.0766 L 23.8984,21.7498 L 22.7939,21.7498 L 12.0174,7.5241 L 9.6430,8.8811 L 10.3627,10.0763 L 10.3627,16.3807 L 9.6023,16.3807 L 10.1133,19.7974 L 10.3369,19.7974 L 10.3627,19.7974 L 10.3627,20.8298 C 9.8990,21.0294 9.3838,21.4579 9.3838,22.2277 C 9.3838,22.7446 9.5967,23.1219 9.9078,23.3738 L 7.1140,25.6547 L 7.9033,25.6547 L 10.3777,23.6344 C 10.6017,23.7174 10.8413,23.7633 11.0783,23.7633 C 11.3163,23.7633 11.5527,23.7032 11.7661,23.5944 L 14.4486,25.6547 L 15.2528,25.6547 L 15.2584,25.6478 L 12.1725,23.2780 C 12.3817,23.0393 12.5203,22.7192 12.5203,22.3096 C 12.5203,22.0397 12.2895,21.8216 12.0051,21.8216 C 11.7208,21.8216 11.4900,22.0397 11.4900,22.3096 C 11.4900,22.4849 11.4400,22.5947 11.3746,22.6655 L 11.2335,22.5571 C 11.1372,22.4834 10.9975,22.4844 10.9032,22.5620 L 10.7101,22.7197 C 10.5431,22.6465 10.4143,22.5029 10.4143,22.2282 C 10.4143,21.7869 10.8765,21.6800 10.9636,21.6644 C 11.2118,21.6239 11.3932,21.4208 11.3932,21.1826 L 11.3932,19.7974 L 11.7539,19.7974 L 11.9650,19.7974 L 12.6857,16.3806 L 12.1660,16.3806 L 11.9082,16.3806 L 11.9082,12.8380 L 18.0903,24.1107 L 18.0903,24.1883 L 18.0903,24.3352 L 18.0903,24.6784 L 20.1510,24.6784 L 20.1510,25.6546 L 27.3634,25.6546 L 27.8786,25.6546 L 27.8786,24.6784 L 30.4544,24.6784 L 30.9696,24.6784 L 30.9696,15.4045 L 23.2420,15.4045 M 18.7857,17.9426 L 18.7920,17.9509 L 16.6901,19.2469 L 17.7709,16.6199 L 18.7857,17.9426 M 11.3930,16.3807 L 11.1355,16.3807 L 10.8779,16.3807 L 10.8779,10.9969 L 11.3930,11.9175 L 11.3930,16.3807 M 11.8412,11.4050 L 10.9521,9.8050 L 12.3384,8.9416 L 11.8412,11.4050 M 13.0468,9.9382 L 14.0348,11.5626 L 12.4399,12.5360 L 13.0468,9.9382 M 13.2049,13.4691 L 14.7077,12.5432 L 14.1194,15.0789 L 13.2049,13.4691 M 15.3429,13.3706 L 16.4510,14.9017 L 14.7849,15.9126 L 15.3429,13.3706 M 15.1719,17.0792 L 17.0337,15.8706 L 15.9734,18.5610 L 15.1719,17.0792 M 17.9275,21.7205 L 17.0296,20.2191 L 19.2587,18.7109 L 17.9275,21.7205 M 18.6271,22.7871 L 20.1509,19.6754 L 21.3905,21.2769 L 18.6271,22.7871 M 28.9089,20.2856 L 25.3027,20.2856 L 25.3027,17.3569 L 28.9089,17.3569 L 28.9089,20.2856 Z " style="fill: var(--icon-color);"/>
    <path d="M 7.2716,28.5832 L 6.7565,28.5832 L 6.7565,29.5595 L 14.9992,29.5595 L 14.9992,28.5832 L 13.9690,28.5832 L 13.9690,27.6071 L 13.9690,27.1189 L 14.9992,27.1189 L 14.9992,26.1428 L 6.7565,26.1428 L 6.7565,27.1189 L 7.7868,27.1189 L 7.7868,28.5832 L 7.2716,28.5832 Z " style="fill: var(--icon-color);"/>
  </g>
  <view id="buildings" viewBox="96 0 48 48"/>
  <g transform="translate(96 0)">
    <path d="M 30.6923,30.4977 L 30.6923,16.9768 L 21.5373,16.9768 L 21.5373,7.9628 L 12.3825,7.9628 L 12.3825,30.4977 L 11.0746,30.4977 L 11.0746,32.0000 L 32.0000,32.0000 L 32.0000,30.4977 L 30.6923,30.4977 M 13.6903,9.4652 L 16.3060,9.4652 L 16.3060,12.4698 L 13.6903,12.4698 L 13.6903,9.4652 M 13.6903,13.9721 L 16.3060,13.9721 L 16.3060,16.9768 L 13.6903,16.9768 L 13.6903,13.9721 M 13.6903,18.4791 L 16.3060,18.4791 L 16.3060,21.4836 L 13.6903,21.4836 L 13.6903,18.4791 M 13.6903,22.9860 L 16.3060,22.9860 L 16.3060,25.9905 L 13.6903,25.9905 L 13.6903,22.9860 M 18.9217,30.4977 L 14.9981,30.4977 L 14.9981,27.4931 L 18.9217,27.4931 L 18.9217,30.4977 L 18.9217,30.4977 M 20.2295,25.9905 L 17.6137,25.9905 L 17.6137,22.9861 L 20.2295,22.9861 L 20.2295,25.9905 M 20.2295,21.4836 L 17.6137,21.4836 L 17.6137,18.4791 L 20.2295,18.4791 L 20.2295,21.4836 M 20.2295,16.9768 L 17.6137,16.9768 L 17.6137,13.9721 L 20.2295,13.9721 L 20.2295,16.9768 M 20.2295,12.4698 L 17.6137,12.4698 L 17.6137,9.4652 L 20.2295,9.4652 L 20.2295,12.4698 M 22.8452,18.4791 L 25.4609,18.4791 L 25.4609,21.4836 L 22.8452,21.4836 L 22.8452,18.4791 M 22.8452,22.9860 L 25.4609,22.9860 L 25.4609,25.9905 L 22.8452,25.9905 L 22.8452,22.9860 M 28.0765,30.4977 L 24.1529,30.4977 L 24.1529,27.4931 L 28.0765,27.4931 L 28.0765,30.4977 M 29.3844,25.9905 L 26.7686,25.9905 L 26.7686,22.9861 L 29.3844,22.9861 L 29.3844,25.9905 M 29.3844,21.4836 L 26.7686,21.4836 L 26.7686,18.4791 L 29.3844,18.4791 L 29.3844,21.4836 Z " style="fill: var(--icon-color);"/>
  </g>
  <view id="cloud" viewBox="144 0 48 48"/>
  <g transform="translate(144 0)">
    <path d="M 30.9922,23.9895 C 30.3208,23.0944 29.4689,22.5185 28.4377,22.2617 C 28.7657,21.7220 28.9293,21.1309 28.9293,20.4888 C 28.9293,19.5808 28.6294,18.8058 28.0300,18.1635 C 27.4305,17.5213 26.7069,17.2000 25.8594,17.2000 C 25.0918,17.2000 24.4282,17.4655 23.8688,17.9966 C 23.3972,16.7804 22.6475,15.7954 21.6203,15.0417 C 20.5928,14.2882 19.4474,13.9110 18.1842,13.9110 C 16.4893,13.9110 15.0420,14.5537 13.8427,15.8384 C 12.6434,17.1228 12.0439,18.6733 12.0439,20.4890 C 12.0439,20.6173 12.0519,20.8014 12.0679,21.0412 C 11.1405,21.5038 10.3929,22.2039 9.8252,23.1419 C 9.2577,24.0796 8.9737,25.1139 8.9737,26.2446 C 8.9737,27.8289 9.4995,29.1843 10.5508,30.3105 C 11.6021,31.4368 12.8674,32.0000 14.3465,32.0000 L 27.3949,32.0000 C 28.6659,32.0000 29.7512,31.5178 30.6508,30.5547 C 31.5502,29.5912 32.0000,28.4286 32.0000,27.0667 C 31.9999,25.9106 31.6639,24.8844 30.9922,23.9895 Z " style="fill: var(--icon-color);"/>
  </g>
  <view id="code" viewBox="192 0 48 48"/>
  <g transform="translate(192 0)">
    <path d="M 31.8719,21.9114 L 26.5976,15.3996 C 26.4335,15.1971 26.1434,15.1971 25.9794,15.3996 L 24.8359,16.8114 C 24.6651,17.0222 24.6651,17.3640 24.8359,17.5749 L 28.6577,22.2929 L 24.8361,27.0117 C 24.6653,27.2226 24.6653,27.5643 24.8361,27.7753 L 25.9796,29.1870 C 26.0616,29.2882 26.1729,29.3455 26.2888,29.3455 C 26.4045,29.3455 26.5160,29.2882 26.5981,29.1870 L 31.8719,22.6754 C 32.0427,22.4643 32.0427,22.1222 31.8719,21.9114 Z " style="fill: var(--icon-color);"/>
    <path d="M 18.4976,27.0117 L 14.6764,22.2934 L 18.4983,17.5754 C 18.5804,17.4742 18.6264,17.3371 18.6264,17.1936 C 18.6264,17.0505 18.5806,16.9131 18.4983,16.8118 L 17.3549,15.4001 C 17.2728,15.2989 17.1615,15.2419 17.0456,15.2419 C 16.9297,15.2419 16.8184,15.2989 16.7365,15.4001 L 11.4618,21.9114 C 11.2910,22.1222 11.2910,22.4641 11.4618,22.6752 L 16.7362,29.1867 C 16.8182,29.2880 16.9295,29.3452 17.0454,29.3452 C 17.1613,29.3452 17.2726,29.2880 17.3547,29.1867 L 18.4981,27.7749 C 18.6689,27.5643 18.6689,27.2226 18.4976,27.0117 Z " style="fill: var(--icon-color);"/>
    <path d="M 24.6662,13.2089 C 24.6106,13.0831 24.5171,12.9896 24.4059,12.9492 L 23.4790,12.6115 C 23.2476,12.5267 23.0040,12.6905 22.9358,12.9764 L 18.6324,30.9692 C 18.5996,31.1066 18.6122,31.2542 18.6676,31.3798 C 18.7229,31.5059 18.8167,31.5991 18.9278,31.6399 L 19.8548,31.9776 C 19.8961,31.9927 19.9379,32.0000 19.9788,32.0000 C 20.1675,32.0000 20.3418,31.8477 20.3981,31.6125 L 24.7014,13.6195 C 24.7343,13.4822 24.7217,13.3345 24.6662,13.2089 Z " style="fill: var(--icon-color);"/>
  </g>
  <view id="components" viewBox="240 0 48 48"/>
  <g transform="translate(240 0)">
    <path d="M 15.3341,28.0171 L 15.3341,20.3306 L 21.7064,24.0194 L 21.7064,31.7155 L 15.3341,28.0171 Z " style="fill: var(--icon-color);"/>
    <path d="M 29.0590,20.3306 L 29.0590,28.0171 L 22.6867,31.7155 L 22.6867,24.0194 L 29.0590,20.3306 Z " style="fill: var(--icon-color);"/>
    <path d="M 22.1965,15.1166 L 28.9364,19.0892 L 22.1965,23.0617 L 15.4566,19.0892 L 22.1965,15.1166 M 13.8636,29.2688 L 17.5437,31.4379 L 16.5902,32.0000 L 16.5212,32.0000 L 12.3931,29.5668 L 12.3931,17.5498 L 16.5212,15.1167 L 16.5902,15.1167 L 17.5437,15.6786 L 13.8636,17.8478 L 13.8636,29.2688 M 30.5294,29.2688 L 30.5295,17.8478 L 26.8493,15.6786 L 27.8029,15.1166 L 27.8717,15.1166 L 32.0000,17.5498 L 31.9999,29.5668 L 27.8717,32.0000 L 27.8029,32.0000 L 26.8493,31.4379 L 30.5294,29.2688 Z " style="fill: var(--icon-color);"/>
  </g>
  <view id="connection" viewBox="288 0 48 48"/>
  <g transform="translate(288 0)">
    <path d="M 22.8347,23.6446 L 22.8346,27.5438 L 24.9912,27.5438 C 25.5868,27.5438 26.0695,28.0425 26.0695,28.6578 L 26.0695,30.8860 C 26.0695,31.5012 25.5867,32.0000 24.9912,32.0000 L 18.5216,32.0000 C 17.9260,32.0000 17.4433,31.5012 17.4433,30.8860 L 17.4433,28.6578 C 17.4433,28.0425 17.9260,27.5438 18.5216,27.5438 L 20.6781,27.5438 L 20.6781,23.6446 L 22.8347,23.6446 M 26.6086,28.6578 L 32.0000,28.6578 L 32.0000,30.8860 L 26.6086,30.8860 L 26.6086,28.6578 M 16.9042,28.6578 L 16.9042,30.8860 L 11.5127,30.8860 L 11.5127,28.6578 L 16.9042,28.6578 M 11.5127,11.3898 L 32.0000,11.3898 L 32.0000,16.4031 L 11.5127,16.4031 L 11.5127,11.3898 M 30.9217,12.5039 L 29.8435,12.5039 L 29.8435,15.2890 L 30.9217,15.2890 L 30.9217,12.5039 M 28.7652,12.5039 L 27.6869,12.5039 L 27.6869,15.2890 L 28.7652,15.2890 L 28.7652,12.5039 M 26.6086,12.5039 L 25.5304,12.5039 L 25.5304,15.2890 L 26.6086,15.2890 L 26.6086,12.5039 M 12.5910,14.1750 L 12.5910,15.2890 L 13.6693,15.2890 L 13.6693,14.1750 L 12.5910,14.1750 M 11.5127,17.5172 L 32.0000,17.5172 L 32.0000,22.5304 L 11.5127,22.5304 L 11.5127,17.5172 M 30.9217,18.6312 L 29.8435,18.6312 L 29.8435,21.4164 L 30.9217,21.4164 L 30.9217,18.6312 M 28.7652,18.6312 L 27.6869,18.6312 L 27.6869,21.4164 L 28.7652,21.4164 L 28.7652,18.6312 M 26.6086,18.6312 L 25.5304,18.6312 L 25.5304,21.4164 L 26.6086,21.4164 L 26.6086,18.6312 M 12.5910,20.3024 L 12.5910,21.4164 L 13.6693,21.4164 L 13.6693,20.3024 L 12.5910,20.3024 Z " style="fill: var(--icon-color);"/>
  </g>
  <view id="datalogging" viewBox="336 0 48 48"/>
  <g transform="translate(336 0)">
    <path d="M 14.8147,20.4615 L 23.8369,20.4615 L 22.1185,22.3846 L 15.3875,22.3846 L 15.3875,30.0769 L 30.2815,30.0769 L 30.2815,22.3846 L 27.2740,22.3846 L 28.9926,20.4615 L 30.8544,20.4615 C 31.4871,20.4615 32.0000,21.0355 32.0000,21.7436 L 32.0000,30.7179 C 32.0000,31.4260 31.4871,32.0000 30.8544,32.0000 L 14.8147,32.0000 C 14.1819,32.0000 13.6690,31.4260 13.6690,30.7179 L 13.6690,21.7436 C 13.6690,21.0355 14.1819,20.4615 14.8147,20.4615 M 29.0075,17.4000 C 29.1679,17.5910 29.2481,17.7967 29.2481,18.0174 L 29.1863,18.3422 L 29.0075,18.6348 L 25.5714,22.4798 L 24.7041,23.4503 L 23.8722,24.3814 L 23.1274,25.2148 L 22.5072,25.9050 L 22.0625,26.3989 L 21.8419,26.6459 L 21.4833,27.0126 L 20.9756,27.4608 L 20.4206,27.8386 C 20.2323,27.9440 20.0646,27.9967 19.9175,27.9967 C 19.8027,27.9967 19.7108,27.9581 19.6416,27.8806 C 19.5724,27.8032 19.5379,27.6979 19.5379,27.5645 C 19.5379,27.3999 19.5850,27.2134 19.6792,27.0051 L 20.0167,26.3840 L 20.4141,25.8161 L 20.7384,25.4185 L 27.9041,17.4000 L 28.1656,17.2000 L 28.4558,17.1308 C 28.6529,17.1308 28.8368,17.2205 29.0075,17.4000 M 19.0898,27.8806 L 19.6416,28.4980 L 18.5382,29.1154 L 19.0898,27.8806 Z " style="fill: var(--icon-color);"/>
  </g>
  <view id="datasources" viewBox="384 0 48 48"/>
  <g transform="translate(384 0)">
    <path d="M 23.6308,13.7143 C 28.2529,13.7143 32.0000,14.6838 32.0000,15.8815 L 32.0000,16.8421 C 32.0000,18.0380 28.2529,19.0075 23.6308,19.0075 C 19.0086,19.0075 15.2615,18.0380 15.2615,16.8421 L 15.2615,15.8797 C 15.2615,14.6838 19.0086,13.7143 23.6308,13.7143 M 32.0000,29.8346 C 32.0000,31.0305 28.2529,32.0000 23.6308,32.0000 C 19.0086,32.0000 15.2615,31.0305 15.2615,29.8346 L 15.2615,26.9473 C 15.2615,28.1433 19.0086,29.1128 23.6308,29.1128 C 28.2506,29.1128 31.9961,28.1443 32.0000,26.9492 L 32.0000,29.8346 M 32.0000,25.5037 C 32.0000,26.6997 28.2529,27.6691 23.6308,27.6691 C 19.0086,27.6691 15.2615,26.6997 15.2615,25.5037 L 15.2615,22.6166 C 15.2615,23.8125 19.0086,24.7820 23.6308,24.7820 C 28.2506,24.7820 31.9961,23.8135 32.0000,22.6184 L 32.0000,25.5037 M 32.0000,21.1730 C 32.0000,22.3689 28.2529,23.3384 23.6308,23.3384 C 19.0086,23.3384 15.2615,22.3689 15.2615,21.1730 L 15.2615,18.2857 C 15.2615,19.4816 19.0086,20.4511 23.6308,20.4511 C 28.2506,20.4511 31.9961,19.4827 32.0000,18.2875 L 32.0000,21.1730 Z " style="fill: var(--icon-color);"/>
  </g>
  <view id="download" viewBox="432 0 48 48"/>
  <g transform="translate(432 0)">
    <path d="M 18.1961,29.7207 L 32.0000,29.7207 L 32.0000,32.0000 L 18.1961,32.0000 L 18.1961,29.7207 M 23.5053,13.3097 L 26.6908,13.3097 L 26.6908,22.6549 L 30.9381,18.3242 L 30.9381,22.6549 L 25.0980,28.3531 L 19.2579,22.6549 L 19.2579,18.3242 L 23.5053,22.6549 L 23.5053,13.3097 Z " style="fill: var(--icon-color);"/>
  </g>
  <view id="drawer" viewBox="480 0 48 48"/>
  <g transform="translate(480 0)">
    <path d="M 32.0000,16.9922 C 32.0000,17.2924 31.7497,17.5360 31.4408,17.5360 L 11.9490,17.5360 C 11.6401,17.5360 11.3898,17.2924 11.3898,16.9922 L 11.3898,15.5163 C 11.3898,15.2160 11.6401,14.9725 11.9490,14.9725 L 31.4408,14.9725 C 31.7497,14.9725 32.0000,15.2160 32.0000,15.5163 L 32.0000,16.9922 M 31.8403,31.4562 C 31.8403,31.7565 31.5900,32.0000 31.2811,32.0000 L 15.1444,32.0000 C 14.8355,32.0000 14.5852,31.7565 14.5852,31.4562 L 14.5852,29.9803 C 14.5852,29.6800 14.8355,29.4365 15.1444,29.4365 L 31.2811,29.4365 C 31.5900,29.4365 31.8403,29.6800 31.8403,29.9803 L 31.8403,31.4562 M 32.0000,21.8138 C 32.0000,22.1142 31.7497,22.3575 31.4408,22.3575 L 19.3783,22.3575 C 19.0695,22.3575 18.8191,22.1142 18.8191,21.8138 L 18.8191,20.3378 C 18.8191,20.0375 19.0695,19.7941 19.3783,19.7941 L 31.4408,19.7941 C 31.7497,19.7941 32.0000,20.0375 32.0000,20.3378 L 32.0000,21.8138 M 31.8403,26.6672 C 31.8403,26.9675 31.5900,27.2110 31.2811,27.2110 L 22.0944,27.2110 C 21.7856,27.2110 21.5352,26.9675 21.5352,26.6672 L 21.5352,25.1913 C 21.5352,24.8910 21.7856,24.6475 22.0944,24.6475 L 31.2811,24.6475 C 31.5900,24.6475 31.8403,24.8910 31.8403,25.1913 L 31.8403,26.6672 Z " style="fill: var(--icon-color);"/>
  </g>
  <view id="error" viewBox="528 0 48 48"/>
  <g transform="translate(528 0)">
    <path d="M 22.5880,12.7797 C 17.3900,12.7797 13.1761,17.0824 13.1761,22.3898 C 13.1761,27.6970 17.3899,32.0000 22.5878,32.0000 C 27.7857,32.0000 32.0000,27.6970 32.0000,22.3898 C 32.0000,17.0824 27.7858,12.7797 22.5880,12.7797 M 26.1384,26.0525 C 25.7626,26.4359 25.1538,26.4359 24.7784,26.0525 L 22.6368,23.8659 L 20.3975,26.1522 C 20.0220,26.5355 19.4132,26.5355 19.0377,26.1522 C 18.6619,25.7683 18.6619,25.1468 19.0377,24.7631 L 21.2767,22.4770 L 19.1920,20.3486 C 18.8165,19.9648 18.8165,19.3434 19.1920,18.9598 C 19.5676,18.5763 20.1765,18.5763 20.5523,18.9598 L 22.6368,21.0882 L 24.6240,19.0591 C 24.9997,18.6756 25.6088,18.6754 25.9840,19.0591 C 26.3598,19.4429 26.3598,20.0647 25.9840,20.4479 L 23.9970,22.4770 L 26.1385,24.6637 C 26.5140,25.0470 26.5142,25.6690 26.1384,26.0525 Z " style="fill: var(--icon-color);"/>
  </g>
  <view id="explorer" viewBox="576 0 48 48"/>
  <g transform="translate(576 0)">
    <path d="M 12.1380,18.4654 L 32.0000,18.4654 L 32.0000,32.0000 L 12.1380,32.0000 L 12.1380,18.4654 M 29.7301,17.1118 L 21.2178,17.1118 C 21.7853,15.0816 22.6365,14.4049 22.6365,14.4049 L 29.0208,14.4048 C 29.3342,14.4048 29.7301,14.8770 29.7301,15.2508 L 29.7301,17.1118 Z " style="fill: var(--icon-color);"/>
  </g>
  <view id="flow" viewBox="624 0 48 48"/>
  <g transform="translate(624 0)">
    <path d="M 13.1730,20.1500 L 17.8798,20.1500 L 17.8798,21.7300 L 18.6643,21.7300 C 19.4488,21.2033 21.0176,20.6766 21.8892,19.6013 C 22.7608,18.5260 23.7196,16.9022 24.6348,15.9805 C 25.5487,15.0602 26.4193,14.8400 27.2897,14.6208 L 27.2897,13.0383 L 31.9964,13.0383 L 31.9964,17.7783 L 27.2897,17.7783 L 27.2897,16.2008 C 26.4374,16.4200 25.5851,16.6402 24.6768,17.5605 C 23.7670,18.4822 22.8009,20.1060 21.9202,21.1813 L 21.4351,21.7300 L 27.2933,21.7300 L 27.2933,20.1500 L 32.0000,20.1500 L 32.0000,24.8900 L 27.2933,24.8900 L 27.2933,23.3100 L 21.4352,23.3100 C 21.5942,23.4761 21.7557,23.6578 21.9202,23.8586 C 22.8009,24.9339 23.7670,26.5577 24.6768,27.4794 C 25.5865,28.4011 26.4399,28.6205 27.2933,28.8399 L 27.2933,27.2599 L 32.0000,27.2599 L 32.0000,32.0000 L 27.2933,32.0000 L 27.2933,30.4200 C 26.4216,30.2005 25.5500,29.9811 24.6348,29.0594 C 23.7196,28.1378 22.7608,26.5139 21.8892,25.4386 C 21.0176,24.3633 19.4488,23.8366 18.6643,23.3100 L 17.8798,23.3100 L 17.8798,24.8900 L 13.1730,24.8900 L 13.1730,20.1500 Z " style="fill: var(--icon-color);"/>
  </g>
  <view id="gears" viewBox="672 0 48 48"/>
  <g transform="translate(672 0)">
    <path d="M 24.5098,24.6615 C 24.5605,24.1171 24.5452,23.5748 24.4683,23.0451 L 25.6652,22.4995 C 25.5522,21.9065 25.3743,21.3215 25.1278,20.7554 C 24.8813,20.1898 24.5750,19.6634 24.2201,19.1803 L 23.0224,19.7256 C 22.6891,19.3133 22.3051,18.9392 21.8756,18.6131 L 22.3451,17.3621 C 21.8547,17.0248 21.3248,16.7397 20.7590,16.5178 C 20.1957,16.2965 19.6170,16.1436 19.0285,16.0588 L 18.5586,17.3110 C 18.0262,17.2593 17.4958,17.2749 16.9780,17.3536 L 16.4476,16.1355 C 15.2628,16.3736 14.1556,16.8875 13.2052,17.6218 L 13.7321,18.8319 C 13.3281,19.1728 12.9622,19.5658 12.6434,20.0047 L 11.4232,19.5261 C 11.0903,20.0264 10.8111,20.5688 10.5937,21.1469 C 10.3782,21.7250 10.2306,22.3184 10.1477,22.9162 L 11.3710,23.3965 C 11.3203,23.9408 11.3357,24.4832 11.4126,25.0128 L 10.2156,25.5580 C 10.3287,26.1515 10.5065,26.7360 10.7531,27.3021 C 11.0000,27.8682 11.3058,28.3942 11.6611,28.8772 L 12.8581,28.3319 C 13.1914,28.7446 13.5754,29.1189 14.0053,29.4449 L 13.5357,30.6967 C 14.0261,31.0344 14.5561,31.3191 15.1218,31.5410 C 15.6852,31.7623 16.2639,31.9152 16.8524,32.0000 L 17.3223,30.7477 C 17.8546,30.7991 18.3850,30.7834 18.9029,30.7047 L 19.4332,31.9224 C 20.6180,31.6844 21.7260,31.1705 22.6761,30.4361 L 22.1488,29.2261 C 22.5524,28.8852 22.9187,28.4925 23.2374,28.0533 L 24.4569,28.5318 C 24.7898,28.0316 25.0689,27.4892 25.2864,26.9114 C 25.5035,26.3333 25.6507,25.7396 25.7335,25.1413 L 24.5098,24.6615 M 21.2581,25.3309 C 20.5549,27.2050 18.4997,28.1404 16.6667,27.4214 C 14.8361,26.7027 13.9201,24.6012 14.6229,22.7276 C 15.3259,20.8538 17.3812,19.9184 19.2130,20.6366 C 21.0452,21.3553 21.9607,23.4575 21.2581,25.3309 Z " style="fill: var(--icon-color);"/>
    <path d="M 31.1376,14.6450 C 31.1355,14.4026 31.1090,14.1655 31.0654,13.9355 L 31.9780,13.3838 C 31.7482,12.5222 31.2999,11.7533 30.6911,11.1488 L 29.7761,11.7017 C 29.4224,11.3981 29.0136,11.1615 28.5673,11.0057 L 28.5576,9.9206 C 28.1514,9.8113 27.7265,9.7508 27.2872,9.7554 C 26.8478,9.7602 26.4245,9.8305 26.0199,9.9476 L 26.0296,11.0332 C 25.5862,11.1985 25.1820,11.4441 24.8334,11.7550 L 23.9084,11.2217 C 23.3111,11.8391 22.8764,12.6174 22.6614,13.4837 L 23.5842,14.0158 C 23.5447,14.2472 23.5221,14.4839 23.5242,14.7267 C 23.5263,14.9696 23.5533,15.2062 23.5969,15.4363 L 22.6838,15.9879 C 22.9141,16.8495 23.3627,17.6187 23.9708,18.2230 L 24.8858,17.6700 C 25.2399,17.9737 25.6483,18.2103 26.0946,18.3661 L 26.1042,19.4517 C 26.5108,19.5605 26.9353,19.6213 27.3747,19.6167 C 27.8140,19.6120 28.2382,19.5417 28.6420,19.4245 L 28.6322,18.3390 C 29.0757,18.1736 29.4802,17.9281 29.8285,17.6172 L 30.7531,18.1505 C 31.3511,17.5331 31.7855,16.7548 32.0000,15.8884 L 31.0777,15.3562 C 31.1176,15.1246 31.1398,14.8879 31.1376,14.6450 M 27.3478,16.5027 C 26.3663,16.5132 25.5632,15.7082 25.5542,14.7051 C 25.5453,13.7019 26.3339,12.8796 27.3154,12.8691 C 28.2957,12.8587 29.0987,13.6635 29.1075,14.6667 C 29.1166,15.6700 28.3281,16.4922 27.3478,16.5027 Z " style="fill: var(--icon-color);"/>
  </g>
  <view id="help" viewBox="720 0 48 48"/>
  <g transform="translate(720 0)">
    <path d="M 23.1814,24.2556 L 20.6618,24.2556 C 20.6618,21.6740 22.1735,20.8996 23.1814,20.3833 C 23.5594,20.2542 23.8113,20.1252 24.0632,19.8670 C 24.1892,19.7379 24.4411,19.4798 24.1892,18.9635 C 23.9372,18.3181 23.1814,17.6727 22.0476,17.6727 C 20.2839,17.6727 20.0319,19.2216 19.9059,19.6089 L 17.3863,19.2216 C 17.5123,17.8018 18.6461,15.0913 21.9216,15.0913 C 23.9372,15.0913 25.7010,16.2529 26.4568,17.9308 C 26.9607,19.3508 26.7089,20.7705 25.7010,21.8031 C 25.1971,22.3194 24.6932,22.5776 24.1892,22.7066 C 23.4333,23.2229 23.1814,22.9648 23.1814,24.2556 Z " style="fill: var(--icon-color);"/>
    <path d="M 21.9216,12.6389 C 26.8348,12.6389 30.7400,16.6402 30.7400,21.6740 C 30.7400,26.7078 26.8348,30.7092 21.9216,30.7092 C 17.0083,30.7092 13.1031,26.7078 13.1031,21.6740 C 13.1031,16.6402 17.0083,12.6389 21.9216,12.6389 M 21.9216,11.3481 C 16.3785,11.3481 11.8432,15.9948 11.8432,21.6740 C 11.8432,27.3534 16.3785,32.0000 21.9216,32.0000 C 27.4647,32.0000 32.0000,27.3534 32.0000,21.6740 C 32.0000,15.9948 27.4647,11.3481 21.9216,11.3481 Z " style="fill: var(--icon-color);"/>
    <path d="M 20.5358,25.5463 L 23.0554,25.5463 L 23.0554,28.1278 L 20.5358,28.1278 L 20.5358,25.5463 Z " style="fill: var(--icon-color);"/>
  </g>
  <view id="home" viewBox="768 0 48 48"/>
  <g transform="translate(768 0)">
    <path d="M 14.9700,32.0000 L 14.9700,22.0042 L 13.9378,23.1148 L 12.3897,20.3382 L 22.1949,12.0083 L 25.8073,15.0772 L 25.8073,12.9801 L 27.8715,12.5636 L 27.8715,16.8309 L 32.0000,20.3382 L 30.4518,23.1148 L 29.4198,22.0042 L 29.4198,32.0000 L 14.9700,32.0000 M 22.1949,15.8493 L 16.5182,20.8935 L 16.5182,30.3340 L 19.6145,30.3340 L 19.6145,24.2256 L 24.7751,24.2256 L 24.7751,30.3340 L 27.8715,30.3340 L 27.8715,20.8935 L 22.1949,15.8493 Z " style="fill: var(--icon-color);"/>
  </g>
  <view id="information" viewBox="816 0 48 48"/>
  <g transform="translate(816 0)">
    <path d="M 29.0549,14.7247 C 25.1274,10.7733 18.7594,10.7729 14.8315,14.7247 C 10.9040,18.6767 10.9044,25.0842 14.8315,29.0366 C 18.7590,32.9876 25.1269,32.9880 29.0549,29.0366 C 32.9819,25.0842 32.9815,18.6772 29.0549,14.7247 M 23.2545,26.2805 C 23.2545,27.0096 22.6673,27.6004 21.9427,27.6004 C 21.2182,27.6004 20.6310,27.0096 20.6310,26.2805 L 20.6310,21.0007 C 20.6310,20.2716 21.2182,19.6808 21.9427,19.6808 C 22.6673,19.6808 23.2545,20.2716 23.2545,21.0007 L 23.2545,26.2805 M 21.9196,18.7445 C 21.1640,18.7445 20.6602,18.2059 20.6760,17.5411 C 20.6602,16.8441 21.1640,16.3219 21.9348,16.3219 C 22.7062,16.3219 23.1942,16.8446 23.2104,17.5411 C 23.2099,18.2059 22.7066,18.7445 21.9196,18.7445 Z " style="fill: var(--icon-color);"/>
  </g>
  <view id="language" viewBox="864 0 48 48"/>
  <g transform="translate(864 0)">
    <path d="M 20.4574,24.1155 L 20.4574,23.3662 C 20.0328,23.0811 19.6312,22.7426 19.2610,22.3413 C 18.1887,23.3614 17.1624,24.0074 17.0465,24.0799 L 16.9489,24.1392 L 16.3579,23.2093 L 16.4544,23.1488 C 16.4664,23.1405 17.5108,22.4886 18.5663,21.4707 C 17.5978,20.0800 17.2251,18.6787 17.2106,18.6181 L 17.1828,18.5112 L 18.2623,18.2381 L 18.2888,18.3462 C 18.2912,18.3581 18.5988,19.4791 19.3465,20.6335 C 20.0859,19.7487 20.5165,18.8961 20.6263,18.0920 L 16.0925,18.0920 L 16.0925,16.8985 L 18.5915,16.8985 L 18.5915,16.2346 L 19.7566,16.2346 L 19.7566,16.8973 L 22.2557,16.8973 L 22.2557,18.0920 L 21.7528,18.0920 C 21.6358,19.2095 21.0593,20.3674 20.0353,21.5372 C 20.1727,21.6893 20.3138,21.8282 20.4574,21.9612 L 20.4574,21.8841 L 20.4574,21.3994 C 20.4574,21.0004 20.7855,20.6774 21.1907,20.6774 L 24.4532,20.6774 L 24.4532,14.9960 C 24.4532,14.8962 24.3724,14.8154 24.2699,14.8154 L 13.7249,14.8154 C 13.6236,14.8154 13.5416,14.8962 13.5416,14.9960 L 13.5416,25.3780 C 13.5416,25.4789 13.6236,25.5585 13.7249,25.5585 L 20.4574,25.5585 L 20.4574,24.1155 Z " style="fill: var(--icon-color);"/>
    <path d="M 26.4806,24.4326 L 26.4601,24.4326 C 26.3589,24.8281 26.2600,25.3292 26.1489,25.7128 L 25.7486,27.1225 L 27.2393,27.1225 L 26.8208,25.7128 C 26.7002,25.3186 26.5796,24.8269 26.4806,24.4326 Z " style="fill: var(--icon-color);"/>
    <path d="M 31.8165,21.2569 L 21.2728,21.2569 C 21.1714,21.2569 21.0894,21.3377 21.0894,21.4375 L 21.0894,31.8206 C 21.0894,31.9204 21.1714,32.0000 21.2728,32.0000 L 31.8165,32.0000 C 31.9190,32.0000 32.0000,31.9204 32.0000,31.8206 L 32.0000,21.4375 C 32.0000,21.3390 31.9190,21.2569 31.8165,21.2569 M 27.9810,29.9490 L 27.4612,28.2436 L 25.5302,28.2436 L 25.0490,29.9490 L 23.4690,29.9490 L 25.5302,23.3103 L 27.5300,23.3103 L 29.6202,29.9490 L 27.9810,29.9490 Z " style="fill: var(--icon-color);"/>
  </g>
  <view id="languages" viewBox="912 0 48 48"/>
  <g transform="translate(912 0)">
    <path d="M 18.1230,13.8490 L 18.9394,13.8490 C 19.3901,13.8490 19.7556,14.1875 19.7556,14.6052 L 19.7556,31.2437 C 19.7556,31.6614 19.3901,32.0000 18.9394,32.0000 L 18.1230,32.0000 C 17.6722,32.0000 17.3067,31.6614 17.3067,31.2437 L 17.3067,14.6052 C 17.3067,14.1875 17.6722,13.8490 18.1230,13.8490 M 20.5719,16.1178 C 21.3882,15.6136 22.2045,15.1094 23.5650,15.2355 C 24.9255,15.3615 26.8302,16.1179 28.3267,16.1179 C 29.8233,16.1179 30.9117,15.3615 32.0000,14.6052 L 32.0000,21.4118 C 30.9117,22.1681 29.8233,22.9244 28.3267,22.9244 C 26.8302,22.9244 24.9255,22.1681 23.5650,22.0420 C 22.2045,21.9160 21.3882,22.4201 20.5719,22.9244 L 20.5719,16.1178 Z " style="fill: var(--icon-color);"/>
  </g>
  <view id="loading" viewBox="960 0 48 48"/>
  <g transform="translate(960 0)">
    <path d="M 18.5273,6.1141 L 20.1030,6.1141 L 20.1030,14.2035 L 18.5273,14.2035 L 18.5273,6.1141 Z " style="fill: var(--icon-color);"/>
    <path d="M 24.9464,7.4033 L 26.3110,8.2122 L 22.3716,15.2178 L 21.0070,14.4088 L 24.9464,7.4033 Z " style="fill: var(--icon-color);"/>
    <path d="M 29.8777,11.8150 L 30.6656,13.2161 L 23.8424,17.2608 L 23.0545,15.8597 L 29.8777,11.8150 Z " style="fill: var(--icon-color);"/>
    <path d="M 32.0000,18.1673 L 32.0000,19.7851 L 24.1212,19.7851 L 24.1212,18.1673 L 32.0000,18.1673 Z " style="fill: var(--icon-color);"/>
    <path d="M 30.7444,24.7579 L 29.9565,26.1590 L 23.1333,22.1144 L 23.9212,20.7133 L 30.7444,24.7579 Z " style="fill: var(--icon-color);"/>
    <path d="M 26.4475,29.8211 L 25.0829,30.6300 L 21.1435,23.6244 L 22.5081,22.8155 L 26.4475,29.8211 Z " style="fill: var(--icon-color);"/>
    <path d="M 20.2606,32.0000 L 18.6848,32.0000 L 18.6848,23.9107 L 20.2606,23.9107 L 20.2606,32.0000 Z " style="fill: var(--icon-color);"/>
    <path d="M 13.8415,30.7109 L 12.4768,29.9020 L 16.4162,22.8964 L 17.7808,23.7053 L 13.8415,30.7109 Z " style="fill: var(--icon-color);"/>
    <path d="M 8.9101,26.2992 L 8.1223,24.8981 L 14.9455,20.8534 L 15.7333,22.2545 L 8.9101,26.2992 Z " style="fill: var(--icon-color);"/>
    <path d="M 6.7879,19.9469 L 6.7879,18.3290 L 14.6667,18.3290 L 14.6667,19.9469 L 6.7879,19.9469 Z " style="fill: var(--icon-color);"/>
    <path d="M 8.0434,13.3562 L 8.8314,11.9551 L 15.6545,15.9998 L 14.8667,17.4009 L 8.0434,13.3562 Z " style="fill: var(--icon-color);"/>
    <path d="M 12.3404,8.2931 L 13.7050,7.4841 L 17.6444,14.4897 L 16.2798,15.2986 L 12.3404,8.2931 Z " style="fill: var(--icon-color);"/>
  </g>
  <view id="more" viewBox="1008 0 48 48"/>
  <g transform="translate(1008 0)">
    <path d="M 20.4111,25.5281 C 19.1290,25.5281 18.0933,26.9742 18.0933,28.7640 C 18.0933,30.5539 19.1290,32.0000 20.4111,32.0000 C 21.6931,32.0000 22.7289,30.5539 22.7289,28.7640 C 22.7289,26.9742 21.6931,25.5281 20.4111,25.5281 Z " style="fill: var(--icon-color);"/>
    <path d="M 11.1689,25.5281 C 9.8868,25.5281 8.8511,26.9742 8.8511,28.7640 C 8.8511,30.5539 9.8868,32.0000 11.1689,32.0000 C 12.4509,32.0000 13.4866,30.5539 13.4866,28.7640 C 13.4866,26.9742 12.4437,25.5281 11.1689,25.5281 Z " style="fill: var(--icon-color);"/>
    <path d="M 29.6822,25.5281 C 28.4002,25.5281 27.3644,26.9742 27.3644,28.7640 C 27.3644,30.5539 28.4002,32.0000 29.6822,32.0000 C 30.9643,32.0000 32.0000,30.5539 32.0000,28.7640 C 32.0000,26.9742 30.9643,25.5281 29.6822,25.5281 Z " style="fill: var(--icon-color);"/>
  </g>
  <view id="moreV" viewBox="1056 0 48 48"/>
  <g transform="translate(1056 0)">
    <path d="M 28.8722,17.6842 C 27.1519,17.6842 25.7444,16.6105 25.7444,15.2982 C 25.7444,13.9861 27.1519,12.9123 28.8722,12.9123 C 30.5925,12.9123 32.0000,13.9861 32.0000,15.2982 C 32.0000,16.6105 30.5925,17.6842 28.8722,17.6842 M 28.8722,20.0702 C 30.5925,20.0702 32.0000,21.1440 32.0000,22.4561 C 32.0000,23.7684 30.5925,24.8421 28.8722,24.8421 C 27.1519,24.8421 25.7444,23.7684 25.7444,22.4561 C 25.7444,21.1440 27.1519,20.0702 28.8722,20.0702 M 28.8722,27.2281 C 30.5925,27.2281 32.0000,28.3018 32.0000,29.6140 C 32.0000,30.9263 30.5925,32.0000 28.8722,32.0000 C 27.1519,32.0000 25.7444,30.9263 25.7444,29.6140 C 25.7444,28.3018 27.1519,27.2281 28.8722,27.2281 Z " style="fill: var(--icon-color);"/>
  </g>
  <view id="notification" viewBox="1104 0 48 48"/>
  <g transform="translate(1104 0)">
    <path d="M 11.7407,26.9900 L 11.7407,13.7466 L 32.0000,13.7466 L 32.0000,26.9900 L 24.6856,26.9900 L 21.8704,32.0000 L 19.0551,26.9900 " style="fill: var(--icon-color);"/>
  </g>
  <view id="notifications" viewBox="1152 0 48 48"/>
  <g transform="translate(1152 0)">
    <path d="M 11.3898,15.8840 L 30.0828,15.8840 L 30.0828,27.2600 L 25.2897,27.2600 L 20.7363,32.0000 L 16.1829,27.2600 L 11.3898,27.2600 L 11.3898,15.8840 M 12.8278,15.4100 L 12.8278,13.9880 L 32.0000,13.9880 L 32.0000,25.8380 L 30.5621,25.7985 L 30.5621,15.4100 L 12.8278,15.4100 Z " style="fill: var(--icon-color);"/>
  </g>
  <view id="pages" viewBox="1200 0 48 48"/>
  <g transform="translate(1200 0)">
    <path d="M 17.5630,14.9653 L 22.8640,14.9653 L 22.4129,14.5285 L 16.2095,14.5285 L 16.2095,28.0689 L 17.5630,28.0689 L 17.5630,14.9653 M 26.2477,14.9653 L 32.0000,20.5343 L 32.0000,32.0000 L 17.5630,32.0000 L 17.5630,29.8161 L 14.4048,29.8161 L 14.4048,12.7813 L 23.0896,12.7813 L 25.3455,14.9653 L 26.2477,14.9653 M 19.3675,16.7124 L 19.3675,30.2529 L 30.1953,30.2529 L 30.1953,22.3907 L 24.3303,22.3907 L 24.3303,16.7124 L 19.3675,16.7124 M 26.1349,17.2584 L 26.1349,20.6435 L 29.6314,20.6435 L 26.1349,17.2584 Z " style="fill: var(--icon-color);"/>
  </g>
  <view id="project" viewBox="1248 0 48 48"/>
  <g transform="translate(1248 0)">
    <path d="M 13.9467,21.9429 L 13.9467,13.4736 L 16.2034,13.4736 L 16.2034,12.4151 L 18.4600,12.4151 L 18.4600,11.8857 L 26.4711,11.8857 L 31.0973,17.3113 L 31.0973,21.9429 L 32.0000,21.9429 L 32.0000,32.0000 L 31.8119,32.0000 L 13.2320,32.0000 L 13.0440,32.0000 L 13.0440,21.9429 L 13.9467,21.9429 M 16.2034,21.9429 L 16.2034,15.0617 L 15.3007,15.0617 L 15.3007,21.9429 L 16.2034,21.9429 M 17.5573,14.0030 L 17.5573,21.9429 L 18.4600,21.9429 L 18.4600,14.0030 L 17.5573,14.0030 M 24.7787,26.1775 L 24.7787,27.7654 L 20.2653,27.7654 L 20.2653,26.1775 L 24.7787,26.1775 M 29.7433,21.9429 L 29.7433,19.2963 L 24.7787,19.2963 L 24.7787,13.4736 L 19.8140,13.4736 L 19.8140,21.9429 L 29.7433,21.9429 M 26.1326,13.8707 L 26.1326,17.7083 L 29.4048,17.7083 L 26.1326,13.8707 M 14.8493,24.0602 L 14.8493,29.8827 L 30.1947,29.8827 L 30.1947,24.0602 L 14.8493,24.0602 Z " style="fill: var(--icon-color);"/>
  </g>
  <view id="properties" viewBox="1296 0 48 48"/>
  <g transform="translate(1296 0)">
    <path d="M 27.5960,23.1054 L 29.1480,21.5960 C 29.4394,21.7365 29.7161,21.9086 29.9746,22.1084 L 29.6959,24.4042 L 31.7346,24.5814 C 31.8512,24.9084 31.9408,25.2511 32.0000,25.6060 L 30.3709,27.0063 L 31.7019,28.7661 C 31.5781,29.0965 31.4264,29.4102 31.2501,29.7035 L 29.2254,29.3873 L 29.0692,31.6991 C 28.7808,31.8313 28.4785,31.9328 28.1655,32.0000 L 26.9307,30.1526 L 25.3787,31.6620 C 25.0873,31.5216 24.8107,31.3496 24.5520,31.1497 L 24.8308,28.8538 L 22.7921,28.6768 C 22.6754,28.3497 22.5860,28.0069 22.5267,27.6520 L 24.1559,26.2519 L 22.8248,24.4920 C 22.9487,24.1616 23.1003,23.8479 23.2766,23.5547 L 25.3012,23.8707 L 25.4575,21.5591 C 25.7459,21.4267 26.0482,21.3253 26.3612,21.2581 L 27.5960,23.1054 M 27.2633,24.4425 C 26.1984,24.4425 25.3350,25.4214 25.3350,26.6291 C 25.3350,27.8367 26.1984,28.8157 27.2633,28.8157 C 28.3283,28.8157 29.1917,27.8367 29.1917,26.6291 C 29.1917,25.4214 28.3283,24.4425 27.2633,24.4425 M 14.0179,14.2953 L 17.1757,14.2953 L 17.1757,17.8760 L 14.0179,17.8760 L 14.0179,14.2953 M 14.0179,19.2186 L 17.1757,19.2186 L 17.1757,22.7993 L 14.0179,22.7993 L 14.0179,19.2186 M 18.7546,14.2953 L 29.0173,14.2953 L 29.0173,17.8760 L 18.7546,17.8760 L 18.7546,14.2953 M 14.0179,24.1420 L 17.1757,24.1420 L 17.1757,27.7227 L 14.0179,27.7227 L 14.0179,24.1420 M 18.7546,19.2186 L 29.0173,19.2186 L 29.0173,21.0681 L 27.6569,22.3111 L 26.4093,20.5614 L 25.0824,21.1614 L 24.7973,22.7993 L 24.1819,22.7993 L 22.4549,22.5369 L 22.3049,22.7993 L 18.7546,22.7993 L 18.7546,19.2186 M 18.7546,24.1420 L 22.0206,24.1420 L 23.2580,26.1322 L 21.6273,27.7227 L 18.7546,27.7227 L 18.7546,24.1420 M 27.2411,25.0372 C 28.0040,25.0372 28.6226,25.7386 28.6226,26.6037 C 28.6226,27.4689 28.0040,28.1702 27.2411,28.1702 C 26.4780,28.1702 25.8595,27.4689 25.8595,26.6037 C 25.8595,25.7386 26.4780,25.0372 27.2411,25.0372 Z " style="fill: var(--icon-color);"/>
  </g>
  <view id="recipes" viewBox="1344 0 48 48"/>
  <g transform="translate(1344 0)">
    <path d="M 31.8913,14.3540 C 31.7721,14.1556 31.5756,14.0166 31.3489,13.9712 L 19.3167,11.0851 C 18.9201,11.0086 18.5289,11.2265 18.3917,11.6035 L 13.8053,23.1964 L 15.3364,23.7517 L 19.6828,12.7286 L 30.1374,15.3830 C 29.4845,17.3970 27.9308,21.6005 26.4415,25.5145 C 25.1430,28.9295 24.3959,30.0988 22.9757,30.3376 C 22.9740,30.3360 22.9725,30.3343 22.9725,30.3318 C 20.0701,30.7367 20.1221,27.0551 20.1221,27.0551 L 10.8527,23.3296 C 10.1939,27.4838 13.4021,28.4830 13.4021,28.4830 L 20.1887,31.5487 C 20.1904,31.5496 21.2498,32.0517 22.4012,32.0000 C 25.5070,31.9273 26.5985,29.6834 27.9661,26.0884 C 29.9418,20.8929 31.9472,15.0715 31.9669,15.0097 C 32.0376,14.7894 32.0097,14.5519 31.8913,14.3540 Z " style="fill: var(--icon-color);"/>
    <path d="M 26.4068,19.0291 C 26.4775,19.0483 26.5507,19.0585 26.6229,19.0585 C 26.9803,19.0585 27.3074,18.8214 27.4076,18.4615 C 27.5268,18.0293 27.2696,17.5828 26.8357,17.4651 L 23.3044,16.3806 C 22.8754,16.2625 22.4216,16.5164 22.3033,16.9482 C 22.1849,17.3803 22.4398,17.8268 22.8753,17.9450 L 26.4068,19.0291 Z " style="fill: var(--icon-color);"/>
    <path d="M 20.8890,20.1960 C 20.7475,20.6217 20.9772,21.0800 21.4039,21.2221 L 24.9168,22.4711 C 25.0020,22.4994 25.0859,22.5121 25.1704,22.5125 C 25.5130,22.5143 25.8341,22.2993 25.9485,21.9587 C 26.0904,21.5342 25.8611,21.0752 25.4326,20.9332 L 21.9211,19.6849 C 21.4920,19.5437 21.0322,19.7723 20.8890,20.1960 Z " style="fill: var(--icon-color);"/>
    <path d="M 20.5799,23.0693 C 20.1526,22.9270 19.6911,23.1591 19.5514,23.5861 C 19.4108,24.0098 19.6450,24.4694 20.0724,24.6083 L 23.5926,25.8522 C 23.6775,25.8808 23.7619,25.8930 23.8475,25.8930 C 24.1894,25.8930 24.5083,25.6763 24.6209,25.3362 C 24.7614,24.9101 24.5281,24.4514 24.1007,24.3123 L 20.5799,23.0693 Z " style="fill: var(--icon-color);"/>
    <path d="M 20.4496,15.4351 C 20.9484,15.4351 21.3533,15.8268 21.3533,16.3093 C 21.3533,16.7921 20.9484,17.1834 20.4496,17.1834 C 19.9503,17.1834 19.5456,16.7921 19.5456,16.3093 C 19.5456,15.8268 19.9503,15.4351 20.4496,15.4351 Z " style="fill: var(--icon-color);"/>
    <path d="M 19.1711,18.6848 C 19.6705,18.6848 20.0749,19.0760 20.0749,19.5585 C 20.0749,20.0406 19.6705,20.4319 19.1711,20.4319 C 18.6720,20.4319 18.2671,20.0406 18.2671,19.5585 C 18.2671,19.0761 18.6720,18.6848 19.1711,18.6848 Z " style="fill: var(--icon-color);"/>
    <path d="M 17.8077,22.0376 C 18.3071,22.0376 18.7118,22.4292 18.7118,22.9125 C 18.7118,23.3950 18.3071,23.7859 17.8077,23.7859 C 17.3084,23.7859 16.9037,23.3951 16.9037,22.9125 C 16.9037,22.4292 17.3084,22.0376 17.8077,22.0376 Z " style="fill: var(--icon-color);"/>
  </g>
  <view id="search" viewBox="1392 0 48 48"/>
  <g transform="translate(1392 0)">
    <path d="M 26.2027,16.7016 C 23.5404,14.0663 19.2069,14.0663 16.5446,16.7016 C 13.8827,19.3373 13.8827,23.6259 16.5446,26.2618 C 18.9155,28.6080 22.6081,28.8594 25.2689,27.0272 C 25.3249,27.2895 25.4531,27.5397 25.6591,27.7436 L 29.5364,31.5814 C 30.1015,32.1395 31.0145,32.1395 31.5767,31.5814 C 32.1411,31.0228 32.1411,30.1189 31.5767,29.5620 L 27.6993,25.7230 C 27.4944,25.5208 27.2410,25.3935 26.9762,25.3381 C 28.8283,22.7040 28.5743,19.0495 26.2027,16.7016 M 24.9786,25.0501 C 22.9909,27.0176 19.7558,27.0176 17.7687,25.0501 C 15.7821,23.0826 15.7821,19.8813 17.7687,17.9138 C 19.7558,15.9469 22.9909,15.9469 24.9786,17.9138 C 26.9664,19.8813 26.9664,23.0826 24.9786,25.0501 Z " style="fill: var(--icon-color);"/>
  </g>
  <view id="settings-bars" viewBox="1440 0 48 48"/>
  <g transform="translate(1440 0)">
    <path d="M 10.8594,27.6213 L 10.8594,29.8094 L 17.9045,29.8094 L 17.9045,27.6213 L 10.8594,27.6213 M 10.8594,14.4856 L 10.8594,16.6737 L 22.6048,16.6737 L 22.6048,14.4856 L 10.8594,14.4856 M 22.6048,32.0000 L 22.6048,29.8094 L 32.0000,29.8094 L 32.0000,27.6213 L 22.6048,27.6213 L 22.6048,25.4308 L 20.2546,25.4308 L 20.2546,32.0000 L 22.6048,32.0000 M 15.5597,18.8642 L 15.5597,21.0523 L 10.8594,21.0523 L 10.8594,23.2428 L 15.5597,23.2428 L 15.5597,25.4308 L 17.9045,25.4308 L 17.9045,18.8642 L 15.5597,18.8642 M 32.0000,23.2428 L 32.0000,21.0523 L 20.2546,21.0523 L 20.2546,23.2428 L 32.0000,23.2428 M 24.9549,18.8642 L 27.2996,18.8642 L 27.2996,16.6737 L 32.0000,16.6737 L 32.0000,14.4856 L 27.2997,14.4856 L 27.2997,12.2951 L 24.9549,12.2951 C 24.9549,12.2951 24.9549,18.8642 24.9549,18.8642 Z " style="fill: var(--icon-color);"/>
  </g>
  <view id="settings" viewBox="1488 0 48 48"/>
  <g transform="translate(1488 0)">
    <path d="M 23.9478,24.3623 C 24.0018,23.7957 23.9856,23.2311 23.9035,22.6800 L 25.1802,22.1121 C 25.0596,21.4949 24.8699,20.8861 24.6070,20.2969 C 24.3440,19.7081 24.0174,19.1604 23.6388,18.6576 L 22.3612,19.2251 C 22.0057,18.7960 21.5961,18.4065 21.1380,18.0672 L 21.6389,16.7651 C 21.1159,16.4141 20.5505,16.1174 19.9471,15.8864 C 19.3461,15.6561 18.7289,15.4969 18.1012,15.4087 L 17.6000,16.7120 C 17.0322,16.6582 16.4664,16.6744 15.9140,16.7564 L 15.3483,15.4885 C 14.0845,15.7364 12.9036,16.2712 11.8899,17.0355 L 12.4518,18.2949 C 12.0209,18.6497 11.6306,19.0588 11.2906,19.5155 L 9.9891,19.0174 C 9.6340,19.5380 9.3363,20.1026 9.1043,20.7043 C 8.8744,21.3061 8.7169,21.9236 8.6286,22.5459 L 9.9334,23.0456 C 9.8794,23.6123 9.8958,24.1768 9.9778,24.7279 L 8.7010,25.2954 C 8.8216,25.9130 9.0113,26.5214 9.2743,27.1106 C 9.5377,27.6998 9.8639,28.2472 10.2429,28.7499 L 11.5196,28.1824 C 11.8751,28.6120 12.2847,29.0014 12.7432,29.3407 L 12.2424,30.6437 C 12.7654,30.9951 13.3307,31.2914 13.9342,31.5224 C 14.5351,31.7526 15.1523,31.9118 15.7801,32.0000 L 16.2813,30.6967 C 16.8492,30.7502 17.4148,30.7339 17.9672,30.6520 L 18.5330,31.9194 C 19.7968,31.6716 20.9785,31.1367 21.9918,30.3725 L 21.4295,29.1130 C 21.8600,28.7582 22.2507,28.3495 22.5907,27.8924 L 23.8913,28.3905 C 24.2465,27.8698 24.5441,27.3053 24.7762,26.7041 C 25.0077,26.1023 25.1647,25.4843 25.2531,24.8616 L 23.9478,24.3623 M 20.4793,25.0589 C 19.7293,27.0095 17.5372,27.9831 15.5820,27.2347 C 13.6294,26.4867 12.6524,24.2996 13.4019,22.3495 C 14.1519,20.3992 16.3441,19.4257 18.2980,20.1732 C 20.2523,20.9212 21.2289,23.1092 20.4793,25.0589 Z " style="fill: var(--icon-color);"/>
    <path d="M 31.0085,13.7139 C 30.9920,13.4621 30.9498,13.2173 30.8898,12.9809 L 31.8293,12.3540 C 31.5338,11.4722 31.0113,10.6995 30.3273,10.1069 L 29.3854,10.7351 C 28.9908,10.4402 28.5414,10.2184 28.0571,10.0826 L 27.9828,8.9555 C 27.5439,8.8658 27.0878,8.8279 26.6202,8.8584 C 26.1526,8.8890 25.7059,8.9870 25.2819,9.1324 L 25.3560,10.2599 C 24.8936,10.4577 24.4776,10.7366 24.1246,11.0801 L 23.1080,10.5801 C 22.5083,11.2567 22.0911,12.0910 21.9132,13.0039 L 22.9272,13.5027 C 22.8987,13.7454 22.8885,13.9927 22.9050,14.2450 C 22.9216,14.4972 22.9641,14.7415 23.0242,14.9780 L 22.0843,15.6049 C 22.3803,16.4867 22.9032,17.2598 23.5863,17.8519 L 24.5282,17.2237 C 24.9233,17.5186 25.3721,17.7405 25.8566,17.8763 L 25.9308,19.0038 C 26.3701,19.0930 26.8259,19.1314 27.2934,19.1009 C 27.7610,19.0702 28.2087,18.9722 28.6317,18.8269 L 28.5576,17.6994 C 29.0201,17.5016 29.4365,17.2226 29.7890,16.8792 L 30.8052,17.3792 C 31.4057,16.7025 31.8225,15.8683 32.0000,14.9555 L 30.9865,14.4565 C 31.0153,14.2134 31.0251,13.9661 31.0085,13.7139 M 27.0816,15.8664 C 26.0369,15.9348 25.1344,15.1455 25.0658,14.1035 C 24.9973,13.0615 25.7887,12.1608 26.8333,12.0924 C 27.8767,12.0240 28.7793,12.8133 28.8478,13.8554 C 28.9164,14.8974 28.1250,15.7981 27.0816,15.8664 Z " style="fill: var(--icon-color);"/>
  </g>
  <view id="switch" viewBox="1536 0 48 48"/>
  <g transform="translate(1536 0)">
    <path d="M 32.0000,20.3636 L 32.0000,29.6727 C 32.0000,30.3709 31.6800,30.8363 31.2000,30.8363 L 4.0000,30.8363 C 3.5200,30.8363 3.2000,30.3708 3.2000,29.6727 L 3.2000,20.3636 C 3.2000,19.6655 3.5200,19.2000 4.0000,19.2000 L 31.2000,19.2000 C 31.5999,19.2000 32.0000,19.6655 32.0000,20.3636 Z " style="fill: var(--icon-color);"/>
    <path d="M 16.8000,27.3455 C 16.3200,27.3455 16.0000,26.8800 16.0000,26.1819 L 16.0000,23.8545 C 16.0000,23.1563 16.3201,22.6909 16.8000,22.6909 C 17.2800,22.6909 17.6000,23.1564 17.6000,23.8545 L 17.6000,26.1818 C 17.6000,26.8800 17.2800,27.3455 16.8000,27.3455 Z " style="fill: var(--icon-color);"/>
    <path d="M 19.2000,27.3455 C 18.7200,27.3455 18.4000,26.8800 18.4000,26.1819 L 18.4000,23.8545 C 18.4000,23.1563 18.7201,22.6909 19.2000,22.6909 C 19.6799,22.6909 20.0000,23.1564 20.0000,23.8545 L 20.0000,26.1818 C 20.0000,26.8800 19.6800,27.3455 19.2000,27.3455 Z " style="fill: var(--icon-color);"/>
    <path d="M 21.6000,27.3455 C 21.1200,27.3455 20.8000,26.8800 20.8000,26.1819 L 20.8000,23.8545 C 20.8000,23.1563 21.1200,22.6909 21.6000,22.6909 C 22.0799,22.6909 22.4000,23.1564 22.4000,23.8545 L 22.4000,26.1818 C 22.4000,26.8800 22.0800,27.3455 21.6000,27.3455 Z " style="fill: var(--icon-color);"/>
    <path d="M 24.0000,27.3455 C 23.5200,27.3455 23.2000,26.8800 23.2000,26.1819 L 23.2000,23.8545 C 23.2000,23.1563 23.5200,22.6909 24.0000,22.6909 C 24.4800,22.6909 24.8000,23.1564 24.8000,23.8545 L 24.8000,26.1818 C 24.8000,26.8800 24.4800,27.3455 24.0000,27.3455 Z " style="fill: var(--icon-color);"/>
    <path d="M 26.4000,27.3455 C 25.9200,27.3455 25.6000,26.8800 25.6000,26.1819 L 25.6000,23.8545 C 25.6000,23.1563 25.9200,22.6909 26.4000,22.6909 C 26.8800,22.6909 27.1999,23.1564 27.1999,23.8545 L 27.1999,26.1818 C 27.1999,26.8800 26.8800,27.3455 26.4000,27.3455 Z " style="fill: var(--icon-color);"/>
    <path d="M 28.8000,27.3455 C 28.3200,27.3455 28.0000,26.8800 28.0000,26.1819 L 28.0000,23.8545 C 28.0000,23.1563 28.3200,22.6909 28.8000,22.6909 C 29.2800,22.6909 29.5999,23.1564 29.5999,23.8545 L 29.5999,26.1818 C 29.5999,26.8800 29.2800,27.3455 28.8000,27.3455 Z " style="fill: var(--icon-color);"/>
    <path d="M 7.2000,25.0182 C 7.2000,25.6608 6.8418,26.1818 6.4000,26.1818 C 5.9582,26.1818 5.6000,25.6608 5.6000,25.0182 C 5.6000,24.3756 5.9582,23.8546 6.4000,23.8546 C 6.8418,23.8546 7.2000,24.3756 7.2000,25.0182 Z " style="fill: var(--icon-color);"/>
    <path d="M 9.6000,25.0182 C 9.6000,25.6608 9.2418,26.1818 8.8000,26.1818 C 8.3582,26.1818 8.0000,25.6608 8.0000,25.0182 C 8.0000,24.3756 8.3582,23.8546 8.8000,23.8546 C 9.2418,23.8546 9.6000,24.3756 9.6000,25.0182 Z " style="fill: var(--icon-color);"/>
    <path d="M 12.0000,25.0182 C 12.0000,25.6608 11.6418,26.1818 11.2000,26.1818 C 10.7582,26.1818 10.4000,25.6608 10.4000,25.0182 C 10.4000,24.3756 10.7582,23.8546 11.2000,23.8546 C 11.6418,23.8546 12.0000,24.3756 12.0000,25.0182 Z " style="fill: var(--icon-color);"/>
    <path d="M 20.4000,20.3636 L 5.2000,20.3636 C 4.9600,20.3636 4.8000,20.1309 4.8000,19.7818 C 4.8000,19.4327 4.9600,19.2000 5.2000,19.2000 L 20.4000,19.2000 C 20.6400,19.2000 20.7999,19.4327 20.7999,19.7818 C 20.7999,20.1309 20.6400,20.3636 20.4000,20.3636 Z " style="fill: var(--icon-color);"/>
    <path d="M 31.5999,21.5273 C 31.3599,21.5273 31.2000,21.7600 31.2000,22.1091 L 31.2000,29.6727 L 3.2000,29.6727 C 3.2000,30.3709 3.5200,30.8363 3.9999,30.8363 L 31.1999,30.8363 C 31.6799,30.8363 31.9999,30.3708 31.9999,29.6727 L 31.9999,22.1091 C 32.0000,21.7600 31.8400,21.5273 31.5999,21.5273 Z " style="fill: var(--icon-color);"/>
    <path d="M 5.6000,30.8364 L 29.6000,30.8364 L 29.6000,32.0000 L 5.6000,32.0000 L 5.6000,30.8364 Z " style="fill: var(--icon-color);"/>
  </g>
  <view id="usermanagement" viewBox="1584 0 48 48"/>
  <g transform="translate(1584 0)">
    <path d="M 21.5380,14.8293 C 22.7480,14.8293 23.7289,15.9082 23.7289,17.2392 C 23.7289,18.5701 22.7480,19.6492 21.5380,19.6492 C 20.3279,19.6492 19.3469,18.5701 19.3469,17.2392 C 19.3469,15.9082 20.3279,14.8293 21.5380,14.8293 M 19.3469,22.6842 C 19.0548,22.8448 18.5733,24.2430 18.8374,24.4314 L 17.4150,24.1436 C 18.3826,23.7580 18.5764,23.1139 18.6550,21.9386 L 18.5805,21.2079 C 18.8982,20.9170 19.3682,20.2742 19.7851,20.2742 L 23.2908,20.2742 C 23.7168,20.2742 24.0911,20.4736 24.4137,20.7754 L 24.6190,21.6072 C 24.6190,22.5894 25.2992,22.8847 26.0101,23.3603 L 25.0162,23.3375 C 24.7577,23.3273 24.5185,23.3913 24.2981,23.5077 C 24.1115,23.1549 23.8808,22.7676 23.7289,22.6842 L 23.7783,23.9042 C 22.8508,24.8411 22.3869,26.6084 22.3869,26.6084 L 22.2267,27.4838 L 21.7570,27.5040 C 21.4419,27.5040 21.1324,27.4769 20.8306,27.4247 C 20.5903,26.7226 20.0665,25.4553 19.2593,24.8642 L 19.3469,22.6842 M 16.0878,19.3253 C 17.2979,19.3253 18.2789,20.4042 18.2789,21.7352 C 18.2789,23.0661 17.2979,24.1452 16.0878,24.1452 C 14.8777,24.1452 13.8968,23.0661 13.8968,21.7352 C 13.8968,20.4042 14.8777,19.3253 16.0878,19.3253 M 13.8968,27.1801 C 13.6047,27.3408 13.0204,28.6260 13.0204,28.6260 C 13.0204,28.6260 12.7283,29.1081 12.5822,31.0360 L 11.2676,30.5540 L 11.7058,28.1441 C 11.7058,28.1441 12.5822,24.7702 14.3350,24.7702 L 17.8406,24.7702 C 19.5935,24.7702 20.4698,28.1441 20.4698,28.1441 L 20.9080,30.5540 L 19.5935,31.0360 C 19.4473,29.1081 19.1553,28.6260 19.1553,28.6260 C 19.1553,28.6260 18.5710,27.3408 18.2789,27.1801 L 18.4559,31.5574 C 17.7897,31.8431 17.0650,32.0000 16.3069,32.0000 C 15.3829,32.0000 14.5083,31.7669 13.7291,31.3514 L 13.8968,27.1801 M 27.1798,18.4130 C 28.3899,18.4604 29.3709,19.5778 29.3709,20.9087 C 29.3709,22.2397 28.3899,23.2802 27.1798,23.2329 C 25.9698,23.1855 24.9888,22.0681 24.9888,20.7372 C 24.9888,19.4061 25.9698,18.3657 27.1798,18.4130 M 24.9888,26.1820 C 24.6967,26.3312 24.1124,27.5937 24.1124,27.5937 C 24.1124,27.5937 23.8203,28.0642 23.6742,29.9864 L 22.3596,29.4530 L 22.7978,27.0602 C 22.7978,27.0602 23.6742,23.7207 25.4269,23.7894 L 28.9326,23.9266 C 30.6855,23.9952 31.5618,27.4034 31.5618,27.4034 L 32.0000,29.8305 L 30.6855,30.2610 C 30.5394,28.3273 30.2472,27.8340 30.2472,27.8340 C 30.2472,27.8340 29.6629,26.5258 29.3709,26.3537 L 29.5478,30.7379 C 28.8818,30.9975 28.1570,31.1260 27.3989,31.0963 C 26.4748,31.0601 25.6003,30.7928 24.8211,30.3467 L 24.9888,26.1820 Z " style="fill: var(--icon-color);"/>
  </g>
  <view id="users" viewBox="1632 0 48 48"/>
  <g transform="translate(1632 0)">
    <path d="M 31.2415,18.6708 C 30.7606,17.5269 30.0724,16.5050 29.1966,15.6206 C 28.3208,14.7401 27.3004,14.0483 26.1626,13.5648 C 24.9897,13.0695 23.7386,12.8140 22.4522,12.8140 C 21.1659,12.8140 19.9148,13.0695 18.7379,13.5687 C 17.6040,14.0522 16.5836,14.7440 15.7078,15.6245 C 14.8320,16.5050 14.1439,17.5310 13.6630,18.6747 C 13.1664,19.8540 12.9123,21.1118 12.9123,22.4050 C 12.9123,23.6983 13.1664,24.9561 13.6630,26.1393 C 14.1439,27.2831 14.8320,28.3090 15.7078,29.1895 C 16.5836,30.0700 17.6040,30.7618 18.7418,31.2453 C 19.9187,31.7445 21.1698,32.0000 22.4561,32.0000 C 23.7425,32.0000 24.9936,31.7445 26.1705,31.2453 C 27.3083,30.7618 28.3248,30.0700 29.2045,29.1895 C 30.0803,28.3090 30.7684,27.2831 31.2493,26.1393 C 31.7459,24.9561 32.0000,23.6983 32.0000,22.4050 C 32.0000,21.1118 31.7380,19.8540 31.2415,18.6708 M 28.5007,27.4875 C 28.4264,27.2910 28.3013,27.1141 28.1371,26.9805 C 26.5771,25.6911 24.8920,24.8342 24.5479,24.6653 C 24.5088,24.6456 24.4853,24.6062 24.4853,24.5630 L 24.4853,22.1181 C 24.7903,21.9137 24.9936,21.5638 24.9936,21.1669 L 24.9936,18.6315 C 24.9936,17.3697 23.9771,16.3478 22.7220,16.3478 L 22.4522,16.3478 L 22.1825,16.3478 C 20.9274,16.3478 19.9108,17.3697 19.9108,18.6315 L 19.9108,21.1669 C 19.9108,21.5638 20.1142,21.9137 20.4191,22.1181 L 20.4191,24.5630 C 20.4191,24.6062 20.3957,24.6456 20.3566,24.6653 C 20.0125,24.8342 18.3313,25.6911 16.7673,26.9805 C 16.6031,27.1180 16.4780,27.2949 16.4037,27.4875 C 15.2582,26.1117 14.5662,24.3390 14.5662,22.4050 C 14.5662,18.0341 18.1045,14.4767 22.4522,14.4767 C 26.7999,14.4767 30.3383,18.0341 30.3383,22.4050 C 30.3383,24.3390 29.6502,26.1117 28.5007,27.4875 Z " style="fill: var(--icon-color);"/>
  </g>
  <view id="variables" viewBox="1680 0 48 48"/>
  <g transform="translate(1680 0)">
    <path d="M 22.6771,12.9561 C 27.8260,12.9561 32.0000,17.2192 32.0000,22.4780 C 32.0000,27.7369 27.8260,32.0000 22.6771,32.0000 C 17.5283,32.0000 13.3543,27.7369 13.3543,22.4780 C 13.3543,17.2192 17.5283,12.9561 22.6771,12.9561 M 22.6771,14.3163 C 22.2729,14.3163 21.8757,14.3470 21.4875,14.4062 C 21.4045,14.5910 21.3453,14.7937 21.3453,14.9965 C 21.3453,15.6766 20.6794,14.3163 20.0135,15.6766 C 19.3476,17.0369 20.0135,15.6766 20.0135,17.0369 C 20.0135,17.7171 19.0497,17.2249 19.3476,17.3770 C 20.0135,17.7171 20.0135,17.7171 19.3476,18.3972 C 19.3476,18.3972 18.0158,17.7171 18.0158,18.3972 C 18.0158,19.0773 17.3498,19.0773 16.6839,19.0773 C 16.0180,19.0773 16.6839,20.4376 16.0180,20.4376 C 15.5060,20.4376 15.7813,19.6334 15.3305,19.2617 C 15.1592,19.6695 15.0194,20.0943 14.9145,20.5330 C 15.3632,20.9437 15.4384,22.5663 16.0180,23.1582 C 16.6839,22.4780 16.6839,23.1582 17.3498,23.1582 C 18.0158,23.1582 18.0158,23.1582 18.3486,23.8383 C 19.0146,23.8383 19.3476,24.5185 20.0135,25.1986 C 20.6794,25.8788 22.0112,25.8788 22.0112,26.5588 C 22.0112,27.2390 21.3453,26.5588 21.3453,27.9191 C 21.3453,28.5993 21.3453,28.5993 20.6794,28.5993 C 20.2601,28.5993 19.8408,29.4082 19.5878,30.0074 C 20.5381,30.4146 21.5819,30.6397 22.6771,30.6397 C 24.9138,30.6397 26.9357,29.7012 28.3862,28.1888 L 28.0045,27.4091 C 28.0045,27.4091 28.8368,26.0488 28.1710,25.3686 C 27.5050,24.6886 27.5050,24.0083 27.5050,24.0083 C 27.5050,24.0083 26.1732,25.3686 25.5073,24.6885 C 24.8414,24.0083 24.8414,24.6885 24.1754,23.3283 C 23.5095,21.9680 24.8414,21.2878 24.8414,21.2878 C 24.8414,21.2878 24.8414,19.9275 25.5073,19.9275 C 26.1732,19.9275 26.8392,18.5672 28.1710,19.9275 C 28.1710,19.9275 28.9406,19.4035 30.0295,19.2754 C 29.6879,18.4585 29.2197,17.7102 28.6500,17.0560 C 28.5304,17.1438 28.3739,17.2069 28.1710,17.2069 C 27.5050,17.2069 28.8368,18.5672 28.1710,18.5672 C 27.5050,18.5672 27.5050,17.8871 26.8392,17.8871 C 26.1732,17.8871 26.1732,18.5672 25.5073,19.2474 C 24.8414,19.9275 25.5073,19.2474 24.8414,18.5672 C 24.1754,17.8871 26.1732,18.5672 25.5073,17.8871 C 24.8414,17.2069 26.1732,17.2069 26.1732,16.5269 C 26.1732,15.9934 26.9925,15.8783 27.3459,15.8535 C 26.9616,15.5704 26.5517,15.3214 26.1732,15.1666 C 26.8392,15.8466 25.5073,16.5269 24.8414,16.5269 C 24.2159,16.5269 24.7654,15.3265 24.8345,14.6173 C 24.1482,14.4212 23.4246,14.3163 22.6771,14.3163 M 14.6861,22.4780 C 14.6861,24.8787 15.7009,27.0371 17.3162,28.5305 L 16.6839,27.2390 C 16.0180,27.2390 15.6850,25.7087 15.6850,25.0285 C 15.6850,24.4828 15.4705,24.0464 15.7301,23.5439 C 14.7905,22.5801 15.3520,23.1026 15.3520,22.4780 C 15.3520,22.1542 15.0503,21.8305 14.7340,21.5800 C 14.7023,21.8750 14.6861,22.1746 14.6861,22.4780 Z " style="fill: var(--icon-color);"/>
  </g>
  <view id="warning" viewBox="1728 0 48 48"/>
  <g transform="translate(1728 0)">
    <path d="M 31.6823,27.4124 L 24.6142,15.0280 C 23.4597,12.9821 20.5403,12.9821 19.3899,15.0280 L 12.3176,27.4124 C 11.1631,29.4584 12.6000,32.0000 14.9298,32.0000 L 29.0453,32.0000 C 31.3750,32.0000 32.8368,29.4331 31.6823,27.4124 M 21.9978,29.2525 C 21.3833,29.2525 20.8725,28.7357 20.8725,28.1141 C 20.8725,27.4923 21.3833,26.9756 21.9978,26.9756 C 22.6125,26.9756 23.1233,27.4923 23.0984,28.1435 C 23.1274,28.7357 22.5876,29.2525 21.9978,29.2525 M 23.0236,21.8924 C 22.9738,22.7746 22.9198,23.6526 22.8700,24.5348 C 22.8450,24.8204 22.8450,25.0809 22.8450,25.3624 C 22.8201,25.8287 22.4589,26.1900 21.9978,26.1900 C 21.5369,26.1900 21.1798,25.8539 21.1507,25.3876 C 21.0759,24.0139 20.9970,22.6654 20.9223,21.2917 C 20.8974,20.9304 20.8725,20.5649 20.8434,20.2036 C 20.8434,19.6071 21.1757,19.1156 21.7155,18.9601 C 22.2554,18.8299 22.7911,19.0903 23.0236,19.6071 C 23.1025,19.7877 23.1274,19.9684 23.1274,20.1784 C 23.1025,20.7539 23.0485,21.3252 23.0236,21.8924 Z " style="fill: var(--icon-color);"/>
  </g>
</svg>
