<svg version="1.1" xmlns="http://www.w3.org/2000/svg" xmlns:xlink="http://www.w3.org/1999/xlink">
  <view id="alarms" viewBox="0 0 48 48"/>
  <g transform="translate(0 0)">
    <path d="M 24.000,10.909 C 32.033,10.909 38.545,17.421 38.545,25.455 C 38.545,33.488 32.033,40.000 24.000,40.000 C 15.967,40.000 9.455,33.488 9.455,25.455 C 9.455,17.421 15.967,10.909 24.000,10.909 M 24.000,14.546 C 17.975,14.546 13.091,19.430 13.091,25.455 C 13.091,31.479 17.975,36.364 24.000,36.364 C 30.025,36.364 34.909,31.479 34.909,25.455 C 34.909,19.430 30.025,14.546 24.000,14.546 M 23.636,17.454 C 24.440,17.454 25.091,18.106 25.091,18.909 L 25.091,24.364 L 30.546,24.364 C 31.349,24.364 32.000,25.015 32.000,25.818 L 32.000,26.545 C 32.000,27.349 31.349,28.000 30.546,28.000 L 24.000,28.000 C 23.273,27.879 22.545,27.758 22.121,27.333 C 21.697,26.909 21.576,26.182 21.455,25.455 L 21.455,18.909 C 21.455,18.106 22.106,17.454 22.909,17.454 L 23.636,17.454 M 34.182,8.000 C 37.395,8.000 40.000,10.605 40.000,13.818 C 40.000,15.204 39.515,16.477 38.706,17.477 C 36.809,13.987 33.706,11.248 29.956,9.819 C 31.017,8.699 32.518,8.000 34.182,8.000 M 13.818,8.000 C 15.482,8.000 16.983,8.699 18.044,9.819 C 14.294,11.248 11.191,13.987 9.294,17.477 C 8.485,16.477 8.000,15.204 8.000,13.818 C 8.000,10.605 10.605,8.000 13.818,8.000 Z" style=""/>
    <path d="M 24.000,10.909 C 32.033,10.909 38.545,17.421 38.545,25.455 C 38.545,33.488 32.033,40.000 24.000,40.000 C 15.967,40.000 9.455,33.488 9.455,25.455 C 9.455,17.421 15.967,10.909 24.000,10.909 M 24.000,14.546 C 17.975,14.546 13.091,19.430 13.091,25.455 C 13.091,31.479 17.975,36.364 24.000,36.364 C 30.025,36.364 34.909,31.479 34.909,25.455 C 34.909,19.430 30.025,14.546 24.000,14.546 M 23.636,17.454 C 24.440,17.454 25.091,18.106 25.091,18.909 L 25.091,24.364 L 30.546,24.364 C 31.349,24.364 32.000,25.015 32.000,25.818 L 32.000,26.545 C 32.000,27.349 31.349,28.000 30.546,28.000 L 24.000,28.000 C 23.273,27.879 22.545,27.758 22.121,27.333 C 21.697,26.909 21.576,26.182 21.455,25.455 L 21.455,18.909 C 21.455,18.106 22.106,17.454 22.909,17.454 L 23.636,17.454 M 34.182,8.000 C 37.395,8.000 40.000,10.605 40.000,13.818 C 40.000,15.204 39.515,16.477 38.706,17.477 C 36.809,13.987 33.706,11.248 29.956,9.819 C 31.017,8.699 32.518,8.000 34.182,8.000 M 13.818,8.000 C 15.482,8.000 16.983,8.699 18.044,9.819 C 14.294,11.248 11.191,13.987 9.294,17.477 C 8.485,16.477 8.000,15.204 8.000,13.818 C 8.000,10.605 10.605,8.000 13.818,8.000 Z" style=""/>
  </g>
  <view id="build" viewBox="48 0 48 48"/>
  <g transform="translate(48 0)">
    <path d="M 40.000,36.634 L 40.000,34.662 C 40.000,33.321 39.157,32.538 37.714,32.538 L 23.347,32.538 C 21.408,32.538 20.408,33.391 20.408,34.662 L 20.408,37.222 C 20.408,38.548 21.367,39.212 23.347,39.212 L 37.714,39.212 C 39.157,39.212 40.000,38.321 40.000,36.634 M 37.388,36.785 L 23.020,36.785 L 23.020,34.965 L 37.388,34.965 L 37.388,36.785 Z" style=""/>
    <path d="M 28.898,18.583 L 28.898,19.190 L 28.898,24.390 L 28.898,24.391 L 29.730,26.471 L 28.330,26.471 L 14.669,8.788 L 11.659,10.475 L 12.571,11.960 L 12.571,19.797 L 11.608,19.797 L 12.255,24.044 L 12.539,24.044 L 12.571,24.044 L 12.571,25.327 C 11.984,25.575 11.331,26.108 11.331,27.065 C 11.331,27.707 11.600,28.176 11.995,28.490 L 8.453,31.325 L 9.454,31.325 L 12.590,28.813 C 12.874,28.917 13.178,28.974 13.479,28.974 C 13.780,28.974 14.080,28.899 14.350,28.764 L 17.751,31.325 L 18.770,31.325 L 18.777,31.316 L 14.866,28.370 C 15.131,28.074 15.306,27.676 15.306,27.167 C 15.306,26.831 15.014,26.560 14.653,26.560 C 14.293,26.560 14.000,26.831 14.000,27.167 C 14.000,27.385 13.937,27.521 13.854,27.609 L 13.675,27.474 C 13.553,27.383 13.376,27.384 13.257,27.480 L 13.012,27.676 C 12.800,27.585 12.637,27.407 12.637,27.065 C 12.637,26.517 13.223,26.384 13.333,26.365 C 13.648,26.314 13.878,26.062 13.878,25.766 L 13.878,24.044 L 14.335,24.044 L 14.603,24.044 L 15.516,19.797 L 14.857,19.797 L 14.531,19.797 L 14.531,15.393 L 22.367,29.405 L 22.367,29.502 L 22.367,29.685 L 22.367,30.111 L 24.980,30.111 L 24.980,31.325 L 34.122,31.325 L 34.775,31.325 L 34.775,30.111 L 38.041,30.111 L 38.694,30.111 L 38.694,18.583 L 28.898,18.583 M 23.249,21.738 L 23.257,21.749 L 20.592,23.360 L 21.962,20.094 L 23.249,21.738 M 13.878,19.797 L 13.551,19.797 L 13.224,19.797 L 13.224,13.105 L 13.878,14.249 L 13.878,19.797 M 14.446,13.612 L 13.319,11.623 L 15.076,10.550 L 14.446,13.612 M 15.974,11.789 L 17.226,13.808 L 15.205,15.018 L 15.974,11.789 M 16.174,16.178 L 18.079,15.027 L 17.334,18.179 L 16.174,16.178 M 18.885,16.055 L 20.289,17.958 L 18.177,19.215 L 18.885,16.055 M 18.668,20.665 L 21.028,19.163 L 19.684,22.507 L 18.668,20.665 M 22.161,26.434 L 21.023,24.568 L 23.848,22.693 L 22.161,26.434 M 23.048,27.760 L 24.979,23.892 L 26.551,25.883 L 23.048,27.760 M 36.082,24.651 L 31.510,24.651 L 31.510,21.010 L 36.082,21.010 L 36.082,24.651 Z" style=""/>
    <path d="M 8.653,34.965 L 8.000,34.965 L 8.000,36.179 L 18.449,36.179 L 18.449,34.965 L 17.143,34.965 L 17.143,33.752 L 17.143,33.145 L 18.449,33.145 L 18.449,31.931 L 8.000,31.931 L 8.000,33.145 L 9.306,33.145 L 9.306,34.965 L 8.653,34.965 Z" style=""/>
  </g>
  <view id="buildings" viewBox="96 0 48 48"/>
  <g transform="translate(96 0)">
    <path d="M 35.307,38.000 L 35.307,20.000 L 24.000,20.000 L 24.000,8.000 L 12.693,8.000 L 12.693,38.000 L 11.078,38.000 L 11.078,40.000 L 36.922,40.000 L 36.922,38.000 L 35.307,38.000 M 14.308,10.000 L 17.539,10.000 L 17.539,14.000 L 14.308,14.000 L 14.308,10.000 M 14.308,16.000 L 17.539,16.000 L 17.539,20.000 L 14.308,20.000 L 14.308,16.000 M 14.308,22.000 L 17.539,22.000 L 17.539,26.000 L 14.308,26.000 L 14.308,22.000 M 14.308,28.000 L 17.539,28.000 L 17.539,32.000 L 14.308,32.000 L 14.308,28.000 M 20.769,38.000 L 15.924,38.000 L 15.924,34.000 L 20.769,34.000 L 20.769,38.000 L 20.769,38.000 M 22.385,32.000 L 19.154,32.000 L 19.154,28.000 L 22.385,28.000 L 22.385,32.000 M 22.385,26.000 L 19.154,26.000 L 19.154,22.000 L 22.385,22.000 L 22.385,26.000 M 22.385,20.000 L 19.154,20.000 L 19.154,16.000 L 22.385,16.000 L 22.385,20.000 M 22.385,14.000 L 19.154,14.000 L 19.154,10.000 L 22.385,10.000 L 22.385,14.000 M 25.615,22.000 L 28.846,22.000 L 28.846,26.000 L 25.615,26.000 L 25.615,22.000 M 25.615,28.000 L 28.846,28.000 L 28.846,32.000 L 25.615,32.000 L 25.615,28.000 M 32.077,38.000 L 27.231,38.000 L 27.231,34.000 L 32.077,34.000 L 32.077,38.000 M 33.692,32.000 L 30.461,32.000 L 30.461,28.000 L 33.692,28.000 L 33.692,32.000 M 33.692,26.000 L 30.461,26.000 L 30.461,22.000 L 33.692,22.000 L 33.692,26.000 Z" style=""/>
  </g>
  <view id="cloud" viewBox="144 0 48 48"/>
  <g transform="translate(144 0)">
    <path d="M 38.599,25.282 C 37.666,24.172 36.483,23.458 35.049,23.139 C 35.505,22.470 35.733,21.737 35.733,20.941 C 35.733,19.814 35.316,18.853 34.483,18.057 C 33.650,17.260 32.644,16.862 31.466,16.862 C 30.400,16.862 29.477,17.191 28.700,17.850 C 28.045,16.341 27.003,15.120 25.575,14.185 C 24.147,13.250 22.555,12.782 20.800,12.782 C 18.444,12.782 16.433,13.580 14.766,15.173 C 13.100,16.766 12.267,18.689 12.267,20.941 C 12.267,21.100 12.278,21.328 12.300,21.626 C 11.011,22.199 9.972,23.068 9.183,24.231 C 8.395,25.394 8.000,26.677 8.000,28.079 C 8.000,30.044 8.731,31.725 10.192,33.122 C 11.653,34.519 13.411,35.218 15.467,35.218 L 33.600,35.218 C 35.366,35.218 36.875,34.620 38.125,33.425 C 39.375,32.230 40.000,30.788 40.000,29.099 C 40.000,27.665 39.533,26.392 38.599,25.282 Z" style=""/>
  </g>
  <view id="code" viewBox="192 0 48 48"/>
  <g transform="translate(192 0)">
    <path d="M 39.802,23.427 L 31.635,13.964 C 31.381,13.670 30.932,13.670 30.678,13.964 L 28.907,16.016 C 28.643,16.322 28.643,16.819 28.907,17.125 L 34.825,23.981 L 28.907,30.839 C 28.643,31.145 28.643,31.642 28.907,31.948 L 30.678,34.000 C 30.805,34.147 30.977,34.230 31.157,34.230 C 31.336,34.230 31.508,34.147 31.636,34.000 L 39.802,24.537 C 40.066,24.231 40.066,23.733 39.802,23.427 Z" style=""/>
    <path d="M 19.093,30.839 L 13.176,23.982 L 19.094,17.126 C 19.221,16.979 19.292,16.779 19.292,16.571 C 19.292,16.363 19.221,16.163 19.094,16.016 L 17.323,13.965 C 17.196,13.818 17.024,13.735 16.844,13.735 C 16.665,13.735 16.493,13.818 16.366,13.965 L 8.198,23.427 C 7.934,23.733 7.934,24.230 8.198,24.537 L 16.365,34.000 C 16.492,34.147 16.665,34.230 16.844,34.230 C 17.024,34.230 17.196,34.147 17.323,34.000 L 19.093,31.948 C 19.358,31.642 19.358,31.145 19.093,30.839 Z" style=""/>
    <path d="M 28.644,10.780 C 28.558,10.597 28.413,10.462 28.241,10.403 L 26.806,9.912 C 26.448,9.789 26.070,10.027 25.965,10.443 L 19.301,36.590 C 19.251,36.790 19.270,37.004 19.356,37.187 C 19.442,37.370 19.587,37.505 19.759,37.565 L 21.194,38.055 C 21.258,38.077 21.323,38.088 21.386,38.088 C 21.678,38.088 21.948,37.867 22.035,37.525 L 28.699,11.377 C 28.750,11.177 28.730,10.963 28.644,10.780 Z" style=""/>
  </g>
  <view id="components" viewBox="240 0 48 48"/>
  <g transform="translate(240 0)">
    <path d="M 12.800,30.856 L 12.800,19.037 L 23.200,24.709 L 23.200,36.544 L 12.800,30.856 Z" style=""/>
    <path d="M 35.200,19.037 L 35.200,30.856 L 24.800,36.544 L 24.800,24.709 L 35.200,19.037 Z" style=""/>
    <path d="M 24.000,11.019 L 35.000,17.128 L 24.000,23.236 L 13.000,17.128 L 24.000,11.019 M 10.400,32.781 L 16.406,36.117 L 14.850,36.981 L 14.738,36.981 L 8.000,33.240 L 8.000,14.761 L 14.738,11.019 L 14.850,11.019 L 16.406,11.883 L 10.400,15.219 L 10.400,32.781 M 37.600,32.781 L 37.600,15.219 L 31.594,11.883 L 33.150,11.019 L 33.262,11.019 L 40.000,14.761 L 40.000,33.240 L 33.262,36.981 L 33.150,36.981 L 31.594,36.117 L 37.600,32.781 Z" style=""/>
  </g>
  <view id="connection" viewBox="288 0 48 48"/>
  <g transform="translate(288 0)">
    <path d="M 25.669,27.027 L 25.669,33.081 L 29.008,33.081 C 29.930,33.081 30.678,33.855 30.678,34.811 L 30.678,38.270 C 30.678,39.226 29.930,40.000 29.008,40.000 L 18.992,40.000 C 18.070,40.000 17.322,39.226 17.322,38.270 L 17.322,34.811 C 17.322,33.855 18.070,33.081 18.992,33.081 L 22.331,33.081 L 22.331,27.027 L 25.669,27.027 M 31.512,34.811 L 39.860,34.811 L 39.860,38.270 L 31.512,38.270 L 31.512,34.811 M 16.488,34.811 L 16.488,38.270 L 8.140,38.270 L 8.140,34.811 L 16.488,34.811 M 8.140,8.000 L 39.860,8.000 L 39.860,15.784 L 8.140,15.784 L 8.140,8.000 M 38.190,9.730 L 36.521,9.730 L 36.521,14.054 L 38.190,14.054 L 38.190,9.730 M 34.851,9.730 L 33.182,9.730 L 33.182,14.054 L 34.851,14.054 L 34.851,9.730 M 31.512,9.730 L 29.843,9.730 L 29.843,14.054 L 31.512,14.054 L 31.512,9.730 M 9.810,12.324 L 9.810,14.054 L 11.479,14.054 L 11.479,12.324 L 9.810,12.324 M 8.140,17.514 L 39.860,17.514 L 39.860,25.297 L 8.140,25.297 L 8.140,17.514 M 38.190,19.243 L 36.521,19.243 L 36.521,23.568 L 38.190,23.568 L 38.190,19.243 M 34.851,19.243 L 33.182,19.243 L 33.182,23.568 L 34.851,23.568 L 34.851,19.243 M 31.512,19.243 L 29.843,19.243 L 29.843,23.568 L 31.512,23.568 L 31.512,19.243 M 9.810,21.838 L 9.810,23.568 L 11.479,23.568 L 11.479,21.838 L 9.810,21.838 Z" style=""/>
  </g>
  <view id="datalogging" viewBox="0 48 48 48"/>
  <g transform="translate(0 48)">
    <path d="M 10.000,17.341 L 25.750,17.341 L 22.750,20.461 L 11.000,20.461 L 11.000,32.943 L 37.000,32.943 L 37.000,20.461 L 31.750,20.461 L 34.750,17.341 L 38.000,17.341 C 39.105,17.341 40.000,18.272 40.000,19.421 L 40.000,33.984 C 40.000,35.133 39.105,36.064 38.000,36.064 L 10.000,36.064 C 8.895,36.064 8.000,35.133 8.000,33.984 L 8.000,19.421 C 8.000,18.272 8.895,17.341 10.000,17.341 M 34.776,12.373 C 35.056,12.683 35.196,13.017 35.196,13.375 L 35.088,13.902 L 34.776,14.377 L 28.778,20.616 L 27.264,22.191 L 25.811,23.701 L 24.511,25.054 L 23.429,26.174 L 22.652,26.975 L 22.267,27.376 L 21.641,27.971 L 20.755,28.698 L 19.786,29.311 C 19.457,29.482 19.165,29.568 18.908,29.568 C 18.707,29.568 18.547,29.505 18.426,29.380 C 18.305,29.254 18.245,29.083 18.245,28.867 C 18.245,28.600 18.327,28.297 18.492,27.959 L 19.081,26.951 L 19.775,26.029 L 20.341,25.384 L 32.850,12.373 L 33.306,12.048 L 33.813,11.936 C 34.157,11.936 34.478,12.082 34.776,12.373 M 17.463,29.380 L 18.426,30.381 L 16.500,31.383 L 17.463,29.380 Z" style=""/>
  </g>
  <view id="datasources" viewBox="48 48 48 48"/>
  <g transform="translate(48 48)">
    <path d="M 24.000,8.000 C 31.824,8.000 38.167,9.697 38.167,11.793 L 38.167,13.474 C 38.167,15.567 31.824,17.263 24.000,17.263 C 16.176,17.263 9.833,15.567 9.833,13.474 L 9.833,11.790 C 9.833,9.697 16.176,8.000 24.000,8.000 M 38.167,36.210 C 38.167,38.303 31.824,40.000 24.000,40.000 C 16.176,40.000 9.833,38.303 9.833,36.210 L 9.833,31.158 C 9.833,33.251 16.176,34.947 24.000,34.947 C 31.820,34.947 38.160,33.252 38.167,31.161 L 38.167,36.210 M 38.167,28.631 C 38.167,30.724 31.824,32.421 24.000,32.421 C 16.176,32.421 9.833,30.724 9.833,28.631 L 9.833,23.579 C 9.833,25.672 16.176,27.368 24.000,27.368 C 31.820,27.368 38.160,25.674 38.167,23.582 L 38.167,28.631 M 38.167,21.053 C 38.167,23.145 31.824,24.842 24.000,24.842 C 16.176,24.842 9.833,23.145 9.833,21.053 L 9.833,16.000 C 9.833,18.093 16.176,19.790 24.000,19.790 C 31.820,19.790 38.160,18.095 38.167,16.003 L 38.167,21.053 Z" style=""/>
  </g>
  <view id="download" viewBox="96 48 48 48"/>
  <g transform="translate(96 48)">
    <path d="M 13.333,36.098 L 34.667,36.098 L 34.667,40.000 L 13.333,40.000 L 13.333,36.098 M 21.538,8.000 L 26.462,8.000 L 26.462,24.000 L 33.026,16.585 L 33.026,24.000 L 24.000,33.756 L 14.974,24.000 L 14.974,16.585 L 21.538,24.000 L 21.538,8.000 Z" style=""/>
  </g>
  <view id="drawer" viewBox="144 48 48 48"/>
  <g transform="translate(144 48)">
    <path d="M 40.000,14.686 C 40.000,15.117 39.611,15.466 39.132,15.466 L 8.868,15.466 C 8.389,15.466 8.000,15.117 8.000,14.686 L 8.000,12.569 C 8.000,12.139 8.389,11.789 8.868,11.789 L 39.132,11.789 C 39.611,11.789 40.000,12.139 40.000,12.569 L 40.000,14.686 M 39.752,35.431 C 39.752,35.861 39.363,36.211 38.884,36.211 L 13.829,36.211 C 13.350,36.211 12.961,35.861 12.961,35.431 L 12.961,33.314 C 12.961,32.883 13.350,32.534 13.829,32.534 L 38.884,32.534 C 39.363,32.534 39.752,32.883 39.752,33.314 L 39.752,35.431 M 40.000,21.601 C 40.000,22.032 39.611,22.381 39.132,22.381 L 20.403,22.381 C 19.924,22.381 19.535,22.032 19.535,21.601 L 19.535,19.484 C 19.535,19.054 19.924,18.705 20.403,18.705 L 39.132,18.705 C 39.611,18.705 40.000,19.054 40.000,19.484 L 40.000,21.601 M 39.752,28.562 C 39.752,28.993 39.363,29.342 38.884,29.342 L 24.620,29.342 C 24.141,29.342 23.752,28.993 23.752,28.562 L 23.752,26.445 C 23.752,26.015 24.141,25.666 24.620,25.666 L 38.884,25.666 C 39.363,25.666 39.752,26.015 39.752,26.445 L 39.752,28.562 Z" style=""/>
  </g>
  <view id="error" viewBox="192 48 48 48"/>
  <g transform="translate(192 48)">
    <path d="M 24.000,8.000 C 15.422,8.000 8.468,15.164 8.468,24.000 C 8.468,32.836 15.422,40.000 24.000,40.000 C 32.578,40.000 39.532,32.836 39.532,24.000 C 39.532,15.164 32.578,8.000 24.000,8.000 M 29.859,30.098 C 29.239,30.736 28.234,30.736 27.615,30.098 L 24.080,26.457 L 20.385,30.264 C 19.765,30.902 18.760,30.902 18.141,30.264 C 17.521,29.625 17.521,28.590 18.141,27.951 L 21.836,24.145 L 18.395,20.601 C 17.776,19.963 17.776,18.928 18.395,18.289 C 19.015,17.651 20.020,17.651 20.640,18.289 L 24.080,21.833 L 27.360,18.454 C 27.980,17.816 28.985,17.816 29.604,18.454 C 30.225,19.093 30.225,20.129 29.604,20.767 L 26.325,24.145 L 29.859,27.786 C 30.479,28.424 30.479,29.459 29.859,30.098 Z" style=""/>
  </g>
  <view id="explorer" viewBox="240 48 48 48"/>
  <g transform="translate(240 48)">
    <path d="M 8.000,16.741 L 40.000,16.741 L 40.000,37.482 L 8.000,37.482 L 8.000,16.741 M 36.343,14.667 L 22.629,14.667 C 23.543,11.555 24.914,10.519 24.914,10.519 L 35.200,10.518 C 35.705,10.518 36.343,11.242 36.343,11.815 L 36.343,14.667 Z" style=""/>
  </g>
  <view id="eye-blocked" viewBox="288 48 48 48"/>
  <g transform="translate(288 48)">
    <path d="M 34.229,18.263 C 36.655,19.983 38.647,22.297 40.000,25.000 C 37.027,30.936 30.979,35.000 24.000,35.000 C 22.045,35.000 20.163,34.681 18.401,34.091 L 20.837,31.655 C 21.870,31.883 22.930,32.000 24.000,32.000 C 26.799,32.000 29.527,31.204 31.889,29.697 C 33.769,28.497 35.362,26.891 36.559,25.000 C 35.401,23.170 33.871,21.608 32.070,20.422 L 34.229,18.263 Z  M 24.000,30.812 C 23.290,30.812 22.602,30.719 21.946,30.546 L 31.733,20.759 C 31.907,21.414 32.000,22.102 32.000,22.812 C 32.000,27.231 28.418,30.812 24.000,30.812 Z  M 38.000,9.000 H 36.321 L 29.458,15.863 C 27.737,15.303 25.903,15.000 24.000,15.000 C 17.021,15.000 10.972,19.064 8.000,25.000 C 9.333,27.662 11.285,29.947 13.662,31.658 L 8.000,37.321 V 39.000 H 9.679 L 38.000,10.679 V 9.000 Z  M 21.000,18.812 C 22.501,18.812 23.745,19.915 23.965,21.355 L 20.543,24.778 C 19.103,24.558 18.000,23.314 18.000,21.812 C 18.000,20.156 19.343,18.812 21.000,18.812 Z  M 11.441,25.000 C 12.638,23.109 14.231,21.502 16.111,20.303 C 16.233,20.225 16.357,20.149 16.482,20.075 C 16.170,20.929 16.000,21.851 16.000,22.812 C 16.000,24.641 16.614,26.326 17.647,27.674 L 15.817,29.503 C 14.065,28.327 12.575,26.792 11.441,25.000 Z" style=""/>
  </g>
  <view id="flow" viewBox="0 96 48 48"/>
  <g transform="translate(0 96)">
    <path d="M 8.161,20.002 L 16.081,20.002 L 16.081,22.668 L 17.401,22.668 C 18.721,21.779 21.360,20.891 22.827,19.076 C 24.293,17.261 25.907,14.521 27.446,12.965 C 28.984,11.412 30.449,11.041 31.913,10.671 L 31.913,8.000 L 39.833,8.000 L 39.833,15.999 L 31.913,15.999 L 31.913,13.337 C 30.479,13.707 29.045,14.079 27.517,15.632 C 25.986,17.187 24.361,19.928 22.879,21.742 L 22.063,22.668 L 31.919,22.668 L 31.919,20.002 L 39.839,20.002 L 39.839,28.001 L 31.919,28.001 L 31.919,25.335 L 22.063,25.335 C 22.330,25.615 22.602,25.922 22.879,26.260 C 24.361,28.075 25.986,30.815 27.517,32.371 C 29.048,33.926 30.484,34.297 31.919,34.667 L 31.919,32.001 L 39.839,32.001 L 39.839,40.000 L 31.919,40.000 L 31.919,37.334 C 30.453,36.963 28.986,36.593 27.446,35.037 C 25.907,33.482 24.293,30.742 22.827,28.927 C 21.360,27.112 18.721,26.223 17.401,25.335 L 16.081,25.335 L 16.081,28.001 L 8.161,28.001 L 8.161,20.002 Z" style=""/>
  </g>
  <view id="gears" viewBox="48 96 48 48"/>
  <g transform="translate(48 96)">
    <path d="M 29.032,29.338 C 29.106,28.570 29.083,27.805 28.971,27.058 L 30.723,26.288 C 30.558,25.451 30.297,24.626 29.937,23.828 C 29.575,23.030 29.127,22.287 28.607,21.605 L 26.853,22.375 C 26.365,21.793 25.803,21.265 25.174,20.805 L 25.862,19.040 C 25.143,18.564 24.367,18.162 23.539,17.849 C 22.714,17.537 21.867,17.321 21.005,17.202 L 20.317,18.968 C 19.537,18.895 18.760,18.917 18.002,19.028 L 17.225,17.310 C 15.490,17.646 13.869,18.371 12.477,19.407 L 13.249,21.114 C 12.657,21.595 12.121,22.149 11.655,22.768 L 9.868,22.093 C 9.380,22.799 8.972,23.564 8.653,24.380 C 8.338,25.195 8.121,26.032 8.000,26.876 L 9.791,27.553 C 9.717,28.321 9.740,29.086 9.852,29.834 L 8.100,30.603 C 8.265,31.440 8.526,32.264 8.887,33.063 C 9.248,33.862 9.696,34.604 10.216,35.285 L 11.969,34.516 C 12.457,35.098 13.020,35.626 13.649,36.086 L 12.961,37.852 C 13.680,38.328 14.456,38.730 15.284,39.043 C 16.109,39.355 16.956,39.571 17.818,39.691 L 18.506,37.924 C 19.286,37.996 20.063,37.974 20.821,37.863 L 21.598,39.581 C 23.333,39.245 24.955,38.520 26.346,37.484 L 25.574,35.777 C 26.165,35.296 26.702,34.743 27.168,34.123 L 28.954,34.798 C 29.442,34.092 29.850,33.327 30.169,32.512 C 30.487,31.696 30.702,30.859 30.824,30.015 L 29.032,29.338 M 24.270,30.282 C 23.240,32.926 20.230,34.246 17.546,33.231 C 14.866,32.218 13.524,29.253 14.553,26.610 C 15.583,23.966 18.593,22.647 21.275,23.660 C 23.958,24.674 25.299,27.639 24.270,30.282 Z" style=""/>
    <path d="M 38.737,15.207 C 38.734,14.865 38.695,14.531 38.631,14.206 L 39.968,13.428 C 39.631,12.213 38.975,11.128 38.083,10.275 L 36.743,11.055 C 36.225,10.627 35.627,10.293 34.973,10.073 L 34.959,8.542 C 34.364,8.388 33.742,8.303 33.099,8.309 C 32.455,8.316 31.835,8.415 31.243,8.580 L 31.257,10.112 C 30.608,10.345 30.016,10.692 29.505,11.130 L 28.151,10.378 C 27.276,11.249 26.640,12.347 26.325,13.569 L 27.676,14.320 C 27.618,14.646 27.585,14.980 27.588,15.322 C 27.591,15.665 27.631,15.999 27.695,16.324 L 26.358,17.102 C 26.695,18.317 27.352,19.402 28.242,20.255 L 29.582,19.475 C 30.101,19.903 30.699,20.237 31.352,20.457 L 31.366,21.988 C 31.962,22.142 32.583,22.228 33.227,22.221 C 33.870,22.214 34.491,22.115 35.083,21.950 L 35.068,20.419 C 35.718,20.185 36.310,19.839 36.820,19.400 L 38.174,20.153 C 39.050,19.282 39.686,18.184 40.000,16.961 L 38.649,16.211 C 38.708,15.884 38.740,15.550 38.737,15.207 M 33.187,17.828 C 31.750,17.843 30.574,16.707 30.561,15.292 C 30.548,13.877 31.703,12.717 33.140,12.702 C 34.575,12.687 35.751,13.823 35.764,15.238 C 35.778,16.653 34.623,17.813 33.187,17.828 Z" style=""/>
  </g>
  <view id="help" viewBox="96 96 48 48"/>
  <g transform="translate(96 96)">
    <path d="M 25.930,28.000 L 22.070,28.000 C 22.070,24.000 24.386,22.800 25.930,22.000 C 26.509,21.800 26.895,21.600 27.281,21.200 C 27.474,21.000 27.860,20.600 27.474,19.800 C 27.088,18.800 25.930,17.800 24.193,17.800 C 21.491,17.800 21.105,20.200 20.912,20.800 L 17.052,20.200 C 17.245,18.000 18.982,13.800 24.000,13.800 C 27.088,13.800 29.790,15.600 30.948,18.200 C 31.720,20.400 31.334,22.600 29.790,24.200 C 29.018,25.000 28.246,25.400 27.474,25.600 C 26.316,26.400 25.930,26.000 25.930,28.000 Z" style=""/>
    <path d="M 24.000,10.000 C 31.527,10.000 37.510,16.200 37.510,24.000 C 37.510,31.800 31.527,38.000 24.000,38.000 C 16.473,38.000 10.490,31.800 10.490,24.000 C 10.490,16.200 16.473,10.000 24.000,10.000 M 24.000,8.000 C 15.508,8.000 8.560,15.200 8.560,24.000 C 8.560,32.800 15.508,40.000 24.000,40.000 C 32.492,40.000 39.440,32.800 39.440,24.000 C 39.440,15.200 32.492,8.000 24.000,8.000 Z" style=""/>
    <path d="M 21.877,30.000 L 25.737,30.000 L 25.737,34.000 L 21.877,34.000 L 21.877,30.000 Z" style=""/>
  </g>
  <view id="home" viewBox="144 96 48 48"/>
  <g transform="translate(144 96)">
    <path d="M 12.535,40.000 L 12.535,24.000 L 10.897,25.778 L 8.440,21.333 L 24.000,8.000 L 29.733,12.912 L 29.733,9.555 L 33.008,8.889 L 33.008,15.719 L 39.560,21.333 L 37.103,25.778 L 35.465,24.000 L 35.465,40.000 L 12.535,40.000 M 24.000,14.148 L 14.992,22.222 L 14.992,37.333 L 19.905,37.333 L 19.905,27.556 L 28.095,27.556 L 28.095,37.333 L 33.008,37.333 L 33.008,22.222 L 24.000,14.148 Z" style=""/>
  </g>
  <view id="information" viewBox="192 96 48 48"/>
  <g transform="translate(192 96)">
    <path d="M 35.213,12.686 C 29.020,6.438 18.981,6.438 12.788,12.686 C 6.596,18.934 6.596,29.065 12.788,35.315 C 18.980,41.561 29.020,41.562 35.213,35.315 C 41.404,29.065 41.403,18.935 35.213,12.686 M 26.068,30.957 C 26.068,32.110 25.142,33.044 24.000,33.044 C 22.857,33.044 21.931,32.110 21.931,30.957 L 21.931,22.609 C 21.931,21.456 22.857,20.522 24.000,20.522 C 25.142,20.522 26.068,21.456 26.068,22.609 L 26.068,30.957 M 23.963,19.042 C 22.772,19.042 21.978,18.190 22.002,17.139 C 21.978,16.037 22.772,15.211 23.987,15.211 C 25.203,15.211 25.973,16.038 25.998,17.139 C 25.997,18.190 25.204,19.042 23.963,19.042 Z" style=""/>
  </g>
  <view id="language" viewBox="240 96 48 48"/>
  <g transform="translate(240 96)">
    <path d="M 19.989,25.194 L 19.989,23.930 C 19.253,23.449 18.557,22.878 17.915,22.202 C 16.056,23.922 14.277,25.011 14.076,25.134 L 13.907,25.234 L 12.882,23.665 L 13.050,23.563 C 13.071,23.549 14.881,22.450 16.711,20.733 C 15.032,18.388 14.386,16.025 14.361,15.923 L 14.313,15.742 L 16.184,15.282 L 16.230,15.464 C 16.234,15.484 16.767,17.375 18.064,19.321 C 19.345,17.829 20.092,16.391 20.282,15.035 L 12.422,15.035 L 12.422,13.023 L 16.755,13.023 L 16.755,11.903 L 18.775,11.903 L 18.775,13.021 L 23.107,13.021 L 23.107,15.035 L 22.235,15.035 C 22.032,16.920 21.033,18.873 19.258,20.846 C 19.496,21.102 19.741,21.336 19.989,21.561 L 19.989,21.430 L 19.989,20.613 C 19.989,19.940 20.558,19.395 21.261,19.395 L 26.917,19.395 L 26.917,9.814 C 26.917,9.646 26.777,9.509 26.599,9.509 L 8.318,9.509 C 8.142,9.509 8.000,9.646 8.000,9.814 L 8.000,27.323 C 8.000,27.493 8.142,27.627 8.318,27.627 L 19.989,27.627 L 19.989,25.194 Z" style=""/>
    <path d="M 30.431,25.728 L 30.396,25.728 C 30.220,26.395 30.049,27.240 29.856,27.887 L 29.162,30.265 L 31.747,30.265 L 31.021,27.887 C 30.812,27.223 30.603,26.393 30.431,25.728 Z" style=""/>
    <path d="M 39.682,20.373 L 21.403,20.373 C 21.227,20.373 21.085,20.509 21.085,20.677 L 21.085,38.188 C 21.085,38.356 21.227,38.491 21.403,38.491 L 39.682,38.491 C 39.860,38.491 40.000,38.356 40.000,38.188 L 40.000,20.677 C 40.000,20.511 39.860,20.373 39.682,20.373 M 33.032,35.032 L 32.131,32.156 L 28.784,32.156 L 27.950,35.032 L 25.210,35.032 L 28.784,23.836 L 32.251,23.836 L 35.874,35.032 L 33.032,35.032 Z" style=""/>
  </g>
  <view id="languages" viewBox="288 96 48 48"/>
  <g transform="translate(288 96)">
    <path d="M 13.295,8.000 L 14.633,8.000 C 15.372,8.000 15.971,8.597 15.971,9.333 L 15.971,38.667 C 15.971,39.403 15.372,40.000 14.633,40.000 L 13.295,40.000 C 12.555,40.000 11.956,39.403 11.956,38.667 L 11.956,9.333 C 11.956,8.597 12.555,8.000 13.295,8.000 M 17.309,12.000 C 18.647,11.111 19.985,10.222 22.216,10.444 C 24.446,10.667 27.569,12.000 30.022,12.000 C 32.475,12.000 34.260,10.667 36.044,9.333 L 36.044,21.333 C 34.260,22.666 32.475,24.000 30.022,24.000 C 27.569,24.000 24.446,22.666 22.216,22.444 C 19.985,22.222 18.647,23.111 17.309,24.000 L 17.309,12.000 Z" style=""/>
  </g>
  <view id="loading" viewBox="0 144 48 48"/>
  <g transform="translate(0 144)">
    <path d="M 22.947,8.000 L 24.861,8.000 L 24.861,18.000 L 22.947,18.000 L 22.947,8.000 Z" style="stroke:none;fill-rule:nonzero;fill:#0b101b;fill-opacity:1;"/>
    <path d="M 30.745,9.594 L 32.402,10.594 L 27.617,19.254 L 25.959,18.254 L 30.745,9.594 Z" style="stroke:none;fill-rule:nonzero;fill:#d7dce0;fill-opacity:0.2;"/>
    <path d="M 36.735,15.047 L 37.692,16.779 L 29.404,21.779 L 28.447,20.047 L 36.735,15.047 Z" style="stroke:none;fill-rule:nonzero;fill:#d7dce0;fill-opacity:0.2;"/>
    <path d="M 39.313,22.900 L 39.313,24.900 L 29.742,24.900 L 29.742,22.900 L 39.313,22.900 Z" style="stroke:none;fill-rule:nonzero;fill:#d7dce0;fill-opacity:0.2;"/>
    <path d="M 37.788,31.047 L 36.831,32.779 L 28.542,27.779 L 29.499,26.047 L 37.788,31.047 Z" style="stroke:none;fill-rule:nonzero;fill:#d7dce0;fill-opacity:0.2;"/>
    <path d="M 32.568,37.306 L 30.911,38.306 L 26.125,29.646 L 27.783,28.646 L 32.568,37.306 Z" style="stroke:none;fill-rule:nonzero;fill:#c2cad0;fill-opacity:0.298039;"/>
    <path d="M 25.053,40.000 L 23.139,40.000 L 23.139,30.000 L 25.053,30.000 L 25.053,40.000 Z" style="stroke:none;fill-rule:nonzero;fill:#afb9c1;fill-opacity:0.4;"/>
    <path d="M 17.255,38.406 L 15.598,37.406 L 20.383,28.746 L 22.041,29.746 L 17.255,38.406 Z" style="stroke:none;fill-rule:nonzero;fill:#9aa7b1;fill-opacity:0.501961;"/>
    <path d="M 11.265,32.953 L 10.308,31.221 L 18.596,26.221 L 19.553,27.953 L 11.265,32.953 Z" style="stroke:none;fill-rule:nonzero;fill:#8696a1;fill-opacity:0.6;"/>
    <path d="M 8.687,25.100 L 8.687,23.100 L 18.258,23.100 L 18.258,25.100 L 8.687,25.100 Z" style="stroke:none;fill-rule:nonzero;fill:#728491;fill-opacity:0.701961;"/>
    <path d="M 10.212,16.953 L 11.169,15.221 L 19.458,20.221 L 18.501,21.953 L 10.212,16.953 Z" style="stroke:none;fill-rule:nonzero;fill:#5e7382;fill-opacity:0.8;"/>
    <path d="M 15.432,10.694 L 17.089,9.694 L 21.875,18.354 L 20.217,19.354 L 15.432,10.694 Z" style="stroke:none;fill-rule:nonzero;fill:#4a6172;fill-opacity:0.901961;"/>
  </g>
  <view id="more" viewBox="48 144 48 48"/>
  <g transform="translate(48 144)">
    <path d="M 23.980,20.824 C 22.208,20.824 20.776,22.243 20.776,24.000 C 20.776,25.757 22.208,27.176 23.980,27.176 C 25.752,27.176 27.184,25.757 27.184,24.000 C 27.184,22.243 25.752,20.824 23.980,20.824 Z" style="stroke:none;fill-rule:nonzero;fill:#e7f0fb;fill-opacity:1;"/>
    <path d="M 11.204,20.824 C 9.432,20.824 8.000,22.243 8.000,24.000 C 8.000,25.757 9.432,27.176 11.204,27.176 C 12.976,27.176 14.408,25.757 14.408,24.000 C 14.408,22.243 12.966,20.824 11.204,20.824 Z" style="stroke:none;fill-rule:nonzero;fill:#e7f0fb;fill-opacity:1;"/>
    <path d="M 36.796,20.824 C 35.024,20.824 33.592,22.243 33.592,24.000 C 33.592,25.757 35.024,27.176 36.796,27.176 C 38.568,27.176 40.000,25.757 40.000,24.000 C 40.000,22.243 38.568,20.824 36.796,20.824 Z" style="stroke:none;fill-rule:nonzero;fill:#e7f0fb;fill-opacity:1;"/>
  </g>
  <view id="moreV" viewBox="96 144 48 48"/>
  <g transform="translate(96 144)">
    <path d="M 24.000,16.000 C 21.757,16.000 19.922,14.200 19.922,12.000 C 19.922,9.800 21.757,8.000 24.000,8.000 C 26.243,8.000 28.078,9.800 28.078,12.000 C 28.078,14.200 26.243,16.000 24.000,16.000 M 24.000,20.000 C 26.243,20.000 28.078,21.800 28.078,24.000 C 28.078,26.200 26.243,28.000 24.000,28.000 C 21.757,28.000 19.922,26.200 19.922,24.000 C 19.922,21.800 21.757,20.000 24.000,20.000 M 24.000,32.000 C 26.243,32.000 28.078,33.800 28.078,36.000 C 28.078,38.200 26.243,40.000 24.000,40.000 C 21.757,40.000 19.922,38.200 19.922,36.000 C 19.922,33.800 21.757,32.000 24.000,32.000 Z" style="stroke:none;fill-rule:evenodd;fill:#e7f0fb;fill-opacity:1;"/>
  </g>
  <view id="notification" viewBox="144 144 48 48"/>
  <g transform="translate(144 144)">
    <path d="M 8.000,30.217 L 8.000,10.216 L 40.000,10.216 L 40.000,30.217 L 28.447,30.217 L 24.000,37.784 L 19.553,30.217" style="stroke:none;fill-rule:evenodd;fill:#e7f0fb;fill-opacity:1;"/>
  </g>
  <view id="notifications" viewBox="192 144 48 48"/>
  <g transform="translate(192 144)">
    <path d="M 8.000,13.584 L 37.023,13.584 L 37.023,30.249 L 29.581,30.249 L 22.512,37.193 L 15.442,30.249 L 8.000,30.249 L 8.000,13.584 M 10.233,12.890 L 10.233,10.807 L 40.000,10.807 L 40.000,28.166 L 37.767,28.108 L 37.767,12.890 L 10.233,12.890 Z" style="stroke:none;fill-rule:evenodd;fill:#e7f0fb;fill-opacity:1;"/>
  </g>
  <view id="pages" viewBox="240 144 48 48"/>
  <g transform="translate(240 144)">
    <path d="M 14.939,11.636 L 23.456,11.636 L 22.731,10.909 L 12.764,10.909 L 12.764,33.455 L 14.939,33.455 L 14.939,11.636 M 28.893,11.636 L 38.136,20.909 L 38.136,40.000 L 14.939,40.000 L 14.939,36.364 L 9.864,36.364 L 9.864,8.000 L 23.819,8.000 L 27.443,11.636 L 28.893,11.636 M 17.838,14.545 L 17.838,37.091 L 35.236,37.091 L 35.236,24.000 L 25.812,24.000 L 25.812,14.545 L 17.838,14.545 M 28.712,15.455 L 28.712,21.091 L 34.330,21.091 L 28.712,15.455 Z" style="stroke:none;fill-rule:nonzero;fill:#e7f0fb;fill-opacity:1;"/>
  </g>
  <view id="project" viewBox="288 144 48 48"/>
  <g transform="translate(288 144)">
    <path d="M 10.708,24.000 L 10.708,10.526 L 14.206,10.526 L 14.206,8.842 L 17.704,8.842 L 17.704,8.000 L 30.121,8.000 L 37.292,16.632 L 37.292,24.000 L 38.691,24.000 L 38.691,40.000 L 38.399,40.000 L 9.601,40.000 L 9.309,40.000 L 9.309,24.000 L 10.708,24.000 M 14.206,24.000 L 14.206,13.053 L 12.807,13.053 L 12.807,24.000 L 14.206,24.000 M 16.305,11.368 L 16.305,24.000 L 17.704,24.000 L 17.704,11.368 L 16.305,11.368 M 27.498,30.737 L 27.498,33.263 L 20.502,33.263 L 20.502,30.737 L 27.498,30.737 M 35.193,24.000 L 35.193,19.790 L 27.498,19.790 L 27.498,10.526 L 19.803,10.526 L 19.803,24.000 L 35.193,24.000 M 29.597,11.158 L 29.597,17.263 L 34.668,17.263 L 29.597,11.158 M 12.107,27.368 L 12.107,36.632 L 35.893,36.632 L 35.893,27.368 L 12.107,27.368 Z" style="stroke:none;fill-rule:nonzero;fill:#e7f0fb;fill-opacity:1;"/>
  </g>
  <view id="properties" viewBox="0 192 48 48"/>
  <g transform="translate(0 192)">
    <path d="M 32.163,23.925 L 34.925,21.255 C 35.443,21.504 35.936,21.808 36.396,22.162 L 35.900,26.223 L 39.528,26.536 C 39.735,27.115 39.895,27.721 40.000,28.349 L 37.101,30.825 L 39.470,33.938 C 39.249,34.523 38.979,35.078 38.666,35.596 L 35.062,35.037 L 34.785,39.126 C 34.271,39.360 33.733,39.540 33.176,39.659 L 30.979,36.391 L 28.217,39.061 C 27.699,38.813 27.206,38.508 26.746,38.155 L 27.242,34.094 L 23.614,33.780 C 23.406,33.202 23.247,32.596 23.142,31.968 L 26.041,29.491 L 23.672,26.378 C 23.893,25.794 24.163,25.239 24.476,24.720 L 28.079,25.279 L 28.357,21.190 C 28.870,20.956 29.408,20.776 29.965,20.658 L 32.163,23.925 M 31.571,26.290 C 29.676,26.290 28.139,28.022 28.139,30.158 C 28.139,32.294 29.676,34.026 31.571,34.026 C 33.466,34.026 35.002,32.294 35.002,30.158 C 35.002,28.022 33.466,26.290 31.571,26.290 M 8.000,8.341 L 13.619,8.341 L 13.619,14.675 L 8.000,14.675 L 8.000,8.341 M 8.000,17.050 L 13.619,17.050 L 13.619,23.384 L 8.000,23.384 L 8.000,17.050 M 16.429,8.341 L 34.692,8.341 L 34.692,14.675 L 16.429,14.675 L 16.429,8.341 M 8.000,25.759 L 13.619,25.759 L 13.619,32.093 L 8.000,32.093 L 8.000,25.759 M 16.429,17.050 L 34.692,17.050 L 34.692,20.322 L 32.271,22.520 L 30.051,19.425 L 27.690,20.487 L 27.182,23.384 L 26.087,23.384 L 23.014,22.920 L 22.747,23.384 L 16.429,23.384 L 16.429,17.050 M 16.429,25.759 L 22.241,25.759 L 24.443,29.279 L 21.541,32.093 L 16.429,32.093 L 16.429,25.759 M 31.531,27.342 C 32.889,27.342 33.990,28.583 33.990,30.113 C 33.990,31.644 32.889,32.884 31.531,32.884 C 30.173,32.884 29.073,31.644 29.073,30.113 C 29.073,28.583 30.173,27.342 31.531,27.342 Z" style="stroke:none;fill-rule:evenodd;fill:#e7f0fb;fill-opacity:1;"/>
  </g>
  <view id="recipes" viewBox="48 192 48 48"/>
  <g transform="translate(48 192)">
    <path d="M 39.835,13.199 C 39.655,12.901 39.358,12.692 39.015,12.624 L 20.808,8.288 C 20.208,8.173 19.616,8.500 19.408,9.067 L 12.468,26.485 L 14.785,27.319 L 21.362,10.757 L 37.182,14.745 C 36.193,17.771 33.843,24.087 31.589,29.968 C 29.624,35.099 28.493,36.856 26.344,37.215 C 26.342,37.212 26.340,37.210 26.340,37.206 C 21.948,37.814 22.026,32.282 22.026,32.282 L 8.000,26.685 C 7.003,32.927 11.858,34.428 11.858,34.428 L 22.127,39.034 C 22.130,39.035 23.733,39.790 25.475,39.712 C 30.175,39.603 31.826,36.232 33.896,30.830 C 36.886,23.024 39.920,14.277 39.950,14.185 C 40.057,13.854 40.015,13.497 39.835,13.199 Z" style="stroke:none;fill-rule:evenodd;fill:#e7f0fb;fill-opacity:1;"/>
    <path d="M 31.536,20.224 C 31.643,20.252 31.754,20.268 31.863,20.268 C 32.404,20.268 32.899,19.911 33.051,19.371 C 33.231,18.721 32.842,18.051 32.185,17.874 L 26.842,16.244 C 26.193,16.067 25.506,16.448 25.327,17.097 C 25.148,17.746 25.534,18.417 26.192,18.595 L 31.536,20.224 Z" style="stroke:none;fill-rule:evenodd;fill:#e7f0fb;fill-opacity:1;"/>
    <path d="M 23.187,21.977 C 22.973,22.616 23.320,23.305 23.966,23.519 L 29.282,25.395 C 29.411,25.438 29.538,25.457 29.666,25.457 C 30.184,25.460 30.670,25.137 30.843,24.625 C 31.058,23.987 30.711,23.298 30.062,23.085 L 24.749,21.209 C 24.099,20.997 23.404,21.340 23.187,21.977 Z" style="stroke:none;fill-rule:evenodd;fill:#e7f0fb;fill-opacity:1;"/>
    <path d="M 22.719,26.294 C 22.073,26.080 21.374,26.429 21.163,27.070 C 20.950,27.707 21.305,28.398 21.951,28.606 L 27.278,30.475 C 27.406,30.518 27.534,30.536 27.664,30.536 C 28.181,30.536 28.664,30.211 28.834,29.700 C 29.047,29.060 28.694,28.370 28.047,28.161 L 22.719,26.294 Z" style="stroke:none;fill-rule:evenodd;fill:#e7f0fb;fill-opacity:1;"/>
    <path d="M 22.522,14.824 C 23.277,14.824 23.889,15.412 23.889,16.137 C 23.889,16.862 23.277,17.450 22.522,17.450 C 21.766,17.450 21.154,16.862 21.154,16.137 C 21.154,15.412 21.766,14.824 22.522,14.824 Z" style="stroke:none;fill-rule:evenodd;fill:#e7f0fb;fill-opacity:1;"/>
    <path d="M 20.587,19.706 C 21.343,19.706 21.955,20.294 21.955,21.019 C 21.955,21.743 21.343,22.331 20.587,22.331 C 19.832,22.331 19.219,21.743 19.219,21.019 C 19.219,20.294 19.832,19.706 20.587,19.706 Z" style="stroke:none;fill-rule:evenodd;fill:#e7f0fb;fill-opacity:1;"/>
    <path d="M 18.524,24.744 C 19.280,24.744 19.892,25.332 19.892,26.058 C 19.892,26.783 19.280,27.371 18.524,27.371 C 17.769,27.371 17.156,26.783 17.156,26.058 C 17.156,25.332 17.769,24.744 18.524,24.744 Z" style="stroke:none;fill-rule:evenodd;fill:#e7f0fb;fill-opacity:1;"/>
  </g>
  <view id="sample" viewBox="96 192 48 48"/>
  <g transform="translate(96 192)">
    <path d="M 8.000,40.000 L 18.492,29.508 A 10.728,13.246 NaN -45 0 7.056,22.763 L 25.054,22.946 L 40.000,8.000" style=""/>
  </g>
  <view id="search" viewBox="144 192 48 48"/>
  <g transform="translate(144 192)">
    <path d="M 29.370,11.833 C 24.488,7.019 16.542,7.019 11.661,11.833 C 6.780,16.647 6.780,24.481 11.661,29.296 C 16.008,33.582 22.779,34.041 27.658,30.694 C 27.760,31.173 27.995,31.630 28.373,32.003 L 35.483,39.013 C 36.519,40.033 38.193,40.033 39.224,39.013 C 40.259,37.993 40.259,36.342 39.224,35.324 L 32.114,28.312 C 31.739,27.942 31.274,27.710 30.788,27.609 C 34.184,22.797 33.719,16.121 29.370,11.833 M 27.125,27.083 C 23.481,30.676 17.549,30.676 13.905,27.083 C 10.263,23.489 10.263,17.641 13.905,14.047 C 17.549,10.454 23.481,10.454 27.125,14.047 C 30.770,17.641 30.770,23.489 27.125,27.083 Z" style="stroke:none;fill-rule:evenodd;fill:#e7f0fb;fill-opacity:1;"/>
  </g>
  <view id="settings-bars" viewBox="192 192 48 48"/>
  <g transform="translate(192 192)">
    <path d="M 8.000,32.017 L 8.000,35.222 L 18.664,35.222 L 18.664,32.017 L 8.000,32.017 M 8.000,12.778 L 8.000,15.983 L 25.779,15.983 L 25.779,12.778 L 8.000,12.778 M 25.779,38.430 L 25.779,35.222 L 40.000,35.222 L 40.000,32.017 L 25.779,32.017 L 25.779,28.809 L 22.221,28.809 L 22.221,38.430 L 25.779,38.430 M 15.115,19.191 L 15.115,22.396 L 8.000,22.396 L 8.000,25.604 L 15.115,25.604 L 15.115,28.809 L 18.664,28.809 L 18.664,19.191 L 15.115,19.191 M 40.000,25.604 L 40.000,22.396 L 22.221,22.396 L 22.221,25.604 L 40.000,25.604 M 29.336,19.191 L 32.885,19.191 L 32.885,15.983 L 40.000,15.983 L 40.000,12.778 L 32.885,12.778 L 32.885,9.570 L 29.336,9.570 C 29.336,9.570 29.336,19.191 29.336,19.191 Z" style="stroke:none;fill-rule:evenodd;fill:#e7f0fb;fill-opacity:1;"/>
  </g>
  <view id="settings" viewBox="240 192 48 48"/>
  <g transform="translate(240 192)">
    <path d="M 28.975,29.356 C 29.049,28.585 29.027,27.816 28.914,27.065 L 30.662,26.292 C 30.497,25.451 30.238,24.622 29.877,23.820 C 29.517,23.018 29.070,22.272 28.552,21.587 L 26.803,22.360 C 26.316,21.776 25.755,21.245 25.128,20.783 L 25.814,19.010 C 25.098,18.532 24.323,18.128 23.497,17.813 C 22.674,17.500 21.829,17.283 20.970,17.163 L 20.284,18.938 C 19.506,18.864 18.732,18.887 17.975,18.998 L 17.201,17.272 C 15.470,17.609 13.853,18.337 12.465,19.378 L 13.235,21.093 C 12.645,21.577 12.110,22.134 11.645,22.756 L 9.863,22.077 C 9.377,22.786 8.969,23.555 8.651,24.375 C 8.337,25.194 8.121,26.035 8.000,26.883 L 9.787,27.563 C 9.713,28.335 9.735,29.104 9.847,29.854 L 8.099,30.627 C 8.264,31.468 8.524,32.297 8.884,33.099 C 9.245,33.901 9.691,34.647 10.210,35.331 L 11.958,34.559 C 12.445,35.144 13.006,35.674 13.634,36.136 L 12.948,37.910 C 13.664,38.389 14.438,38.793 15.264,39.107 C 16.087,39.421 16.932,39.637 17.792,39.758 L 18.478,37.983 C 19.256,38.056 20.030,38.033 20.786,37.922 L 21.561,39.648 C 23.291,39.310 24.909,38.582 26.297,37.541 L 25.527,35.826 C 26.116,35.343 26.651,34.786 27.117,34.164 L 28.898,34.842 C 29.384,34.133 29.791,33.364 30.109,32.545 C 30.426,31.726 30.641,30.884 30.762,30.036 L 28.975,29.356 M 24.226,30.305 C 23.199,32.961 20.198,34.287 17.521,33.268 C 14.847,32.249 13.509,29.271 14.536,26.615 C 15.563,23.959 18.564,22.633 21.239,23.651 C 23.915,24.670 25.252,27.650 24.226,30.305 Z" style="stroke:none;fill-rule:evenodd;fill:#d3d7db;fill-opacity:0.701961;"/>
    <path d="M 38.642,14.855 C 38.620,14.512 38.562,14.179 38.480,13.857 L 39.766,13.003 C 39.362,11.802 38.646,10.750 37.710,9.943 L 36.420,10.798 C 35.880,10.397 35.265,10.095 34.601,9.910 L 34.500,8.375 C 33.899,8.253 33.274,8.201 32.634,8.242 C 31.994,8.284 31.382,8.418 30.802,8.616 L 30.903,10.151 C 30.270,10.420 29.700,10.800 29.217,11.268 L 27.825,10.587 C 27.004,11.509 26.433,12.645 26.189,13.888 L 27.578,14.567 C 27.539,14.898 27.525,15.235 27.547,15.578 C 27.570,15.922 27.628,16.254 27.710,16.576 L 26.423,17.430 C 26.829,18.631 27.545,19.684 28.480,20.490 L 29.770,19.635 C 30.311,20.036 30.925,20.338 31.589,20.523 L 31.690,22.059 C 32.292,22.180 32.916,22.233 33.556,22.191 C 34.196,22.149 34.809,22.016 35.388,21.818 L 35.287,20.282 C 35.920,20.013 36.490,19.633 36.973,19.165 L 38.364,19.846 C 39.186,18.925 39.757,17.789 40.000,16.546 L 38.612,15.866 C 38.652,15.535 38.665,15.198 38.642,14.855 M 33.266,17.786 C 31.835,17.879 30.600,16.804 30.506,15.385 C 30.412,13.966 31.496,12.740 32.926,12.647 C 34.354,12.554 35.590,13.628 35.684,15.048 C 35.778,16.467 34.694,17.693 33.266,17.786 Z" style="stroke:none;fill-rule:evenodd;fill:#d3d7db;fill-opacity:0.701961;"/>
  </g>
  <view id="switch" viewBox="288 192 48 48"/>
  <g transform="translate(288 192)">
    <path d="M 40.000,20.000 L 40.000,27.111 C 40.000,27.644 39.644,28.000 39.111,28.000 L 8.889,28.000 C 8.356,28.000 8.000,27.644 8.000,27.111 L 8.000,20.000 C 8.000,19.467 8.356,19.111 8.889,19.111 L 39.111,19.111 C 39.555,19.111 40.000,19.467 40.000,20.000 Z" style="stroke:none;fill-rule:nonzero;fill:#595a66;fill-opacity:1;"/>
    <path d="M 23.111,25.333 C 22.578,25.333 22.222,24.978 22.222,24.445 L 22.222,22.667 C 22.222,22.133 22.578,21.778 23.111,21.778 C 23.644,21.778 24.000,22.133 24.000,22.667 L 24.000,24.444 C 24.000,24.978 23.644,25.333 23.111,25.333 Z" style="stroke:none;fill-rule:nonzero;fill:#35363e;fill-opacity:1;"/>
    <path d="M 25.778,25.333 C 25.244,25.333 24.889,24.978 24.889,24.445 L 24.889,22.667 C 24.889,22.133 25.245,21.778 25.778,21.778 C 26.311,21.778 26.667,22.133 26.667,22.667 L 26.667,24.444 C 26.667,24.978 26.311,25.333 25.778,25.333 Z" style="stroke:none;fill-rule:nonzero;fill:#35363e;fill-opacity:1;"/>
    <path d="M 28.444,25.333 C 27.911,25.333 27.556,24.978 27.556,24.445 L 27.556,22.667 C 27.556,22.133 27.911,21.778 28.444,21.778 C 28.978,21.778 29.333,22.133 29.333,22.667 L 29.333,24.444 C 29.333,24.978 28.978,25.333 28.444,25.333 Z" style="stroke:none;fill-rule:nonzero;fill:#35363e;fill-opacity:1;"/>
    <path d="M 31.111,25.333 C 30.578,25.333 30.222,24.978 30.222,24.445 L 30.222,22.667 C 30.222,22.133 30.578,21.778 31.111,21.778 C 31.644,21.778 32.000,22.133 32.000,22.667 L 32.000,24.444 C 32.000,24.978 31.644,25.333 31.111,25.333 Z" style="stroke:none;fill-rule:nonzero;fill:#35363e;fill-opacity:1;"/>
    <path d="M 33.778,25.333 C 33.244,25.333 32.889,24.978 32.889,24.445 L 32.889,22.667 C 32.889,22.133 33.244,21.778 33.778,21.778 C 34.311,21.778 34.667,22.133 34.667,22.667 L 34.667,24.444 C 34.667,24.978 34.311,25.333 33.778,25.333 Z" style="stroke:none;fill-rule:nonzero;fill:#35363e;fill-opacity:1;"/>
    <path d="M 36.444,25.333 C 35.911,25.333 35.556,24.978 35.556,24.445 L 35.556,22.667 C 35.556,22.133 35.911,21.778 36.444,21.778 C 36.978,21.778 37.333,22.133 37.333,22.667 L 37.333,24.444 C 37.333,24.978 36.978,25.333 36.444,25.333 Z" style="stroke:none;fill-rule:nonzero;fill:#35363e;fill-opacity:1;"/>
    <path d="M 12.444,23.556 C 12.444,24.046 12.046,24.444 11.556,24.444 C 11.065,24.444 10.667,24.046 10.667,23.556 C 10.667,23.065 11.065,22.667 11.556,22.667 C 12.046,22.667 12.444,23.065 12.444,23.556 Z" style="stroke:none;fill-rule:evenodd;fill:#89c763;fill-opacity:1;"/>
    <path d="M 15.111,23.556 C 15.111,24.046 14.713,24.444 14.222,24.444 C 13.731,24.444 13.333,24.046 13.333,23.556 C 13.333,23.065 13.731,22.667 14.222,22.667 C 14.713,22.667 15.111,23.065 15.111,23.556 Z" style="stroke:none;fill-rule:evenodd;fill:#ffcb5b;fill-opacity:1;"/>
    <path d="M 17.778,23.556 C 17.778,24.046 17.380,24.444 16.889,24.444 C 16.398,24.444 16.000,24.046 16.000,23.556 C 16.000,23.065 16.398,22.667 16.889,22.667 C 17.380,22.667 17.778,23.065 17.778,23.556 Z" style="stroke:none;fill-rule:evenodd;fill:#ffcb5b;fill-opacity:1;"/>
    <path d="M 27.111,20.000 L 10.222,20.000 C 9.956,20.000 9.778,19.822 9.778,19.556 C 9.778,19.289 9.956,19.111 10.222,19.111 L 27.111,19.111 C 27.378,19.111 27.556,19.289 27.556,19.556 C 27.556,19.822 27.378,20.000 27.111,20.000 Z" style="stroke:none;fill-rule:nonzero;fill:#6f707e;fill-opacity:1;"/>
    <path d="M 39.555,20.889 C 39.289,20.889 39.111,21.067 39.111,21.333 L 39.111,27.111 L 8.000,27.111 C 8.000,27.644 8.356,28.000 8.889,28.000 L 39.111,28.000 C 39.644,28.000 40.000,27.644 40.000,27.111 L 40.000,21.333 C 40.000,21.067 39.822,20.889 39.555,20.889 Z" style="stroke:none;fill-rule:nonzero;fill:#494a52;fill-opacity:1;"/>
    <path d="M 10.667,28.000 L 37.333,28.000 L 37.333,28.889 L 10.667,28.889 L 10.667,28.000 Z" style="stroke:none;fill-rule:evenodd;fill:#35363e;fill-opacity:1;"/>
  </g>
  <view id="usermanagement" viewBox="0 240 48 48"/>
  <g transform="translate(0 240)">
    <path d="M 23.852,11.757 C 25.720,11.757 27.234,13.295 27.234,15.193 C 27.234,17.091 25.720,18.630 23.852,18.630 C 21.984,18.630 20.470,17.091 20.470,15.193 C 20.470,13.295 21.984,11.757 23.852,11.757 M 20.470,22.958 C 20.019,23.187 19.276,25.181 19.684,25.450 L 17.488,25.040 C 18.982,24.490 19.281,23.571 19.402,21.895 L 19.287,20.853 C 19.778,20.438 20.503,19.522 21.147,19.522 L 26.557,19.522 C 27.215,19.522 27.793,19.806 28.291,20.236 L 28.608,21.422 C 28.608,22.823 29.657,23.244 30.755,23.923 L 29.221,23.890 C 28.822,23.875 28.452,23.967 28.112,24.133 C 27.824,23.630 27.468,23.077 27.234,22.958 L 27.310,24.698 C 25.878,26.034 25.162,28.555 25.162,28.555 L 24.915,29.803 L 24.190,29.832 C 23.704,29.832 23.226,29.793 22.760,29.719 C 22.389,28.717 21.581,26.910 20.335,26.067 L 20.470,22.958 M 15.440,18.168 C 17.308,18.168 18.822,19.707 18.822,21.605 C 18.822,23.503 17.308,25.042 15.440,25.042 C 13.572,25.042 12.058,23.503 12.058,21.605 C 12.058,19.707 13.572,18.168 15.440,18.168 M 12.058,29.370 C 11.607,29.599 10.705,31.432 10.705,31.432 C 10.705,31.432 10.255,32.119 10.029,34.869 L 8.000,34.181 L 8.676,30.745 C 8.676,30.745 10.029,25.933 12.734,25.933 L 18.145,25.933 C 20.851,25.933 22.203,30.745 22.203,30.745 L 22.880,34.181 L 20.851,34.869 C 20.625,32.119 20.174,31.432 20.174,31.432 C 20.174,31.432 19.273,29.599 18.822,29.370 L 19.095,35.612 C 18.067,36.020 16.948,36.243 15.778,36.243 C 14.352,36.243 13.002,35.911 11.799,35.319 L 12.058,29.370 M 32.560,16.867 C 34.428,16.935 35.942,18.528 35.942,20.426 C 35.942,22.324 34.428,23.808 32.560,23.741 C 30.692,23.673 29.178,22.080 29.178,20.182 C 29.178,18.284 30.692,16.800 32.560,16.867 M 29.178,27.947 C 28.728,28.159 27.826,29.960 27.826,29.960 C 27.826,29.960 27.375,30.631 27.149,33.372 L 25.120,32.611 L 25.797,29.199 C 25.797,29.199 27.149,24.436 29.855,24.534 L 35.266,24.730 C 37.971,24.828 39.324,29.688 39.324,29.688 L 40.000,33.150 L 37.971,33.763 C 37.746,31.006 37.295,30.302 37.295,30.302 C 37.295,30.302 36.393,28.437 35.942,28.191 L 36.215,34.444 C 35.187,34.814 34.068,34.997 32.898,34.955 C 31.472,34.903 30.122,34.522 28.920,33.886 L 29.178,27.947 Z" style="stroke:none;fill-rule:nonzero;fill:#e7f0fb;fill-opacity:1;"/>
  </g>
  <view id="users" viewBox="48 240 48 48"/>
  <g transform="translate(48 240)">
    <path d="M 38.621,17.768 C 37.821,15.861 36.675,14.156 35.218,12.681 C 33.760,11.212 32.062,10.059 30.168,9.252 C 28.216,8.426 26.134,8.000 23.993,8.000 C 21.853,8.000 19.771,8.426 17.812,9.259 C 15.925,10.065 14.227,11.219 12.769,12.688 C 11.312,14.156 10.167,15.867 9.366,17.775 C 8.540,19.742 8.117,21.840 8.117,23.997 C 8.117,26.154 8.540,28.252 9.366,30.225 C 10.167,32.133 11.312,33.844 12.769,35.312 C 14.227,36.781 15.925,37.935 17.818,38.741 C 19.777,39.574 21.859,40.000 24.000,40.000 C 26.141,40.000 28.223,39.574 30.182,38.741 C 32.075,37.935 33.767,36.781 35.231,35.312 C 36.688,33.844 37.833,32.133 38.634,30.225 C 39.460,28.252 39.883,26.154 39.883,23.997 C 39.883,21.840 39.447,19.742 38.621,17.768 M 34.060,32.474 C 33.936,32.146 33.728,31.851 33.454,31.628 C 30.858,29.478 28.054,28.048 27.481,27.767 C 27.416,27.734 27.377,27.668 27.377,27.596 L 27.377,23.518 C 27.885,23.177 28.223,22.594 28.223,21.932 L 28.223,17.703 C 28.223,15.598 26.531,13.894 24.442,13.894 L 23.993,13.894 L 23.545,13.894 C 21.456,13.894 19.764,15.598 19.764,17.703 L 19.764,21.932 C 19.764,22.594 20.102,23.177 20.610,23.518 L 20.610,27.596 C 20.610,27.668 20.571,27.734 20.506,27.767 C 19.933,28.048 17.135,29.478 14.533,31.628 C 14.259,31.857 14.051,32.152 13.927,32.474 C 12.021,30.179 10.869,27.222 10.869,23.997 C 10.869,16.706 16.758,10.773 23.993,10.773 C 31.229,10.773 37.118,16.706 37.118,23.997 C 37.118,27.222 35.973,30.179 34.060,32.474 Z" style="stroke:none;fill-rule:nonzero;fill:#e7f0fb;fill-opacity:1;"/>
  </g>
  <view id="variables" viewBox="96 240 48 48"/>
  <g transform="translate(96 240)">
    <path d="M 24.000,8.000 C 32.576,8.000 39.528,15.163 39.528,24.000 C 39.528,32.837 32.576,40.000 24.000,40.000 C 15.424,40.000 8.472,32.837 8.472,24.000 C 8.472,15.163 15.424,8.000 24.000,8.000 M 24.000,10.286 C 23.327,10.286 22.665,10.337 22.019,10.437 C 21.880,10.747 21.782,11.088 21.782,11.429 C 21.782,12.571 20.673,10.286 19.564,12.571 C 18.454,14.857 19.564,12.571 19.564,14.857 C 19.564,16.000 17.958,15.173 18.454,15.429 C 19.564,16.000 19.564,16.000 18.454,17.143 C 18.454,17.143 16.236,16.000 16.236,17.143 C 16.236,18.286 15.127,18.286 14.018,18.286 C 12.909,18.286 14.018,20.571 12.909,20.571 C 12.056,20.571 12.515,19.220 11.764,18.596 C 11.478,19.281 11.246,19.995 11.071,20.732 C 11.818,21.422 11.943,24.148 12.909,25.143 C 14.018,24.000 14.018,25.143 15.127,25.143 C 16.236,25.143 16.236,25.143 16.791,26.286 C 17.900,26.286 18.454,27.429 19.564,28.571 C 20.673,29.714 22.891,29.714 22.891,30.857 C 22.891,32.000 21.782,30.857 21.782,33.143 C 21.782,34.286 21.782,34.286 20.673,34.286 C 19.974,34.286 19.276,35.645 18.854,36.652 C 20.437,37.336 22.176,37.714 24.000,37.714 C 27.725,37.714 31.093,36.137 33.509,33.596 L 32.873,32.286 C 32.873,32.286 34.259,30.000 33.150,28.857 C 32.041,27.714 32.041,26.571 32.041,26.571 C 32.041,26.571 29.823,28.857 28.714,27.714 C 27.605,26.571 27.605,27.714 26.496,25.429 C 25.386,23.143 27.605,22.000 27.605,22.000 C 27.605,22.000 27.605,19.714 28.714,19.714 C 29.823,19.714 30.932,17.429 33.150,19.714 C 33.150,19.714 34.432,18.834 36.246,18.619 C 35.677,17.246 34.897,15.988 33.948,14.889 C 33.749,15.037 33.488,15.143 33.150,15.143 C 32.041,15.143 34.259,17.429 33.150,17.429 C 32.041,17.429 32.041,16.286 30.932,16.286 C 29.823,16.286 29.823,17.429 28.714,18.571 C 27.605,19.714 28.714,18.571 27.605,17.429 C 26.496,16.286 29.823,17.429 28.714,16.286 C 27.605,15.143 29.823,15.143 29.823,14.000 C 29.823,13.104 31.188,12.910 31.776,12.869 C 31.136,12.393 30.453,11.975 29.823,11.714 C 30.932,12.857 28.714,14.000 27.605,14.000 C 26.563,14.000 27.478,11.983 27.593,10.791 C 26.450,10.462 25.245,10.286 24.000,10.286 M 10.690,24.000 C 10.690,28.034 12.381,31.661 15.071,34.170 L 14.018,32.000 C 12.909,32.000 12.354,29.429 12.354,28.286 C 12.354,27.369 11.997,26.635 12.429,25.791 C 10.864,24.172 11.800,25.050 11.800,24.000 C 11.800,23.456 11.297,22.912 10.770,22.491 C 10.717,22.987 10.690,23.490 10.690,24.000 Z" style="stroke:none;fill-rule:nonzero;fill:#e7f0fb;fill-opacity:1;"/>
  </g>
  <view id="warning" viewBox="144 240 48 48"/>
  <g transform="translate(144 240)">
    <path d="M 40.000,31.456 L 28.320,11.665 C 26.413,8.395 21.588,8.395 19.687,11.665 L 8.001,31.456 C 6.093,34.726 8.467,38.787 12.317,38.787 L 35.642,38.787 C 39.492,38.787 41.908,34.685 40.000,31.456 M 23.997,34.396 C 22.981,34.396 22.137,33.571 22.137,32.577 C 22.137,31.584 22.981,30.758 23.997,30.758 C 25.013,30.758 25.857,31.584 25.816,32.624 C 25.864,33.571 24.971,34.396 23.997,34.396 M 25.692,22.635 C 25.610,24.044 25.520,25.448 25.438,26.857 C 25.397,27.314 25.397,27.730 25.397,28.180 C 25.356,28.925 24.759,29.502 23.997,29.502 C 23.235,29.502 22.645,28.965 22.597,28.220 C 22.474,26.025 22.343,23.870 22.220,21.675 C 22.178,21.097 22.137,20.513 22.089,19.936 C 22.089,18.983 22.638,18.197 23.530,17.949 C 24.423,17.741 25.308,18.157 25.692,18.983 C 25.822,19.271 25.864,19.560 25.864,19.896 C 25.822,20.815 25.733,21.728 25.692,22.635 Z" style="stroke:none;fill-rule:evenodd;fill:#e7f0fb;fill-opacity:1;"/>
  </g>
</svg>
