<svg version="1.1" xmlns="http://www.w3.org/2000/svg" xmlns:xlink="http://www.w3.org/1999/xlink">
  <view id="alarms" viewBox="0 0 48 48"/>
  <g transform="translate(0 0)">
    <path d="M 21.1149,13.4180 C 25.6278,13.4180 29.2862,16.9853 29.2862,21.3859 C 29.2862,25.7864 25.6278,29.3538 21.1149,29.3538 C 16.6019,29.3538 12.9435,25.7864 12.9435,21.3859 C 12.9435,16.9853 16.6019,13.4180 21.1149,13.4180 M 21.1149,15.4100 C 17.7301,15.4100 14.9864,18.0855 14.9864,21.3859 C 14.9864,24.6863 17.7301,27.3618 21.1149,27.3618 C 24.4996,27.3618 27.2434,24.6863 27.2434,21.3859 C 27.2434,18.0855 24.4996,15.4100 21.1149,15.4100 M 20.9106,17.0035 C 21.3618,17.0035 21.7277,17.3603 21.7277,17.8003 L 21.7277,20.7883 L 24.7920,20.7883 C 25.2433,20.7883 25.6091,21.1450 25.6091,21.5851 L 25.6091,21.9835 C 25.6091,22.4235 25.2433,22.7803 24.7920,22.7803 L 21.1149,22.7803 C 20.7063,22.7139 20.2977,22.6475 20.0594,22.4151 C 19.8210,22.1827 19.7530,21.7843 19.6849,21.3859 L 19.6849,17.8003 C 19.6849,17.3603 20.0507,17.0035 20.5020,17.0035 L 20.9106,17.0035 M 26.8348,11.8244 C 28.6399,11.8244 30.1034,13.2514 30.1034,15.0116 C 30.1034,15.7709 29.8310,16.4683 29.3764,17.0158 C 28.3106,15.1042 26.5673,13.6037 24.4609,12.8208 C 25.0567,12.2072 25.8999,11.8244 26.8348,11.8244 M 15.3949,11.8245 C 16.3298,11.8245 17.1731,12.2072 17.7689,12.8208 C 15.6624,13.6037 13.9191,15.1042 12.8534,17.0158 C 12.3987,16.4683 12.1264,15.7709 12.1264,15.0116 C 12.1264,13.2514 13.5898,11.8245 15.3949,11.8245 Z " style="fill: var(--icon-color);"/>
  </g>
  <view id="build" viewBox="48 0 48 48"/>
  <g transform="translate(48 0)">
    <path d="M 31.5555,29.4483 L 31.5555,27.8872 C 31.5555,26.8262 30.8996,26.2061 29.7774,26.2061 L 18.6010,26.2061 C 17.0927,26.2061 16.3149,26.8815 16.3149,27.8872 L 16.3149,29.9137 C 16.3149,30.9642 17.0612,31.4897 18.6010,31.4897 L 29.7774,31.4897 C 30.8996,31.4897 31.5555,30.7841 31.5555,29.4483 M 29.5234,29.5684 L 18.3470,29.5684 L 18.3470,28.1274 L 29.5234,28.1274 L 29.5234,29.5684 Z " style="fill: var(--icon-color);"/>
    <path d="M 22.9191,15.1588 L 22.9191,15.6392 L 22.9191,19.7559 L 22.9191,19.7564 L 23.5664,21.4030 L 22.4772,21.4030 L 11.8505,7.4041 L 9.5091,8.7394 L 10.2187,9.9156 L 10.2187,16.1194 L 9.4689,16.1194 L 9.9728,19.4817 L 10.1933,19.4817 L 10.2187,19.4817 L 10.2187,20.4976 C 9.7615,20.6940 9.2535,21.1157 9.2535,21.8732 C 9.2535,22.3819 9.4634,22.7532 9.7701,23.0010 L 7.0152,25.2455 L 7.7935,25.2455 L 10.2335,23.2575 C 10.4545,23.3392 10.6907,23.3843 10.9244,23.3843 C 11.1591,23.3843 11.3923,23.3252 11.6026,23.2181 L 14.2479,25.2455 L 15.0409,25.2455 L 15.0465,25.2388 L 12.0034,22.9068 C 12.2097,22.6719 12.3464,22.3568 12.3464,21.9538 C 12.3464,21.6882 12.1188,21.4736 11.8384,21.4736 C 11.5579,21.4736 11.3304,21.6882 11.3304,21.9538 C 11.3304,22.1263 11.2811,22.2343 11.2166,22.3040 L 11.0774,22.1974 C 10.9824,22.1249 10.8447,22.1258 10.7518,22.2022 L 10.5613,22.3573 C 10.3967,22.2853 10.2697,22.1441 10.2697,21.8737 C 10.2697,21.4394 10.7254,21.3343 10.8113,21.3189 C 11.0561,21.2790 11.2349,21.0792 11.2349,20.8448 L 11.2349,19.4816 L 11.5906,19.4816 L 11.7988,19.4816 L 12.5095,16.1193 L 11.9970,16.1193 L 11.7428,16.1193 L 11.7428,12.6333 L 17.8390,23.7261 L 17.8390,23.8026 L 17.8390,23.9471 L 17.8390,24.2848 L 19.8711,24.2848 L 19.8711,25.2454 L 26.9833,25.2454 L 27.4913,25.2454 L 27.4913,24.2848 L 30.0314,24.2848 L 30.5394,24.2848 L 30.5394,15.1588 L 22.9191,15.1588 M 18.5248,17.6565 L 18.5309,17.6646 L 16.4582,18.9400 L 17.5240,16.3548 L 18.5248,17.6565 M 11.2348,16.1195 L 10.9808,16.1195 L 10.7268,16.1195 L 10.7268,10.8215 L 11.2348,11.7274 L 11.2348,16.1195 M 11.6767,11.2231 L 10.8000,9.6486 L 12.1670,8.7990 L 11.6767,11.2231 M 12.8656,9.7797 L 13.8399,11.3782 L 12.2671,12.3360 L 12.8656,9.7797 M 13.0215,13.2543 L 14.5034,12.3432 L 13.9232,14.8384 L 13.0215,13.2543 M 15.1297,13.1573 L 16.2225,14.6641 L 14.5796,15.6589 L 15.1297,13.1573 M 14.9611,16.8068 L 16.7971,15.6175 L 15.7515,18.2650 L 14.9611,16.8068 M 17.6785,21.3741 L 16.7930,19.8967 L 18.9911,18.4125 L 17.6785,21.3741 M 18.3683,22.4237 L 19.8710,19.3616 L 21.0934,20.9375 L 18.3683,22.4237 M 28.5073,19.9620 L 24.9512,19.9620 L 24.9512,17.0801 L 28.5073,17.0801 L 28.5073,19.9620 Z " style="fill: var(--icon-color);"/>
    <path d="M 7.1706,28.1274 L 6.6626,28.1274 L 6.6626,29.0881 L 14.7909,29.0881 L 14.7909,28.1274 L 13.7749,28.1274 L 13.7749,27.1668 L 13.7749,26.6864 L 14.7909,26.6864 L 14.7909,25.7259 L 6.6626,25.7259 L 6.6626,26.6864 L 7.6787,26.6864 L 7.6787,28.1274 L 7.1706,28.1274 Z " style="fill: var(--icon-color);"/>
  </g>
  <view id="buildings" viewBox="96 0 48 48"/>
  <g transform="translate(96 0)">
    <path d="M 30.6923,30.4977 L 30.6923,16.9768 L 21.5373,16.9768 L 21.5373,7.9628 L 12.3825,7.9628 L 12.3825,30.4977 L 11.0746,30.4977 L 11.0746,32.0000 L 32.0000,32.0000 L 32.0000,30.4977 L 30.6923,30.4977 M 13.6903,9.4652 L 16.3060,9.4652 L 16.3060,12.4698 L 13.6903,12.4698 L 13.6903,9.4652 M 13.6903,13.9721 L 16.3060,13.9721 L 16.3060,16.9768 L 13.6903,16.9768 L 13.6903,13.9721 M 13.6903,18.4791 L 16.3060,18.4791 L 16.3060,21.4836 L 13.6903,21.4836 L 13.6903,18.4791 M 13.6903,22.9860 L 16.3060,22.9860 L 16.3060,25.9905 L 13.6903,25.9905 L 13.6903,22.9860 M 18.9217,30.4977 L 14.9981,30.4977 L 14.9981,27.4931 L 18.9217,27.4931 L 18.9217,30.4977 L 18.9217,30.4977 M 20.2295,25.9905 L 17.6137,25.9905 L 17.6137,22.9861 L 20.2295,22.9861 L 20.2295,25.9905 M 20.2295,21.4836 L 17.6137,21.4836 L 17.6137,18.4791 L 20.2295,18.4791 L 20.2295,21.4836 M 20.2295,16.9768 L 17.6137,16.9768 L 17.6137,13.9721 L 20.2295,13.9721 L 20.2295,16.9768 M 20.2295,12.4698 L 17.6137,12.4698 L 17.6137,9.4652 L 20.2295,9.4652 L 20.2295,12.4698 M 22.8452,18.4791 L 25.4609,18.4791 L 25.4609,21.4836 L 22.8452,21.4836 L 22.8452,18.4791 M 22.8452,22.9860 L 25.4609,22.9860 L 25.4609,25.9905 L 22.8452,25.9905 L 22.8452,22.9860 M 28.0765,30.4977 L 24.1529,30.4977 L 24.1529,27.4931 L 28.0765,27.4931 L 28.0765,30.4977 M 29.3844,25.9905 L 26.7686,25.9905 L 26.7686,22.9861 L 29.3844,22.9861 L 29.3844,25.9905 M 29.3844,21.4836 L 26.7686,21.4836 L 26.7686,18.4791 L 29.3844,18.4791 L 29.3844,21.4836 Z " style="fill: var(--icon-color);"/>
  </g>
  <view id="checking" viewBox="144 0 48 48"/>
  <g transform="translate(144 0)">
    <path d="M 14.2689,0.0000 C 6.3884,0.0000 0.0000,6.3884 0.0000,14.2689 S 6.3884,14.2689 14.2689,14.2689 S 14.2689,-6.3884 14.2689,-14.2689 S 22.1494,0.0000 14.2689,0.0000 Z M 11.5935,23.1869 L 5.6853,15.4951 L 2.6197,-2.7312 L 3.2885,4.1803 L 10.3115,-8.4164 L 1.2820,1.2820 L 11.5935,23.1869 Z " style="fill: var(--icon-color);"/>
  </g>
  <view id="cloud" viewBox="192 0 48 48"/>
  <g transform="translate(192 0)">
    <path d="M 30.6231,23.7216 C 29.9596,22.8365 29.1180,22.2671 28.0990,22.0131 C 28.4231,21.4794 28.5847,20.8950 28.5847,20.2600 C 28.5847,19.3621 28.2884,18.5959 27.6962,17.9607 C 27.1038,17.3256 26.3888,17.0080 25.5514,17.0080 C 24.7930,17.0080 24.1373,17.2705 23.5845,17.7956 C 23.1186,16.5930 22.3778,15.6190 21.3628,14.8738 C 20.3476,14.1287 19.2158,13.7557 17.9676,13.7557 C 16.2929,13.7557 14.8629,14.3912 13.6778,15.6615 C 12.4928,16.9316 11.9004,18.4648 11.9004,20.2602 C 11.9004,20.3871 11.9084,20.5692 11.9241,20.8063 C 11.0078,21.2637 10.2691,21.9560 9.7082,22.8835 C 9.1474,23.8107 8.8669,24.8335 8.8669,25.9515 C 8.8669,27.5182 9.3863,28.8585 10.4251,29.9720 C 11.4639,31.0858 12.7141,31.6427 14.1756,31.6427 L 27.0686,31.6427 C 28.3244,31.6427 29.3969,31.1659 30.2857,30.2135 C 31.1745,29.2608 31.6189,28.1112 31.6189,26.7645 C 31.6188,25.6213 31.2868,24.6065 30.6231,23.7216 Z " style="fill: var(--icon-color);"/>
  </g>
  <view id="code" viewBox="240 0 48 48"/>
  <g transform="translate(240 0)">
    <path d="M 31.6188,21.8434 L 26.3864,15.3517 C 26.2236,15.1499 25.9358,15.1499 25.7731,15.3517 L 24.6387,16.7592 C 24.4692,16.9693 24.4692,17.3101 24.6387,17.5203 L 28.4301,22.2236 L 24.6388,26.9278 C 24.4694,27.1380 24.4694,27.4787 24.6388,27.6890 L 25.7732,29.0963 C 25.8546,29.1973 25.9650,29.2543 26.0800,29.2543 C 26.1948,29.2543 26.3054,29.1973 26.3868,29.0963 L 31.6188,22.6050 C 31.7882,22.3946 31.7882,22.0535 31.6188,21.8434 Z " style="fill: var(--icon-color);"/>
    <path d="M 18.3507,26.9278 L 14.5599,22.2242 L 18.3514,17.5208 C 18.4328,17.4199 18.4785,17.2832 18.4785,17.1402 C 18.4785,16.9975 18.4330,16.8606 18.3514,16.7596 L 17.2170,15.3523 C 17.1356,15.2514 17.0252,15.1946 16.9102,15.1946 C 16.7953,15.1946 16.6848,15.2514 16.6035,15.3523 L 11.3708,21.8433 C 11.2014,22.0535 11.2014,22.3943 11.3708,22.6048 L 16.6033,29.0960 C 16.6847,29.1970 16.7950,29.2540 16.9100,29.2540 C 17.0250,29.2540 17.1355,29.1970 17.2168,29.0960 L 18.3512,27.6886 C 18.5206,27.4787 18.5206,27.1380 18.3507,26.9278 Z " style="fill: var(--icon-color);"/>
    <path d="M 24.4703,13.1678 C 24.4152,13.0424 24.3224,12.9493 24.2121,12.9090 L 23.2925,12.5723 C 23.0630,12.4877 22.8213,12.6511 22.7536,12.9361 L 18.4844,30.8730 C 18.4518,31.0100 18.4644,31.1572 18.5193,31.2824 C 18.5742,31.4080 18.6673,31.5009 18.7775,31.5416 L 19.6971,31.8783 C 19.7381,31.8933 19.7795,31.9006 19.8201,31.9006 C 20.0073,31.9006 20.1803,31.7488 20.2360,31.5143 L 24.5052,13.5772 C 24.5378,13.4403 24.5254,13.2930 24.4703,13.1678 Z " style="fill: var(--icon-color);"/>
  </g>
  <view id="components" viewBox="288 0 48 48"/>
  <g transform="translate(288 0)">
    <path d="M 15.3341,28.0171 L 15.3341,20.3306 L 21.7064,24.0194 L 21.7064,31.7155 L 15.3341,28.0171 Z " style="fill: var(--icon-color);"/>
    <path d="M 29.0590,20.3306 L 29.0590,28.0171 L 22.6867,31.7155 L 22.6867,24.0194 L 29.0590,20.3306 Z " style="fill: var(--icon-color);"/>
    <path d="M 22.1965,15.1166 L 28.9364,19.0892 L 22.1965,23.0617 L 15.4566,19.0892 L 22.1965,15.1166 M 13.8636,29.2688 L 17.5437,31.4379 L 16.5902,32.0000 L 16.5212,32.0000 L 12.3931,29.5668 L 12.3931,17.5498 L 16.5212,15.1167 L 16.5902,15.1167 L 17.5437,15.6786 L 13.8636,17.8478 L 13.8636,29.2688 M 30.5294,29.2688 L 30.5295,17.8478 L 26.8493,15.6786 L 27.8029,15.1166 L 27.8717,15.1166 L 32.0000,17.5498 L 31.9999,29.5668 L 27.8717,32.0000 L 27.8029,32.0000 L 26.8493,31.4379 L 30.5294,29.2688 Z " style="fill: var(--icon-color);"/>
  </g>
  <view id="connection" viewBox="0 48 48 48"/>
  <g transform="translate(0 48)">
    <path d="M 22.8347,23.4406 L 22.8346,27.3061 L 24.9912,27.3061 C 25.5868,27.3061 26.0695,27.8005 26.0695,28.4105 L 26.0695,30.6195 C 26.0695,31.2294 25.5867,31.7239 24.9912,31.7239 L 18.5216,31.7239 C 17.9260,31.7239 17.4433,31.2294 17.4433,30.6195 L 17.4433,28.4105 C 17.4433,27.8005 17.9260,27.3061 18.5216,27.3061 L 20.6781,27.3061 L 20.6781,23.4406 L 22.8347,23.4406 M 26.6086,28.4105 L 32.0000,28.4105 L 32.0000,30.6195 L 26.6086,30.6195 L 26.6086,28.4105 M 16.9042,28.4105 L 16.9042,30.6195 L 11.5127,30.6195 L 11.5127,28.4105 L 16.9042,28.4105 M 11.5127,11.2916 L 32.0000,11.2916 L 32.0000,16.2615 L 11.5127,16.2615 L 11.5127,11.2916 M 30.9217,12.3960 L 29.8435,12.3960 L 29.8435,15.1571 L 30.9217,15.1571 L 30.9217,12.3960 M 28.7652,12.3960 L 27.6869,12.3960 L 27.6869,15.1571 L 28.7652,15.1571 L 28.7652,12.3960 M 26.6086,12.3960 L 25.5304,12.3960 L 25.5304,15.1571 L 26.6086,15.1571 L 26.6086,12.3960 M 12.5910,14.0527 L 12.5910,15.1571 L 13.6693,15.1571 L 13.6693,14.0527 L 12.5910,14.0527 M 11.5127,17.3661 L 32.0000,17.3661 L 32.0000,22.3360 L 11.5127,22.3360 L 11.5127,17.3661 M 30.9217,18.4705 L 29.8435,18.4705 L 29.8435,21.2316 L 30.9217,21.2316 L 30.9217,18.4705 M 28.7652,18.4705 L 27.6869,18.4705 L 27.6869,21.2316 L 28.7652,21.2316 L 28.7652,18.4705 M 26.6086,18.4705 L 25.5304,18.4705 L 25.5304,21.2316 L 26.6086,21.2316 L 26.6086,18.4705 M 12.5910,20.1272 L 12.5910,21.2316 L 13.6693,21.2316 L 13.6693,20.1272 L 12.5910,20.1272 Z " style="fill: var(--icon-color);"/>
  </g>
  <view id="datalogging" viewBox="48 48 48 48"/>
  <g transform="translate(48 48)">
    <path d="M 14.6832,20.2586 L 23.6255,20.2586 L 21.9223,22.1626 L 15.2510,22.1626 L 15.2510,29.7787 L 30.0129,29.7787 L 30.0129,22.1626 L 27.0321,22.1626 L 28.7354,20.2586 L 30.5807,20.2586 C 31.2078,20.2586 31.7161,20.8269 31.7161,21.5280 L 31.7161,30.4133 C 31.7161,31.1143 31.2078,31.6827 30.5807,31.6827 L 14.6832,31.6827 C 14.0561,31.6827 13.5478,31.1143 13.5478,30.4133 L 13.5478,21.5280 C 13.5478,20.8269 14.0561,20.2586 14.6832,20.2586 M 28.7502,17.2274 C 28.9091,17.4165 28.9886,17.6202 28.9886,17.8387 L 28.9274,18.1603 L 28.7502,18.4500 L 25.3446,22.2569 L 24.4849,23.2178 L 23.6604,24.1396 L 22.9222,24.9648 L 22.3076,25.6481 L 21.8668,26.1371 L 21.6481,26.3816 L 21.2927,26.7447 L 20.7895,27.1885 L 20.2395,27.5625 C 20.0529,27.6669 19.8866,27.7190 19.7408,27.7190 C 19.6270,27.7190 19.5359,27.6808 19.4673,27.6041 C 19.3988,27.5275 19.3646,27.4232 19.3646,27.2912 C 19.3646,27.1282 19.4112,26.9436 19.5046,26.7373 L 19.8392,26.1224 L 20.2330,25.5601 L 20.5544,25.1664 L 27.6565,17.2274 L 27.9158,17.0294 L 28.2034,16.9609 C 28.3988,16.9609 28.5810,17.0498 28.7502,17.2274 M 18.9205,27.6041 L 19.4673,28.2154 L 18.3737,28.8267 L 18.9205,27.6041 Z " style="fill: var(--icon-color);"/>
  </g>
  <view id="datasources" viewBox="96 48 48 48"/>
  <g transform="translate(96 48)">
    <path d="M 22.1805,13.4129 C 26.5190,13.4129 30.0361,14.3611 30.0361,15.5325 L 30.0361,16.4719 C 30.0361,17.6415 26.5190,18.5898 22.1805,18.5898 C 17.8420,18.5898 14.3249,17.6415 14.3249,16.4719 L 14.3249,15.5307 C 14.3249,14.3611 17.8420,13.4129 22.1805,13.4129 M 30.0361,29.1788 C 30.0361,30.3484 26.5190,31.2967 22.1805,31.2967 C 17.8420,31.2967 14.3249,30.3484 14.3249,29.1788 L 14.3249,26.3551 C 14.3249,27.5248 17.8420,28.4729 22.1805,28.4729 C 26.5168,28.4729 30.0324,27.5257 30.0361,26.3569 L 30.0361,29.1788 M 30.0361,24.9432 C 30.0361,26.1129 26.5190,27.0610 22.1805,27.0610 C 17.8420,27.0610 14.3249,26.1129 14.3249,24.9432 L 14.3249,22.1195 C 14.3249,23.2891 17.8420,24.2373 22.1805,24.2373 C 26.5168,24.2373 30.0324,23.2901 30.0361,22.1212 L 30.0361,24.9432 M 30.0361,20.7076 C 30.0361,21.8772 26.5190,22.8254 22.1805,22.8254 C 17.8420,22.8254 14.3249,21.8772 14.3249,20.7076 L 14.3249,17.8838 C 14.3249,19.0534 17.8420,20.0016 22.1805,20.0016 C 26.5168,20.0016 30.0324,19.0545 30.0361,17.8856 L 30.0361,20.7076 Z " style="fill: var(--icon-color);"/>
  </g>
  <view id="download" viewBox="144 48 48 48"/>
  <g transform="translate(144 48)">
    <path d="M 18.1961,29.7207 L 32.0000,29.7207 L 32.0000,32.0000 L 18.1961,32.0000 L 18.1961,29.7207 M 23.5053,13.3097 L 26.6908,13.3097 L 26.6908,22.6549 L 30.9381,18.3242 L 30.9381,22.6549 L 25.0980,28.3531 L 19.2579,22.6549 L 19.2579,18.3242 L 23.5053,22.6549 L 23.5053,13.3097 Z " style="fill: var(--icon-color);"/>
  </g>
  <view id="drawer" viewBox="192 48 48 48"/>
  <g transform="translate(192 48)">
    <path d="M 31.8608,16.9203 C 31.8608,17.2193 31.6116,17.4618 31.3041,17.4618 L 11.8970,17.4618 C 11.5895,17.4618 11.3403,17.2193 11.3403,16.9203 L 11.3403,15.4506 C 11.3403,15.1516 11.5895,14.9091 11.8970,14.9091 L 31.3041,14.9091 C 31.6116,14.9091 31.8608,15.1516 31.8608,15.4506 L 31.8608,16.9203 M 31.7018,31.3231 C 31.7018,31.6222 31.4526,31.8646 31.1450,31.8646 L 15.0785,31.8646 C 14.7710,31.8646 14.5218,31.6222 14.5218,31.3231 L 14.5218,29.8534 C 14.5218,29.5545 14.7710,29.3119 15.0785,29.3119 L 31.1450,29.3119 C 31.4526,29.3119 31.7018,29.5545 31.7018,29.8534 L 31.7018,31.3231 M 31.8608,21.7215 C 31.8608,22.0206 31.6116,22.2629 31.3041,22.2629 L 19.2940,22.2629 C 18.9865,22.2629 18.7372,22.0206 18.7372,21.7215 L 18.7372,20.2518 C 18.7372,19.9527 18.9865,19.7104 19.2940,19.7104 L 31.3041,19.7104 C 31.6116,19.7104 31.8608,19.9527 31.8608,20.2518 L 31.8608,21.7215 M 31.7018,26.5543 C 31.7018,26.8534 31.4526,27.0958 31.1450,27.0958 L 21.9983,27.0958 C 21.6908,27.0958 21.4415,26.8534 21.4415,26.5543 L 21.4415,25.0848 C 21.4415,24.7857 21.6908,24.5433 21.9983,24.5433 L 31.1450,24.5433 C 31.4526,24.5433 31.7018,24.7857 31.7018,25.0848 L 31.7018,26.5543 Z " style="fill: var(--icon-color);"/>
  </g>
  <view id="error" viewBox="240 48 48 48"/>
  <g transform="translate(240 48)">
    <path d="M 20.5780,11.6208 C 15.8426,11.6208 12.0036,15.5332 12.0036,20.3593 C 12.0036,25.1852 15.8425,29.0980 20.5779,29.0980 C 25.3132,29.0980 29.1525,25.1852 29.1525,20.3593 C 29.1525,15.5332 25.3133,11.6208 20.5780,11.6208 M 23.8125,23.6899 C 23.4701,24.0385 22.9155,24.0385 22.5735,23.6899 L 20.6224,21.7015 L 18.5825,23.7805 C 18.2404,24.1290 17.6857,24.1290 17.3437,23.7805 C 17.0013,23.4314 17.0013,22.8663 17.3437,22.5174 L 19.3834,20.4386 L 17.4842,18.5032 C 17.1422,18.1542 17.1422,17.5892 17.4842,17.2404 C 17.8264,16.8916 18.3811,16.8916 18.7234,17.2404 L 20.6224,19.1758 L 22.4329,17.3306 C 22.7751,16.9820 23.3300,16.9818 23.6719,17.3306 C 24.0142,17.6796 24.0142,18.2451 23.6719,18.5935 L 21.8617,20.4386 L 23.8126,22.4270 C 24.1547,22.7756 24.1548,23.3411 23.8125,23.6899 Z " style="fill: var(--icon-color);"/>
  </g>
  <view id="explorer" viewBox="288 48 48 48"/>
  <g transform="translate(288 48)">
    <path d="M 12.1380,18.4654 L 32.0000,18.4654 L 32.0000,32.0000 L 12.1380,32.0000 L 12.1380,18.4654 M 29.7301,17.1118 L 21.2178,17.1118 C 21.7853,15.0816 22.6365,14.4049 22.6365,14.4049 L 29.0208,14.4048 C 29.3342,14.4048 29.7301,14.8770 29.7301,15.2508 L 29.7301,17.1118 Z " style="fill: var(--icon-color);"/>
  </g>
  <view id="flow" viewBox="0 96 48 48"/>
  <g transform="translate(0 96)">
    <path d="M 13.1730,20.1500 L 17.8798,20.1500 L 17.8798,21.7300 L 18.6643,21.7300 C 19.4488,21.2033 21.0176,20.6766 21.8892,19.6013 C 22.7608,18.5260 23.7196,16.9022 24.6348,15.9805 C 25.5487,15.0602 26.4193,14.8400 27.2897,14.6208 L 27.2897,13.0383 L 31.9964,13.0383 L 31.9964,17.7783 L 27.2897,17.7783 L 27.2897,16.2008 C 26.4374,16.4200 25.5851,16.6402 24.6768,17.5605 C 23.7670,18.4822 22.8009,20.1060 21.9202,21.1813 L 21.4351,21.7300 L 27.2933,21.7300 L 27.2933,20.1500 L 32.0000,20.1500 L 32.0000,24.8900 L 27.2933,24.8900 L 27.2933,23.3100 L 21.4352,23.3100 C 21.5942,23.4761 21.7557,23.6578 21.9202,23.8586 C 22.8009,24.9339 23.7670,26.5577 24.6768,27.4794 C 25.5865,28.4011 26.4399,28.6205 27.2933,28.8399 L 27.2933,27.2599 L 32.0000,27.2599 L 32.0000,32.0000 L 27.2933,32.0000 L 27.2933,30.4200 C 26.4216,30.2005 25.5500,29.9811 24.6348,29.0594 C 23.7196,28.1378 22.7608,26.5139 21.8892,25.4386 C 21.0176,24.3633 19.4488,23.8366 18.6643,23.3100 L 17.8798,23.3100 L 17.8798,24.8900 L 13.1730,24.8900 L 13.1730,20.1500 Z " style="fill: var(--icon-color);"/>
  </g>
  <view id="gears" viewBox="48 96 48 48"/>
  <g transform="translate(48 96)">
    <path d="M 24.4055,24.5728 C 24.4560,24.0304 24.4408,23.4900 24.3642,22.9623 L 25.5560,22.4186 C 25.4435,21.8278 25.2663,21.2449 25.0209,20.6808 C 24.7754,20.1172 24.4704,19.5927 24.1170,19.1114 L 22.9244,19.6547 C 22.5925,19.2439 22.2102,18.8711 21.7825,18.5461 L 22.2500,17.2997 C 21.7617,16.9635 21.2340,16.6796 20.6707,16.4584 C 20.1097,16.2379 19.5335,16.0855 18.9476,16.0011 L 18.4796,17.2488 C 17.9495,17.1972 17.4213,17.2128 16.9057,17.2912 L 16.3776,16.0775 C 15.1979,16.3147 14.0954,16.8268 13.1490,17.5584 L 13.6736,18.7642 C 13.2713,19.1039 12.9070,19.4955 12.5896,19.9328 L 11.3746,19.4559 C 11.0431,19.9544 10.7651,20.4948 10.5486,21.0709 C 10.3340,21.6469 10.1870,22.2382 10.1045,22.8338 L 11.3226,23.3124 C 11.2722,23.8547 11.2875,24.3952 11.3641,24.9228 L 10.1722,25.4661 C 10.2848,26.0574 10.4618,26.6398 10.7073,27.2039 C 10.9532,27.7680 11.2577,28.2921 11.6115,28.7733 L 12.8034,28.2301 C 13.1353,28.6413 13.5176,29.0142 13.9457,29.3391 L 13.4781,30.5863 C 13.9664,30.9228 14.4942,31.2065 15.0574,31.4276 C 15.6184,31.6481 16.1947,31.8005 16.7807,31.8850 L 17.2486,30.6371 C 17.7786,30.6883 18.3067,30.6727 18.8224,30.5943 L 19.3505,31.8077 C 20.5303,31.5705 21.6335,31.0584 22.5796,30.3267 L 22.0545,29.1210 C 22.4565,28.7813 22.8211,28.3901 23.1385,27.9524 L 24.3528,28.4292 C 24.6843,27.9308 24.9622,27.3904 25.1788,26.8147 C 25.3949,26.2386 25.5416,25.6470 25.6240,25.0509 L 24.4055,24.5728 M 21.1676,25.2398 C 20.4674,27.1072 18.4209,28.0393 16.5958,27.3228 C 14.7729,26.6067 13.8609,24.5128 14.5606,22.6459 C 15.2607,20.7788 17.3072,19.8467 19.1313,20.5624 C 20.9556,21.2785 21.8672,23.3731 21.1676,25.2398 Z " style="fill: var(--icon-color);"/>
    <path d="M 31.0051,14.5924 C 31.0030,14.3508 30.9766,14.1146 30.9332,13.8854 L 31.8420,13.3356 C 31.6131,12.4772 31.1667,11.7111 30.5604,11.1087 L 29.6494,11.6597 C 29.2972,11.3571 28.8901,11.1214 28.4458,10.9661 L 28.4361,9.8849 C 28.0316,9.7760 27.6085,9.7157 27.1711,9.7203 C 26.7335,9.7251 26.3120,9.7952 25.9091,9.9119 L 25.9188,10.9935 C 25.4773,11.1583 25.0748,11.4029 24.7277,11.7127 L 23.8066,11.1813 C 23.2119,11.7965 22.7791,12.5720 22.5650,13.4353 L 23.4838,13.9655 C 23.4445,14.1960 23.4220,14.4318 23.4241,14.6737 C 23.4262,14.9158 23.4530,15.1515 23.4965,15.3808 L 22.5873,15.9304 C 22.8166,16.7889 23.2633,17.5554 23.8688,18.1574 L 24.7799,17.6064 C 25.1325,17.9091 25.5392,18.1448 25.9835,18.3000 L 25.9932,19.3818 C 26.3980,19.4902 26.8207,19.5508 27.2582,19.5461 C 27.6957,19.5415 28.1181,19.4714 28.5201,19.3547 L 28.5104,18.2731 C 28.9520,18.1083 29.3547,17.8636 29.7016,17.5539 L 30.6223,18.0852 C 31.2177,17.4700 31.6502,16.6945 31.8638,15.8313 L 30.9454,15.3010 C 30.9852,15.0703 31.0073,14.8344 31.0051,14.5924 M 27.2314,16.4433 C 26.2541,16.4538 25.4544,15.6518 25.4455,14.6522 C 25.4366,13.6526 26.2218,12.8333 27.1991,12.8229 C 28.1752,12.8124 28.9748,13.6144 28.9837,14.6140 C 28.9927,15.6136 28.2075,16.4329 27.2314,16.4433 Z " style="fill: var(--icon-color);"/>
  </g>
  <view id="help" viewBox="96 96 48 48"/>
  <g transform="translate(96 96)">
    <path d="M 20.9914,21.9133 L 18.7098,21.9133 C 18.7098,19.5810 20.0788,18.8814 20.9914,18.4150 C 21.3337,18.2983 21.5618,18.1817 21.7899,17.9484 C 21.9041,17.8319 22.1322,17.5987 21.9041,17.1322 C 21.6759,16.5491 20.9914,15.9661 19.9647,15.9661 C 18.3677,15.9661 18.1395,17.3654 18.0254,17.7153 L 15.7438,17.3654 C 15.8579,16.0827 16.8846,13.6339 19.8507,13.6339 C 21.6759,13.6339 23.2730,14.6834 23.9574,16.1993 C 24.4137,17.4821 24.1856,18.7647 23.2730,19.6976 C 22.8167,20.1640 22.3604,20.3973 21.9041,20.5139 C 21.2195,20.9803 20.9914,20.7471 20.9914,21.9133 Z " style="fill: var(--icon-color);"/>
    <path d="M 19.8507,11.4183 C 24.2997,11.4183 27.8359,15.0332 27.8359,19.5810 C 27.8359,24.1287 24.2997,27.7437 19.8507,27.7437 C 15.4016,27.7437 11.8652,24.1287 11.8652,19.5810 C 11.8652,15.0332 15.4016,11.4183 19.8507,11.4183 M 19.8507,10.2522 C 14.8312,10.2522 10.7244,14.4502 10.7244,19.5810 C 10.7244,24.7119 14.8312,28.9098 19.8507,28.9098 C 24.8701,28.9098 28.9769,24.7119 28.9769,19.5810 C 28.9769,14.4502 24.8701,10.2522 19.8507,10.2522 Z " style="fill: var(--icon-color);"/>
    <path d="M 18.5958,23.0793 L 20.8774,23.0793 L 20.8774,25.4115 L 18.5958,25.4115 L 18.5958,23.0793 Z " style="fill: var(--icon-color);"/>
  </g>
  <view id="home" viewBox="144 96 48 48"/>
  <g transform="translate(144 96)">
    <path d="M 14.9700,32.0000 L 14.9700,22.0042 L 13.9378,23.1148 L 12.3897,20.3382 L 22.1949,12.0083 L 25.8073,15.0772 L 25.8073,12.9801 L 27.8715,12.5636 L 27.8715,16.8309 L 32.0000,20.3382 L 30.4518,23.1148 L 29.4198,22.0042 L 29.4198,32.0000 L 14.9700,32.0000 M 22.1949,15.8493 L 16.5182,20.8935 L 16.5182,30.3340 L 19.6145,30.3340 L 19.6145,24.2256 L 24.7751,24.2256 L 24.7751,30.3340 L 27.8715,30.3340 L 27.8715,20.8935 L 22.1949,15.8493 Z " style="fill: var(--icon-color);"/>
  </g>
  <view id="information" viewBox="192 96 48 48"/>
  <g transform="translate(192 96)">
    <path d="M 24.9394,12.4239 C 21.5682,9.0899 16.1023,9.0895 12.7307,12.4239 C 9.3595,15.7583 9.3598,21.1646 12.7307,24.4994 C 16.1019,27.8330 21.5678,27.8334 24.9394,24.4994 C 28.3102,21.1646 28.3099,15.7587 24.9394,12.4239 M 19.9607,22.1739 C 19.9607,22.7891 19.4566,23.2876 18.8347,23.2876 C 18.2128,23.2876 17.7087,22.7891 17.7087,22.1739 L 17.7087,17.7192 C 17.7087,17.1040 18.2128,16.6055 18.8347,16.6055 C 19.4566,16.6055 19.9607,17.1040 19.9607,17.7192 L 19.9607,22.1739 M 18.8148,15.8155 C 18.1662,15.8155 17.7338,15.3611 17.7473,14.8002 C 17.7338,14.2121 18.1662,13.7715 18.8279,13.7715 C 19.4900,13.7715 19.9089,14.2125 19.9228,14.8002 C 19.9224,15.3611 19.4903,15.8155 18.8148,15.8155 Z " style="fill: var(--icon-color);"/>
  </g>
  <view id="language" viewBox="240 96 48 48"/>
  <g transform="translate(240 96)">
    <path d="M 20.4281,24.0818 L 20.4281,23.3335 C 20.0041,23.0488 19.6031,22.7108 19.2334,22.3100 C 18.1627,23.3287 17.1378,23.9738 17.0221,24.0462 L 16.9246,24.1054 L 16.3345,23.1769 L 16.4308,23.1164 C 16.4429,23.1081 17.4858,22.4571 18.5397,21.4407 C 17.5726,20.0519 17.2004,18.6525 17.1859,18.5921 L 17.1583,18.4853 L 18.2361,18.2126 L 18.2627,18.3205 C 18.2650,18.3324 18.5722,19.4519 19.3189,20.6046 C 20.0572,19.7211 20.4871,18.8696 20.5967,18.0667 L 16.0695,18.0667 L 16.0695,16.8749 L 18.5649,16.8749 L 18.5649,16.2119 L 19.7283,16.2119 L 19.7283,16.8737 L 22.2238,16.8737 L 22.2238,18.0667 L 21.7216,18.0667 C 21.6048,19.1827 21.0291,20.3389 20.0066,21.5071 C 20.1439,21.6589 20.2848,21.7976 20.4281,21.9305 L 20.4281,21.8534 L 20.4281,21.3695 C 20.4281,20.9710 20.7557,20.6485 21.1604,20.6485 L 24.4182,20.6485 L 24.4182,14.9750 C 24.4182,14.8753 24.3376,14.7947 24.2351,14.7947 L 13.7053,14.7947 C 13.6041,14.7947 13.5222,14.8753 13.5222,14.9750 L 13.5222,25.3424 C 13.5222,25.4433 13.6041,25.5227 13.7053,25.5227 L 20.4281,25.5227 L 20.4281,24.0818 Z " style="fill: var(--icon-color);"/>
    <path d="M 26.4427,24.3984 L 26.4223,24.3984 C 26.3212,24.7933 26.2224,25.2937 26.1115,25.6768 L 25.7117,27.0846 L 27.2003,27.0846 L 26.7824,25.6768 C 26.6620,25.2831 26.5416,24.7922 26.4427,24.3984 Z " style="fill: var(--icon-color);"/>
    <path d="M 31.7710,21.2272 L 21.2423,21.2272 C 21.1411,21.2272 21.0592,21.3078 21.0592,21.4075 L 21.0592,31.7761 C 21.0592,31.8757 21.1411,31.9552 21.2423,31.9552 L 31.7710,31.9552 C 31.8733,31.9552 31.9542,31.8757 31.9542,31.7761 L 31.9542,21.4075 C 31.9542,21.3091 31.8733,21.2272 31.7710,21.2272 M 27.9409,29.9071 L 27.4219,28.2041 L 25.4937,28.2041 L 25.0132,29.9071 L 23.4354,29.9071 L 25.4937,23.2777 L 27.4906,23.2777 L 29.5778,29.9071 L 27.9409,29.9071 Z " style="fill: var(--icon-color);"/>
  </g>
  <view id="languages" viewBox="288 96 48 48"/>
  <g transform="translate(288 96)">
    <path d="M 18.0082,13.7676 L 18.8193,13.7676 C 19.2672,13.7676 19.6304,14.1041 19.6304,14.5194 L 19.6304,31.0602 C 19.6304,31.4754 19.2672,31.8120 18.8193,31.8120 L 18.0082,31.8120 C 17.5602,31.8120 17.1970,31.4754 17.1970,31.0602 L 17.1970,14.5194 C 17.1970,14.1041 17.5602,13.7676 18.0082,13.7676 M 20.4415,16.0231 C 21.2526,15.5219 22.0638,15.0207 23.4157,15.1460 C 24.7675,15.2713 26.6601,16.0232 28.1472,16.0232 C 29.6343,16.0232 30.7157,15.2713 31.7972,14.5194 L 31.7972,21.2860 C 30.7157,22.0379 29.6343,22.7897 28.1472,22.7897 C 26.6601,22.7897 24.7675,22.0379 23.4157,21.9125 C 22.0638,21.7873 21.2526,22.2884 20.4415,22.7897 L 20.4415,16.0231 Z " style="fill: var(--icon-color);"/>
  </g>
  <view id="loading" viewBox="0 144 48 48"/>
  <g transform="translate(0 144)">
    <path d="M 18.5273,6.1141 L 20.1030,6.1141 L 20.1030,14.2035 L 18.5273,14.2035 L 18.5273,6.1141 Z " style="fill: var(--icon-color);"/>
    <path d="M 24.9464,7.4033 L 26.3110,8.2122 L 22.3716,15.2178 L 21.0070,14.4088 L 24.9464,7.4033 Z " style="fill: var(--icon-color);"/>
    <path d="M 29.8777,11.8150 L 30.6656,13.2161 L 23.8424,17.2608 L 23.0545,15.8597 L 29.8777,11.8150 Z " style="fill: var(--icon-color);"/>
    <path d="M 32.0000,18.1673 L 32.0000,19.7851 L 24.1212,19.7851 L 24.1212,18.1673 L 32.0000,18.1673 Z " style="fill: var(--icon-color);"/>
    <path d="M 30.7444,24.7579 L 29.9565,26.1590 L 23.1333,22.1144 L 23.9212,20.7133 L 30.7444,24.7579 Z " style="fill: var(--icon-color);"/>
    <path d="M 26.4475,29.8211 L 25.0829,30.6300 L 21.1435,23.6244 L 22.5081,22.8155 L 26.4475,29.8211 Z " style="fill: var(--icon-color);"/>
    <path d="M 20.2606,32.0000 L 18.6848,32.0000 L 18.6848,23.9107 L 20.2606,23.9107 L 20.2606,32.0000 Z " style="fill: var(--icon-color);"/>
    <path d="M 13.8415,30.7109 L 12.4768,29.9020 L 16.4162,22.8964 L 17.7808,23.7053 L 13.8415,30.7109 Z " style="fill: var(--icon-color);"/>
    <path d="M 8.9101,26.2992 L 8.1223,24.8981 L 14.9455,20.8534 L 15.7333,22.2545 L 8.9101,26.2992 Z " style="fill: var(--icon-color);"/>
    <path d="M 6.7879,19.9469 L 6.7879,18.3290 L 14.6667,18.3290 L 14.6667,19.9469 L 6.7879,19.9469 Z " style="fill: var(--icon-color);"/>
    <path d="M 8.0434,13.3562 L 8.8314,11.9551 L 15.6545,15.9998 L 14.8667,17.4009 L 8.0434,13.3562 Z " style="fill: var(--icon-color);"/>
    <path d="M 12.3404,8.2931 L 13.7050,7.4841 L 17.6444,14.4897 L 16.2798,15.2986 L 12.3404,8.2931 Z " style="fill: var(--icon-color);"/>
  </g>
  <view id="more" viewBox="48 144 48 48"/>
  <g transform="translate(48 144)">
    <path d="M 21.5081,25.9170 C 20.4197,25.9170 19.5405,27.0825 19.5405,28.5250 C 19.5405,29.9676 20.4197,31.1330 21.5081,31.1330 C 22.5964,31.1330 23.4756,29.9676 23.4756,28.5250 C 23.4756,27.0825 22.5964,25.9170 21.5081,25.9170 Z " style="fill: var(--icon-color);"/>
    <path d="M 13.6624,25.9170 C 12.5740,25.9170 11.6948,27.0825 11.6948,28.5250 C 11.6948,29.9676 12.5740,31.1330 13.6624,31.1330 C 14.7507,31.1330 15.6299,29.9676 15.6299,28.5250 C 15.6299,27.0825 14.7445,25.9170 13.6624,25.9170 Z " style="fill: var(--icon-color);"/>
    <path d="M 29.3784,25.9170 C 28.2900,25.9170 27.4108,27.0825 27.4108,28.5250 C 27.4108,29.9676 28.2900,31.1330 29.3784,31.1330 C 30.4667,31.1330 31.3459,29.9676 31.3459,28.5250 C 31.3459,27.0825 30.4667,25.9170 29.3784,25.9170 Z " style="fill: var(--icon-color);"/>
  </g>
  <view id="moreV" viewBox="96 144 48 48"/>
  <g transform="translate(96 144)">
    <path d="M 28.1432,17.8752 C 26.5498,17.8752 25.2461,16.8712 25.2461,15.6442 C 25.2461,14.4172 26.5498,13.4132 28.1432,13.4132 C 29.7366,13.4132 31.0403,14.4172 31.0403,15.6442 C 31.0403,16.8712 29.7366,17.8752 28.1432,17.8752 M 28.1432,20.1061 C 29.7366,20.1061 31.0403,21.1101 31.0403,22.3371 C 31.0403,23.5641 29.7366,24.5681 28.1432,24.5681 C 26.5498,24.5681 25.2461,23.5641 25.2461,22.3371 C 25.2461,21.1101 26.5498,20.1061 28.1432,20.1061 M 28.1432,26.7991 C 29.7366,26.7991 31.0403,27.8030 31.0403,29.0300 C 31.0403,30.2570 29.7366,31.2610 28.1432,31.2610 C 26.5498,31.2610 25.2461,30.2570 25.2461,29.0300 C 25.2461,27.8030 26.5498,26.7991 28.1432,26.7991 Z " style="fill: var(--icon-color);"/>
  </g>
  <view id="notification" viewBox="144 144 48 48"/>
  <g transform="translate(144 144)">
    <path d="M 11.7407,26.9900 L 11.7407,13.7466 L 32.0000,13.7466 L 32.0000,26.9900 L 24.6856,26.9900 L 21.8704,32.0000 L 19.0551,26.9900 " style="fill: var(--icon-color);"/>
  </g>
  <view id="notifications" viewBox="192 144 48 48"/>
  <g transform="translate(192 144)">
    <path d="M 11.3898,15.8840 L 30.0828,15.8840 L 30.0828,27.2600 L 25.2897,27.2600 L 20.7363,32.0000 L 16.1829,27.2600 L 11.3898,27.2600 L 11.3898,15.8840 M 12.8278,15.4100 L 12.8278,13.9880 L 32.0000,13.9880 L 32.0000,25.8380 L 30.5621,25.7985 L 30.5621,15.4100 L 12.8278,15.4100 Z " style="fill: var(--icon-color);"/>
  </g>
  <view id="pages" viewBox="240 144 48 48"/>
  <g transform="translate(240 144)">
    <path d="M 17.5630,14.9653 L 22.8640,14.9653 L 22.4129,14.5285 L 16.2095,14.5285 L 16.2095,28.0689 L 17.5630,28.0689 L 17.5630,14.9653 M 26.2477,14.9653 L 32.0000,20.5343 L 32.0000,32.0000 L 17.5630,32.0000 L 17.5630,29.8161 L 14.4048,29.8161 L 14.4048,12.7813 L 23.0896,12.7813 L 25.3455,14.9653 L 26.2477,14.9653 M 19.3675,16.7124 L 19.3675,30.2529 L 30.1953,30.2529 L 30.1953,22.3907 L 24.3303,22.3907 L 24.3303,16.7124 L 19.3675,16.7124 M 26.1349,17.2584 L 26.1349,20.6435 L 29.6314,20.6435 L 26.1349,17.2584 Z " style="fill: var(--icon-color);"/>
  </g>
  <view id="project" viewBox="288 144 48 48"/>
  <g transform="translate(288 144)">
    <path d="M 13.9467,21.9429 L 13.9467,13.4736 L 16.2034,13.4736 L 16.2034,12.4151 L 18.4600,12.4151 L 18.4600,11.8857 L 26.4711,11.8857 L 31.0973,17.3113 L 31.0973,21.9429 L 32.0000,21.9429 L 32.0000,32.0000 L 31.8119,32.0000 L 13.2320,32.0000 L 13.0440,32.0000 L 13.0440,21.9429 L 13.9467,21.9429 M 16.2034,21.9429 L 16.2034,15.0617 L 15.3007,15.0617 L 15.3007,21.9429 L 16.2034,21.9429 M 17.5573,14.0030 L 17.5573,21.9429 L 18.4600,21.9429 L 18.4600,14.0030 L 17.5573,14.0030 M 24.7787,26.1775 L 24.7787,27.7654 L 20.2653,27.7654 L 20.2653,26.1775 L 24.7787,26.1775 M 29.7433,21.9429 L 29.7433,19.2963 L 24.7787,19.2963 L 24.7787,13.4736 L 19.8140,13.4736 L 19.8140,21.9429 L 29.7433,21.9429 M 26.1326,13.8707 L 26.1326,17.7083 L 29.4048,17.7083 L 26.1326,13.8707 M 14.8493,24.0602 L 14.8493,29.8827 L 30.1947,29.8827 L 30.1947,24.0602 L 14.8493,24.0602 Z " style="fill: var(--icon-color);"/>
  </g>
  <view id="properties" viewBox="0 192 48 48"/>
  <g transform="translate(0 192)">
    <path d="M 27.5778,23.0881 L 29.1288,21.5798 C 29.4200,21.7203 29.6965,21.8922 29.9549,22.0919 L 29.6764,24.3859 L 31.7137,24.5630 C 31.8302,24.8898 31.9197,25.2322 31.9789,25.5869 L 30.3509,26.9861 L 31.6811,28.7446 C 31.5573,29.0748 31.4057,29.3882 31.2295,29.6813 L 29.2062,29.3653 L 29.0501,31.6754 C 28.7618,31.8075 28.4597,31.9089 28.1469,31.9761 L 26.9130,30.1301 L 25.3620,31.6384 C 25.0708,31.4980 24.7943,31.3261 24.5358,31.1264 L 24.8144,28.8323 L 22.7771,28.6553 C 22.6605,28.3285 22.5711,27.9860 22.5119,27.6313 L 24.1400,26.2322 L 22.8098,24.4736 C 22.9335,24.1436 23.0851,23.8300 23.2613,23.5371 L 25.2846,23.8529 L 25.4407,21.5429 C 25.7289,21.4107 26.0310,21.3093 26.3438,21.2422 L 27.5778,23.0881 M 27.2454,24.4242 C 26.1811,24.4242 25.3183,25.4024 25.3183,26.6092 C 25.3183,27.8159 26.1811,28.7941 27.2454,28.7941 C 28.3097,28.7941 29.1724,27.8159 29.1724,26.6092 C 29.1724,25.4024 28.3097,24.4242 27.2454,24.4242 M 14.0087,14.2846 L 17.1644,14.2846 L 17.1644,17.8626 L 14.0087,17.8626 L 14.0087,14.2846 M 14.0087,19.2043 L 17.1644,19.2043 L 17.1644,22.7822 L 14.0087,22.7822 L 14.0087,19.2043 M 18.7423,14.2846 L 28.9982,14.2846 L 28.9982,17.8626 L 18.7423,17.8626 L 18.7423,14.2846 M 14.0087,24.1240 L 17.1644,24.1240 L 17.1644,27.7020 L 14.0087,27.7020 L 14.0087,24.1240 M 18.7423,19.2043 L 28.9982,19.2043 L 28.9982,21.0524 L 27.6386,22.2944 L 26.3919,20.5460 L 25.0658,21.1456 L 24.7810,22.7822 L 24.1660,22.7822 L 22.4401,22.5201 L 22.2902,22.7822 L 18.7423,22.7822 L 18.7423,19.2043 M 18.7423,24.1240 L 22.0061,24.1240 L 23.2427,26.1126 L 21.6130,27.7020 L 18.7423,27.7020 L 18.7423,24.1240 M 27.2231,25.0185 C 27.9856,25.0185 28.6037,25.7193 28.6037,26.5838 C 28.6037,27.4484 27.9856,28.1492 27.2231,28.1492 C 26.4606,28.1492 25.8425,27.4484 25.8425,26.5838 C 25.8425,25.7193 26.4606,25.0185 27.2231,25.0185 Z " style="fill: var(--icon-color);"/>
  </g>
  <view id="recipes" viewBox="48 192 48 48"/>
  <g transform="translate(48 192)">
    <path d="M 31.7600,13.7427 C 31.6413,13.5528 31.4456,13.4197 31.2198,13.3762 L 19.2372,10.6130 C 18.8422,10.5398 18.4526,10.7484 18.3159,11.1093 L 13.7485,22.2085 L 15.2733,22.7402 L 19.6018,12.1865 L 30.0133,14.7279 C 29.3631,16.6561 27.8158,20.6806 26.3326,24.4279 C 25.0395,27.6975 24.2954,28.8170 22.8811,29.0457 C 22.8794,29.0441 22.8779,29.0425 22.8779,29.0401 C 19.9874,29.4277 20.0393,25.9029 20.0393,25.9029 L 10.8080,22.3360 C 10.1520,26.3134 13.3469,27.2700 13.3469,27.2700 L 20.1055,30.2052 C 20.1072,30.2060 21.1623,30.6867 22.3090,30.6372 C 25.4020,30.5676 26.4889,28.4193 27.8509,24.9774 C 29.8185,20.0032 31.8157,14.4296 31.8353,14.3705 C 31.9057,14.1596 31.8779,13.9322 31.7600,13.7427 Z " style="fill: var(--icon-color);"/>
    <path d="M 26.2981,18.2187 C 26.3684,18.2371 26.4414,18.2469 26.5133,18.2469 C 26.8693,18.2469 27.1950,18.0198 27.2947,17.6753 C 27.4135,17.2615 27.1573,16.8340 26.7252,16.7213 L 23.2084,15.6830 C 22.7812,15.5700 22.3293,15.8130 22.2115,16.2264 C 22.0936,16.6401 22.3474,17.0676 22.7811,17.1808 L 26.2981,18.2187 Z " style="fill: var(--icon-color);"/>
    <path d="M 20.8030,19.3359 C 20.6621,19.7435 20.8908,20.1823 21.3158,20.3183 L 24.8142,21.5142 C 24.8991,21.5412 24.9826,21.5533 25.0668,21.5538 C 25.4080,21.5555 25.7277,21.3496 25.8416,21.0236 C 25.9830,20.6171 25.7546,20.1777 25.3279,20.0418 L 21.8308,18.8466 C 21.4036,18.7114 20.9456,18.9303 20.8030,19.3359 Z " style="fill: var(--icon-color);"/>
    <path d="M 20.4952,22.0869 C 20.0696,21.9506 19.6100,22.1729 19.4709,22.5817 C 19.3309,22.9873 19.5642,23.4273 19.9897,23.5603 L 23.4955,24.7513 C 23.5800,24.7786 23.6641,24.7903 23.7493,24.7903 C 24.0898,24.7903 24.4074,24.5829 24.5196,24.2572 C 24.6595,23.8493 24.4271,23.4101 24.0014,23.2769 L 20.4952,22.0869 Z " style="fill: var(--icon-color);"/>
    <path d="M 20.3654,14.7777 C 20.8622,14.7777 21.2654,15.1528 21.2654,15.6147 C 21.2654,16.0769 20.8622,16.4516 20.3654,16.4516 C 19.8682,16.4516 19.4651,16.0769 19.4651,15.6147 C 19.4651,15.1528 19.8682,14.7777 20.3654,14.7777 Z " style="fill: var(--icon-color);"/>
    <path d="M 19.0922,17.8891 C 19.5895,17.8891 19.9922,18.2637 19.9922,18.7255 C 19.9922,19.1872 19.5895,19.5617 19.0922,19.5617 C 18.5951,19.5617 18.1919,19.1872 18.1919,18.7255 C 18.1919,18.2637 18.5951,17.8891 19.0922,17.8891 Z " style="fill: var(--icon-color);"/>
    <path d="M 17.7344,21.0991 C 18.2317,21.0991 18.6348,21.4740 18.6348,21.9368 C 18.6348,22.3987 18.2317,22.7729 17.7344,22.7729 C 17.2372,22.7729 16.8341,22.3988 16.8341,21.9368 C 16.8341,21.4740 17.2372,21.0991 17.7344,21.0991 Z " style="fill: var(--icon-color);"/>
  </g>
  <view id="search" viewBox="96 192 48 48"/>
  <g transform="translate(96 192)">
    <path d="M 25.5274,16.2758 C 22.9336,13.7077 18.7119,13.7077 16.1181,16.2758 C 13.5249,18.8443 13.5249,23.0236 16.1181,25.5923 C 18.4280,27.8787 22.0254,28.1237 24.6177,26.3382 C 24.6722,26.5939 24.7971,26.8377 24.9977,27.0363 L 28.7752,30.7763 C 29.3257,31.3202 30.2152,31.3202 30.7628,30.7763 C 31.3127,30.2319 31.3127,29.3511 30.7628,28.8084 L 26.9854,25.0672 C 26.7858,24.8702 26.5389,24.7461 26.2809,24.6921 C 28.0853,22.1252 27.8379,18.5638 25.5274,16.2758 M 24.3348,24.4115 C 22.3983,26.3288 19.2466,26.3288 17.3107,24.4115 C 15.3754,22.4942 15.3754,19.3744 17.3107,17.4572 C 19.2466,15.5404 22.3983,15.5404 24.3348,17.4572 C 26.2714,19.3744 26.2714,22.4942 24.3348,24.4115 Z " style="fill: var(--icon-color);"/>
  </g>
  <view id="settings-bars" viewBox="144 192 48 48"/>
  <g transform="translate(144 192)">
    <path d="M 10.8594,27.6213 L 10.8594,29.8094 L 17.9045,29.8094 L 17.9045,27.6213 L 10.8594,27.6213 M 10.8594,14.4856 L 10.8594,16.6737 L 22.6048,16.6737 L 22.6048,14.4856 L 10.8594,14.4856 M 22.6048,32.0000 L 22.6048,29.8094 L 32.0000,29.8094 L 32.0000,27.6213 L 22.6048,27.6213 L 22.6048,25.4308 L 20.2546,25.4308 L 20.2546,32.0000 L 22.6048,32.0000 M 15.5597,18.8642 L 15.5597,21.0523 L 10.8594,21.0523 L 10.8594,23.2428 L 15.5597,23.2428 L 15.5597,25.4308 L 17.9045,25.4308 L 17.9045,18.8642 L 15.5597,18.8642 M 32.0000,23.2428 L 32.0000,21.0523 L 20.2546,21.0523 L 20.2546,23.2428 L 32.0000,23.2428 M 24.9549,18.8642 L 27.2996,18.8642 L 27.2996,16.6737 L 32.0000,16.6737 L 32.0000,14.4856 L 27.2997,14.4856 L 27.2997,12.2951 L 24.9549,12.2951 C 24.9549,12.2951 24.9549,18.8642 24.9549,18.8642 Z " style="fill: var(--icon-color);"/>
  </g>
  <view id="settings" viewBox="192 192 48 48"/>
  <g transform="translate(192 192)">
    <path d="M 23.8348,24.2710 C 23.8886,23.7066 23.8724,23.1441 23.7907,22.5951 L 25.0614,22.0293 C 24.9414,21.4144 24.7526,20.8079 24.4909,20.2209 C 24.2291,19.6343 23.9041,19.0886 23.5273,18.5877 L 22.2557,19.1531 C 21.9019,18.7256 21.4942,18.3375 21.0383,17.9995 L 21.5368,16.7023 C 21.0162,16.3526 20.4536,16.0571 19.8530,15.8269 C 19.2549,15.5975 18.6406,15.4389 18.0158,15.3510 L 17.5169,16.6494 C 16.9518,16.5958 16.3887,16.6120 15.8390,16.6936 L 15.2759,15.4305 C 14.0180,15.6774 12.8428,16.2103 11.8338,16.9717 L 12.3931,18.2264 C 11.9642,18.5798 11.5757,18.9874 11.2373,19.4424 L 9.9420,18.9462 C 9.5885,19.4649 9.2922,20.0273 9.0613,20.6268 C 8.8325,21.2263 8.6758,21.8415 8.5879,22.4615 L 9.8866,22.9593 C 9.8328,23.5239 9.8491,24.0862 9.9307,24.6353 L 8.6600,25.2007 C 8.7800,25.8159 8.9688,26.4221 9.2306,27.0090 C 9.4927,27.5961 9.8174,28.1414 10.1946,28.6422 L 11.4653,28.0769 C 11.8191,28.5048 12.2268,28.8928 12.6831,29.2308 L 12.1846,30.5289 C 12.7052,30.8790 13.2678,31.1742 13.8684,31.4044 C 14.4665,31.6337 15.0809,31.7923 15.7056,31.8802 L 16.2045,30.5817 C 16.7697,30.6351 17.3327,30.6188 17.8825,30.5372 L 18.4455,31.7999 C 19.7034,31.5530 20.8795,31.0201 21.8881,30.2587 L 21.3283,29.0040 C 21.7568,28.6505 22.1457,28.2434 22.4841,27.7879 L 23.7786,28.2842 C 24.1321,27.7655 24.4283,27.2030 24.6593,26.6040 C 24.8897,26.0046 25.0460,25.3889 25.1340,24.7685 L 23.8348,24.2710 M 20.3827,24.9651 C 19.6362,26.9083 17.4544,27.8783 15.5085,27.1327 C 13.5651,26.3875 12.5927,24.2086 13.3387,22.2658 C 14.0852,20.3229 16.2670,19.3530 18.2117,20.0977 C 20.1568,20.8428 21.1287,23.0226 20.3827,24.9651 Z " style="fill: var(--icon-color);"/>
    <path d="M 30.8622,13.6625 C 30.8458,13.4116 30.8038,13.1678 30.7441,12.9323 L 31.6791,12.3077 C 31.3850,11.4292 30.8650,10.6594 30.1842,10.0691 L 29.2467,10.6949 C 28.8540,10.4011 28.4067,10.1801 27.9247,10.0448 L 27.8508,8.9220 C 27.4139,8.8326 26.9599,8.7948 26.4946,8.8252 C 26.0292,8.8558 25.5846,8.9533 25.1626,9.0982 L 25.2364,10.2215 C 24.7761,10.4185 24.3621,10.6964 24.0107,11.0386 L 22.9990,10.5404 C 22.4021,11.2145 21.9869,12.0457 21.8098,12.9552 L 22.8190,13.4522 C 22.7906,13.6940 22.7805,13.9403 22.7970,14.1916 C 22.8135,14.4429 22.8558,14.6863 22.9156,14.9219 L 21.9801,15.5464 C 22.2747,16.4249 22.7951,17.1952 23.4750,17.7851 L 24.4125,17.1592 C 24.8057,17.4530 25.2524,17.6740 25.7346,17.8093 L 25.8084,18.9326 C 26.2456,19.0215 26.6993,19.0598 27.1647,19.0293 C 27.6300,18.9988 28.0756,18.9012 28.4966,18.7563 L 28.4228,17.6331 C 28.8831,17.4360 29.2976,17.1581 29.6485,16.8160 L 30.6598,17.3141 C 31.2575,16.6400 31.6724,15.8088 31.8490,14.8995 L 30.8403,14.4024 C 30.8690,14.1602 30.8787,13.9138 30.8622,13.6625 M 26.9538,15.8070 C 25.9141,15.8751 25.0158,15.0888 24.9475,14.0506 C 24.8794,13.0126 25.6671,12.1153 26.7067,12.0471 C 27.7452,11.9790 28.6435,12.7654 28.7117,13.8035 C 28.7799,14.8416 27.9923,15.7389 26.9538,15.8070 Z " style="fill: var(--icon-color);"/>
  </g>
  <view id="switch" viewBox="240 192 48 48"/>
  <g transform="translate(240 192)">
    <path d="M 31.8012,20.3636 L 31.8012,29.6727 C 31.8012,30.3709 31.4832,30.8363 31.0062,30.8363 L 3.9752,30.8363 C 3.4981,30.8363 3.1802,30.3708 3.1802,29.6727 L 3.1802,20.3636 C 3.1801,19.6655 3.4981,19.2000 3.9752,19.2000 L 31.0062,19.2000 C 31.4037,19.2000 31.8012,19.6655 31.8012,20.3636 Z " style="fill: var(--icon-color);"/>
    <path d="M 16.6957,27.3455 C 16.2186,27.3455 15.9007,26.8800 15.9007,26.1819 L 15.9007,23.8545 C 15.9007,23.1563 16.2187,22.6909 16.6957,22.6909 C 17.1727,22.6909 17.4907,23.1564 17.4907,23.8545 L 17.4907,26.1818 C 17.4907,26.8800 17.1726,27.3455 16.6957,27.3455 Z " style="fill: var(--icon-color);"/>
    <path d="M 19.0807,27.3455 C 18.6037,27.3455 18.2857,26.8800 18.2857,26.1819 L 18.2857,23.8545 C 18.2857,23.1563 18.6038,22.6909 19.0807,22.6909 C 19.5577,22.6909 19.8758,23.1564 19.8758,23.8545 L 19.8758,26.1818 C 19.8758,26.8800 19.5578,27.3455 19.0807,27.3455 Z " style="fill: var(--icon-color);"/>
    <path d="M 21.4658,27.3455 C 20.9888,27.3455 20.6708,26.8800 20.6708,26.1819 L 20.6708,23.8545 C 20.6708,23.1563 20.9889,22.6909 21.4658,22.6909 C 21.9428,22.6909 22.2608,23.1564 22.2608,23.8545 L 22.2608,26.1818 C 22.2608,26.8800 21.9429,27.3455 21.4658,27.3455 Z " style="fill: var(--icon-color);"/>
    <path d="M 23.8509,27.3455 C 23.3739,27.3455 23.0559,26.8800 23.0559,26.1819 L 23.0559,23.8545 C 23.0559,23.1563 23.3740,22.6909 23.8509,22.6909 C 24.3280,22.6909 24.6459,23.1564 24.6459,23.8545 L 24.6459,26.1818 C 24.6459,26.8800 24.3280,27.3455 23.8509,27.3455 Z " style="fill: var(--icon-color);"/>
    <path d="M 26.2360,27.3455 C 25.7590,27.3455 25.4410,26.8800 25.4410,26.1819 L 25.4410,23.8545 C 25.4410,23.1563 25.7590,22.6909 26.2360,22.6909 C 26.7130,22.6909 27.0310,23.1564 27.0310,23.8545 L 27.0310,26.1818 C 27.0310,26.8800 26.7130,27.3455 26.2360,27.3455 Z " style="fill: var(--icon-color);"/>
    <path d="M 28.6211,27.3455 C 28.1441,27.3455 27.8261,26.8800 27.8261,26.1819 L 27.8261,23.8545 C 27.8261,23.1563 28.1441,22.6909 28.6211,22.6909 C 29.0981,22.6909 29.4161,23.1564 29.4161,23.8545 L 29.4161,26.1818 C 29.4161,26.8800 29.0981,27.3455 28.6211,27.3455 Z " style="fill: var(--icon-color);"/>
    <path d="M 7.1553,25.0182 C 7.1553,25.6608 6.7993,26.1818 6.3602,26.1818 C 5.9212,26.1818 5.5652,25.6608 5.5652,25.0182 C 5.5652,24.3756 5.9212,23.8546 6.3602,23.8546 C 6.7993,23.8546 7.1553,24.3756 7.1553,25.0182 Z " style="fill: var(--icon-color);"/>
    <path d="M 9.5403,25.0182 C 9.5403,25.6608 9.1844,26.1818 8.7453,26.1818 C 8.3063,26.1818 7.9503,25.6608 7.9503,25.0182 C 7.9503,24.3756 8.3063,23.8546 8.7453,23.8546 C 9.1844,23.8546 9.5403,24.3756 9.5403,25.0182 Z " style="fill: var(--icon-color);"/>
    <path d="M 11.9254,25.0182 C 11.9254,25.6608 11.5695,26.1818 11.1304,26.1818 C 10.6914,26.1818 10.3354,25.6608 10.3354,25.0182 C 10.3354,24.3756 10.6914,23.8546 11.1304,23.8546 C 11.5695,23.8546 11.9254,24.3756 11.9254,25.0182 Z " style="fill: var(--icon-color);"/>
    <path d="M 20.2733,20.3636 L 5.1677,20.3636 C 4.9292,20.3636 4.7702,20.1309 4.7702,19.7818 C 4.7702,19.4327 4.9292,19.2000 5.1677,19.2000 L 20.2733,19.2000 C 20.5118,19.2000 20.6708,19.4327 20.6708,19.7818 C 20.6708,20.1309 20.5118,20.3636 20.2733,20.3636 Z " style="fill: var(--icon-color);"/>
    <path d="M 31.4037,21.5273 C 31.1652,21.5273 31.0062,21.7600 31.0062,22.1091 L 31.0062,29.6727 L 3.1801,29.6727 C 3.1801,30.3709 3.4981,30.8363 3.9751,30.8363 L 31.0061,30.8363 C 31.4831,30.8363 31.8011,30.3708 31.8011,29.6727 L 31.8011,22.1091 C 31.8012,21.7600 31.6422,21.5273 31.4037,21.5273 Z " style="fill: var(--icon-color);"/>
    <path d="M 5.5652,30.8364 L 29.4162,30.8364 L 29.4162,32.0000 L 5.5652,32.0000 L 5.5652,30.8364 Z " style="fill: var(--icon-color);"/>
  </g>
  <view id="usermanagement" viewBox="288 192 48 48"/>
  <g transform="translate(288 192)">
    <path d="M 21.3915,14.7308 C 22.5933,14.7308 23.5675,15.8025 23.5675,17.1247 C 23.5675,18.4468 22.5933,19.5187 21.3915,19.5187 C 20.1896,19.5187 19.2153,18.4468 19.2153,17.1247 C 19.2153,15.8025 20.1896,14.7308 21.3915,14.7308 M 19.2153,22.5335 C 18.9252,22.6930 18.4469,24.0820 18.7092,24.2691 L 17.2966,23.9832 C 18.2576,23.6002 18.4500,22.9603 18.5281,21.7929 L 18.4541,21.0670 C 18.7696,20.7780 19.2364,20.1396 19.6505,20.1396 L 23.1323,20.1396 C 23.5554,20.1396 23.9272,20.3376 24.2476,20.6374 L 24.4515,21.4637 C 24.4515,22.4393 25.1271,22.7327 25.8331,23.2051 L 24.8460,23.1824 C 24.5893,23.1724 24.3517,23.2359 24.1328,23.3516 C 23.9475,23.0011 23.7184,22.6164 23.5675,22.5335 L 23.6165,23.7454 C 22.6953,24.6761 22.2346,26.4316 22.2346,26.4316 L 22.0755,27.3012 L 21.6090,27.3213 C 21.2960,27.3213 20.9887,27.2944 20.6889,27.2425 C 20.4503,26.5451 19.9300,25.2862 19.1283,24.6990 L 19.2153,22.5335 M 15.9784,19.1969 C 17.1803,19.1969 18.1545,20.2687 18.1545,21.5908 C 18.1545,22.9129 17.1803,23.9848 15.9784,23.9848 C 14.7765,23.9848 13.8023,22.9129 13.8023,21.5908 C 13.8023,20.2687 14.7765,19.1969 15.9784,19.1969 M 13.8023,26.9996 C 13.5121,27.1592 12.9318,28.4359 12.9318,28.4359 C 12.9318,28.4359 12.6418,28.9148 12.4966,30.8298 L 11.1910,30.3511 L 11.6261,27.9572 C 11.6261,27.9572 12.4966,24.6057 14.2375,24.6057 L 17.7192,24.6057 C 19.4602,24.6057 20.3306,27.9572 20.3306,27.9572 L 20.7658,30.3511 L 19.4602,30.8298 C 19.3151,28.9148 19.0250,28.4359 19.0250,28.4359 C 19.0250,28.4359 18.4447,27.1592 18.1545,26.9996 L 18.3303,31.3478 C 17.6687,31.6316 16.9489,31.7874 16.1960,31.7874 C 15.2783,31.7874 14.4096,31.5559 13.6357,31.1432 L 13.8023,26.9996 M 26.9949,18.2907 C 28.1967,18.3378 29.1711,19.4477 29.1711,20.7698 C 29.1711,22.0920 28.1967,23.1256 26.9949,23.0786 C 25.7931,23.0315 24.8188,21.9215 24.8188,20.5994 C 24.8188,19.2772 25.7931,18.2437 26.9949,18.2907 M 24.8188,26.0081 C 24.5287,26.1563 23.9484,27.4104 23.9484,27.4104 C 23.9484,27.4104 23.6582,27.8778 23.5132,29.7873 L 22.2075,29.2573 L 22.6427,26.8805 C 22.6427,26.8805 23.5132,23.5631 25.2540,23.6313 L 28.7358,23.7677 C 30.4767,23.8358 31.3471,27.2214 31.3471,27.2214 L 31.7823,29.6324 L 30.4767,30.0600 C 30.3316,28.1392 30.0414,27.6491 30.0414,27.6491 C 30.0414,27.6491 29.4611,26.3496 29.1711,26.1786 L 29.3468,30.5337 C 28.6853,30.7916 27.9655,30.9192 27.2126,30.8897 C 26.2947,30.8538 25.4261,30.5882 24.6522,30.1452 L 24.8188,26.0081 Z " style="fill: var(--icon-color);"/>
  </g>
  <view id="users" viewBox="0 240 48 48"/>
  <g transform="translate(0 240)">
    <path d="M 31.0029,18.5235 C 30.5257,17.3886 29.8427,16.3747 28.9736,15.4973 C 28.1045,14.6237 27.0919,13.9374 25.9628,13.4578 C 24.7988,12.9664 23.5573,12.7129 22.2807,12.7129 C 21.0043,12.7129 19.7627,12.9664 18.5948,13.4617 C 17.4696,13.9413 16.4569,14.6276 15.5878,15.5012 C 14.7187,16.3747 14.0359,17.3926 13.5586,18.5273 C 13.0658,19.6973 12.8137,20.9452 12.8137,22.2282 C 12.8137,23.5113 13.0658,24.7591 13.5586,25.9329 C 14.0359,27.0678 14.7187,28.0856 15.5878,28.9591 C 16.4569,29.8327 17.4696,30.5190 18.5987,30.9986 C 19.7666,31.4939 21.0081,31.7474 22.2846,31.7474 C 23.5612,31.7474 24.8027,31.4939 25.9706,30.9986 C 27.0997,30.5190 28.1084,29.8327 28.9814,28.9591 C 29.8505,28.0856 30.5334,27.0678 31.0106,25.9329 C 31.5034,24.7591 31.7556,23.5113 31.7556,22.2282 C 31.7556,20.9452 31.4956,19.6973 31.0029,18.5235 M 28.2830,27.2706 C 28.2093,27.0756 28.0851,26.9001 27.9222,26.7675 C 26.3741,25.4883 24.7019,24.6382 24.3604,24.4706 C 24.3216,24.4510 24.2983,24.4120 24.2983,24.3692 L 24.2983,21.9436 C 24.6009,21.7407 24.8027,21.3936 24.8027,20.9998 L 24.8027,18.4845 C 24.8027,17.2326 23.7939,16.2187 22.5484,16.2187 L 22.2807,16.2187 L 22.0130,16.2187 C 20.7676,16.2187 19.7588,17.2326 19.7588,18.4845 L 19.7588,20.9998 C 19.7588,21.3936 19.9605,21.7407 20.2631,21.9436 L 20.2631,24.3692 C 20.2631,24.4120 20.2399,24.4510 20.2011,24.4706 C 19.8597,24.6382 18.1913,25.4883 16.6393,26.7675 C 16.4763,26.9039 16.3522,27.0795 16.2785,27.2706 C 15.1417,25.9056 14.4549,24.1468 14.4549,22.2282 C 14.4549,17.8917 17.9662,14.3624 22.2807,14.3624 C 26.5952,14.3624 30.1066,17.8917 30.1066,22.2282 C 30.1066,24.1468 29.4238,25.9056 28.2830,27.2706 Z " style="fill: var(--icon-color);"/>
  </g>
  <view id="variables" viewBox="48 240 48 48"/>
  <g transform="translate(48 240)">
    <path d="M 20.6766,11.7909 C 25.3712,11.7909 29.1770,15.6706 29.1770,20.4565 C 29.1770,25.2424 25.3712,29.1221 20.6766,29.1221 C 15.9820,29.1221 12.1762,25.2424 12.1762,20.4565 C 12.1762,15.6706 15.9820,11.7909 20.6766,11.7909 M 20.6766,13.0288 C 20.3080,13.0288 19.9458,13.0567 19.5919,13.1106 C 19.5162,13.2787 19.4623,13.4633 19.4623,13.6478 C 19.4623,14.2668 18.8551,13.0288 18.2479,14.2668 C 17.6407,15.5047 18.2479,14.2668 18.2479,15.5047 C 18.2479,16.1237 17.3692,15.6758 17.6407,15.8142 C 18.2479,16.1237 18.2479,16.1237 17.6407,16.7427 C 17.6407,16.7427 16.4264,16.1237 16.4264,16.7427 C 16.4264,17.3616 15.8192,17.3616 15.2120,17.3616 C 14.6049,17.3616 15.2120,18.5995 14.6049,18.5995 C 14.1380,18.5995 14.3891,17.8677 13.9781,17.5294 C 13.8219,17.9005 13.6944,18.2872 13.5987,18.6864 C 14.0079,19.0602 14.0764,20.5368 14.6049,21.0755 C 15.2120,20.4565 15.2120,21.0755 15.8192,21.0755 C 16.4264,21.0755 16.4264,21.0755 16.7299,21.6944 C 17.3371,21.6944 17.6407,22.3134 18.2479,22.9324 C 18.8551,23.5514 20.0694,23.5514 20.0694,24.1703 C 20.0694,24.7892 19.4623,24.1703 19.4623,25.4082 C 19.4623,26.0272 19.4623,26.0272 18.8551,26.0272 C 18.4728,26.0272 18.0904,26.7634 17.8597,27.3087 C 18.7263,27.6793 19.6780,27.8841 20.6766,27.8841 C 22.7159,27.8841 24.5595,27.0301 25.8820,25.6536 L 25.5339,24.9440 C 25.5339,24.9440 26.2928,23.7061 25.6857,23.0871 C 25.0785,22.4682 25.0785,21.8491 25.0785,21.8491 C 25.0785,21.8491 23.8642,23.0871 23.2570,22.4681 C 22.6499,21.8491 22.6499,22.4681 22.0427,21.2302 C 21.4355,19.9923 22.6499,19.3733 22.6499,19.3733 C 22.6499,19.3733 22.6499,18.1353 23.2570,18.1353 C 23.8642,18.1353 24.4714,16.8974 25.6857,18.1353 C 25.6857,18.1353 26.3874,17.6585 27.3803,17.5419 C 27.0688,16.7984 26.6419,16.1174 26.1225,15.5220 C 26.0135,15.6020 25.8708,15.6594 25.6857,15.6594 C 25.0785,15.6594 26.2928,16.8974 25.6857,16.8974 C 25.0785,16.8974 25.0785,16.2784 24.4714,16.2784 C 23.8642,16.2784 23.8642,16.8974 23.2570,17.5164 C 22.6499,18.1353 23.2570,17.5164 22.6499,16.8974 C 22.0427,16.2784 23.8642,16.8974 23.2570,16.2784 C 22.6499,15.6594 23.8642,15.6594 23.8642,15.0405 C 23.8642,14.5550 24.6112,14.4503 24.9334,14.4277 C 24.5831,14.1701 24.2093,13.9435 23.8642,13.8026 C 24.4714,14.4215 23.2570,15.0405 22.6499,15.0405 C 22.0796,15.0405 22.5806,13.9482 22.6436,13.3027 C 22.0179,13.1243 21.3581,13.0288 20.6766,13.0288 M 13.3905,20.4565 C 13.3905,22.6412 14.3158,24.6056 15.7885,25.9646 L 15.2120,24.7892 C 14.6049,24.7892 14.3013,23.3966 14.3013,22.7776 C 14.3013,22.2809 14.1057,21.8838 14.3424,21.4265 C 13.4857,20.5494 13.9977,21.0249 13.9977,20.4565 C 13.9977,20.1618 13.7225,19.8672 13.4342,19.6392 C 13.4053,19.9076 13.3905,20.1803 13.3905,20.4565 Z " style="fill: var(--icon-color);"/>
  </g>
  <view id="warning" viewBox="96 240 48 48"/>
  <g transform="translate(96 240)">
    <path d="M 30.9376,26.4640 L 24.0355,14.5080 C 22.9082,12.5329 20.0574,12.5329 18.9341,14.5080 L 12.0280,26.4640 C 10.9007,28.4392 12.3038,30.8928 14.5788,30.8928 L 28.3625,30.8928 C 30.6375,30.8928 32.0649,28.4147 30.9376,26.4640 M 21.4807,28.2403 C 20.8806,28.2403 20.3818,27.7415 20.3818,27.1413 C 20.3818,26.5411 20.8806,26.0423 21.4807,26.0423 C 22.0809,26.0423 22.5798,26.5411 22.5554,27.1697 C 22.5838,27.7415 22.0566,28.2403 21.4807,28.2403 M 22.4824,21.1349 C 22.4338,21.9866 22.3811,22.8342 22.3324,23.6859 C 22.3080,23.9617 22.3080,24.2131 22.3080,24.4848 C 22.2837,24.9350 21.9309,25.2838 21.4807,25.2838 C 21.0306,25.2838 20.6819,24.9594 20.6535,24.5092 C 20.5805,23.1830 20.5034,21.8812 20.4305,20.5550 C 20.4061,20.2062 20.3818,19.8534 20.3534,19.5046 C 20.3534,18.9287 20.6779,18.4542 21.2051,18.3041 C 21.7322,18.1784 22.2553,18.4298 22.4824,18.9287 C 22.5594,19.1031 22.5838,19.2775 22.5838,19.4802 C 22.5594,20.0358 22.5067,20.5874 22.4824,21.1349 Z " style="fill: var(--icon-color);"/>
  </g>
</svg>
